<?xml version="1.0" encoding="UTF-8" standalone="no"?>
<!-- Created with Inkscape (http://www.inkscape.org/) -->

<svg
   version="1.1"
   id="svg336"
   width="1587.52"
   height="842.23999"
   viewBox="0 0 1587.52 842.23999"
   sodipodi:docname="altar.svg"
   inkscape:version="1.2.2 (732a01da63, 2022-12-09)"
   xml:space="preserve"
   xmlns:inkscape="http://www.inkscape.org/namespaces/inkscape"
   xmlns:sodipodi="http://sodipodi.sourceforge.net/DTD/sodipodi-0.dtd"
   xmlns="http://www.w3.org/2000/svg"
   xmlns:svg="http://www.w3.org/2000/svg"><defs
     id="defs340" /><sodipodi:namedview
     id="namedview338"
     pagecolor="#505050"
     bordercolor="#eeeeee"
     borderopacity="1"
     inkscape:showpageshadow="0"
     inkscape:pageopacity="0"
     inkscape:pagecheckerboard="0"
     inkscape:deskcolor="#505050"
     showgrid="false"
     inkscape:zoom="0.44503376"
     inkscape:cx="585.34885"
     inkscape:cy="468.50378"
     inkscape:window-width="1920"
     inkscape:window-height="991"
     inkscape:window-x="-9"
     inkscape:window-y="-9"
     inkscape:window-maximized="1"
     inkscape:current-layer="g342" /><g
     inkscape:groupmode="layer"
     inkscape:label="Image"
     id="g342"><path
       style="fill:#000000"
       id="path487"
       d="" /><path
       style="fill:#333333;stroke-width:1.47582"
       d="M 214.98993,584.30861 C 148.08509,576.55061 89.459983,529.04274 67.593923,464.86369 37.390993,376.2151 80.271513,279.94514 166.5812,242.62985 c 6.57004,-2.8405 18.46262,-6.92262 26.42795,-9.0714 13.33225,-3.59656 16.76806,-3.90685 43.26087,-3.90685 26.4928,0 29.92861,0.31029 43.26086,3.90685 110.86839,29.9084 166.56385,149.58982 116.94848,251.30516 -33.52388,68.72654 -105.63767,108.24044 -181.48943,99.445 z m -71.18801,-87.09304 c 11.60424,-3.22221 13.11267,-5.77857 55.66504,-94.33615 22.03642,-45.86099 40.30245,-83.63457 40.59115,-83.94132 0.2887,-0.30673 5.49569,9.84266 11.57109,22.5542 l 11.04617,23.1119 -30.91247,62.18853 c -17.00186,34.2037 -30.91247,62.98942 -30.91247,63.96827 0,2.4785 13.53635,8.05329 19.4592,8.01405 6.66178,-0.0441 16.0581,-4.54032 20.44889,-9.78487 1.99567,-2.38372 12.22969,-21.73673 22.74228,-43.00669 10.51259,-21.26996 19.56007,-38.17547 20.1055,-37.56778 0.54544,0.60768 9.09725,18.03987 19.00402,38.73819 9.90679,20.69832 19.78665,39.54337 21.95526,41.8779 4.93395,5.31142 14.23289,9.70079 20.64123,9.74325 5.25106,0.0348 19.4592,-5.42368 19.4592,-7.47583 0,-3.23341 -95.33907,-197.72105 -99.77338,-203.53345 -14.29958,-18.74355 -33.0317,-19.16203 -46.05672,-1.02893 -3.69325,5.14164 -103.58281,203.13753 -103.58281,205.31646 0,0.42192 9.4708,4.55723 13.28234,5.79959 3.78844,1.23481 9.36226,1.00212 15.26648,-0.63732 z m 1008.94988,86.45916 c -14.5766,-3.28865 -30.4468,-11.76935 -39.8532,-21.29655 -34.7773,-35.22462 -24.6311,-94.84617 19.7042,-115.78562 16.7387,-7.90568 22.2817,-8.66434 68.482,-9.37295 l 43.1676,-0.66209 v -9.93001 c 0,-26.24733 -12.8927,-40.26292 -40.0813,-43.57187 -9.7415,-1.18559 -24.5478,1.14458 -32.2541,5.07604 -6.0101,3.06611 -15.3992,12.80902 -16.8997,17.53623 -0.9578,3.01771 -1.8192,3.11477 -27.6469,3.11477 h -26.6584 l 0.8434,-5.19732 c 0.4639,-2.85854 3.276,-10.25487 6.2492,-16.4363 11.303,-23.49993 36.8912,-42.90632 64.1328,-48.63923 16.0446,-3.37651 49.9952,-2.10835 64.198,2.39799 15.048,4.7745 25.7859,10.62499 35.0636,19.10437 10.415,9.5187 16.6332,19.23865 21.5288,33.65232 l 3.8815,11.42863 0.4612,88.18001 0.4614,88.18001 h -10.1429 c -5.5786,0 -13.3709,-1.0999 -17.3162,-2.44423 -9.0568,-3.08595 -19.0846,-12.88248 -21.5253,-21.02879 -0.9958,-3.32382 -2.1022,-6.0433 -2.4585,-6.0433 -0.3562,0 -3.5902,3.27277 -7.1866,7.27282 -8.0392,8.94147 -22.3009,18.12262 -34.7352,22.36116 -12.2192,4.16524 -37.6638,5.20642 -51.4154,2.10391 z m 54.8187,-46.50284 c 23.1472,-7.30109 36.6819,-26.23924 36.6819,-51.32605 v -9.47425 l -36.5265,0.51827 -36.5264,0.51827 -8.6328,4.23892 c -11.7451,5.76714 -17.194,14.12613 -17.194,26.37753 0,15.30775 8.2591,26.05922 23.6036,30.72681 7.7047,2.34367 28.9074,1.47594 38.5942,-1.5795 z m -724.78394,43.31278 c 0.0304,-0.68488 26.15717,-72.63784 58.05947,-159.89546 l 58.00421,-158.65022 34.54798,-0.38453 34.54798,-0.38452 57.23321,156.82102 c 31.47827,86.25156 57.63913,158.37956 58.13526,160.28446 l 0.90205,3.46341 -21.23986,-0.54524 c -18.25087,-0.46851 -22.08476,-0.99278 -27.24378,-3.72551 -7.89438,-4.18162 -15.8691,-13.16616 -18.8581,-21.24608 -1.32229,-3.57438 -5.29233,-14.46829 -8.82234,-24.20868 l -6.41819,-17.70979 -68.08323,-0.38367 -68.08322,-0.38365 -2.00945,4.07319 c -1.1052,2.24026 -5.25742,13.25706 -9.22716,24.48177 -7.91715,22.38631 -12.76857,29.73257 -23.3257,35.32095 -5.27919,2.79452 -8.98409,3.31004 -27.14402,3.77701 -11.56671,0.29744 -21.00551,-0.0196 -20.97511,-0.70446 z M 682.7455,460.8052 c -0.55693,-1.42048 -11.59899,-32.05443 -24.53791,-68.07546 -12.93894,-36.02104 -23.93623,-66.15763 -24.43842,-66.9702 -0.54971,-0.88943 -1.38494,-0.63429 -2.09869,0.64111 -1.251,2.23542 -48.5837,134.9734 -48.5837,136.24625 0,0.40753 22.65103,0.74097 50.33564,0.74097 47.34057,0 50.27539,-0.15367 49.32308,-2.58267 z M 814.7899,421.32712 V 261.20108 h 26.56469 26.56469 V 421.32712 581.45316 H 841.35459 814.7899 Z m 181.61858,157.83142 c -5.2248,-1.13297 -13.0827,-3.87285 -17.4621,-6.08861 -10.4794,-5.30209 -22.7483,-18.66395 -27.1494,-29.568 -3.4073,-8.44188 -3.454,-9.34251 -4.1836,-80.85196 l -0.7379,-72.31499 -18.8167,-0.41305 -18.81666,-0.41304 v -24.30688 -24.30687 h 18.92805 18.92801 l 3.5782,-32.09899 3.5781,-32.099 22.5062,-0.4074 22.5062,-0.40739 v 32.50639 32.50639 h 29.51632 29.5164 v 24.35097 24.35096 h -29.5164 -29.51632 l 0.01,59.4016 c 0.01,62.0329 0.5453,68.28958 6.40542,74.66893 6.1781,6.72547 9.876,7.60781 31.8843,7.60781 h 20.7341 v 25.08887 25.08888 l -26.1958,-0.11733 c -16.4574,-0.0738 -29.7272,-0.88311 -35.69532,-2.17729 z M 1353.4627,461.17415 V 340.89514 H 1375.6 c 12.1754,0 22.1372,0.28864 22.1372,0.64142 0,0.74716 4.0362,20.59267 5.2323,25.72689 0.7635,3.27681 1.3014,2.95445 8.6852,-5.20493 14.6296,-16.16625 29.0515,-21.10644 61.7181,-21.14156 l 20.2924,-0.0218 v 25.08888 25.08887 h -16.0325 c -19.0988,0 -28.5649,1.60647 -40.1795,6.81883 -10.0416,4.50639 -22.2063,16.48701 -26.4258,26.02584 -5.0994,11.52794 -5.8885,23.76431 -5.8999,91.49283 l -0.015,66.04277 h -25.8268 -25.8267 z"
       id="path1187" /></g></svg>
