<?xml version="1.0" encoding="UTF-8" standalone="no"?>
<!-- Created with Inkscape (http://www.inkscape.org/) -->

<svg
   version="1.1"
   id="svg336"
   width="1587.52"
   height="842.23999"
   viewBox="0 0 1587.52 842.23999"
   sodipodi:docname="delta.svg"
   inkscape:version="1.2.2 (732a01da63, 2022-12-09)"
   xml:space="preserve"
   xmlns:inkscape="http://www.inkscape.org/namespaces/inkscape"
   xmlns:sodipodi="http://sodipodi.sourceforge.net/DTD/sodipodi-0.dtd"
   xmlns="http://www.w3.org/2000/svg"
   xmlns:svg="http://www.w3.org/2000/svg"><defs
     id="defs340" /><sodipodi:namedview
     id="namedview338"
     pagecolor="#505050"
     bordercolor="#eeeeee"
     borderopacity="1"
     inkscape:showpageshadow="0"
     inkscape:pageopacity="0"
     inkscape:pagecheckerboard="0"
     inkscape:deskcolor="#505050"
     showgrid="false"
     inkscape:zoom="0.44503376"
     inkscape:cx="542.65546"
     inkscape:cy="499.96207"
     inkscape:window-width="1920"
     inkscape:window-height="991"
     inkscape:window-x="-9"
     inkscape:window-y="-9"
     inkscape:window-maximized="1"
     inkscape:current-layer="g342" /><g
     inkscape:groupmode="layer"
     inkscape:label="Image"
     id="g342"><path
       style="fill:#000000"
       id="path487"
       d="" /><path
       style="fill:#333333;stroke-width:1.23589"
       d="m 1015.8084,693.84425 c -7.3451,-1.73112 -16.04503,-6.6568 -21.64073,-12.25255 -22.2785,-22.27851 -15.4721,-64.55174 12.44273,-77.2793 17.6834,-8.06262 41.7739,-5.84681 56.2189,5.17092 l 4.2048,3.20716 -7.7875,7.85739 c -7.7588,7.82839 -7.7969,7.84855 -10.3331,5.46597 -4.2993,-4.03898 -11.9819,-6.59918 -19.9282,-6.64094 -9.8938,-0.052 -17.5316,4.21089 -22.4082,12.50665 -2.9386,4.9992 -3.4274,7.1689 -3.4028,15.10679 0.042,13.50392 5.1303,22.09382 15.7061,26.51263 8.3895,3.50538 26.6721,1.79341 27.0579,-2.53369 0.085,-0.95311 0.1545,-3.67946 0.1545,-6.05854 0,-8.39052 0.3984,-8.03328 -8.9602,-8.03328 h -8.6513 v -9.9185 -9.9185 l 19.4653,0.34036 19.4652,0.34036 0.3355,23.7522 0.3356,23.7522 -5.0701,2.58658 c -12.2257,6.23707 -34.3486,9.06596 -47.2044,6.03609 z M 523.00263,646.94712 V 601.18 l 14.34278,0.34819 14.34277,0.3482 9.97433,26.26264 c 5.48588,14.44446 10.35479,26.26265 10.81978,26.26265 0.46499,0 5.45051,-11.95723 11.07891,-26.57162 l 10.23346,-26.57162 h 14.03955 14.03955 v 45.7279 45.7279 H 611.3919 600.91005 l -0.33218,-27.72879 -0.33217,-27.72879 -10.04014,27.41982 -10.04014,27.41982 h -7.72722 -7.72723 l -10.04014,-27.41982 -10.04014,-27.41982 -0.33217,27.72879 -0.33218,27.72879 h -10.48185 -10.48186 z m 129.76836,0.0392 v -45.7279 h 10.50506 10.50506 v 45.7279 45.7279 h -10.50506 -10.50506 z m 51.90735,-0.0432 v -45.77114 l 12.53556,0.35221 12.53555,0.3522 18.05271,27.74776 18.05269,27.74777 0.61795,-27.74775 0.61794,-27.74775 10.19609,-0.35895 10.19608,-0.35895 v 45.82263 45.82263 l -12.00997,-0.35373 -12.00998,-0.35372 -18.57828,-28.78977 -18.57828,-28.78978 -0.33134,29.09876 -0.33135,29.09873 h -10.48268 -10.48269 v -45.77113 z m 114.93769,-0.006 v -45.77788 l 10.19609,0.35895 10.19608,0.35895 0.3242,45.41893 0.3242,45.41893 h -10.52029 -10.52028 z m 51.90735,0.0499 v -45.7279 h 12.1312 12.1312 l 18.45706,28.38755 18.45705,28.38753 0.33175,-28.38753 0.33175,-28.38755 h 10.48228 10.4823 v 45.7279 45.7279 l -12.04994,-0.006 -12.04992,-0.006 -18.84731,-29.21826 -18.84731,-29.21828 v 29.22441 29.2244 h -10.50506 -10.50505 v -45.7279 z m -329.6578,-87.14807 c -18.16938,-3.94744 -32.16731,-15.90721 -41.66706,-35.6001 -6.4472,-13.36498 -8.86815,-22.17285 -10.54846,-38.37736 -2.3161,-22.33566 2.18845,-45.78332 12.00185,-62.47377 12.46014,-21.19194 30.04745,-30.58477 55.18882,-29.47463 16.49672,0.72842 24.2468,3.70796 34.14568,13.12743 l 7.40546,7.04679 V 376.0508 338.01428 h 25.33573 25.33572 l 0.0903,57.77782 0.0903,57.77782 2.32882,-6.55491 c 4.00111,-11.26189 9.93209,-20.29663 19.63947,-29.91701 16.14321,-15.99862 34.74675,-23.46871 58.44652,-23.46871 39.38506,0 63.98865,18.28734 76.48654,56.8509 l 3.40454,10.50506 0.0895,-61.48548 0.0896,-61.48549 h 24.71778 24.71779 v 29.66134 29.66134 h 8.65122 8.65122 v -24.10007 -24.09984 h 24.71779 24.71778 v 24.06291 24.06293 l 15.75759,0.34588 15.75759,0.3459 0.3582,10.89291 0.3582,10.89289 5.6927,-6.33159 c 6.2144,-6.91187 14.6821,-11.74884 28.1958,-16.10605 7.0858,-2.2847 12.34873,-2.89413 29.08603,-3.36811 26.1168,-0.73958 35.7871,0.66858 48.9911,7.13393 12.7853,6.26027 19.1824,13.14668 22.6541,24.38692 2.2584,7.31171 2.4664,11.52752 2.476,50.18134 0.012,44.6863 1.251,66.26544 4.3042,74.91916 1.0256,2.90688 1.8648,5.4934 1.8648,5.74781 0,0.25441 -11.3617,0.46255 -25.2481,0.46255 h -25.2481 l -1.4146,-6.81403 c -1.5306,-7.37296 -1.4463,-7.35672 -8.6477,-1.66667 -11.1652,8.82191 -30.0122,14.04951 -46.96383,13.02635 -12.9274,-0.78027 -21.3796,-3.29803 -29.5664,-8.80736 l -6.2744,-4.22236 v 4.09789 c 0,5.36271 -0.9996,5.58865 -24.71777,5.58692 -35.03681,-0.002 -46.73128,-5.48775 -53.94083,-25.30057 -1.97955,-5.44008 -2.32514,-11.87264 -2.88831,-53.76118 l -0.63971,-47.58174 -8.34225,-0.36544 -8.34225,-0.36544 v 63.08682 63.08681 h -24.71779 -24.71778 v -33.369 -33.36901 h -56.40094 -56.40095 l 0.79896,5.87047 c 1.74563,12.82615 11.651,25.94024 21.70225,28.73245 8.03027,2.23079 19.8811,1.48933 26.66138,-1.66809 5.78529,-2.69407 14.20373,-10.51976 14.20373,-13.20361 0,-0.72496 9.26346,-1.19288 23.61588,-1.19288 h 23.61588 l -0.84524,3.39869 c -1.93806,7.79288 -8.71147,19.4384 -15.57117,26.77141 -8.51603,9.10367 -19.28077,15.27612 -33.96077,19.47297 -12.86787,3.67877 -38.79907,3.96782 -51.2337,0.57108 -25.86032,-7.0642 -44.95599,-24.10754 -53.8594,-48.07074 l -2.86271,-7.70492 -0.0644,26.88059 -0.0644,26.88059 H 624.96354 600.8637 v -8.81715 -8.81716 l -6.55035,6.81732 c -13.29524,13.8371 -31.04825,18.53848 -52.44771,13.88928 z m 486.25402,-32.12298 c 11.2574,-3.34311 17.248,-12.89062 19.5444,-31.14936 0.4454,-3.54126 0.4446,-8.10129 0,-10.13341 -0.7398,-3.36816 -1.0902,-3.58878 -3.9644,-2.49602 -1.7341,0.6593 -10.1774,2.87232 -18.7629,4.91782 -18.103,4.31305 -24.6269,7.5094 -27.65803,13.55094 -8.9019,17.74296 8.42993,31.96586 30.84253,25.31003 z m -448.76565,-7.3744 c 15.8675,-4.71214 24.15283,-26.26218 20.52709,-53.39075 -2.91902,-21.84086 -11.16752,-32.21005 -26.60841,-33.4495 -17.57878,-1.41106 -27.63894,7.18572 -32.49285,27.76633 -4.6778,19.83397 1.86813,46.70236 13.37414,54.89535 8.27213,5.89027 15.43603,7.07816 25.20003,4.17857 z m 365.54111,-10.35979 c 1.0622,-12.7366 3.60546,-19.83713 9.50651,-26.54102 6.5481,-7.43908 14.6871,-12.35947 26.498,-16.01926 9.9282,-3.07639 14.3737,-3.89582 42.32233,-7.80103 17.2848,-2.41518 21.6278,-4.41928 23.7928,-10.97925 2.9386,-8.90412 -1.4938,-17.06417 -10.9935,-20.23911 -7.0136,-2.34404 -20.521,-1.76735 -26.1759,1.11759 -5.1901,2.64777 -9.3902,8.13207 -10.60983,13.8539 l -0.7245,3.3987 h -24.0435 -24.04358 l 0.67388,-3.3987 c 0.37063,-1.86928 1.03286,-5.48426 1.47162,-8.03328 l 0.79778,-4.63458 H 939.58622 925.8053 l 0.35756,40.06849 0.35758,40.06848 3.02163,3.21472 c 1.66189,1.76809 4.72071,3.70852 6.79739,4.31205 7.60156,2.20924 7.67812,2.13419 8.5556,-8.3877 z M 759.59004,455.73249 c -1.26305,-7.17966 -4.68523,-14.15859 -9.11493,-18.58829 -6.61003,-6.61003 -10.76689,-8.24046 -21.07899,-8.26776 -7.93111,-0.021 -10.11092,0.47028 -15.10022,3.40315 -3.20707,1.88523 -7.44811,5.77828 -9.42453,8.65123 -3.23678,4.70502 -7.60837,15.18733 -7.60837,18.24356 0,0.73521 12.10984,1.1927 31.57117,1.1927 h 31.57119 z M 737.0802,297.10199 c 0.98607,-2.7871 18.86225,-15.27252 30.43441,-21.25656 21.60387,-11.17149 42.97442,-17.72489 70.50673,-21.62128 l 14.86992,-2.1044 -29.48676,-53.5151 -29.48676,-53.51511 -4.29779,7.16927 c -2.36379,3.94309 -19.19387,33.03024 -37.40018,64.6381 -18.20631,31.60787 -34.41162,59.55441 -36.0118,62.10343 l -2.90942,4.63459 h -21.0976 c -12.85021,0 -20.93656,-0.46089 -20.68564,-1.17899 0.88687,-2.53809 121.56823,-211.302678 122.17414,-211.346888 1.75766,-0.12824 126.66749,220.955178 125.49807,222.124588 -0.19205,0.19206 -5.57259,-0.47485 -11.95675,-1.48201 -23.35807,-3.68495 -42.4846,-4.69867 -77.26318,-4.09496 -35.70863,0.61984 -52.31369,2.21842 -79.29261,7.63353 -7.66919,1.53934 -13.78684,2.35464 -13.59478,1.81179 z"
       id="path1267" /></g></svg>
