<?xml version="1.0" encoding="UTF-8" standalone="no"?>
<!-- Created with Inkscape (http://www.inkscape.org/) -->

<svg
   version="1.1"
   id="svg336"
   width="1587.52"
   height="842.23999"
   viewBox="0 0 1587.52 842.23999"
   sodipodi:docname="fortescue.svg"
   inkscape:version="1.2.2 (732a01da63, 2022-12-09)"
   xml:space="preserve"
   xmlns:inkscape="http://www.inkscape.org/namespaces/inkscape"
   xmlns:sodipodi="http://sodipodi.sourceforge.net/DTD/sodipodi-0.dtd"
   xmlns="http://www.w3.org/2000/svg"
   xmlns:svg="http://www.w3.org/2000/svg"><defs
     id="defs340" /><sodipodi:namedview
     id="namedview338"
     pagecolor="#505050"
     bordercolor="#eeeeee"
     borderopacity="1"
     inkscape:showpageshadow="0"
     inkscape:pageopacity="0"
     inkscape:pagecheckerboard="0"
     inkscape:deskcolor="#505050"
     showgrid="false"
     inkscape:zoom="0.44503376"
     inkscape:cx="542.65546"
     inkscape:cy="499.96207"
     inkscape:window-width="1920"
     inkscape:window-height="991"
     inkscape:window-x="-9"
     inkscape:window-y="-9"
     inkscape:window-maximized="1"
     inkscape:current-layer="g342" /><g
     inkscape:groupmode="layer"
     inkscape:label="Image"
     id="g342"><path
       style="fill:#000000"
       id="path487"
       d="" /><path
       style="fill:#333333;stroke-width:0.405729"
       d="M 236.92818,683.69275 C 185.54586,680.36667 138.27153,661.39199 97.966088,627.91697 91.153104,622.2586 74.404601,605.50566 68.788488,598.73169 48.876626,574.71465 34.429464,548.92531 24.921751,520.42604 17.025996,496.7586 13.268244,474.94347 12.691253,449.42351 11.588741,400.66015 25.193913,353.48015 52.127672,312.66595 70.049448,285.50811 93.44922,262.17576 120.88976,244.10202 c 21.39597,-14.09248 46.74649,-25.35078 71.20539,-31.62269 12.24239,-3.13928 23.06498,-5.06287 36.92132,-6.56235 8.32226,-0.9006 36.11972,-1.02998 44.22443,-0.20583 31.19311,3.17196 57.87725,10.65756 84.08807,23.58891 34.68956,17.11442 63.6671,41.14477 86.75347,71.9425 21.15323,28.2189 36.17315,61.81188 42.94306,96.04481 8.11019,41.0104 5.52809,83.35019 -7.47251,122.53008 -9.74565,29.37036 -24.57248,55.72747 -44.96278,79.92856 -5.66949,6.72908 -20.82208,21.84594 -27.66169,27.59645 -40.36994,33.94177 -88.41828,53.18406 -140.78787,56.3825 -7.64388,0.46684 -21.74302,0.4513 -29.21247,-0.032 z m 31.18202,-96.34137 c 58.22122,-6.70512 106.425,-47.72341 122.41106,-104.16388 6.03163,-21.29532 6.86888,-44.8974 2.37913,-67.06774 -6.79938,-33.57517 -25.57927,-63.72301 -52.98519,-85.0585 -45.03686,-35.06115 -107.33625,-39.92014 -157.04328,-12.24847 -33.66373,18.74043 -58.69378,50.30108 -69.05486,87.07198 -3.6687,13.02004 -5.24363,24.64909 -5.23709,38.66999 0.005,9.96179 0.34911,14.41751 1.80351,23.32941 8.50975,52.14399 46.03815,96.17392 96.26569,112.94305 12.16731,4.06222 25.91525,6.66609 38.39358,7.27178 5.23326,0.25402 17.94848,-0.15809 23.06745,-0.74762 z m 442.70914,-75.63099 c -24.46049,-4.47772 -43.19457,-22.64861 -48.54134,-47.08205 -1.08204,-4.94451 -1.08204,-18.58777 0,-23.53227 3.22777,-14.75026 11.21462,-27.23129 23.18329,-36.22861 6.30917,-4.74283 15.44094,-8.78475 24.14086,-10.68526 5.41997,-1.184 18.22051,-1.08556 23.88952,0.18373 5.72174,1.2811 10.4041,2.97309 15.38592,5.55978 5.80216,3.01265 10.12727,6.19496 14.88262,10.9503 6.87125,6.87126 11.35582,14.08615 14.37764,23.13128 2.32747,6.96656 3.03461,11.36028 3.03461,18.85491 0,7.49463 -0.70714,11.88836 -3.03461,18.85492 -3.02182,9.04513 -7.50639,16.26001 -14.37764,23.13128 -8.30511,8.30512 -17.75749,13.54698 -29.4086,16.30872 -6.02479,1.42809 -17.30466,1.69329 -23.53227,0.55327 z m 19.27212,-25.60131 c 9.68007,-2.53815 18.03322,-9.42364 22.36782,-18.43778 2.35818,-4.90404 3.02215,-7.61422 3.28003,-13.38905 0.44773,-10.0249 -2.82862,-18.52556 -9.84407,-25.54119 -14.03533,-14.0356 -36.4428,-13.62523 -50.1628,0.91869 -7.1489,7.57822 -10.46435,18.27347 -8.82764,28.47693 2.36803,14.76292 14.28895,26.43981 29.39188,28.79025 3.53747,0.55052 10.04815,0.16453 13.79478,-0.81785 z m 264.738,25.57582 c -11.06812,-1.95867 -20.79583,-6.95431 -28.40102,-14.58522 -6.30681,-6.32817 -10.64117,-13.55296 -13.51701,-22.53099 -7.79815,-24.34512 -1.85236,-51.39383 14.81332,-67.38917 9.96218,-9.56145 22.55519,-14.47918 37.04505,-14.46654 24.0762,0.021 41.4499,13.2172 48.2089,36.61696 1.8068,6.25523 2.376,10.65723 2.5997,20.10435 l 0.2119,8.94682 -39.9136,-0.0333 c -21.95251,-0.0183 -40.14964,0.0405 -40.43816,0.13071 -1.17592,0.36763 1.12156,9.81714 3.5892,14.76234 5.57479,11.17199 14.47547,16.65328 26.95926,16.60228 8.2885,-0.0339 14.8376,-2.52616 19.9192,-7.58033 2.6719,-2.65747 4.3149,-5.29787 6.1,-9.80281 0.3469,-0.87548 0.5525,-0.81556 11.4716,3.34192 6.1151,2.32836 11.2153,4.33034 11.3338,4.44884 0.3588,0.35873 -2.4252,5.82871 -4.8899,9.60787 -7.7079,11.81872 -20.4787,19.81801 -35.2115,22.0555 -5.3616,0.81427 -14.5849,0.70791 -19.88074,-0.22927 z m 34.00934,-74.61368 c 0.2057,-2.12269 -1.0669,-7.06996 -2.6144,-10.16309 -2.7478,-5.4926 -8.0552,-9.52666 -14.76,-11.21883 -3.4923,-0.88139 -10.714,-0.87409 -14.21713,0.0144 -9.57787,2.42915 -16.14853,8.86358 -19.99768,19.58317 -0.57548,1.60267 -0.87215,2.972 -0.65926,3.04297 0.21284,0.0709 12.02636,0.12072 26.25227,0.11058 l 25.8652,-0.0184 0.131,-1.35075 z m 79.0006,74.99295 c -7.2975,-0.99877 -15.6294,-3.367 -21.8342,-6.20613 -7.8188,-3.5776 -15.8652,-9.90895 -20.0855,-15.80426 l -1.3323,-1.86114 9.9683,-7.98111 c 5.4826,-4.38961 10.021,-7.91144 10.0855,-7.8263 0.064,0.0851 0.5513,0.79384 1.0819,1.57487 5.3851,7.92644 14.5901,13.93934 24.5362,16.02757 4.1596,0.87333 11.5818,0.89498 15.5824,0.0455 3.6159,-0.76784 7.4507,-2.49812 9.4743,-4.27486 2.9375,-2.57916 4.5922,-7.93799 3.5927,-11.63546 -0.6798,-2.51494 -2.0675,-4.28078 -4.5221,-5.75423 -3.1452,-1.88797 -7.1084,-3.03736 -18.5595,-5.38248 -16.0193,-3.28066 -21.6283,-4.86213 -27.423,-7.73202 -7.9496,-3.93712 -12.421,-9.03344 -14.9265,-17.01241 -0.8159,-2.59835 -0.9504,-3.86455 -0.9465,-8.91173 0.01,-7.94937 1.3022,-12.65393 5.0802,-18.44137 5.8262,-8.92482 15.616,-14.94456 28.4179,-17.4742 4.0131,-0.79299 14.6977,-1.1245 18.8364,-0.58443 13.5039,1.76217 24.9089,6.74826 33.0911,14.46699 2.7777,2.62036 5.6559,6.13983 5.6559,6.91606 0,0.43553 -17.0067,15.9284 -17.4848,15.9284 -0.164,0 -0.9505,-0.88867 -1.7477,-1.97483 -6.3519,-8.65285 -17.0362,-13.8631 -28.384,-13.84154 -10.973,0.0208 -17.6707,4.59136 -17.6969,12.07641 -0.011,3.16471 0.644,4.78333 2.6476,6.54254 3.0159,2.64802 6.6659,3.7747 25.7445,7.94684 4.7978,1.04918 10.8266,2.59718 13.3975,3.44001 17.0939,5.60403 24.8259,14.80976 24.886,29.62928 0.076,18.67867 -12.6501,32.49847 -34.429,37.38869 -4.2262,0.94894 -17.8612,1.37852 -22.7064,0.71538 z m 121.0956,-0.16561 c -18.6509,-2.58248 -34.9968,-13.64611 -44.363,-30.02675 -3.3208,-5.80792 -5.8951,-13.39384 -7.0219,-20.69217 -0.7676,-4.97204 -0.5204,-15.50194 0.4714,-20.08357 5.0287,-23.22831 22.233,-41.03859 44.8496,-46.42915 20.1483,-4.80225 41.4634,1.06136 56.2126,15.46363 3.0677,2.99545 8.3879,9.48547 8.0515,9.82182 -0.1124,0.11241 -5.0472,2.96312 -10.9663,6.33491 l -10.7619,6.13053 -3.7312,-3.71152 c -9.7605,-9.70898 -22.8179,-12.78404 -36.0045,-8.47918 -5.9736,1.95012 -12.9468,7.07243 -16.8307,12.36334 -9.7124,13.23103 -8.3729,32.03432 3.1233,43.83934 14.9498,15.35157 40.0458,13.73952 53.3276,-3.4255 l 1.2104,-1.56441 11.1391,5.56538 c 6.1264,3.06096 11.2002,5.62152 11.275,5.69013 0.075,0.0686 -0.7717,1.46329 -1.8813,3.09928 -7.5154,11.08085 -18.2732,19.24981 -30.9384,23.49302 -8.2553,2.76579 -18.754,3.77498 -27.1613,2.61087 z m 105.1783,-0.21838 c -14.0965,-3.04662 -23.7925,-12.13216 -27.8528,-26.09926 -1.7804,-6.12436 -1.8551,-8.15289 -1.8576,-50.46935 v -40.26858 h 13.1653 13.1653 l 0.1481,38.23994 c 0.1633,42.13499 0.063,40.45526 2.727,45.73252 2.2217,4.401 5.3703,7.05028 10.2522,8.62608 3.4233,1.10502 10.4245,1.18161 13.8954,0.15202 7.8143,-2.31796 13.8405,-8.49346 16.2733,-16.67642 0.6665,-2.24154 0.7349,-5.35096 0.865,-39.25425 l 0.1412,-36.81989 h 13.1682 13.1682 v 57.61348 57.61349 h -13.1862 -13.1862 v -5.93465 -5.93465 l -2.9914,2.84157 c -5.2583,4.99491 -11.4949,8.58017 -17.9036,10.29242 -4.8241,1.28887 -14.8244,1.46174 -19.989,0.34553 z m 131.7673,0.0323 c -22.6975,-4.14035 -38.9008,-20.39298 -43.821,-43.95421 -3.7725,-18.06551 -0.5525,-36.85774 8.7633,-51.14367 3.1664,-4.85565 10.1961,-12.07259 14.5684,-14.95648 9.2614,-6.10872 18.931,-8.95074 30.4296,-8.94371 11.582,0.007 21.8498,3.11655 29.8325,9.0344 3.3263,2.46585 8.62,7.93052 10.8151,11.16417 7.0126,10.33087 10.5331,24.05984 10.192,39.74632 l -0.1235,5.6802 -40.0537,0.0217 c -22.0295,0.012 -40.1914,0.15951 -40.3597,0.32786 -0.4836,0.48362 1.2683,8.24144 2.6888,11.90685 4.0371,10.41686 12.8746,17.71879 23.0173,19.01788 8.1808,1.04782 15.927,-0.59615 21.8433,-4.63582 4.1804,-2.85439 6.7164,-6.24128 9.3652,-12.50712 0.3648,-0.86294 0.5952,-0.79556 11.5173,3.36853 6.1297,2.337 11.2198,4.32391 11.3112,4.41537 0.3251,0.32506 -2.8597,6.51747 -5.0278,9.77593 -7.2022,10.82419 -18.1115,18.13292 -31.8318,21.32581 -5.2249,1.21589 -17.3862,1.40305 -23.1265,0.35592 z m 33.9387,-73.58459 c 0.1576,-0.1576 0.075,-1.64969 -0.1843,-3.31575 -1.9643,-12.63421 -10.6739,-19.73836 -24.2198,-19.75518 -5.558,-0.007 -9.0095,0.76938 -13.3386,3.00004 -6.0746,3.13003 -11.1217,9.26787 -13.6683,16.62213 -0.6318,1.82459 -1.0844,3.42144 -1.0058,3.54855 0.2087,0.33782 52.078,0.23907 52.4168,-0.0998 z m -584.91841,73.11198 c -10.18979,-1.07418 -17.27276,-4.63273 -21.14459,-10.62319 -1.72138,-2.66331 -3.37582,-7.31862 -3.9942,-11.23893 -0.26023,-1.64982 -0.41713,-15.66358 -0.41903,-37.42848 l -0.003,-34.79124 h -8.11457 -8.11458 v -11.15754 -11.15754 h 8.11458 8.11457 v -16.83774 -16.83774 h 12.98332 12.98332 v 16.83774 16.83774 h 11.969 11.969 v 11.15754 11.15754 h -11.97845 -11.97845 l 0.11088,32.16519 0.11089,32.16518 1.01432,1.96933 c 1.45255,2.82018 3.89199,4.11319 8.92603,4.73121 3.61298,0.44355 11.26928,0.29143 14.5048,-0.28819 l 1.31862,-0.23622 v 11.17045 11.17046 l -1.11575,0.23853 c -5.05384,1.08044 -19.17336,1.63719 -25.25662,0.9959 z M 557.45388,432.38138 v -78.91576 l 52.6433,0.10296 52.64331,0.10294 0.10739,12.2733 0.10736,12.27329 h -38.75302 -38.75306 v 21.30076 c 0,20.00038 0.0433,21.30326 0.71003,21.34164 0.39051,0.0225 14.9511,0.0681 32.35686,0.10143 l 31.64684,0.0606 0.1074,12.27329 0.10736,12.2733 h -32.46423 -32.46426 v 32.86402 32.86403 H 571.45152 557.45388 Z M 793.588,452.46647 v -57.61348 h 13.18619 13.18618 v 8.39501 8.395 l 1.44346,-2.41051 c 3.3174,-5.53998 9.62847,-10.47929 16.38909,-12.82684 5.17998,-1.79868 13.33281,-2.68052 19.1902,-2.07568 l 1.92721,0.199 v 13.35593 13.35592 l -1.11576,-0.29174 c -0.61366,-0.16046 -3.94571,-0.29187 -7.40454,-0.29202 -7.3835,-3.2e-4 -10.20879,0.56319 -15.4177,3.07515 -2.75968,1.33083 -4.10098,2.32061 -6.71355,4.95403 -3.70605,3.73564 -5.76678,7.264 -7.18266,12.29792 -0.87771,3.12058 -0.89199,3.62629 -1.02077,36.13034 l -0.1306,32.96546 H 806.75637 793.588 Z m 757.3604,56.93727 c -0.1488,-0.14876 -0.2705,-4.62192 -0.2705,-9.94035 v -9.66987 h 2.9505 2.9504 l 2.2542,6.79596 2.2542,6.79595 2.2324,-6.69452 2.2323,-6.69453 2.9091,-0.1192 2.909,-0.11921 v 9.95813 9.95813 h -2.0286 -2.0287 l -0.044,-6.99882 -0.044,-6.99882 -2.2776,7.01774 -2.2776,7.01774 -1.6135,-0.12035 -1.6135,-0.12036 -2.2522,-6.89738 -2.2521,-6.89739 -0.111,6.99882 -0.111,6.99882 h -1.7486 c -0.9617,0 -1.8703,-0.12172 -2.019,-0.27049 z m -12.4424,-8.24982 v -8.11457 h -3.043 -3.0429 v -1.82578 -1.82578 h 8.3174 8.3174 v 1.82578 1.82578 h -3.2458 -3.2458 v 8.11457 8.11458 h -2.0287 -2.0286 z"
       id="path1247" /></g></svg>
