<?xml version="1.0" encoding="UTF-8" standalone="no"?>
<!-- Created with Inkscape (http://www.inkscape.org/) -->

<svg
   version="1.1"
   id="svg336"
   width="1587.52"
   height="842.23999"
   viewBox="0 0 1587.52 842.23999"
   sodipodi:docname="genneia.svg"
   inkscape:version="1.2.2 (732a01da63, 2022-12-09)"
   xml:space="preserve"
   xmlns:inkscape="http://www.inkscape.org/namespaces/inkscape"
   xmlns:sodipodi="http://sodipodi.sourceforge.net/DTD/sodipodi-0.dtd"
   xmlns="http://www.w3.org/2000/svg"
   xmlns:svg="http://www.w3.org/2000/svg"><defs
     id="defs340" /><sodipodi:namedview
     id="namedview338"
     pagecolor="#505050"
     bordercolor="#eeeeee"
     borderopacity="1"
     inkscape:showpageshadow="0"
     inkscape:pageopacity="0"
     inkscape:pagecheckerboard="0"
     inkscape:deskcolor="#505050"
     showgrid="false"
     inkscape:zoom="0.44503376"
     inkscape:cx="585.34885"
     inkscape:cy="468.50378"
     inkscape:window-width="1920"
     inkscape:window-height="991"
     inkscape:window-x="-9"
     inkscape:window-y="-9"
     inkscape:window-maximized="1"
     inkscape:current-layer="g342" /><g
     inkscape:groupmode="layer"
     inkscape:label="Image"
     id="g342"><path
       style="fill:#000000"
       id="path487"
       d="" /><path
       style="fill:#333333;stroke-width:2.7377"
       d="M 127.83498,583.1559 C 75.00568,571.45967 37.855882,536.19431 26.701564,487.15251 9.0533624,409.5593 51.142725,338.8637 125.37934,321.40793 c 22.89137,-5.3826 61.51539,-4.02696 81.84882,2.87277 26.77796,9.08654 47.95937,25.22425 47.89944,36.49365 -0.005,1.05845 -2.51791,6.03766 -5.58288,11.06491 l -5.57266,9.14045 -8.79002,-6.69877 c -43.59753,-33.22518 -103.31401,-34.14449 -143.711174,-2.21236 -23.501642,18.57697 -38.67737,57.74531 -35.213525,90.8856 5.25164,50.24496 37.552057,83.16532 88.865169,90.57073 23.9671,3.45889 51.38462,-0.67851 76.71924,-11.57717 l 14.13222,-6.07952 v -51.67908 -51.67909 l 8.89751,0.0871 c 4.89363,0.0479 10.85223,1.58784 13.24131,3.42212 9.4909,7.2869 10.71353,14.82639 10.71353,66.0667 v 50.77197 l -14.3729,8.29448 c -24.81811,14.32225 -54.57567,22.35049 -86.92185,23.45047 -15.81019,0.53763 -33.67366,-0.11361 -39.69659,-1.44695 z m 278.18367,-1.66195 c -47.9223,-12.88792 -81.47419,-48.77492 -91.98259,-98.38429 -5.10594,-24.10476 -5.10594,-38.76672 0,-62.87148 8.69339,-41.0408 33.18022,-73.24966 69.23548,-91.06913 20.05363,-9.91105 21.80561,-10.2733 49.67457,-10.2712 25.51798,0.002 30.64423,0.83969 43.94511,7.18178 23.11508,11.02169 36.42417,22.12736 48.89125,40.79695 14.4653,21.66196 22.46233,47.7787 23.13531,75.55539 l 0.52238,21.56158 -103.27301,0.71727 -103.27301,0.71728 1.58102,8.86466 c 2.85301,15.99673 16.67648,42.32951 28.34794,54.00097 32.67254,32.67254 82.81993,35.84208 124.63087,7.87723 10.95076,-7.32432 22.84952,-13.31695 26.44168,-13.31695 7.94258,0 18.70027,7.10492 18.70027,12.35057 0,5.26078 -30.24182,29.2876 -47.46784,37.71269 -25.86113,12.64846 -61.28951,16.05839 -89.10943,8.57668 z M 516.09609,426.35023 c -5.01537,-25.88895 -17.8524,-49.7077 -33.44596,-62.05803 -14.6875,-11.6327 -30.42098,-16.65072 -52.20666,-16.65072 -41.8804,0 -73.95637,29.86772 -85.9981,80.0776 l -1.80556,7.52866 h 87.58998 87.58998 z m 75.77836,30.99778 v -128.473 l 7.21345,-5.67409 c 15.1164,-11.89057 13.72554,-13.19076 105.58294,98.70033 l 85.68657,104.37443 0.81811,-20.18708 c 0.44996,-11.1029 1.81024,-21.17921 3.02282,-22.39179 1.21258,-1.21259 8.54422,5.11307 16.2925,14.05702 l 14.08777,16.26173 v 35.90274 35.90272 l -14.3729,-0.1618 -14.37291,-0.1618 -84.86857,-102.6327 -84.86858,-102.6327 -1.36885,93.89699 c -1.00366,68.84674 -2.29854,95.52359 -4.85371,99.99405 -4.30949,7.53983 -11.76498,11.69796 -20.97442,11.69796 h -7.02422 z m 114.04949,122.85074 c -3.93117,-3.09223 -8.48087,-10.17602 -10.11048,-15.74175 -3.91096,-13.35736 -2.40545,-73.08649 1.84217,-73.08649 1.71467,0 8.79846,6.9005 15.74175,15.33446 l 12.62417,15.33445 v 31.89081 c 0,31.70681 -0.0373,31.89079 -6.47503,31.89079 -3.56128,0 -9.69144,-2.53002 -13.62258,-5.62227 z m 107.64248,-98.28459 -86.17602,-103.90685 -0.79513,21.77598 c -0.54333,14.87906 -1.84395,21.72672 -4.10655,21.62047 -1.82128,-0.0855 -9.27805,-7.49732 -16.57062,-16.47064 l -13.2592,-16.31513 0.93957,-27.57841 c 0.85493,-25.09417 1.52178,-28.04948 7.40268,-32.80789 15.49057,-12.53383 14.42637,-13.49504 108.0752,97.61679 l 86.68236,102.84626 v -94.76913 c 0,-79.17333 0.68045,-96.085 4.13488,-102.76511 4.78639,-9.25584 11.75218,-13.63368 21.69325,-13.63368 h 7.02422 v 134.1471 134.1471 h -14.43431 -14.43434 z m 249.82178,99.66233 c -42.0327,-11.31624 -75.29602,-43.47921 -88.21093,-85.29292 -7.5242,-24.36052 -7.55404,-64.76209 -0.0658,-89.0063 15.82841,-51.24626 57.79393,-85.92701 107.74743,-89.0435 71.5678,-4.46496 124.9971,50.87558 124.9971,129.46836 v 17.66027 h -103.0135 -103.0134 l 1.8076,11.30481 c 5.2854,33.05268 32.5755,64.02541 65.1236,73.91161 32.6034,9.90299 62.2564,4.09825 92.5088,-18.10906 14.9708,-10.98958 25.4597,-12.16762 35.6361,-4.00239 l 6.8443,5.49161 -16.2969,15.082 c -34.4351,31.86793 -81.0942,44.10414 -124.0644,32.53551 z m 110.3411,-156.3697 c -5.6978,-30.37222 -21.7973,-55.17649 -44.4168,-68.43241 -16.4023,-9.61236 -45.8207,-11.91297 -66.1196,-5.17076 -27.0272,8.977 -54.0537,42.31841 -59.4799,73.37777 l -1.7935,10.26635 h 86.8468 86.8467 z m 83.4053,35.86909 c 0,-89.58831 0.8975,-126.43044 3.1848,-130.72498 4.5628,-8.56684 10.7626,-12.63711 19.4012,-12.73701 l 7.5286,-0.0871 v 134.1471 134.1471 h -15.0573 -15.0573 z m 142.3602,120.82758 c -28.2201,-7.85235 -50.8474,-25.23006 -60.4856,-46.45298 -7.2975,-16.06884 -7.088,-48.07268 0.4162,-63.57429 11.4375,-23.62662 40.0002,-41.98804 73.7578,-47.41486 29.6023,-4.75882 53.5359,-3.78456 100.836,4.1047 l 11.8608,1.97828 -1.8446,-13.39003 c -3.5977,-26.11627 -7.1733,-34.9968 -18.7533,-46.57674 -19.5139,-19.51392 -59.1277,-25.79088 -99.2157,-15.7211 -21.0518,5.28804 -28.552,3.13022 -35.4439,-10.19726 -5.4453,-10.53004 -4.9007,-11.01542 22.028,-19.63171 15.7429,-5.03718 25.2729,-6.11306 53.3851,-6.02683 42.8767,0.13152 59.5646,5.71753 80.9406,27.09345 21.0536,21.05364 26.1698,36.91681 27.8706,86.41596 1.6838,49.00151 -1.9028,74.59966 -13.501,96.36017 -19.4075,36.4123 -59.9089,57.32575 -109.8179,56.70599 -10.8424,-0.13464 -25.2574,-1.78738 -32.0331,-3.67275 z m 75.2051,-34.61483 c 23.6124,-8.83451 43.5104,-29.291 47.9301,-49.27534 1.8071,-8.17073 2.8681,-19.78372 2.3578,-25.80665 l -0.9279,-10.95078 -21.9015,-4.56025 c -29.3301,-6.10698 -79.092,-6.43407 -96.4082,-0.63369 -15.0356,5.03645 -29.3746,15.03313 -34.0238,23.72026 -16.1179,30.11656 2.4418,63.46813 40.6834,73.10764 15.3822,3.87734 43.7819,1.32362 62.2901,-5.60119 z m -669.93808,-144.36761 -12.97251,-15.58295 -0.0315,-33.6227 c -0.035,-37.29173 1.18594,-39.75052 16.57294,-33.37701 13.93567,5.77235 16.2479,14.11886 16.2479,58.65067 0,30.1256 -0.83396,39.79384 -3.42212,39.67374 -1.88217,-0.0873 -9.25976,-7.17113 -16.39467,-15.74175 z"
       id="path501"
       sodipodi:nodetypes="sssscscssssscccssscsssssssssssscccssssssssssscccsccsscssscccccccsssccsssscsssccssscssscsssccccccssssscccsssscsssssscccsssscccccsssssscsssssssssssssscsssssccsssssc" /></g></svg>
