<?xml version="1.0" encoding="UTF-8" standalone="no"?>
<!-- Created with Inkscape (http://www.inkscape.org/) -->

<svg
   version="1.1"
   id="svg336"
   width="1587.52"
   height="842.23999"
   viewBox="0 0 1587.52 842.23999"
   sodipodi:docname="glencore.svg"
   inkscape:version="1.2.2 (732a01da63, 2022-12-09)"
   xml:space="preserve"
   xmlns:inkscape="http://www.inkscape.org/namespaces/inkscape"
   xmlns:sodipodi="http://sodipodi.sourceforge.net/DTD/sodipodi-0.dtd"
   xmlns="http://www.w3.org/2000/svg"
   xmlns:svg="http://www.w3.org/2000/svg"><defs
     id="defs340" /><sodipodi:namedview
     id="namedview338"
     pagecolor="#505050"
     bordercolor="#eeeeee"
     borderopacity="1"
     inkscape:showpageshadow="0"
     inkscape:pageopacity="0"
     inkscape:pagecheckerboard="0"
     inkscape:deskcolor="#505050"
     showgrid="false"
     inkscape:zoom="0.44503376"
     inkscape:cx="969.58937"
     inkscape:cy="497.71505"
     inkscape:window-width="1920"
     inkscape:window-height="991"
     inkscape:window-x="-9"
     inkscape:window-y="-9"
     inkscape:window-maximized="1"
     inkscape:current-layer="g342" /><g
     inkscape:groupmode="layer"
     inkscape:label="Image"
     id="g342"><path
       style="fill:#000000"
       id="path487"
       d="" /><path
       style="fill:#333333;stroke-width:0.638495"
       d="m 1478.6226,550.36357 c -13.6521,-1.13873 -27.2756,-4.72324 -37.8603,-9.96152 -12.5762,-6.22387 -30.0232,-19.14307 -48.975,-36.26515 -10.092,-9.11767 -28.6448,-28.0582 -91.5583,-93.47166 l -5.6806,-5.9064 h -4.0564 -4.0564 l 0.028,39.10781 c 0.032,44.98438 -0.077,43.96913 5.08,47.40993 1.5803,1.05445 9.0503,4.215 16.6,7.02345 l 13.7267,5.10626 -23.7358,0.16735 c -13.0547,0.092 -34.5406,0.092 -47.7463,0 l -24.0104,-0.16735 13.2684,-4.68253 c 15.4264,-5.44409 18.072,-6.8039 19.73,-10.1407 1.1553,-2.32542 1.2067,-5.7986 1.3686,-92.51412 l 0.1683,-90.098 -1.7824,-3.4415 c -2.3926,-4.61972 -7.0615,-7.6989 -17.709,-11.67918 -4.5652,-1.7066 -9.737,-3.76559 -11.4929,-4.57553 l -3.1924,-1.47263 50.1218,0.12452 50.1219,0.12452 5.7429,1.79326 c 31.149,9.72647 46.4184,31.63949 43.1474,61.92072 -2.0479,18.95745 -10.3862,33.63724 -24.5165,43.16157 -6.9756,4.70187 -19.4484,9.46207 -27.7307,10.58334 l -3.3568,0.45446 2.7183,3.01064 c 1.4951,1.65586 12.8024,14.05531 25.1273,27.55434 12.3249,13.49903 27.1466,29.85916 32.9371,36.35585 17.1712,19.26551 31.5948,32.09755 53.9787,48.02259 11.0912,7.8908 17.6085,11.76033 25.6374,15.22178 9.4627,4.07959 13.7282,4.96046 35.516,7.33434 22.7295,2.47647 24.4292,2.72277 24.9839,3.62034 2.3724,3.83869 -24.4096,7.79168 -42.5425,6.2792 z M 1311.9754,389.80103 c 20.8457,-4.48871 33.1145,-14.01073 38.726,-30.05608 1.6823,-4.8102 1.7873,-5.74069 1.8024,-15.96237 0.015,-10.2686 -0.08,-11.12605 -1.7638,-15.88765 -2.9857,-8.44329 -9.4992,-16.99924 -16.6182,-21.8294 -7.128,-4.83624 -17.2732,-7.95121 -25.7908,-7.91886 -7.7539,0.0295 -16.6723,1.15566 -18.4678,2.33206 -3.4639,2.26964 -3.4276,1.76019 -3.4276,48.16149 v 42.8891 l 10.3755,-0.34857 c 5.7422,-0.19291 12.514,-0.80904 15.1643,-1.37972 z M 118.30919,509.7884 C 96.706329,506.72532 77.139232,499.78084 62.139551,489.85347 54.076855,484.51726 42.52751,473.08945 37.119394,465.0966 26.908923,450.00618 20.207449,431.56489 17.424694,410.9002 c -1.624004,-12.05983 -1.060858,-32.99269 1.15313,-42.86328 5.146374,-22.94402 14.750024,-40.3365 30.854461,-55.87827 19.169405,-18.49966 46.914029,-30.43889 79.412075,-34.17307 7.21617,-0.82917 12.77887,-0.99301 25.22055,-0.74283 16.94266,0.3407 26.49939,1.43046 41.13121,4.69022 7.44314,1.65823 20.89381,5.54025 21.58254,6.22898 0.47914,0.47914 -4.33762,55.74011 -5.02898,57.69574 -0.27933,0.79014 -0.89106,1.43661 -1.35939,1.43661 -2.50954,0 -3.09182,-1.6088 -6.53746,-18.06231 -3.53868,-16.89785 -4.71982,-20.62046 -7.467,-23.53379 -6.13557,-6.50667 -23.25215,-11.1617 -45.5134,-12.37784 -24.33111,-1.32921 -52.741829,6.19113 -71.687984,18.97587 -24.312807,16.40611 -38.532039,49.7845 -35.912133,84.30057 1.554774,20.48343 5.960863,36.95542 14.138626,52.85668 6.211524,12.07801 14.808436,22.17963 24.175339,28.40673 5.856142,3.89316 17.374443,9.30028 24.910762,11.69404 10.58129,3.36092 14.87821,4.04984 27.45528,4.40183 10.02446,0.28055 12.97229,0.1329 19.47776,-0.97559 14.18816,-2.41761 28.48008,-8.37603 34.2668,-14.28613 4.98335,-5.0896 5.86201,-8.25455 6.14121,-22.12073 0.35875,-17.81616 -1.29809,-26.69588 -5.66702,-30.3721 -1.05499,-0.88771 -6.00118,-2.85823 -11.96093,-4.76513 -10.83602,-3.46715 -12.57493,-4.4932 -10.73464,-6.33406 0.99126,-0.99156 4.20263,-1.10045 37.17142,-1.26042 37.70871,-0.18297 41.12652,0.0158 41.12652,2.39141 0,0.70163 -0.60314,1.38909 -1.43662,1.63748 -5.59815,1.66829 -18.36118,7.1462 -19.85181,8.52043 -0.99789,0.91997 -2.39076,2.79372 -3.09526,4.1639 -1.24213,2.41581 -1.25843,2.95721 -0.53842,17.87786 0.40839,8.46264 1.15137,19.84012 1.65108,25.28328 1.44853,15.77811 1.93911,14.04922 -5.06033,17.83371 -14.52715,7.8546 -35.09831,14.5987 -53.85245,17.65513 -8.82598,1.43839 -34.78247,1.7882 -43.28044,0.58328 z m 783.43324,0.57032 c -24.49452,-1.85238 -36.61245,-6.02212 -57.60233,-19.82075 -38.4628,-25.28525 -53.94758,-53.40484 -54.0929,-98.22978 -0.0466,-14.4167 0.43066,-17.75466 4.1928,-29.31657 12.45761,-38.28473 47.96476,-71.29269 87.57436,-81.41033 20.21667,-5.16403 45.12486,-5.82616 71.32691,-1.89607 9.12767,1.36907 21.08361,3.7848 26.65716,5.38615 l 3.3521,0.9631 -0.01,26.95857 c -0.006,14.82722 -0.2637,27.35959 -0.57407,27.84973 -1.49574,2.36218 -4.42171,-1.96776 -6.03806,-8.93521 -3.25989,-14.05235 -10.99398,-25.70691 -21.09184,-31.78346 -9.08164,-5.4649 -16.9901,-6.8098 -36.77444,-6.25376 -14.56368,0.40932 -22.31782,1.39473 -31.29263,3.97671 -17.63996,5.07488 -30.77214,12.5519 -42.52019,24.20964 -19.63065,19.4797 -28.81968,46.59038 -26.48317,78.1342 1.26895,17.13091 4.5413,30.54031 10.54992,43.23153 4.65239,9.82654 9.07658,16.14319 16.57896,23.67064 17.50421,17.56272 42.43648,26.45489 74.03291,26.4041 15.47361,-0.0249 26.97794,-2.41095 38.48228,-7.98148 16.49986,-7.98944 27.70659,-21.12457 33.09472,-38.78951 1.63876,-5.37269 2.85184,-7.0381 4.65546,-6.39138 0.43897,0.1574 0.80272,1.3397 0.80834,2.62732 0.0166,3.85194 -7.78824,52.0829 -8.55762,52.88148 -1.69284,1.75705 -26.71655,8.54523 -40.61671,11.01811 -14.98605,2.66606 -35.6796,4.25121 -45.65238,3.49702 z m 198.57187,-0.2708 c -21.3617,-2.16471 -41.2156,-9.71513 -56.826,-21.61098 -5.8014,-4.42095 -15.3236,-13.82632 -19.7921,-19.54937 -13.7517,-17.61248 -22.4343,-38.24205 -25.58203,-60.78193 -1.45641,-10.42885 -0.96886,-29.72133 0.98117,-38.82326 10.59816,-49.46751 49.40296,-83.61203 103.00756,-90.63659 8.6697,-1.13612 27.8827,-1.30605 36.5211,-0.32301 50.0551,5.69622 84.3614,34.65155 96.0415,81.06125 5.1436,20.43737 5.2616,43.10962 0.3264,62.7096 -11.6782,46.37981 -50.4697,79.46635 -102.0056,87.00372 -8.5456,1.24985 -24.9957,1.72845 -32.672,0.95057 z m 27.4757,-20.43557 c 45.2361,-3.67329 73.8617,-28.4864 83.1302,-72.05877 1.5841,-7.44663 1.7137,-9.21138 1.7404,-23.68915 0.027,-14.80162 -0.063,-16.02542 -1.6749,-22.74994 -8.731,-36.42054 -37.2182,-65.50014 -72.6809,-74.1923 -19.8162,-4.85708 -45.1008,-2.10846 -64.2367,6.98299 -11.8071,5.60953 -24.2913,15.90417 -32.0503,26.42901 -7.5225,10.20406 -13.8826,25.30531 -16.8514,40.01205 -1.2674,6.27809 -1.4594,9.13936 -1.4499,21.6027 0.01,13.49891 0.1197,14.82866 1.8111,22.02808 10.47,44.56706 46.6095,74.68273 91.4545,76.21082 1.4415,0.0491 6.305,-0.20985 10.8079,-0.57549 z m -379.79631,3.05916 c -24.21626,-27.90906 -51.64141,-58.16935 -77.68689,-85.71794 -2.32406,-2.4582 -14.54389,-15.53138 -27.1551,-29.05151 -29.26957,-31.37903 -40.35639,-43.20311 -46.05026,-49.11248 l -4.56432,-4.7371 -0.48383,10.8028 c -0.52592,11.74233 0.16668,117.58263 0.90841,138.821 0.62618,17.92981 0.38806,17.57007 14.18746,21.43327 10.22602,2.86282 14.83125,5.31694 12.61995,6.72514 -0.48552,0.30919 -17.04552,0.49183 -36.94621,0.40748 -33.29932,-0.14114 -36.08224,-0.23575 -36.27429,-1.2333 -0.28696,-1.49057 2.18322,-2.64912 12.19182,-5.71812 10.494,-3.21786 12.87349,-4.49567 14.10551,-7.57479 2.04353,-5.10727 2.02656,-167.49223 -0.0211,-201.91678 l -0.40825,-6.86382 8.23168,0.0213 8.23169,0.0214 12.7699,14.78883 c 14.85046,17.19833 35.50946,40.5195 48.78963,55.0768 10.46806,11.47474 18.02043,19.60626 50.13532,53.97987 12.31401,13.18007 29.85947,31.97813 38.98994,41.77347 l 16.60087,17.80971 0.56641,-43.05045 c 0.65918,-50.10244 -0.17258,-115.03293 -1.5207,-118.7121 -1.69968,-4.6386 -4.55043,-6.18907 -18.83905,-10.24617 -7.53743,-2.14018 -9.44883,-3.22673 -8.08188,-4.59428 0.62017,-0.62045 8.73136,-0.84401 35.72833,-0.98476 19.20931,-0.10015 35.57253,-0.0228 36.36266,0.17179 1.96363,0.48369 1.80592,2.02238 -0.31924,3.11487 -0.96573,0.49645 -5.84357,2.21677 -10.8396,3.82294 -4.99604,1.60617 -9.84789,3.42101 -10.78188,4.03298 -3.62634,2.37606 -3.5524,1.41012 -4.21924,55.12372 -0.8469,68.22217 -0.1233,128.83891 1.79691,150.52516 l 0.40992,4.62909 h -8.33089 -8.33089 l -11.77276,-13.56801 z m -358.16454,9.93674 c -1.27319,-0.33423 -1.50164,-2.41965 -0.34999,-3.19486 0.42206,-0.28411 5.95302,-2.2405 12.29103,-4.34753 11.48789,-3.81908 11.52743,-3.83872 12.74408,-6.33101 1.13457,-2.32412 1.25524,-4.90744 1.71491,-36.71345 0.61122,-42.29176 0.61113,-99.89983 -2e-4,-128.71065 -0.58115,-27.38868 -0.54165,-27.27365 -10.39251,-30.26438 -14.34659,-4.35565 -17.44865,-5.51683 -17.65002,-6.60684 -0.12861,-0.69615 0.35523,-1.32891 1.28702,-1.68318 0.82121,-0.31223 22.31949,-0.76288 47.77396,-1.00144 25.45446,-0.23857 57.1991,-0.84369 70.54365,-1.3447 13.34454,-0.50101 24.63873,-0.91316 25.09819,-0.9159 0.67625,-0.004 0.79788,4.30695 0.6385,22.63049 -0.25702,29.54801 -0.40093,29.75575 -8.21911,11.86483 -5.312,-12.15588 -6.24418,-13.5984 -9.79375,-15.1556 -2.39062,-1.04877 -5.53003,-1.16357 -36.45825,-1.33313 -28.4358,-0.1559 -34.04041,-0.0407 -35.08204,0.72092 -1.58794,1.16113 -1.55941,0.64003 -2.479,45.27701 l -0.74651,36.23498 31.7522,-3.9e-4 c 35.47359,-4.4e-4 35.6072,-0.0153 38.21503,-4.2348 0.74444,-1.20454 2.40206,-4.95484 3.6836,-8.33401 2.41333,-6.36348 3.86388,-8.1815 5.34535,-6.69946 1.16386,1.16431 1.19536,64.15809 0.0327,65.32043 -1.60485,1.60436 -3.27178,-1.38904 -6.93018,-12.44493 -4.27255,-12.91196 -5.52748,-15.4351 -8.12776,-16.34155 -1.2211,-0.42567 -12.98591,-0.66521 -32.67132,-0.66521 h -30.76309 l 0.21516,28.57265 c 0.35669,47.36819 0.51279,52.52527 1.6719,55.23386 0.63783,1.49047 1.68172,2.64758 2.75749,3.05659 1.13821,0.43275 14.69121,0.59537 39.57134,0.47481 37.04721,-0.17952 37.87708,-0.21089 39.59869,-1.49669 2.74714,-2.05172 5.75241,-8.09639 8.9573,-18.01632 3.17243,-9.81949 4.66248,-12.46286 6.84935,-12.15098 1.34937,0.19245 1.3605,0.32223 1.11752,13.03253 -0.13498,7.06098 -0.4223,17.97924 -0.6385,24.2628 l -0.39307,11.42466 -75.02315,0.0869 c -41.26273,0.0478 -75.52596,-0.0451 -76.14051,-0.20644 z m 1031.80775,-0.25084 c -0.6146,-0.35794 -1.1174,-1.08217 -1.1174,-1.6094 0,-1.14738 1.8262,-1.94681 11.4929,-5.03113 14.688,-4.68645 14.4923,-4.5503 15.3028,-10.64076 0.721,-5.41674 1.4819,-70.12457 1.343,-114.19751 -0.1352,-42.89655 -0.8417,-69.09893 -1.9416,-72.00247 -1.1134,-2.9393 -4.4854,-4.66011 -15.2678,-7.79144 -5.0508,-1.46683 -9.7198,-3.00201 -10.3755,-3.41152 -1.6114,-1.00632 -1.5021,-2.26667 0.2544,-2.9345 0.7957,-0.30251 22.273,-0.74521 47.7275,-0.98377 25.4545,-0.23857 57.1991,-0.84369 70.5436,-1.3447 13.3446,-0.50101 24.622,-0.91316 25.061,-0.9159 0.6229,-0.004 0.7981,4.75149 0.7981,21.66228 0,21.28581 -0.3417,25.35898 -2.0791,24.78368 -0.4368,-0.14465 -3.2413,-5.6908 -6.2322,-12.32479 -6.0125,-13.33601 -6.7797,-14.26781 -12.8138,-15.56189 -2.0422,-0.43798 -14.8148,-0.6864 -35.2911,-0.6864 -26.5574,0 -32.3021,0.15473 -33.3178,0.89736 -1.3566,0.992 -1.4843,3.91264 -2.5231,57.68454 l -0.4595,23.78394 h 32.0127 c 35.6638,0 35.1394,0.0589 37.9441,-4.25958 0.8733,-1.34454 2.4846,-5.01551 3.5807,-8.15771 1.0961,-3.14221 2.3035,-6.08726 2.683,-6.54457 0.9513,-1.14626 2.8696,-1.04371 3.3386,0.17848 0.663,1.72756 0.4408,61.97806 -0.2351,63.7557 -1.4808,3.89485 -2.9537,1.46968 -7.6529,-12.6008 -4.0268,-12.05724 -4.9394,-13.90967 -7.4066,-15.03375 -1.1513,-0.52459 -10.5585,-0.73691 -32.6495,-0.73691 h -31.0322 l 0.3716,40.06555 c 0.4012,43.24251 0.5396,44.99723 3.6763,46.60558 1.2219,0.62653 10.0154,0.76931 39.6736,0.64418 37.6261,-0.15874 38.1263,-0.17762 39.9059,-1.50591 3.0164,-2.25145 5.8323,-7.77516 8.9164,-17.49045 3.2454,-10.22327 4.7196,-12.94823 6.8417,-12.64568 1.3411,0.1912 1.3655,0.40207 1.2411,10.7302 -0.07,5.79434 -0.3171,16.78443 -0.5496,24.42242 l -0.4227,13.88727 -75.112,-0.0194 c -49.8305,-0.0129 -75.4882,-0.23847 -76.2295,-0.67022 z M 242.8157,501.81006 c -1.01736,-1.64612 2.42429,-3.50865 11.81356,-6.39319 14.95792,-4.59532 14.76492,-4.35586 15.43131,-19.14661 1.62423,-36.05026 1.02562,-168.89376 -0.79053,-175.43738 -1.15158,-4.14918 -3.25253,-5.44245 -14.80439,-9.11305 -12.86045,-4.08641 -13.82651,-4.72778 -10.05717,-6.67699 1.67529,-0.86632 6.65176,-0.96717 40.19355,-0.81451 40.0934,0.18248 40.8993,0.24092 39.25556,2.84678 -0.36347,0.57623 -5.36265,2.63551 -11.19507,4.61151 -11.90375,4.03295 -13.70977,5.00592 -14.99309,8.07734 -1.94818,4.66265 -2.50132,23.19812 -2.36157,79.13584 0.16017,64.11096 0.87249,102.18646 1.9484,104.14671 1.64542,2.99787 2.99295,3.12042 34.31023,3.12042 35.34034,0 32.99937,0.47805 36.64568,-7.4833 1.33169,-2.90762 4.24637,-9.69879 6.47705,-15.09148 2.23068,-5.39269 4.45002,-9.95617 4.93187,-10.14107 2.19769,-0.84333 2.29832,0.66726 1.50821,22.64013 -0.42657,11.86275 -0.93153,22.64609 -1.12214,23.96299 l -0.34656,2.39435 h -68.22514 c -44.7947,0 -68.36068,-0.21928 -68.61976,-0.63849 z"
       id="path1227" /></g></svg>
