<?xml version="1.0" encoding="UTF-8" standalone="no"?>
<!-- Created with Inkscape (http://www.inkscape.org/) -->

<svg
   version="1.1"
   id="svg336"
   width="1587.52"
   height="842.23999"
   viewBox="0 0 1587.52 842.23999"
   sodipodi:docname="grupopenaflor.svg"
   inkscape:version="1.2.2 (732a01da63, 2022-12-09)"
   xml:space="preserve"
   xmlns:inkscape="http://www.inkscape.org/namespaces/inkscape"
   xmlns:sodipodi="http://sodipodi.sourceforge.net/DTD/sodipodi-0.dtd"
   xmlns="http://www.w3.org/2000/svg"
   xmlns:svg="http://www.w3.org/2000/svg"><defs
     id="defs340" /><sodipodi:namedview
     id="namedview338"
     pagecolor="#505050"
     bordercolor="#eeeeee"
     borderopacity="1"
     inkscape:showpageshadow="0"
     inkscape:pageopacity="0"
     inkscape:pagecheckerboard="0"
     inkscape:deskcolor="#505050"
     showgrid="false"
     inkscape:zoom="0.62937278"
     inkscape:cx="734.8586"
     inkscape:cy="491.75943"
     inkscape:window-width="1920"
     inkscape:window-height="991"
     inkscape:window-x="-9"
     inkscape:window-y="-9"
     inkscape:window-maximized="1"
     inkscape:current-layer="g342" /><g
     inkscape:groupmode="layer"
     inkscape:label="Image"
     id="g342"><path
       style="fill:#000000"
       id="path487"
       d="" /><path
       style="fill:#333333"
       d="m 585.67419,781.31026 c -4.78239,-0.91158 -6.45459,-2.40762 -4.85092,-4.33992 0.9236,-1.11287 1.97377,-1.1856 5.09385,-0.35281 5.51265,1.47141 9.31206,-0.27918 8.87353,-4.08851 -0.24116,-2.09482 -1.41444,-3.33408 -4.97362,-5.25332 -7.12277,-3.84084 -8.84199,-5.77918 -8.84199,-9.9689 0,-6.28994 6.17467,-9.90955 14,-8.20684 2.51232,0.54666 3.58774,1.36744 3.81091,2.90857 0.29296,2.02309 0.003,2.11519 -5.03027,1.59575 -4.26874,-0.44057 -5.62464,-0.20971 -6.75292,1.14979 -1.92555,2.32015 -0.49507,4.40561 5.16741,7.5334 6.29719,3.47839 7.58389,4.71738 8.30402,7.99611 1.58355,7.20988 -5.83336,12.73583 -14.8,11.02668 z M 339.97504,759.28747 v -22 l 6.25,0.006 c 8.24035,0.007 13.20047,1.48034 15.70451,4.66372 2.88681,3.66998 2.70285,9.39602 -0.42113,13.10867 l -2.46663,2.93141 2.47423,1.12734 c 3.45996,1.57646 5.88861,7.05983 5.06689,11.43995 -1.36392,7.27036 -7.73271,10.70774 -19.85787,10.71775 l -6.75,0.005 z m 15.75634,15.9351 c 3.43877,-1.19877 5.80204,-5.60044 4.76358,-8.87235 -0.89345,-2.81501 -5.54199,-5.06275 -10.47026,-5.06275 h -4.04966 v 7.5 7.5 h 3.35078 c 1.84292,0 4.72543,-0.47921 6.40556,-1.0649 z m 0.24366,-20.9351 c 2.03426,-2.03426 2.62327,-6.46978 1.16438,-8.76827 -0.84179,-1.32623 -6.38881,-3.23173 -9.40778,-3.23173 -1.50817,0 -1.7566,0.98998 -1.7566,7 v 7 h 4 c 2.66667,0 4.66667,-0.66667 6,-2 z m 32.5,26.04051 c -1.1,-0.45799 -3.32917,-2.23727 -4.95371,-3.95396 -2.49457,-2.63606 -3.0166,-4.10885 -3.35827,-9.47462 -0.73744,-11.58141 4.94086,-18.11795 15.60517,-17.9638 8.44277,0.12204 14.12959,5.49282 14.95932,14.12799 0.62259,6.47938 -2.33691,13.39042 -6.93448,16.19347 -3.47597,2.11923 -11.45965,2.67739 -15.31803,1.07092 z m 13.32469,-6.41215 c 2.85205,-2.85022 3.83542,-9.09818 2.20805,-14.02916 -1.30406,-3.95134 -5.13991,-6.5992 -9.56,-6.5992 -3.46391,0 -8.42445,4.98462 -8.63118,8.67308 -0.43298,7.7251 0.66775,11.04986 4.43528,13.39675 3.91551,2.43907 8.19996,1.90426 11.54785,-1.44147 z m 24.17531,-8.49987 v -16.12849 l 7.25,0.022 c 13.57563,0.0411 19.25,4.64274 19.25,15.61073 0,10.6699 -5.45996,15.40629 -18.63936,16.16924 l -7.86064,0.455 z m 18.33107,6.82701 c 2.56946,-2.87573 2.84242,-3.79812 2.42121,-8.18176 -0.64538,-6.71661 -3.04533,-8.96764 -10.19286,-9.56037 l -5.55942,-0.46103 v 10.45716 c 0,5.75144 0.3375,10.80021 0.75,11.21947 0.4125,0.41927 2.7604,0.53852 5.21756,0.26499 3.42097,-0.38082 5.14598,-1.25661 7.36351,-3.73846 z m 23.66893,-6.9555 v -16 h 9.46778 c 9.39717,0 9.4616,0.0168 8.63952,2.25 -0.71707,1.94797 -1.65239,2.28996 -6.96777,2.54772 l -6.13953,0.29771 v 3.95229 3.95228 h 6 c 5.73333,0 6,0.11111 6,2.5 0,2.38889 -0.26667,2.5 -6,2.5 h -6 v 4.5 4.5 h 6.5 c 6.26667,0 6.5,0.0897 6.5,2.5 0,2.48148 -0.0667,2.5 -9,2.5 h -9 z m 39.24086,14.0054 c -9.19611,-5.60694 -9.81802,-20.91104 -1.10902,-27.29135 3.6679,-2.68714 11.26155,-3.95448 16.01889,-2.67346 3.19754,0.86101 3.84927,1.47137 3.84927,3.60494 0,2.07236 -0.33801,2.41995 -1.75,1.79962 -6.19636,-2.72225 -14.71895,-0.67447 -17.30524,4.15806 -1.69866,3.17398 -1.72002,8.11094 -0.0525,12.13668 1.4861,3.58778 6.79146,6.546 10.8919,6.07324 2.51511,-0.28999 2.7528,-0.71964 3.21584,-5.81313 0.46474,-5.11218 0.69391,-5.52231 3.25,-5.81642 l 2.75,-0.31642 v 6.96859 c 0,6.9172 -0.0232,6.9767 -3.14922,8.06642 -5.0806,1.77111 -12.92926,1.34736 -16.60992,-0.89677 z m 32.74763,1.2446 c -0.006,-0.4125 2.78729,-7.63153 6.20805,-16.04229 8.05623,-19.8082 8.1668,-19.81309 16.03415,-0.70771 7.75432,18.8309 7.451,17.5 3.98839,17.5 -2.47311,0 -3.15421,-0.60718 -4.48694,-4 l -1.57125,-4 h -5.92875 -5.92876 l -1.57124,4 c -1.26773,3.22732 -2.06972,4 -4.15169,4 -1.41925,0 -2.58563,-0.3375 -2.59196,-0.75 z m 18.01151,-12.07186 c 0,-2.23802 -3.33695,-10.22809 -3.97056,-9.5072 -1.35312,1.53953 -3.92753,9.09763 -3.30936,9.71581 0.92056,0.92056 7.27992,0.73833 7.27992,-0.20861 z m 78.00134,11.57186 c 7.4e-4,-0.6875 3.5334,-10.475 7.85036,-21.75 7.82148,-20.42807 9.74376,-23.52984 11.96737,-19.31033 1.27188,2.41352 16.18093,40.77833 16.18093,41.63768 0,0.36996 -1.28886,0.67265 -2.86414,0.67265 -2.50089,0 -3.08944,-0.60244 -4.64053,-4.75 -0.97702,-2.6125 -2.21825,-5.3125 -2.75831,-6 -1.07191,-1.36457 -14.42471,-1.76066 -16.33956,-0.48469 -0.6064,0.40408 -1.88007,3.09719 -2.83037,5.98469 -1.45163,4.41078 -2.11461,5.25 -4.14746,5.25 -1.3308,0 -2.41903,-0.5625 -2.41829,-1.25 z m 23.37302,-16.34845 c -0.0691,-0.49585 -1.37601,-4.71148 -2.90423,-9.36807 l -2.77859,-8.46652 -3.23544,8.96652 c -1.93286,5.35661 -2.84281,9.21287 -2.2602,9.57843 1.49422,0.93752 11.32108,0.31305 11.17846,-0.71036 z m 26.62564,1.59845 v -16 h 6.56574 c 9.48913,0 13.34198,2.52846 13.40246,8.79545 0.0213,2.21137 -0.79061,4.11787 -2.4682,5.79546 -1.375,1.375 -2.5,2.72924 -2.5,3.00941 0,0.28018 1.8,3.16004 4,6.39968 4.65127,6.8493 4.8777,8 1.57418,8 -1.84397,0 -3.47156,-1.49912 -6.7856,-6.25 -2.83629,-4.06599 -5.04621,-6.25 -6.32417,-6.25 -1.71125,0 -2.00278,0.80545 -2.26213,6.25 -0.28041,5.88663 -0.44029,6.25 -2.75,6.25 h -2.45228 z m 12.06574,-2.03518 c 2.19222,-1.17324 2.63573,-5.86335 0.73426,-7.76482 -0.66,-0.66 -2.685,-1.2 -4.5,-1.2 -3.22564,0 -3.3,0.0976 -3.3,4.33333 0,2.38334 0.3,4.63334 0.66667,5 0.9918,0.99181 4.20281,0.80689 6.39907,-0.36851 z m 29.83214,15.76525 c -9.38586,-6.27017 -9.02655,-21.77922 0.64303,-27.75536 2.67257,-1.65173 5.21068,-2.24195 9.82786,-2.28539 7.19405,-0.0677 8.63123,0.55353 8.63123,3.73077 0,2.17578 -0.20791,2.24656 -3.79032,1.29035 -5.50441,-1.46921 -10.62545,-0.19347 -13.6494,3.40029 -5.52804,6.5697 -2.06738,17.95311 5.91306,19.45025 6.13888,1.15166 7.52666,0.0217 7.52666,-6.12837 0,-5.12812 0.14012,-5.43261 2.5,-5.43261 2.42941,0 2.5,0.19835 2.5,7.02475 0,6.62048 -0.14762,7.08088 -2.5651,8 -4.85916,1.84745 -13.82426,1.1856 -17.53702,-1.29468 z M 764.97504,765.325 v -16.03753 h 9.5 c 5.225,0 9.5,0.25458 9.5,0.56574 0,0.31116 -0.46583,1.43616 -1.03518,2.5 -0.84762,1.58379 -2.1269,1.93426 -7.06037,1.93426 h -6.02518 l 0.31036,3.75 0.31037,3.75 5.75,0.2999 c 5.31961,0.27746 5.75,0.47956 5.75,2.7001 0,2.22054 -0.43039,2.42264 -5.75,2.7001 l -5.75,0.2999 -0.3075,4.25 -0.3075,4.25 h 7.12705 c 6.81903,0 7.11324,0.0972 6.8075,2.25 -0.30159,2.12355 -0.83941,2.26616 -9.56955,2.53753 l -9.25,0.28752 z m 34,0.0289 v -16.06642 h 2.99063 c 2.64065,0 3.95716,1.29035 11.25,11.02649 l 8.25937,11.02647 0.28275,-11.02648 0.28275,-11.02649 h 2.96725 2.96725 v 16 16 h -2.40688 c -2.55504,0 -5.90751,-3.59375 -15.159,-16.24999 -2.71377,-3.71249 -5.22051,-6.74999 -5.57055,-6.75 -0.35004,0 -0.57504,5.06249 -0.5,11.24999 l 0.13643,11.25 -2.75,0.31642 -2.75,0.31642 v -16.06642 z m 52,2.43358 v -13.5 h -5 c -4.66667,0 -5,-0.16667 -5,-2.5 v -2.5 h 13.10699 c 11.54102,0 13.03447,0.18899 12.5,1.58179 -0.33385,0.86998 -0.60699,1.99498 -0.60699,2.5 0,0.505 -2.25,0.9182 -5,0.9182 h -5 v 13.5 13.5 h -2.5 -2.5 v -13.5 z m 29,-2.5 v -16 h 2.5 2.5 v 16 16 h -2.5 -2.5 z m 22.66667,15.33333 c -0.36667,-0.36667 -0.66667,-7.56667 -0.66667,-16.00001 v -15.33333 l 3.25,0.0126 c 2.97664,0.0116 3.92289,0.93299 11.25,10.95501 4.4,6.01832 8.3375,10.96264 8.75,10.98739 0.4125,0.0247 0.75,-4.905 0.75,-10.955 v -11 h 2.5 2.5 v 16 16 h -2.48445 c -2.00349,0 -4.18133,-2.25998 -11.25,-11.67431 l -8.76555,-11.67431 -0.28174,11.67431 c -0.27598,11.43597 -0.32872,11.67431 -2.58333,11.67431 -1.26588,0 -2.6016,-0.3 -2.96826,-0.66667 z m 42.33333,-0.39627 c 0,-0.58461 2.76521,-7.80737 6.1449,-16.05056 8.0543,-19.64471 8.05269,-19.6448 16.53452,0.99139 3.47632,8.45784 6.32058,15.54534 6.32058,15.75 0,0.20465 -1.28174,0.3721 -2.84831,0.3721 -2.39449,0 -3.09866,-0.63732 -4.41955,-4 l -1.57125,-4 h -5.97187 -5.97186 l -1.60048,4 c -1.2716,3.17803 -2.11588,4 -4.10858,4 -1.37946,0 -2.5081,-0.47832 -2.5081,-1.06293 z m 17.38435,-11.74994 c 0.58,-0.93846 -2.56868,-10.18713 -3.46818,-10.18713 -0.32978,0 -1.15292,1.84684 -1.82921,4.10409 -0.67629,2.25725 -1.47066,4.73225 -1.76528,5.5 -0.39636,1.03291 0.38698,1.39591 3.01231,1.39591 1.95139,0 3.77405,-0.36579 4.05036,-0.81287 z m 24.25235,11.53649 c -2.2223,-1.62499 -1.16171,-5.17 1.24234,-4.15249 7.34591,3.10913 13.58642,0.41125 11.51779,-4.97938 -0.35668,-0.92951 -3.27901,-3.01788 -6.49407,-4.64084 -4.71967,-2.38248 -6.01579,-3.5768 -6.72943,-6.20087 -2.11922,-7.79245 4.75975,-13.19151 13.7299,-10.7761 2.96073,0.79725 4.09673,1.62702 4.09673,2.99235 0,1.68255 -0.5775,1.82959 -5.28023,1.34423 -4.06366,-0.4194 -5.58034,-0.18341 -6.58262,1.02427 -2.11675,2.55052 -0.3926,5.30901 4.68307,7.49251 5.58838,2.40406 7.91798,4.72646 8.19808,8.1727 0.3872,4.76533 -0.031,6.10739 -2.6643,8.54775 -2.161,2.0028 -3.6839,2.45225 -8.30885,2.45225 -3.11457,0 -6.44835,-0.57437 -7.40841,-1.27638 z m 57.59376,-20.47362 0.2695,-21.75 h 2.5 2.5 l 0.2716,19.25 0.2716,19.25 h 7.9784 c 7.8437,0 7.9784,0.0422 7.9784,2.5 v 2.5 h -11.0195 -11.0195 z m 34.7695,5.81642 v -16.06642 h 3.0254 3.0254 l -0.2754,15.75 -0.2754,15.75 -2.75,0.31642 -2.75,0.31642 z m 23,0.0765 V 749.2875 h 7.2882 c 13.5153,0 20.2429,5.81351 19.4315,16.79147 -0.7191,9.73001 -6.1766,14.08626 -18.7245,14.94632 l -7.9952,0.548 z m 14.8812,9.74869 c 6.5393,-2.2796 8.4034,-12.76085 3.1958,-17.9685 -2.3568,-2.35683 -3.787,-2.92311 -7.3826,-2.92311 h -4.4594 l -0.6895,7.35778 c -0.3792,4.04678 -0.382,8.99678 -0.01,11 0.5885,3.13699 1.0633,3.64222 3.4228,3.64222 1.5067,0 4.1703,-0.49879 5.9191,-1.10842 z m 27.1188,-9.85408 v -16.03753 h 9.5 c 5.225,0 9.5,0.25458 9.5,0.56574 0,0.31116 -0.4658,1.43616 -1.0351,2.5 -0.8477,1.58379 -2.1269,1.93426 -7.0604,1.93426 h -6.0252 l 0.3104,3.75 0.3103,3.75 5.75,0.2999 c 5.3197,0.27746 5.75,0.47956 5.75,2.7001 0,2.22054 -0.4303,2.42264 -5.75,2.7001 l -5.75,0.2999 -0.3075,4.25 -0.3075,4.25 h 7.1271 c 6.819,0 7.1132,0.0972 6.8075,2.25 -0.3016,2.12355 -0.8394,2.26616 -9.5696,2.53753 l -9.25,0.28752 z m 34,0.0289 v -16.06642 h 6.5497 c 7.4893,0 11.5206,1.66415 13.2556,5.47206 1.7533,3.84805 1.5081,5.10145 -1.7168,8.77441 l -2.9116,3.31607 4.384,6.46873 c 2.4112,3.5578 4.3964,6.80623 4.4116,7.21873 0.015,0.4125 -1.2598,0.75 -2.8333,0.75 -2.4231,0 -3.5038,-0.99436 -7.0643,-6.5 -5.6821,-8.78599 -7.8674,-8.852 -8.2772,-0.25 -0.2853,5.98979 -0.4122,6.26317 -3.0477,6.56642 l -2.75,0.31642 z m 13.1191,-2.96175 c 2.0119,-1.62918 2.2005,-2.2962 1.3425,-4.75 -0.8228,-2.3536 -1.6531,-2.90915 -4.7298,-3.16504 l -3.7318,-0.31036 v 5.06036 c 0,4.66849 0.185,5.06037 2.3892,5.06037 1.3141,0 3.4425,-0.8529 4.7299,-1.89533 z m 24.8809,2.89532 v -16 h 9.4678 c 9.3972,0 9.4616,0.0168 8.6395,2.25 -0.7171,1.94797 -1.6524,2.28996 -6.9678,2.54772 l -6.1395,0.29771 v 3.95229 3.95228 h 6 c 5.7333,0 6,0.11111 6,2.5 0,2.38889 -0.2667,2.5 -6,2.5 h -6 v 4.5 4.5 h 6.5 c 6.2667,0 6.5,0.0897 6.5,2.5 0,2.48148 -0.067,2.5 -9,2.5 h -9 z m 33.75,15.31067 c -1.6269,-0.42516 -2.415,-3.31232 -1.2281,-4.49923 0.287,-0.28704 2.2833,-0.0517 4.4362,0.5229 5.0742,1.35438 9.0419,-0.25076 9.0419,-3.65791 0,-2.72708 -2.1138,-4.79826 -6.7839,-6.6471 -6.3624,-2.51881 -9.0469,-8.97048 -5.713,-13.7303 3.4337,-4.90235 15.6333,-5.23751 16.3243,-0.44847 0.3024,2.0962 0.055,2.21806 -3.2434,1.59921 -1.964,-0.36844 -4.7272,-0.37966 -6.1405,-0.0249 -2.0837,0.52299 -2.5104,1.15668 -2.2566,3.35127 0.2439,2.10849 1.3341,3.18975 4.9351,4.89462 8.9365,4.23102 11.3848,10.97633 5.9549,16.40621 -2.5431,2.54313 -3.6155,2.908 -8.25,2.80708 -2.9298,-0.0638 -6.1144,-0.3218 -7.0769,-0.57333 z m -170.75,-34.97281 c 0,-0.36418 1.144,-2.61418 2.5422,-5 2.2548,-3.8476 2.9505,-4.33786 6.155,-4.33786 h 3.6128 l -1.8761,2.25 c -4.9923,5.98693 -6.9535,7.75 -8.6209,7.75 -0.9971,0 -1.813,-0.29796 -1.813,-0.66214 z m -858.53018,-45.38 c -13.2756,-1.73596 -27.83141,-8.88931 -34.90592,-17.15429 -8.3928,-9.8051 -12.57256,-22.58426 -12.54908,-38.36746 0.0432,-29.0188 13.88896,-48.13803 40.98522,-56.59523 6.55032,-2.04447 9.52598,-2.34088 23.5,-2.34088 13.81386,0 16.97939,0.30795 23.16797,2.25387 l 7.16796,2.25386 1.08204,5.04536 c 1.71394,7.99183 1.57573,8.14389 -3.99479,4.39521 -13.33581,-8.97433 -35.8506,-9.84949 -49.3821,-1.91951 -15.55625,9.11657 -23.94155,29.73419 -21.41771,52.66141 2.16398,19.6581 10.38096,32.97599 24.37663,39.50905 5.47884,2.55748 6.99888,2.80075 17.5,2.80075 9.96123,0 12.20248,-0.31754 16.75,-2.37314 l 5.25,-2.37315 v -15.75441 c 0,-12.78397 -0.28282,-15.98913 -1.5,-16.9993 -0.825,-0.68469 -1.5,-1.63979 -1.5,-2.12244 0,-0.48266 5.63537,-0.87756 12.52305,-0.87756 h 12.52306 l -1.77306,2.703 c -1.46184,2.22857 -1.86081,5.6873 -2.27305,19.70557 l -0.5,17.00257 -12.71727,3.73666 c -18.73601,5.50512 -28.50495,6.61563 -42.31295,4.81006 z m 187.03022,-1.30583 c -10.51013,-3.47499 -17.73173,-9.59563 -21.86267,-18.52963 -2.01469,-4.35716 -2.16602,-6.57902 -2.63733,-38.72117 -0.39388,-26.86168 -0.79129,-34.44923 -1.87244,-35.75 -1.26357,-1.52023 -0.37223,-1.65123 11.2353,-1.65123 h 12.60774 l -1.98156,3.25 c -1.85148,3.03665 -1.98181,5.10124 -1.9853,31.45078 -0.005,35.6669 1.18548,41.86812 9.42422,49.10182 11.40891,10.01716 33.82087,3.84569 40.02136,-11.02048 2.28193,-5.4711 2.30339,-65.42586 0.025,-69.83178 l -1.52568,-2.95034 h 12.05136 12.05136 l -1.52568,2.95034 c -2.25344,4.35767 -2.27102,83.09691 -0.0195,87.41397 1.8599,3.5662 1.91395,3.34805 -0.75616,3.0519 -1.2375,-0.13725 -5.9625,-0.28704 -10.5,-0.33288 l -8.25002,-0.0833 v -5.58499 -5.58498 l -4.62601,4.07198 c -8.02176,7.06103 -14.32292,9.44287 -25.87399,9.78037 -6.37194,0.18617 -11.45122,-0.18764 -14,-1.03035 z m 195.55002,-1.24039 c -20.44339,-6.96236 -32.05002,-23.39742 -32.05002,-45.38304 0,-20.21548 8.73426,-35.03897 25.82809,-43.83454 9.54048,-4.90902 16.27312,-6.5228 27.17191,-6.51297 15.06588,0.0136 26.68658,4.89259 36.24616,15.21808 21.74542,23.48764 14.7049,62.48638 -13.88637,76.91921 -13.4678,6.79852 -29.8961,8.16152 -43.30977,3.59326 z m 31.3422,-6.02961 c 6.54191,-2.22906 13.79765,-9.66316 16.68319,-17.09331 3.09967,-7.98151 3.77436,-23.37154 1.47725,-33.69662 -3.20645,-14.41239 -10.81551,-25.51852 -20.5485,-29.99248 -5.69477,-2.6177 -17.62284,-2.76569 -23.34236,-0.2896 -13.29081,5.75385 -20.79718,21.14268 -19.27891,39.52374 1.79507,21.73217 10.31379,36.53981 24.07031,41.84016 4.47103,1.72268 15.47685,1.56925 20.93902,-0.29189 z m 631.71234,7.03545 c -7.9365,-2.13426 -14.845,-6.2105 -21.0787,-12.43723 -18.2857,-18.26528 -18.211,-50.47489 0.1596,-68.79919 8.9923,-8.9697 18.3431,-13.43369 31.6225,-15.09633 28.2082,-3.53183 52.1237,13.22894 56.2406,39.41527 5.0946,32.40598 -18.8064,58.70182 -53.1125,58.43419 -4.6399,-0.0362 -10.864,-0.71872 -13.8315,-1.51671 z m 30.3954,-7.80772 c 6.4869,-3.07568 11.7243,-8.64002 15.1092,-16.05225 7.1033,-15.555 2.5601,-43.50931 -9.184,-56.50857 -6.0104,-6.65285 -12.4221,-9.49355 -21.4959,-9.52375 -9.9129,-0.033 -17.543,3.59164 -23.1402,10.99257 -4.9828,6.58847 -6.8457,12.1871 -7.5024,22.54685 -1.4207,22.41034 8.784,44.24727 23.0375,49.29785 6.7486,2.39128 17.2653,2.04972 23.1758,-0.7527 z m -1001.50944,6.38438 c -0.89248,-0.55158 -0.91633,-1.26424 -0.0938,-2.80122 0.75357,-1.40805 1.1013,-15.15685 1.09709,-43.37718 -0.005,-33.93357 -0.26248,-41.8071 -1.4407,-44.06574 l -1.43453,-2.75 18.19069,0.008 c 20.7566,0.009 28.77101,1.0266 36.9525,4.69365 20.97895,9.40305 18.77252,32.41859 -3.7618,39.23988 -2.2,0.66596 -4.675,1.43529 -5.5,1.70962 -1.02562,0.34105 -0.5055,0.92025 1.64466,1.83148 5.15109,2.183 10.80185,8.0068 21.73512,22.40066 9.83985,12.95388 18.37327,22.11671 20.59791,22.11671 0.56229,0 1.02234,0.45 1.02234,1 0,1.76525 -18.71852,1.22741 -22.67827,-0.65162 -3.96808,-1.88298 -10.75505,-10.04091 -21.32517,-25.63284 -4.02106,-5.93145 -8.80297,-12.0944 -10.62646,-13.69545 -3.29534,-2.89335 -8.81731,-5.00385 -13.1201,-5.01451 l -2.25,-0.006 0.006,19.25 c 0.005,15.22332 0.32238,19.85636 1.51789,22.14878 0.83144,1.59433 1.29064,3.11986 1.02043,3.39007 -0.81589,0.8159 -20.26624,1.00115 -21.55396,0.20529 z m 37.24235,-52.44697 c 12.56383,-5.24951 14.6953,-23.53879 3.69997,-31.74799 -2.9976,-2.23803 -12.98658,-3.97413 -18.13195,-3.15135 l -3.80089,0.60779 v 17.87219 17.87219 h 7.37788 c 4.18943,0 8.88055,-0.62786 10.85499,-1.45283 z m 156.78221,52.95283 c 0.008,0 0.66351,-1.8 1.45608,-4 2.17047,-6.02466 2.19551,-79.96868 0.0288,-85.15424 -0.825,-1.97451 -1.5,-3.77757 -1.5,-4.00682 0,-0.22924 3.9375,-0.28679 8.75,-0.12787 8.36308,0.27615 8.74471,0.38842 8.63026,2.53893 -0.0838,1.57377 0.44221,2.25 1.75,2.25 1.77301,0 1.86974,1.2097 1.86974,23.38337 0,22.54236 -0.0719,23.40218 -2,23.90638 -1.16988,0.30593 -2,1.36401 -2,2.54924 0,1.14798 0.86689,2.30137 2,2.66101 1.88452,0.59812 2,1.51303 2,15.84488 0,12.14787 0.31341,15.65756 1.5567,17.43261 1.88216,2.68716 2.39242,2.57229 -11.80668,2.65779 -5.91249,0.0356 -10.74321,0.0647 -10.73494,0.0647 z m 308.36991,-1.96482 c 1.4224,-2.17085 1.61501,-7.51114 1.61501,-44.77749 0,-36.67781 -0.20731,-42.60865 -1.5567,-44.53518 l -1.55671,-2.22251 h 31.92586 31.92587 l 0.60002,3.69749 c 0.33001,2.03362 0.48454,3.81296 0.34341,3.95409 -0.14113,0.14114 -3.16476,-0.16369 -6.71918,-0.67738 -7.21792,-1.04315 -32.92404,-1.30995 -35.38078,-0.36721 -1.35673,0.52063 -1.58179,3.03091 -1.58179,17.64339 v 17.0364 l 17.90103,-0.51324 17.90103,-0.51324 0.59897,2.99485 c 0.32943,1.64717 0.59922,3.2761 0.59952,3.61985 3.1e-4,0.34375 -8.32469,0.46958 -18.5,0.27963 l -18.50055,-0.34538 v 19.5341 19.5341 l 4.70318,0.70529 c 6.80225,1.02006 32.8891,-0.24477 39.06959,-1.89431 4.7804,-1.27586 5.23211,-1.25698 4.83732,0.20215 -0.2395,0.88518 -0.72014,3.29692 -1.06808,5.35942 l -0.63264,3.75 h -34.06969 -34.0697 z m 83.28709,-0.0352 c 0.42499,-1.1 0.90723,-21.07683 1.07166,-44.39295 0.26008,-36.88063 0.0981,-42.69943 -1.24545,-44.75 l -1.5444,-2.35705 10.27306,0.0771 10.27305,0.0771 8.91483,10.17286 c 4.90316,5.59507 17.72816,20.0163 28.5,32.04718 l 19.58517,21.87433 0.26512,-29.77679 c 0.22633,-25.42148 0.0401,-30.12015 -1.27306,-32.12433 l -1.53817,-2.34745 h 8.54874 8.54873 l -1.52568,2.95034 c -1.29951,2.51297 -1.52568,9.44931 -1.52568,46.78998 v 43.83963 l -3.11109,-0.0746 c -2.59258,-0.0622 -4.30088,-1.41515 -10.25,-8.11793 -24.58514,-27.69976 -59.98234,-66.38742 -60.74101,-66.38742 -0.51268,0 -0.8979,14.38605 -0.8979,33.53212 0,27.5441 0.26786,34.1732 1.5,37.12212 0.825,1.97451 1.50008,3.64755 1.50018,3.71788 10e-5,0.0703 -3.62254,0.12788 -8.05031,0.12788 -7.6414,0 -8.01123,-0.10163 -7.27779,-2 z m 99.22426,1.43594 c -0.77253,-0.47746 -0.61989,-1.42822 0.50491,-3.14489 3.23439,-4.9363 37.65651,-86.34235 37.22771,-88.04105 -0.397,-1.57283 0.4992,-1.75 8.8524,-1.75 h 9.2941 l 6.0551,13.75 c 21.2571,48.27111 32.9683,74.29405 34.458,76.5676 0.9413,1.43662 1.7114,2.76022 1.7114,2.94133 0,0.18112 -4.725,0.31722 -10.5,0.30245 -10.2646,-0.0263 -10.5,-0.0781 -10.5,-2.3138 0,-1.25782 -2.6691,-8.24059 -5.9315,-15.51726 l -5.9314,-13.23032 -8.8185,-0.83086 c -4.8502,-0.45697 -14.2964,-0.52616 -20.9915,-0.15375 l -12.1729,0.67711 -5.57711,12.97841 c -3.06738,7.13813 -5.57905,14.18232 -5.58149,15.65375 -0.004,2.56795 -0.22497,2.67775 -5.49818,2.73548 -3.02156,0.0331 -5.99202,-0.24781 -6.60104,-0.6242 z m 60.78052,-37.71509 c 0.834,-0.53039 -1.2483,-6.57268 -7.1454,-20.73468 -4.5772,-10.9924 -8.6903,-19.9156 -9.1402,-19.82934 -1.0889,0.2088 -18.3013,39.63102 -17.7236,40.59317 0.5868,0.97717 32.47,0.94985 34.0092,-0.0291 z m 46.9775,36.34321 c 0.4347,-1.13523 0.9249,-21.14089 1.0894,-44.45701 0.2608,-36.98746 0.1008,-42.69528 -1.2547,-44.76409 l -1.5536,-2.37114 31.7656,0.26409 31.7656,0.26409 0.6612,4 c 0.3637,2.2 0.5494,4.12183 0.4126,4.27074 -0.1367,0.14891 -2.4518,-0.19336 -5.1445,-0.76058 -2.6928,-0.56723 -12.321,-1.13906 -21.396,-1.27074 l -16.5,-0.23942 -0.2742,17.40209 -0.2743,17.4021 17.5878,-0.56831 c 12.9554,-0.41862 17.6808,-0.26113 17.9408,0.59791 0.1941,0.64142 0.5961,2.29121 0.8933,3.66621 l 0.5405,2.5 -18.4946,-0.34601 -18.4946,-0.34601 0.2877,21.84601 c 0.1582,12.01531 0.6426,22.55351 1.0764,23.41823 0.6938,1.38282 -0.5492,1.57123 -10.318,1.56406 -10.8088,-0.008 -11.0856,-0.0635 -10.3164,-2.07222 z m 75.3456,1.96388 c 0,-0.15603 0.675,-1.89919 1.5,-3.8737 2.224,-5.32272 2.2185,-81.75295 -0.01,-86.01855 -0.8217,-1.57537 -1.494,-3.03787 -1.494,-3.25 0,-0.21213 5.3655,-0.38569 11.9234,-0.38569 h 11.9233 l -1.4348,2.87614 c -1.1889,2.38329 -1.39,9.79449 -1.1734,43.25 l 0.2615,40.37386 15,-0.0915 c 15.8566,-0.0967 24.536,-1.38842 30.8381,-4.58953 3.6331,-1.84538 3.8097,-1.85255 3.307,-0.13426 -0.2922,0.9984 -0.8284,3.92249 -1.1916,6.49798 -0.3632,2.57549 -1.1764,4.87586 -1.807,5.11193 -1.2494,0.46771 -67.6465,0.69671 -67.6465,0.2333 z m 180.5975,-1.52794 c 2.1683,-5.25108 2.4627,-11.58864 2.1961,-47.28339 -0.2663,-35.64627 -0.4588,-39.56011 -2.0667,-42.0124 l -1.773,-2.70421 19.273,0.0174 c 26.4272,0.0238 37.0225,2.45635 44.8326,10.29295 6.0793,6.09993 7.5058,13.64615 4.0274,21.30578 -2.7266,6.00405 -13.559,13.30067 -19.8369,13.36195 -3.1516,0.0308 -2.8018,1.55075 0.6897,2.99697 3.9713,1.64497 11.7727,10.06243 22.8665,24.67226 8.8555,11.66204 16.0868,19.35273 18.1967,19.35273 0.5484,0 0.9971,0.45 0.9971,1 0,1.2952 -18.008,1.32764 -21.3986,0.0385 -4.0328,-1.53325 -9.7833,-8.14457 -19.5922,-22.52512 -10.1051,-14.81453 -14.9659,-19.85224 -20.6884,-21.44131 -7.9339,-2.2031 -7.4415,-3.57961 -7.038,19.67788 0.198,11.4125 0.5529,21.65 0.7886,22.75 0.4087,1.90697 -0.095,2 -10.8323,2 -9.6184,0 -11.1706,-0.2188 -10.6416,-1.5 z m 41.3349,-53.33653 c 4.8371,-3.20109 7.0676,-7.98653 7.0676,-15.16347 0,-7.01739 -2.1628,-11.81947 -6.5425,-14.52625 -3.929,-2.42829 -13.6059,-4.21182 -18.2075,-3.35578 l -3.25,0.60461 v 17.82535 17.82535 l 3.25,0.31336 c 5.9902,0.57757 13.8531,-0.98909 17.6824,-3.52317 z m -680.35841,50.58653 c 2.03229,-5.69476 1.94067,-99.07788 -0.10279,-104.75 -0.79257,-2.2 -1.44782,-4.1125 -1.4561,-4.25 -0.008,-0.1375 3.80994,-0.25 8.48494,-0.25 h 8.5 v 2.93045 c 0,2.27763 0.50123,3.00163 2.25,3.25 l 2.25,0.31955 v 28 c 0,27.33333 -0.0476,28 -2,28 -1.43836,0 -2.08885,0.77213 -2.31638,2.74951 -0.24856,2.16016 0.21722,2.95239 2.17297,3.69597 l 2.48934,0.94644 0.11092,19.28128 c 0.0877,15.251 0.42219,19.75634 1.60008,21.55404 l 1.48918,2.27276 h -12.40522 -12.40521 z m -194.57395,-34.25 c 0,-1.1 0.3375,-2.02261 0.75,-2.05024 0.4125,-0.0276 4.125,-0.21122 8.25,-0.40797 8.52289,-0.40651 13.34453,-2.14937 18.52169,-6.69498 5.47901,-4.81063 7.83816,-10.17962 7.84195,-17.84681 0.004,-7.30845 -1.45435,-10.86039 -6.54147,-15.93663 -5.48202,-5.47029 -11.09888,-7.53124 -20.57217,-7.54842 -7.88446,-0.0143 -8.25,-0.11464 -8.25,-2.26495 0,-2.1898 0.2796,-2.25 10.45078,-2.25 16.73892,0 27.36953,3.2387 35.02056,10.66928 9.56511,9.28952 10.22815,24.27706 1.49323,33.75333 -7.45705,8.08994 -20.78415,12.52825 -37.71457,12.56003 -8.58912,0.0161 -9.25,-0.12553 -9.25,-1.98264 z m 215,-8.86955 v -3.13045 h 9.46249 c 12.92878,0 19.12445,-2.30696 26.61482,-9.91006 8.83532,-8.96827 10.40114,-19.12748 4.65802,-30.2217 -6.00271,-11.59568 -18.95401,-18.40023 -33.69285,-17.70205 l -7.04699,0.33381 0.002,-2.88186 0.002,-2.88186 15.75,0.4971 c 13.86841,0.43771 16.56468,0.80963 22.56936,3.11315 15.79442,6.05908 23.46704,15.08603 24.45334,28.7697 1.19722,16.60982 -9.43806,28.69494 -30.30722,34.43884 -3.37609,0.92921 -11.71681,1.8728 -19.21548,2.17386 l -13.25,0.53197 v -3.13045 z m 200,-54.73173 c -7.92737,-2.26359 -8.80171,-2.32926 -12.97852,-0.97476 -2.46318,0.79879 -4.64977,1.28108 -4.85909,1.07177 -0.80284,-0.80285 4.28097,-6.80436 8.11906,-9.58465 4.83066,-3.49932 8.64007,-3.69354 17.56594,-0.8956 3.49107,1.09433 9.20169,2.06833 12.69027,2.16445 5.74892,0.1584 6.25358,0.34163 5.38918,1.95677 -2.04955,3.82962 -11.40358,9.01682 -15.82606,8.77621 -0.88043,-0.0479 -5.42578,-1.17929 -10.10078,-2.51419 z M 715.32664,489.20521 c -1.73161,-0.50725 -4.54411,-2.51191 -6.25,-4.4548 -7.54306,-8.59107 -1.08036,-22.46294 10.46515,-22.46294 6.99,0 13.43325,6.43579 13.43325,13.41769 0,9.31332 -8.8446,16.07895 -17.6484,13.50005 z m 49.22167,-0.79918 c -0.27517,-0.44524 4.33742,-4.42866 10.2502,-8.85203 24.48646,-18.3184 51.58545,-48.11879 69.00255,-75.88115 5.08997,-8.11327 17.21456,-34.68217 16.64539,-36.47545 -0.70211,-2.21218 0.49202,-5.05056 1.78788,-4.24968 0.57735,0.35682 0.77679,0.20714 0.4432,-0.33262 -0.35584,-0.57576 -2.69296,-0.71372 -5.65451,-0.33379 -2.77639,0.35618 -5.04798,0.3086 -5.04798,-0.10573 0,-0.41433 -0.93105,-1.04884 -2.069,-1.41001 -1.13794,-0.36117 -2.93626,-2.07899 -3.99626,-3.81739 l -1.92726,-3.16071 -0.004,3.21862 c -0.003,2.50213 -0.35044,3.08557 -1.56121,2.62095 -0.85661,-0.32871 -1.33963,-1.16535 -1.07337,-1.85919 0.482,-1.25607 -3.7863,-2.72433 -11.36916,-3.91089 -8.88174,-1.38981 -13.58864,-2.7032 -14.61024,-4.07676 -0.61064,-0.821 -2.20842,-1.49273 -3.55064,-1.49273 -2.65698,0 -7.81877,-2.09103 -7.83132,-3.17245 -0.0121,-1.0397 -6.84095,-3.0487 -7.9768,-2.34671 -0.56634,0.35002 -0.77154,0.007 -0.46827,-0.78371 0.51748,-1.34855 -5.2192,-2.63278 -13.68541,-3.06365 -1.44248,-0.0734 -2.46389,-0.58348 -2.26982,-1.13348 0.48868,-1.38491 -6.18271,-4.28065 -11.6075,-5.03827 -6.68776,-0.93402 -7.93138,-1.49902 -5.5,-2.49878 1.62021,-0.66621 1.34785,-0.83573 -1.43428,-0.89266 -1.88885,-0.0387 -5.36402,-1.00447 -7.7226,-2.14624 -4.59491,-2.22435 -6.77055,-1.84613 -5.86122,1.01892 0.3329,1.04887 -0.16169,2.34363 -1.20932,3.16585 -1.59083,1.24854 -1.63943,1.22088 -0.47402,-0.26979 0.83068,-1.06252 0.9365,-1.88474 0.29367,-2.28203 -0.55268,-0.34158 -0.75139,-1.28164 -0.44157,-2.08903 0.31009,-0.80738 0.0654,-1.46797 -0.54341,-1.46797 -0.60885,0 -1.10699,0.66088 -1.10699,1.46862 0,0.92914 -0.5818,1.24535 -1.58385,0.86083 -1.06109,-0.40718 -1.21494,-0.83577 -0.46613,-1.29856 1.69942,-1.0503 0.1485,-3.91401 -2.03082,-3.74985 -2.07733,0.15648 -2.52149,1.22869 -0.9192,2.21896 0.55,0.33992 1,0.0665 1,-0.60765 0,-0.67413 0.28913,-0.93656 0.6425,-0.58318 0.35338,0.35337 0.0159,1.40155 -0.75,2.32929 -1.10673,1.34061 -1.1297,1.77521 -0.11196,2.11768 0.7043,0.23699 2.44024,2.71943 3.85764,5.51654 3.12382,6.16456 2.80688,10.9453 -1.1189,16.87755 -8.60001,12.9955 -29.51928,6.37107 -29.51928,-9.34777 0,-2.70218 0.76537,-6.33789 1.7056,-8.10212 0.93808,-1.76019 1.60193,-3.57129 1.47523,-4.02467 -0.12671,-0.45338 0.20311,-0.55642 0.73293,-0.22897 0.52983,0.32745 1.36893,-0.12942 1.86467,-1.01527 0.49575,-0.88584 1.08591,-1.54126 1.31146,-1.45648 0.22556,0.0848 1.08511,-0.0754 1.91011,-0.35588 4.38967,-1.49258 9,-2.36605 9,-1.70513 0,0.414 0.675,0.82773 1.5,0.91939 0.825,0.0917 2.175,0.24167 3,0.33334 0.825,0.0917 1.5,0.56822 1.5,1.05901 0,0.4908 0.46508,0.60492 1.03351,0.25361 0.60428,-0.37347 -0.0147,-1.46322 -1.49035,-2.624 -1.38812,-1.09189 -2.97904,-1.70394 -3.53538,-1.3601 -0.55634,0.34384 -1.44954,-0.52692 -1.9849,-1.93502 -0.62158,-1.63486 -1.73901,-2.56017 -3.09175,-2.56017 -1.22714,0 -2.3238,-0.78555 -2.60665,-1.86718 -0.43299,-1.65577 -1.44829,-1.84758 -8.96728,-1.69404 -4.66346,0.0952 -8.67176,-0.13873 -8.90734,-0.51991 -0.23559,-0.38119 0.30589,-0.63137 1.20327,-0.55597 2.38724,0.20059 2.6548,-1.6895 0.43538,-3.07555 -1.32309,-0.82628 -2.90924,-0.91236 -5.12139,-0.27792 -2.35695,0.67596 -3.96683,0.52496 -6.0859,-0.57085 -1.58467,-0.81947 -2.88473,-1.81588 -2.88902,-2.21426 -0.0159,-1.47674 -5.53972,-3.22432 -10.19156,-3.22432 -4.13397,0 -4.80064,-0.27774 -4.80064,-2 0,-1.61251 -0.66667,-2 -3.44098,-2 -1.89254,0 -3.7191,-0.45 -4.05902,-1 -0.33992,-0.55 -1.85148,-1 -3.35902,-1 -1.50754,0 -3.21661,-0.47563 -3.79793,-1.05695 -1.52241,-1.52241 -12.71471,-3.95973 -13.3634,-2.91011 -0.29947,0.48454 -2.3299,0.2451 -4.51207,-0.53208 -3.5477,-1.26353 -3.67656,-1.41772 -1.21758,-1.45697 5.02091,-0.0801 2.84586,-1.65954 -4,-2.90458 -9.81524,-1.78507 -14.25,-3.27869 -14.25,-4.79937 0,-0.73697 -0.5625,-1.34271 -1.25,-1.3461 -0.6875,-0.003 -2.4875,-0.6517 -4,-1.4407 -2.39128,-1.24741 -2.75,-1.24661 -2.75,0.006 0,0.92204 -0.99001,1.4154 -2.75,1.37041 -2.40302,-0.0614 -2.49765,-0.17221 -0.75,-0.87812 1.86699,-0.75412 1.81235,-0.8953 -0.82161,-2.12286 -1.79985,-0.83882 -3.06727,-0.95832 -3.5,-0.32999 -0.37567,0.54548 -2.01709,0.68446 -3.67839,0.31146 -1.65,-0.37046 -2.4375,-0.72681 -1.75,-0.79189 0.6875,-0.0651 1.25,-0.79331 1.25,-1.61831 0,-0.825 -0.5625,-1.56854 -1.25,-1.65231 -0.6875,-0.0838 -1.7,-0.25687 -2.25,-0.38465 -0.55,-0.12779 -1.675,-0.29114 -2.5,-0.363 -1.33333,-0.11615 -1.33333,-0.23837 0,-1.10004 1.11575,-0.72105 0.53938,-0.9733 -2.25,-0.98469 -2.638,-0.0108 -3.75,0.42018 -3.75,1.45331 0,0.89208 -0.5866,1.24351 -1.49426,0.89521 -0.82184,-0.31537 -1.24646,-0.97433 -0.94361,-1.46436 0.30286,-0.49003 -0.71223,-1.44622 -2.25574,-2.12486 -1.54352,-0.67865 -3.03139,-1.51179 -3.30639,-1.85143 -0.275,-0.33963 -2.77101,-0.87926 -5.54669,-1.19916 -6.13955,-0.70759 -10.2086,-2.45021 -10.7668,-4.61103 -0.22917,-0.88714 -0.25641,-0.33933 -0.0605,1.21737 0.24385,1.93791 -0.0352,2.68678 -0.88492,2.375 -0.68259,-0.25045 -1.15971,-0.86819 -1.06027,-1.37277 0.0994,-0.50457 -0.80056,-0.96496 -2,-1.02308 -1.19944,-0.0581 -1.6183,0.11097 -0.9308,0.37574 0.6875,0.26478 1.25,0.92047 1.25,1.4571 0,0.53663 -0.4328,0.7082 -0.96178,0.38127 -1.47132,-0.90932 -3.79655,8.5726 -5.63444,22.97638 -2.77552,21.75218 -1.20582,48.65566 4.05606,69.5177 5.09198,20.18841 14.48319,42.01593 25.071,58.27123 3.14854,4.83392 5.41137,9.1022 5.0285,9.48506 -1.69662,1.69662 -17.34832,-22.14834 -25.12284,-38.27399 -22.73532,-47.15686 -26.11132,-100.6311 -9.49116,-150.33536 2.14352,-6.41042 3.70205,-11.85059 3.46338,-12.08925 -0.23866,-0.23866 -5.91827,1.78424 -12.62135,4.49534 -13.22255,5.34793 -30.63987,14.61842 -43.25386,23.02215 -7.4444,4.95963 -9.57114,5.89506 -8.14075,3.58064 0.699,-1.13101 17.13031,-13.55079 23.60724,-17.84378 8.96761,-5.94383 23.38439,-13.66687 34.32444,-18.3875 l 11.17556,-4.82225 5.37799,-9.81 c 42.50472,-77.53269 129.05769,-117.56836 216.593,-100.18643 19.70497,3.91283 45.10638,13.88378 62.77899,24.64298 3.7125,2.26019 6.75,3.88289 6.75,3.60599 0,-1.4317 -7.35701,-16.10228 -12.473,-24.87237 -11.0454,-18.934543 -22.85671,-35.005311 -37.78045,-51.405048 -3.7144,-4.081761 -6.54323,-7.631607 -6.28629,-7.888547 0.73115,-0.731142 11.64095,9.061019 20.15691,18.091954 17.67081,18.739399 32.21576,39.340071 44.27001,62.701641 7.36927,14.2819 7.65949,14.67069 19.29528,25.84836 6.4974,6.2416 14.59137,14.7916 17.98659,19 54.07423,67.02547 59.64584,159.91942 13.95217,232.62072 -6.53981,10.40522 -16.05577,22.9297 -16.83198,22.1535 -0.25693,-0.25694 1.29416,-2.86463 3.44687,-5.79487 13.21676,-17.9905 24.40666,-42.00105 30.36148,-65.14769 3.4832,-13.53936 4.94248,-24.34705 5.56023,-41.18002 1.6545,-45.08347 -11.54116,-87.81883 -37.97948,-123 -7.37459,-9.81328 -15.62366,-19.5 -16.60591,-19.5 -0.40133,0 0.49719,4.68891 1.9967,10.4198 13.36929,51.0951 11.4736,104.5938 -5.48413,154.76856 -2.86019,8.46277 -4.16364,13.74427 -3.63973,14.74796 1.29015,2.47168 8.81822,25.94207 10.44472,32.56368 1.80789,7.36005 5.43638,29.46964 5.77802,35.2074 0.49136,8.25223 -0.91704,5.14716 -3.14511,-6.93395 -1.24495,-6.7504 -3.74432,-17.44845 -5.55417,-23.77345 -3.39602,-11.8683 -10.49459,-31.06142 -11.43567,-30.91975 -0.29318,0.0441 -3.78689,6.69813 -7.76379,14.78665 -21.20825,43.13492 -55.52783,80.59149 -98.48248,107.48429 -3.14226,1.96729 -5.93834,3.21261 -6.21352,2.76737 z m 57.42673,-139.11856 c 0,-0.55 -0.45,-1 -1,-1 -0.55,0 -1,0.45 -1,1 0,0.55 0.45,1 1,1 0.55,0 1,-0.45 1,-1 z m 53.90405,-18.75 c 10.84624,-39.39845 13.13183,-83.19454 6.51036,-124.75 -1.80237,-11.31142 -5.42043,-26.72443 -8.63602,-36.78963 -2.34471,-7.33921 -4.05715,-9.16938 -16.29272,-17.4128 -65.76082,-44.30477 -152.19699,-42.91719 -217.41904,3.4903 -10.5864,7.53254 -29.58856,25.31285 -36.96777,34.59072 -5.71742,7.1885 -15.21797,20.83564 -14.79755,21.25605 0.16061,0.16061 2.47655,-0.36543 5.14654,-1.16898 2.66999,-0.80355 11.42399,-2.69141 19.45334,-4.19525 13.59715,-2.54664 16.45135,-2.73549 41.59881,-2.75233 21.72816,-0.0145 29.05016,0.33909 37.5,1.81119 59.04141,10.286 107.12075,37.2078 146.00633,81.75557 11.87241,13.60117 31.9666,43.2802 33.6258,49.66516 1.0067,3.87399 2.06716,2.50867 4.27192,-5.5 z M 682.53933,462.07196 c -11.28494,-2.38103 -17.51171,-14.80312 -12.67425,-25.28449 4.5234,-9.80087 15.17999,-13.96217 24.60996,-9.60996 5.51576,2.54569 8.54426,6.15113 10.05325,11.96845 3.62781,13.98557 -7.81546,25.91649 -21.98896,22.926 z m 37.93571,-14.58651 c -4.81013,-3.06505 -6.70272,-5.81688 -7.23236,-10.51583 -0.71158,-6.31316 1.93752,-11.41668 7.1565,-13.78704 4.94214,-2.24463 7.56692,-2.34351 12.08608,-0.45529 9.11656,3.80915 10.15436,17.71852 1.78668,23.9464 -3.72391,2.77162 -10.12973,3.14852 -13.7969,0.81176 z m -73.1937,-23.73264 c -7.20305,-3.58942 -10.60693,-8.96216 -11.12007,-17.55206 -0.46783,-7.83141 1.68383,-13.01199 7.34101,-17.67512 9.0694,-7.47577 20.30412,-6.81952 28.53828,1.66699 7.9214,8.16415 8.83256,17.58826 2.59238,26.81273 -6.18453,9.14219 -17.1283,11.84195 -27.3516,6.74746 z m 62.84047,-7.57987 c -12.46465,-2.33768 -20.64254,-12.23673 -20.54899,-24.87384 0.0749,-10.12264 5.16622,-18.33552 13.93933,-22.48586 17.16488,-8.12029 36.46289,3.77362 36.46289,22.4731 0,7.48961 -1.64609,11.577 -7.00264,17.38817 -5.88355,6.38289 -14.2172,9.11759 -22.85059,7.49843 z m -96.34097,-24.22921 c -2.5818,-0.72531 -5.5068,-1.93371 -6.5,-2.68534 -9.41926,-7.1283 -13.28626,-14.1051 -13.28626,-23.97092 0,-20.03895 20.2169,-33.08667 38.76814,-25.02042 17.53277,7.6234 21.73564,31.98741 7.74288,44.88548 -7.49805,6.91147 -17.36839,9.41968 -26.72476,6.7912 z M 670.682,375.75445 c -2.08617,-0.76565 -5.08495,-2.31201 -6.66395,-3.43636 -3.67964,-2.62013 -8.04301,-11.35513 -8.04301,-16.10124 0,-5.36946 2.62683,-11.94592 6.29253,-15.75382 9.43337,-9.79931 25.82172,-8.23801 33.45747,3.18745 2.82509,4.22722 3.25,5.70328 3.25,11.28984 0,10.04953 -3.90824,16.14131 -13,20.26312 -5.19464,2.35503 -9.9143,2.52508 -15.29304,0.55101 z m 85.29304,-44.5606 c 0,-0.49851 0.9,-0.90638 2,-0.90638 1.1,0 2,0.17252 2,0.38337 0,0.21085 -0.9,0.61872 -2,0.90638 -1.1,0.28766 -2,0.11514 -2,-0.38337 z m -37.1875,-6.58949 c 0.72187,-0.28887 1.58438,-0.25335 1.91667,0.0789 0.33229,0.33229 -0.25834,0.56864 -1.3125,0.52522 -1.16495,-0.048 -1.4019,-0.28494 -0.60417,-0.60416 z m 15.1875,-0.31689 c -0.90129,-0.58246 -1.02463,-0.97549 -0.30902,-0.98469 0.65504,-0.008 1.4691,0.43469 1.80902,0.98469 0.7673,1.24153 0.42112,1.24153 -1.5,0 z m -18,-7.03138 c 0,-0.53274 0.675,-0.96862 1.5,-0.96862 0.825,0 1.5,0.17686 1.5,0.39301 0,0.21616 -0.675,0.65203 -1.5,0.96862 -0.825,0.31658 -1.5,0.13972 -1.5,-0.39301 z m -30,-9.96862 c -2.12378,-0.68015 -1.86042,-0.81564 1.75,-0.90032 2.3375,-0.0548 4.25,0.35032 4.25,0.90032 0,1.15252 -2.40127,1.15252 -6,0 z m -116.84211,-36 c 0,-1.375 0.22698,-1.9375 0.50439,-1.25 0.27741,0.6875 0.27741,1.8125 0,2.5 -0.27741,0.6875 -0.50439,0.125 -0.50439,-1.25 z"
       id="path1361" /></g></svg>
