<?xml version="1.0" encoding="UTF-8" standalone="no"?>
<!-- Created with Inkscape (http://www.inkscape.org/) -->

<svg
   version="1.1"
   id="svg336"
   width="1587.52"
   height="842.23999"
   viewBox="0 0 1587.52 842.23999"
   sodipodi:docname="ivica.svg"
   inkscape:version="1.2.2 (732a01da63, 2022-12-09)"
   xml:space="preserve"
   xmlns:inkscape="http://www.inkscape.org/namespaces/inkscape"
   xmlns:sodipodi="http://sodipodi.sourceforge.net/DTD/sodipodi-0.dtd"
   xmlns="http://www.w3.org/2000/svg"
   xmlns:svg="http://www.w3.org/2000/svg"><defs
     id="defs340" /><sodipodi:namedview
     id="namedview338"
     pagecolor="#505050"
     bordercolor="#eeeeee"
     borderopacity="1"
     inkscape:showpageshadow="0"
     inkscape:pageopacity="0"
     inkscape:pagecheckerboard="0"
     inkscape:deskcolor="#505050"
     showgrid="false"
     inkscape:zoom="0.44503376"
     inkscape:cx="585.34885"
     inkscape:cy="468.50378"
     inkscape:window-width="1920"
     inkscape:window-height="991"
     inkscape:window-x="-9"
     inkscape:window-y="-9"
     inkscape:window-maximized="1"
     inkscape:current-layer="g342" /><g
     inkscape:groupmode="layer"
     inkscape:label="Image"
     id="g342"><path
       style="fill:#000000"
       id="path487"
       d="" /><path
       style="fill:#333333;stroke-width:1.52884"
       d="M 7.061726,428.37968 V 185.29415 H 789.82772 1572.5937 V 428.37968 671.46521 H 789.82772 7.061726 Z M 270.60046,592.10187 c 25.71518,-7.12836 50.05087,-21.82211 69.08386,-41.71247 18.61919,-19.45791 28.46511,-36.18973 36.23692,-61.57979 3.21292,-10.49642 3.30019,-13.27435 3.80727,-121.20131 l 0.51897,-110.45868 H 233.32957 86.411646 l 0.493678,109.69426 0.493662,109.69425 4.24993,13.68413 c 16.214464,52.20807 59.245434,91.71732 113.355174,104.07797 14.23633,3.25209 50.29333,2.04369 65.59637,-2.19836 z m -77.40248,-92.89729 c -7.47321,-0.462 -10.31967,-1.22283 -10.31967,-2.75835 0,-1.16622 1.32599,-2.54124 2.94667,-3.05562 5.01842,-1.59279 9.28958,-11.04197 20.84903,-46.12482 12.21175,-37.06256 15.70399,-45.00362 24.91685,-56.65876 5.80696,-7.34636 29.5332,-24.86412 36.80003,-27.17052 4.83083,-1.53325 3.77585,-3.60056 -2.43166,-4.76509 -8.62433,-1.61794 -38.5295,0.43252 -47.9176,3.28548 -24.38243,7.40959 -46.90634,25.2004 -61.89551,48.88899 -11.96009,18.90149 -14.33401,31.16561 -8.15923,42.15218 1.83128,3.25831 2.83026,6.42354 2.21995,7.03385 -2.03184,2.03183 -6.26686,-2.0768 -10.51826,-10.20435 -9.05399,-17.30879 -4.04554,-39.54896 13.66935,-60.69903 19.41383,-23.17851 51.68932,-35.61902 92.48507,-35.64816 23.52562,-0.0168 37.9053,2.71137 52.8661,10.02997 22.00502,10.76455 32.63436,26.68726 32.72193,49.01743 0.0825,21.03299 -8.58396,41.14999 -25.03954,58.12296 -19.44143,20.05272 -41.52728,27.994 -79.94125,28.74404 -12.61292,0.24626 -27.57644,0.16066 -33.25226,-0.1902 z m 40.99789,-5.22923 c 20.04416,-3.69721 36.51661,-16.57338 49.90403,-39.00889 10.83254,-18.15387 16.93613,-37.80742 17.04047,-54.87032 0.0717,-11.73519 -0.47946,-14.8842 -3.74664,-21.40375 -3.99371,-7.9693 -16.41732,-18.14889 -21.05879,-17.25503 -4.29439,0.82703 -15.25956,24.61686 -25.56845,55.47286 -12.73238,38.10981 -22.70599,58.43907 -32.24307,65.72117 -3.74782,2.86168 -10.03327,6.44526 -13.96767,7.96351 l -7.15346,2.76047 7.6442,0.90645 c 12.86453,1.52546 19.68973,1.45839 29.14938,-0.28647 z m 232.8517,100.38426 c 6.8145,-3.52391 8.81084,-6.6641 6.01446,-9.46049 -2.08271,-2.08271 -2.86983,-1.99518 -7.51287,0.83543 -6.13643,3.74104 -12.08606,4.03217 -18.16468,0.88878 -6.34593,-3.28161 -9.18992,-8.14436 -9.18992,-15.71323 0,-8.34001 3.35297,-14.9203 9.123,-17.90409 6.04659,-3.12683 10.44199,-2.91923 17.42408,0.82294 5.62732,3.01607 5.94638,3.0314 7.95513,0.38221 3.06363,-4.04036 2.82431,-4.47328 -4.4081,-7.97443 -17.14793,-8.30117 -36.90387,1.35894 -38.89433,19.01824 -1.53991,13.66192 3.77029,24.65803 14.07536,29.14662 6.20281,2.70178 18.31373,2.68021 23.57787,-0.042 z M 551.22,593.87422 c 18.11203,-9.2356 19.99478,-34.77204 3.37775,-45.81326 -14.06372,-9.34467 -31.94384,-4.71181 -39.68424,10.28244 -9.0204,17.47382 4.10251,38.2039 24.18448,38.2039 3.78387,0 9.23878,-1.20289 12.12201,-2.67308 z m -19.17284,-6.3865 c -13.08707,-5.60488 -14.20439,-26.16074 -1.83201,-33.70399 6.40474,-3.90486 11.36093,-3.90486 17.76567,0 14.56955,8.88282 10.0183,32.66652 -6.58957,34.43543 -3.36345,0.35824 -7.5683,0.029 -9.34409,-0.73144 z m 79.24145,-9.561 0.42927,-18.62533 10.74381,13.6566 c 5.90909,7.51113 12.31973,15.89254 14.24587,18.62534 2.31436,3.28361 4.76299,4.96873 7.22005,4.96873 h 3.718 v -25.90005 c 0,-15.7707 -0.60326,-26.27289 -1.54252,-26.85338 -0.84838,-0.52433 -2.89015,-0.52561 -4.53726,-0.003 -2.70226,0.85765 -3.03689,2.61872 -3.42621,18.03142 l -0.43147,17.08116 -12.89368,-16.78611 c -14.42508,-18.7798 -14.35825,-18.71465 -18.95472,-18.48242 -3.2365,0.16351 -3.32491,0.74465 -3.73757,24.56753 -0.23246,13.42004 -0.0821,25.28766 0.33423,26.37249 0.41629,1.08484 2.47724,1.97242 4.57992,1.97242 h 3.82301 z m 104.93307,16.44674 c 4.58156,-2.36923 7.86592,-8.12162 7.86592,-13.77679 0,-6.09537 -5.19535,-10.54488 -17.04638,-14.59919 -9.98198,-3.41491 -11.29104,-4.31249 -11.71967,-8.03571 -0.37961,-3.29751 0.38664,-4.58739 3.59293,-6.04827 3.3403,-1.52195 5.34594,-1.40002 11.11884,0.6759 7.20377,2.59047 10.9966,1.66328 10.9966,-2.68816 0,-2.43246 -10.80857,-6.85857 -16.74865,-6.85857 -10.55905,0 -18.44348,6.52288 -18.36604,15.19446 0.0712,7.98185 3.07986,10.78542 16.3347,15.22161 10.0988,3.37991 11.98005,4.54843 12.42762,7.71926 1.09555,7.7616 -11.36757,10.43019 -21.07466,4.51249 -5.02296,-3.06211 -5.34874,-3.08304 -7.26199,-0.46649 -2.9414,4.02259 -2.63122,4.58227 4.49444,8.10941 7.59159,3.75778 19.21034,4.23378 25.38634,1.04005 z M 785.2412,574.38388 V 552.2157 h 8.40861 c 8.25456,0 8.40862,-0.081 8.40862,-4.4229 v -4.4229 l -21.02154,0.21859 -21.02155,0.2186 -0.48376,4.20431 c -0.47646,4.14092 -0.35545,4.2043 8.02641,4.2043 h 8.51017 v 21.14895 c 0,11.63193 0.45865,21.60761 1.01923,22.16818 0.56056,0.56058 2.6245,1.01923 4.58652,1.01923 h 3.56729 z m 61.15359,12.99514 v -9.17304 l 6.49757,0.0824 c 6.15697,0.0781 6.83738,0.55895 12.98011,9.17303 4.75695,6.67079 7.43612,9.09062 10.06487,9.09062 5.79024,0 5.70464,-1.35675 -0.61115,-9.68692 -3.2921,-4.34211 -5.98861,-8.34192 -5.99223,-8.88848 -0.003,-0.54656 2.40135,-3.40167 5.34436,-6.34469 4.31604,-4.31603 5.35094,-6.52337 5.35094,-11.413 0,-12.40167 -10.62288,-17.9979 -32.10563,-16.91349 l -9.93746,0.50161 -0.42266,24.40007 c -0.23246,13.42003 -0.0821,25.28765 0.33423,26.37249 0.41629,1.08483 2.49842,1.97241 4.62697,1.97241 3.71086,0 3.87008,-0.37736 3.87008,-9.17304 z m 1.14663,-17.70785 c -0.63065,-0.6313 -1.14663,-4.81705 -1.14663,-9.30166 v -8.15381 h 9.82825 c 6.89632,0 10.54496,0.71669 12.23072,2.40247 2.90418,2.90418 3.15731,10.35624 0.42869,12.62079 -2.44448,2.02874 -19.77145,4.00348 -21.34103,2.43221 z m 105.58195,23.78403 c 7.84321,-4.78189 9.62807,-10.98637 9.12898,-31.73395 l -0.43016,-17.88226 -3.8221,-0.0159 -3.8221,-0.0159 -0.76441,19.63304 c -0.71358,18.32717 -1.00448,19.82707 -4.37368,22.55039 -5.07905,4.10536 -13.24565,3.78308 -17.72835,-0.69963 -4.16421,-4.16419 -5.77675,-13.91796 -5.08908,-30.78192 0.42869,-10.51248 0.36877,-10.70188 -3.38569,-10.70188 h -3.8221 l -0.42572,19.20206 c -0.39689,17.90198 -0.18676,19.55663 3.10357,24.43916 1.94111,2.88041 5.22857,6.09696 7.3055,7.1479 5.92565,2.9984 18.29543,2.41338 24.12534,-1.14101 z m 84.18143,0.90441 c 2.3319,-1.20586 5.1625,-3.30431 6.2903,-4.66325 1.7293,-2.08367 1.6717,-2.84976 -0.3681,-4.88952 -2.2058,-2.20575 -2.8832,-2.13168 -7.6933,0.84114 -6.2017,3.83283 -11.7784,4.13682 -17.892,0.97535 -6.6277,-3.42734 -9.1899,-8.11849 -9.1899,-16.82597 0,-8.70747 2.5622,-13.39863 9.1899,-16.82597 5.9797,-3.09218 10.3948,-2.87405 17.3572,0.85756 5.6273,3.01607 5.9464,3.0314 7.9551,0.38221 1.151,-1.51794 2.1146,-3.21449 2.1413,-3.77012 0.1046,-2.17199 -13.4733,-7.39837 -19.2206,-7.39837 -7.3003,0 -18.4507,5.38636 -22.4061,10.82352 -9.24427,12.70751 -5.18341,31.34738 8.6697,39.79491 5.7352,3.4973 19.0402,3.86657 25.1665,0.69851 z m 87.1593,-2.26623 c 4.9918,-3.55444 5.0121,-3.61895 2.0712,-6.55981 -2.9408,-2.94087 -3.0211,-2.93895 -8.164,0.1964 -2.8567,1.74155 -7.1518,3.16904 -9.5446,3.17217 -12.4026,0.0164 -21.7891,-15.41665 -16.0977,-26.46727 5.5974,-10.86788 14.264,-13.99268 24.6108,-8.87348 6.3203,3.127 6.5589,3.13644 9.3259,0.3694 2.7671,-2.76705 2.7286,-2.91825 -1.5022,-5.90941 -13.6914,-9.67959 -34.9067,-3.8267 -41.2619,11.38333 -4.9755,11.90818 0.082,27.37199 11.0444,33.76944 8.0848,4.71814 22.0947,4.20518 29.5181,-1.08077 z m 49.3212,-21.5316 c -0.3001,-13.87422 -0.8188,-25.68056 -1.1527,-26.23631 -0.3339,-0.55576 -1.8083,-0.83476 -3.2765,-0.62002 -2.4026,0.35142 -2.7112,3.02195 -3.0881,26.7236 l -0.4188,26.33316 4.2409,-0.48728 4.2408,-0.48729 z m 78.7877,22.0023 c 9.421,-7.03378 13.6614,-17.89811 11.2225,-28.75294 -1.8486,-8.22737 -5.8657,-13.26504 -13.8182,-17.32858 -24.1861,-12.35846 -48.8165,12.46788 -36.1641,36.45169 5.1777,9.81464 12.9011,13.88526 25.0947,13.22617 6.562,-0.35469 10.8266,-1.47703 13.6651,-3.59634 z m -23.4775,-6.12268 c -10.3306,-5.09459 -12.56,-21.031 -4.1677,-29.79073 5.2951,-5.52683 12.1836,-6.92207 19.3637,-3.92202 7.0577,2.94887 10.5528,8.4047 10.6777,16.66756 0.1238,8.17056 -2.1997,12.68963 -8.4982,16.53006 -5.8638,3.57544 -10.8691,3.72381 -17.3755,0.51513 z m 80.5376,-8.66904 0.7645,-18.01529 14.2397,18.3975 c 11.3503,14.66409 15.003,18.39749 18.0001,18.39749 h 3.7602 l -0.4184,-26.37249 -0.4183,-26.37248 -3.8221,0.0153 c -3.8151,0.0138 -3.8235,0.0477 -4.5865,17.93669 l -0.7645,17.92213 -10.7018,-14.04852 c -13.925,-18.27967 -18.0449,-22.47481 -21.5654,-21.95972 -2.6947,0.39424 -2.9251,2.25419 -3.3148,26.75685 l -0.4188,26.33316 4.2409,-0.48728 4.2408,-0.48804 z m 111.3295,14.57539 c 0.4315,-3.03834 -0.193,-3.45168 -5.3509,-3.54082 -3.2118,-0.0555 -9.9674,-0.22751 -15.0126,-0.38221 l -9.173,-0.28128 -0.466,-7.26199 -0.466,-7.26199 h 13.0789 c 12.9317,0 13.0789,-0.0431 13.0789,-3.8221 0,-3.77713 -0.1529,-3.8221 -12.9951,-3.8221 h -12.9951 v -6.87978 -6.87978 h 14.3457 c 14.01,0 14.3625,-0.0877 15.0618,-3.7455 0.4177,-2.18461 -0.086,-4.05314 -1.2076,-4.48369 -1.0581,-0.40598 -9.7277,-0.61245 -19.2662,-0.4588 l -17.3424,0.27938 -0.4225,24.40006 c -0.2326,13.42004 -0.073,25.30894 0.3524,26.41978 0.5967,1.55521 5.089,1.92094 19.533,1.59022 18.1393,-0.41534 18.7743,-0.543 19.2467,-3.8694 z m 70.4852,0.24631 c 3.8842,-3.26831 4.7038,-5.08226 4.7038,-10.40967 0,-3.54842 -0.86,-7.62758 -1.911,-9.0648 -1.0511,-1.43721 -6.9969,-4.49262 -13.213,-6.78977 -13.1672,-4.86593 -15.9396,-7.82399 -11.7116,-12.49578 3.3797,-3.73465 8.101,-3.98931 15.631,-0.84312 4.1443,1.73156 6.0313,1.87498 7.5952,0.57723 3.5834,-2.97407 2.3007,-5.51887 -4.0657,-8.06622 -7.7063,-3.08341 -15.6238,-3.13896 -21.4034,-0.15014 -5.5302,2.85976 -7.6137,6.59319 -7.6137,13.64323 0,6.98674 3.5207,10.48002 13.9579,13.8493 14.5084,4.68356 17.9545,8.39419 12.6877,13.66112 -3.3488,3.34876 -12.6721,2.98749 -18.7648,-0.72713 -3.9848,-2.42934 -5.589,-2.72445 -7.262,-1.33592 -3.75,3.11214 -2.3418,6.05566 4.35,9.09321 9.7167,4.41056 21.1318,4.0128 27.0196,-0.94149 z M 356.09079,591.35085 c -1.51076,-2.01979 -3.02928,-3.39997 -3.37449,-3.06705 -0.629,0.60663 4.39641,6.73942 5.52249,6.73942 0.32937,0 -0.63724,-1.65257 -2.148,-3.67237 z m 7.19062,-4.73625 c 0,-1.26129 0.60374,-2.29326 1.34165,-2.29326 0.73789,0 2.19809,1.03197 3.24487,2.29326 1.04678,1.26129 2.59121,2.29326 3.43207,2.29326 0.85284,0 0.68728,-1.01402 -0.37439,-2.29326 -1.51044,-1.81996 -1.51377,-2.76254 -0.0162,-4.56706 3.10553,-3.74188 0.6861,-6.89924 -5.28676,-6.89924 -5.37948,0 -5.39891,0.0248 -5.39891,6.87978 0,3.78388 0.68798,6.87978 1.52884,6.87978 0.84086,0 1.52884,-1.03197 1.52884,-2.29326 z m 0,-6.87978 c 0,-2.30266 0.79828,-3.12814 2.67547,-2.76663 1.47151,0.28338 2.67547,1.52836 2.67547,2.76663 0,1.23827 -1.20396,2.48325 -2.67547,2.76664 -1.87719,0.36151 -2.67547,-0.46398 -2.67547,-2.76664 z m 16.34227,0.38221 c -0.38455,-1.47151 -0.69918,-0.26755 -0.69918,2.67547 0,2.94302 0.31463,4.14698 0.69918,2.67547 0.38454,-1.47151 0.38454,-3.87943 0,-5.35094 z m -23.85236,-5.89475 c 1.12915,-1.36053 3.45284,-3.0411 5.16375,-3.73462 2.40203,-0.97364 2.53217,-1.28298 0.57119,-1.3578 -3.74439,-0.14295 -10.48194,8.62178 -10.29908,13.39774 0.1457,3.80473 0.23781,3.74449 1.33382,-0.87231 0.64753,-2.72762 2.10118,-6.07246 3.23032,-7.43301 z m 18.21197,-3.6605 c -1.2613,-0.81511 -2.98124,-1.48201 -3.8221,-1.48201 -0.84086,0 -0.49688,0.6669 0.76442,1.48201 1.26129,0.81512 2.98123,1.48201 3.8221,1.48201 0.84086,0 0.49687,-0.66689 -0.76442,-1.48201 z m 251.57683,-60.10022 c 17.97651,-3.76903 29.99037,-14.21896 35.33332,-30.73373 1.97798,-6.11383 2.66061,-16.19217 3.19316,-47.14384 l 0.67737,-39.36763 h -16.9678 -16.9678 l -0.006,37.83879 c -0.005,35.25566 -0.21635,38.18426 -3.09115,42.89952 -7.89017,12.94141 -29.83148,12.21921 -36.90552,-1.21479 -2.49713,-4.74292 -2.80473,-9.39524 -2.80473,-42.4253 v -37.09822 h -16.9818 -16.9818 l 0.66449,40.13205 c 0.61429,37.09892 0.92457,40.79825 4.10544,48.94672 1.89251,4.84808 5.17994,10.88137 7.30539,13.40733 11.42175,13.57397 35.98453,19.67424 59.42754,14.7591 z m 835.10928,0.41617 c 10.9853,-2.53396 20.5925,-7.86442 28.2202,-15.65759 3.9941,-4.08073 7.262,-7.93535 7.262,-8.56581 0,-0.63046 -5.1708,-4.75662 -11.4909,-9.16923 l -11.4908,-8.02293 -6.3731,5.45512 c -6.3916,5.47092 -13.9597,8.5053 -21.0969,8.45852 -5.229,-0.0342 -15.3378,-4.89221 -19.4196,-9.33233 -14.0678,-15.30236 -8.8068,-44.85492 9.1994,-51.67732 10.4307,-3.95204 24.506,-1.01222 31.5082,6.5809 2.0386,2.21052 4.2042,4.01914 4.8125,4.01914 0.8317,0 18.1667,-12.81376 24.3512,-17.99984 1.4966,-1.25501 -15.1011,-15.21317 -22.3938,-18.83262 -6.6491,-3.29994 -9.4006,-3.68082 -26.5291,-3.67232 -17.8461,0.009 -19.7064,0.29652 -28.1181,4.34827 -37.0111,17.82762 -45.6952,68.54538 -16.7616,97.89352 14.6303,14.83978 37.0958,21.07038 58.3204,16.17452 z m -962.77831,-4.38519 c 25.97462,-8.12464 41.2069,-28.52222 41.2069,-55.18026 0,-19.71169 -8.12571,-36.04453 -22.90965,-46.04884 -14.34523,-9.70745 -21.23566,-11.12939 -56.97223,-11.75709 l -31.72343,-0.55718 v 57.97471 c 0,31.88607 0.51598,58.51877 1.14663,59.18374 0.63065,0.66498 14.21821,0.82805 30.19459,0.3624 23.28115,-0.67858 31.03506,-1.46821 39.05719,-3.97748 z m -37.14614,-25.46405 c -0.63065,-0.64783 -1.14663,-14.12168 -1.14663,-29.94188 v -28.76404 l 3.84981,-0.96624 c 5.85774,-1.4702 20.59502,0.75413 27.86294,4.20539 11.68806,5.55023 17.18534,18.58687 14.03399,33.28116 -3.1412,14.6469 -12.91286,21.57952 -31.98719,22.69369 -6.30646,0.36839 -11.98228,0.13973 -12.61292,-0.50808 z m 253.81781,-3.34373 c 0.22694,-17.86831 0.91492,-32.47846 1.52884,-32.467 0.61392,0.0122 7.30803,9.64245 14.87578,21.40218 7.56776,11.75973 14.10355,21.37712 14.52398,21.37199 0.42043,-0.005 7.30021,-10.14347 15.2884,-22.52964 l 14.52398,-22.5203 0.76442,33.61532 0.76442,33.6153 h 15.2884 15.28839 l 0.40038,-58.47812 0.40038,-58.47813 -17.21762,0.0402 -17.21761,0.0401 -13.53254,22.12806 c -7.4429,12.17042 -13.97869,22.09796 -14.52398,22.06117 -0.54529,-0.0368 -7.08137,-10.03434 -14.52462,-22.21679 L 717.66057,393.11918 700.61696,393.55 c -12.48813,0.31568 -17.00275,0.94161 -16.89073,2.34188 0.0841,1.05108 0.25608,27.29262 0.38221,58.31454 l 0.22933,56.40347 14.90619,-0.21861 14.90618,-0.21862 0.41262,-32.48785 z m 138.19104,31.34122 c 1.2963,-1.05108 3.91562,-5.86692 5.8207,-10.70188 l 3.46382,-8.79083 h 23.14501 23.14503 l 3.67449,9.55525 c 2.02096,5.25539 4.42538,10.0607 5.34316,10.67847 2.27351,1.53036 31.11052,1.47758 32.05997,-0.0587 0.6668,-1.07891 -42.906,-105.64444 -47.74623,-114.58091 -1.73771,-3.2083 -2.87677,-3.43989 -16.91944,-3.43989 -13.0139,0 -15.16534,0.36294 -15.86011,2.67547 -0.44209,1.47151 -11.46501,27.78549 -24.49538,58.4755 -13.03036,30.69 -23.37195,56.31718 -22.98129,56.94928 1.23541,1.99896 28.77061,1.32986 31.35027,-0.76179 z m 19.63127,-46.23686 c 0,-1.42292 11.15447,-29.05821 12.21906,-30.27281 0.58538,-0.66789 2.47387,2.42801 4.19662,6.87978 1.72276,4.45175 4.57177,11.70597 6.33113,16.1205 l 3.19885,8.02641 H 885.3579 c -7.13507,0 -12.97283,-0.33924 -12.97283,-0.75388 z m 122.30718,15.46151 0.76442,-31.92197 22.93263,29.61427 c 12.6129,16.28784 24.1639,30.85211 25.6689,32.36503 2.2753,2.28734 4.8509,2.67613 15.2884,2.30771 l 12.5521,-0.44306 0.4003,-58.47812 0.4004,-58.47813 h -15.3066 -15.3065 v 29.81238 c 0,16.39681 -0.5951,29.81238 -1.3225,29.81238 -0.7274,0 -11.8454,-13.41557 -24.7068,-29.81238 l -23.38423,-29.81238 h -15.04308 -15.04308 v 57.84111 c 0,31.81261 0.43562,58.27672 0.96803,58.80914 0.53242,0.53241 7.5842,0.81906 15.67061,0.63701 l 14.70258,-0.33101 z m 170.15205,27.96293 c 12.2504,-4.10757 17.5872,-7.46579 25.491,-16.04042 10.4194,-11.30369 14.3941,-21.75307 14.4909,-38.09644 0.1067,-18.02405 -3.0521,-27.13985 -13.2843,-38.33546 -14.972,-16.38178 -28.8428,-20.46929 -69.5737,-20.50228 l -27.9014,-0.0226 v 57.8411 c 0,31.81262 0.516,58.38309 1.1467,59.04553 0.6306,0.66241 14.4211,0.77397 30.6454,0.24791 24.035,-0.77932 31.256,-1.54565 38.9854,-4.13734 z m -38.3219,-54.51907 0.4145,-30.19459 5.6726,-0.47088 c 9.7333,-0.80798 22.8594,2.43546 28.6891,7.08903 7.533,6.01334 10.7339,13.06005 10.7367,23.63735 0.01,20.12396 -12.0329,30.10352 -36.3399,30.12514 l -9.5876,0.009 0.4146,-30.19459 z m 190.4322,45.10077 0.4418,-13.37735 h -29.1074 c -16.0091,0 -29.1021,-0.51598 -29.0956,-1.14663 0,-0.63064 13.1061,-15.87801 29.11,-33.88303 l 29.0979,-32.73641 -0.4442,-10.83553 -0.4442,-10.83553 -50.8337,-0.40281 -50.834,-0.40282 v 13.74642 13.74644 l 28.1884,0.41594 28.1885,0.41595 -28.9529,32.61826 -28.9529,32.61825 v 12.12064 12.12065 l 51.5984,-0.40255 51.5982,-0.40254 z m 49.2456,-44.71856 v -58.86034 h -16.0528 -16.0528 v 57.84111 c 0,31.81261 0.4586,58.29976 1.0193,58.86033 0.5606,0.56058 7.7844,1.01923 16.0528,1.01923 h 15.0335 z M 723.36313,370.147 c 12.12002,-2.24052 21.39838,-7.25345 30.29632,-16.36857 l 7.40365,-7.58438 -5.4926,-4.00796 c -3.02094,-2.20437 -7.99632,-5.83596 -11.05639,-8.07019 -3.66561,-2.67636 -6.19692,-3.58914 -7.41963,-2.67547 -11.24041,8.39924 -15.32065,10.37058 -22.65415,10.94508 -17.3673,1.36055 -29.20324,-11.01104 -29.20324,-30.52487 0,-8.95526 0.59399,-11.14835 4.54023,-16.76317 6.2382,-8.87589 12.7353,-12.37504 22.80943,-12.28451 9.12542,0.0819 13.18515,1.73196 19.92293,8.09708 l 4.59998,4.34558 11.07062,-8.53004 c 6.08885,-4.69152 11.07064,-9.0069 11.07064,-9.58973 0,-1.83924 -9.7102,-11.10008 -15.43607,-14.72173 -13.41207,-8.48321 -33.6289,-10.58691 -50.5252,-5.25747 -24.88186,7.84826 -39.8179,28.83622 -39.75291,55.86034 0.067,27.84176 16.39182,49.21713 43.03175,56.34466 10.36399,2.77288 15.26583,2.91657 26.79464,0.78535 z M 568.88214,313.73562 c 12.50912,-31.10148 22.44869,-56.72865 22.08793,-56.94928 -0.36078,-0.22063 -7.99767,-0.18595 -16.97087,0.077 l -16.31494,0.47819 -3.94462,10.98811 c -16.44975,45.82237 -20.66926,56.81947 -21.7095,56.58062 -0.65312,-0.14998 -6.54595,-15.2203 -13.0952,-33.48963 -6.54924,-18.26933 -12.10271,-33.41196 -12.34102,-33.65027 -0.37639,-0.37639 -27.78202,-0.97496 -32.76403,-0.71561 -1.09899,0.0572 1.83233,9.03757 7.39174,22.64519 10.47249,25.63328 32.39957,80.06005 34.79994,86.37945 1.58466,4.17187 1.707,4.20431 15.85684,4.20431 h 14.25987 l 22.74386,-56.54814 z m -109.28382,-1.54777 v -56.56707 h -15.2884 -15.2884 v 56.56707 56.56708 h 15.2884 15.2884 z m 175.81657,0 V 255.62078 H 620.1265 604.8381 v 56.56707 56.56708 h 15.2884 15.28839 z m 166.22099,46.20755 3.83577,-9.59509 22.31084,0.42205 22.31084,0.42207 3.74272,9.55525 3.74274,9.55525 h 16.59668 16.59671 l -2.10349,-4.96873 c -1.15692,-2.7328 -10.53791,-24.92009 -20.84666,-49.30509 -10.30874,-24.38499 -20.13634,-47.62719 -21.83908,-51.64934 l -3.0959,-7.31299 -15.15735,0.43321 -15.15736,0.43321 -16.07407,38.221 c -8.84073,21.02154 -19.43222,46.32771 -23.53667,56.23591 l -7.4626,18.01491 16.15055,-0.43325 16.15056,-0.43326 z m 14.18211,-35.04755 c 0,-2.30031 11.07561,-29.50522 12.00647,-29.49137 0.54376,0.008 3.39659,6.334 6.33961,14.05761 2.94302,7.72359 5.58027,14.59675 5.86055,15.27369 0.28029,0.67694 -5.05153,1.23079 -11.84851,1.23079 -6.79696,0 -12.35812,-0.48183 -12.35812,-1.07072 z m 194.16511,24.38553 v -21.02155 l 21.2617,-34.7811 21.2617,-34.78111 h -15.9132 c -8.7523,0 -16.4292,-0.0991 -17.0599,-0.22 -0.6306,-0.12108 -6.2659,8.8289 -12.5227,19.88866 -6.2569,11.05978 -11.92576,19.55905 -12.59752,18.88729 -1.26195,-1.26195 -20.77221,-35.26064 -21.54949,-37.55228 -0.43994,-1.29701 -33.16795,-1.55749 -34.45124,-0.2742 -0.37782,0.37782 7.40212,13.95582 17.28876,30.17332 9.88664,16.21751 19.2637,31.63153 20.83794,34.25335 2.42396,4.03707 2.86221,7.95812 2.86221,25.60807 l -6.1e-4,20.8411 h 15.2884 15.28835 v -21.02155 z m 120.9788,11.4663 3.7428,-9.55525 22.2321,-0.42161 22.2321,-0.42161 3.757,9.59465 3.7569,9.59465 16.5668,0.43588 c 15.2956,0.40244 16.5045,0.22647 15.755,-2.29325 -0.4464,-1.50104 -11.055,-26.80838 -23.5745,-56.23855 l -22.7627,-53.50939 -15.2211,-0.41947 -15.221,-0.41945 -2.9481,7.29923 c -1.6214,4.01458 -12.113,28.86259 -23.3148,55.21778 -11.2017,26.35518 -20.3667,48.54247 -20.3667,49.30509 0,0.7626 7.1153,1.38655 15.8117,1.38655 h 15.8118 z m 13.5567,-35.24843 c 0,-1.38928 11.1558,-28.01637 12.191,-29.09769 1.0326,-1.07872 12.2887,24.98086 12.275,28.41838 0,0.63065 -5.5084,1.14663 -12.2353,1.14663 -6.7269,0 -12.2307,-0.21029 -12.2307,-0.46732 z m 104.6031,41.88119 c 3.6936,-4.08134 2.5319,-10.64445 -2.5531,-14.42426 l -4.2043,-3.12518 -4.2043,3.12518 c -7.9072,5.87764 -5.1275,17.34675 4.2043,17.34675 2.2619,0 5.3028,-1.31511 6.7574,-2.92249 z"
       id="path1167" /></g></svg>
