<?xml version="1.0" encoding="UTF-8" standalone="no"?>
<!-- Created with Inkscape (http://www.inkscape.org/) -->

<svg
   version="1.1"
   id="svg336"
   width="1587.52"
   height="842.23999"
   viewBox="0 0 1587.52 842.23999"
   sodipodi:docname="lomanegra.svg"
   inkscape:version="1.2.2 (732a01da63, 2022-12-09)"
   xml:space="preserve"
   xmlns:inkscape="http://www.inkscape.org/namespaces/inkscape"
   xmlns:sodipodi="http://sodipodi.sourceforge.net/DTD/sodipodi-0.dtd"
   xmlns="http://www.w3.org/2000/svg"
   xmlns:svg="http://www.w3.org/2000/svg"><defs
     id="defs340" /><sodipodi:namedview
     id="namedview338"
     pagecolor="#505050"
     bordercolor="#eeeeee"
     borderopacity="1"
     inkscape:showpageshadow="0"
     inkscape:pageopacity="0"
     inkscape:pagecheckerboard="0"
     inkscape:deskcolor="#505050"
     showgrid="false"
     inkscape:zoom="0.44503376"
     inkscape:cx="585.34885"
     inkscape:cy="468.50378"
     inkscape:window-width="1920"
     inkscape:window-height="991"
     inkscape:window-x="-9"
     inkscape:window-y="-9"
     inkscape:window-maximized="1"
     inkscape:current-layer="g342" /><g
     inkscape:groupmode="layer"
     inkscape:label="Image"
     id="g342"><path
       style="fill:#000000"
       id="path487"
       d="" /><path
       style="fill:#333333;stroke-width:1.82348"
       d="m 650.71136,723.04169 c -67.1857,-51.4205 -153.30591,-156.4276 -192.36529,-234.55273 -7.42249,-14.84596 -7.67979,-15.92561 -6.58971,-27.65358 5.15226,-55.43653 24.69763,-131.74891 50.84292,-198.50886 10.54958,-26.93749 45.21929,-98.31857 52.08908,-107.24574 2.29485,-2.98225 9.36541,-6.08788 24.12122,-10.59495 42.88833,-13.09996 139.54463,-36.70796 141.65403,-34.59856 0.42269,0.42274 -3.19346,3.08964 -8.03609,5.92649 -24.99175,14.64049 -59.00792,43.50691 -88.8206,75.37414 -54.69904,58.46867 -107.67415,151.31071 -129.55139,227.04645 l -4.74051,16.41136 5.82512,11.85264 c 22.46112,45.70315 93.03978,130.56931 149.21948,179.42663 29.41461,25.58074 35.90621,29.8016 49.25411,32.02466 54.18098,9.02389 138.58511,0.0387 207.85706,-22.12726 27.73646,-8.87522 66.53289,-27.49667 80.50461,-38.64047 9.54502,-7.6129 10.8386,-9.59552 17.63454,-27.02445 C 1035.3406,478.52054 1047.3692,356.98438 1029.896,264.15 l -1.2011,-6.38219 5.3379,8.20567 c 9.2999,14.29642 35.1556,60.0834 50.0267,88.59079 16.4624,31.55838 16.6077,32.43936 9.9121,60.07605 -15.6441,64.57156 -61.1086,167.33113 -98.22562,222.0101 -10.37489,15.28404 -11.49688,16.30406 -24.76309,22.51315 -82.00752,38.38259 -180.01921,62.46193 -295.62405,72.62836 l -11.85265,1.04234 z M 771.42943,505.02332 c -9.84171,-2.06744 -16.06015,-7.19307 -21.21404,-17.48558 -3.99453,-7.97725 -4.46663,-11.23386 -4.47939,-30.90445 -0.0182,-23.4107 2.07002,-34.05139 8.19984,-41.84428 7.37781,-9.37942 13.31453,-11.14252 37.51854,-11.14252 12.20238,0 22.79792,0.61199 23.54573,1.35999 2.24416,2.24494 -1.688,22.40676 -4.26878,21.8865 -1.25164,-0.25233 -8.86668,-0.60295 -16.92229,-0.77915 -20.65131,-0.45172 -20.89384,-0.11707 -20.89384,28.81643 0,22.01745 0.16776,23.02575 4.41539,26.46495 3.09554,2.50652 6.5691,3.41237 11.61923,3.02999 l 7.20367,-0.54544 0.23359,-15.49961 0.23341,-15.49961 11.39677,-0.54289 11.39677,-0.54287 v 25.42068 c 0,20.55873 -0.50711,25.61533 -2.65189,26.4383 -4.81728,1.84859 -38.24501,2.85849 -45.33271,1.36956 z m -178.12735,-50.3193 v -50.14579 h 12.61449 12.6145 l 14.88765,23.70528 c 8.18817,13.03791 15.02532,23.70646 15.19363,23.70786 0.16776,0.001 0.0365,-10.66596 -0.29486,-23.70529 l -0.60066,-23.70785 h 12.90917 12.90935 v 50.14579 50.1458 h -10.76019 -10.76019 l -16.13619,-25.97932 -16.13619,-25.97933 -0.50602,25.97933 -0.50583,25.97932 h -12.71442 -12.71424 z m 85.70372,0.0421 v -50.18787 h 32.82271 32.8227 v 10.9409 10.9409 h -18.96295 -18.96295 l -0.65263,8.20568 -0.65262,8.20568 h 15.05686 15.05687 v 10.9409 10.9409 h -11.27915 c -8.6641,0 -12.15225,-0.82188 -15.04374,-3.5446 l -3.76459,-3.5446 0.60558,12.66202 0.6054,12.66201 h 19.08804 19.08786 l -0.54686,10.48503 -0.54686,10.48503 -32.36683,0.49794 -32.36684,0.49796 z m 145.87868,0.0377 v -50.22568 h 26.40368 c 32.47861,0 39.055,1.99004 44.62939,13.50494 2.70095,5.57973 3.72976,11.33422 3.72976,20.86378 0,14.85594 -2.90372,23.54698 -9.58241,28.68127 l -4.56217,3.50716 6.85739,10.67405 6.85721,10.67407 14.49906,-43.49677 14.49888,-43.49676 h 12.47993 12.4801 l 15.13601,48.32231 c 8.32475,26.57728 15.15406,48.93774 15.17612,49.68993 0.0219,0.75219 -6.09062,1.36761 -13.58386,1.36761 H 956.2796 l -1.52881,-5.92632 c -1.49088,-5.77993 -1.8016,-5.93958 -12.57383,-6.4629 -9.09463,-0.44183 -11.34079,-1.19925 -12.71953,-4.28909 -1.43982,-3.22654 -2.12819,-2.31298 -4.91192,6.51815 l -3.23759,10.27063 -22.18487,-0.51111 -22.18486,-0.5111 -8.21261,-14.132 c -6.35702,-10.9388 -9.13036,-14.13199 -12.27404,-14.13199 -3.80434,0 -4.09518,0.8944 -4.59391,14.13199 l -0.53264,14.132 -13.22025,0.53576 -13.22026,0.53576 z M 946.37753,468.836 c -0.50929,-1.7551 -1.83606,-6.88365 -2.94802,-11.39677 -3.44693,-13.98736 -3.95258,-14.11013 -7.51184,-1.82348 -4.69784,16.21755 -4.65098,16.41135 3.96918,16.41135 6.20075,0 7.26494,-0.52321 6.49068,-3.1911 z m -75.5936,-16.2381 c 3.90955,-3.53821 4.71608,-20.4 1.14643,-23.96971 -1.2035,-1.2035 -6.33205,-2.18854 -11.39677,-2.18898 l -9.2086,-8e-4 0.37145,14.1328 c 0.20423,7.77303 0.40937,14.33794 0.45587,14.58867 0.37144,2.00579 15.95147,-0.13658 18.63162,-2.56198 z m -185.09779,-61.096 c -9.11505,-2.56474 -18.08623,-11.68853 -20.97572,-21.33251 -3.61888,-12.07892 -4.66191,-36.22067 -2.19638,-50.83784 4.25455,-25.22392 14.88746,-33.29975 43.84402,-33.29975 32.90567,0 42.0116,9.70867 43.41167,46.28497 1.23486,32.26311 -3.79121,48.38783 -17.59534,56.44996 -7.24835,4.23318 -35.29881,5.88356 -46.48825,2.73517 z m 26.53113,-21.66719 c 5.66156,-1.57241 7.07895,-2.98973 8.65134,-8.65137 2.41703,-8.70307 2.42651,-33.98082 0.0182,-42.66024 -1.48869,-5.35982 -3.14259,-7.13532 -8.20184,-8.80505 -3.48541,-1.15029 -8.79503,-1.5516 -11.79904,-0.89181 -9.30359,2.04341 -10.93998,6.54851 -10.9099,30.03645 0.0347,26.34373 1.78592,30.27656 14.56088,32.6809 0.50146,0.0944 3.9586,-0.67462 7.6827,-1.70888 z M 593.30208,339.82456 v -51.96928 h 13.67613 13.67612 v 40.11664 40.11664 h 20.05832 20.05832 v 11.85264 11.85264 h -33.73445 -33.73444 z m 162.29003,0 v -51.96928 h 16.33312 16.33295 l 5.44474,17.77897 c 2.99452,9.77843 7.29703,24.13836 9.56107,31.91096 2.26385,7.7726 4.56728,14.12277 5.11851,14.11148 0.55143,-0.0109 5.13858,-14.16608 10.19382,-31.45509 l 9.19146,-31.43457 16.88272,-0.52549 16.88272,-0.52548 -0.54541,45.56878 c -0.29996,25.06283 -0.0328,44.99292 0.59446,44.2891 0.62691,-0.70383 7.88711,-21.62442 16.13364,-46.49017 l 14.99377,-45.21048 11.99269,0.53513 11.99287,0.53512 16.03699,51.05754 c 8.82037,28.08165 16.06233,51.70748 16.09315,52.50185 0.031,0.79438 -6.27515,1.20466 -14.01329,0.91174 l -14.06909,-0.53257 -1.69419,-5.92632 c -1.67724,-5.86702 -1.80744,-5.92632 -13.00436,-5.92632 -9.9657,0 -11.53007,-0.48775 -13.15899,-4.10284 -1.67851,-3.72503 -2.15462,-3.13734 -5.17048,6.38219 l -3.32148,10.48503 h -25.1958 -25.1958 l -0.13676,-25.07289 -0.13494,-25.0729 -6.86924,23.70528 -6.86943,23.70529 -12.59717,0.51763 -12.59735,0.51761 -6.69894,-24.22289 -6.69893,-24.22292 -0.13858,25.0729 -0.13859,25.07289 H 768.35759 755.5932 Z m 154.9961,16.07511 c 0,-2.51072 -6.04631,-23.40797 -7.13967,-24.67586 -0.61962,-0.71874 -2.84336,4.82009 -4.94146,12.30852 l -3.81473,13.61533 h 7.94802 c 4.37126,0 7.94784,-0.5616 7.94784,-1.24799 z M 1014.4741,243.00521 C 991.1612,219.24304 899.79866,146.54053 887.25965,141.77318 869.34247,134.96112 776.07001,114.6621 745.61328,110.94652 c -8.99871,-1.0978 -16.57492,-2.20974 -16.83622,-2.47101 -0.62637,-0.62644 64.40033,-8.16233 88.81349,-10.292528 10.53062,-0.918871 36.084,-1.698283 56.78528,-1.732054 l 37.63889,-0.06145 14.33039,15.139532 c 25.4582,26.89541 60.01722,75.53829 97.09579,136.66547 2.2811,3.76094 3.8519,6.83807 3.4905,6.83807 -0.3616,0 -5.9674,-5.41232 -12.4573,-12.02737 z"
       id="path1055" /></g></svg>
