<?xml version="1.0" encoding="UTF-8" standalone="no"?>
<!-- Created with Inkscape (http://www.inkscape.org/) -->

<svg
   version="1.1"
   id="svg182"
   width="570.66669"
   height="217.33333"
   viewBox="0 0 570.66669 217.33333"
   sodipodi:docname="minas argentinas.svg"
   xml:space="preserve"
   inkscape:version="1.2.2 (732a01da63, 2022-12-09)"
   xmlns:inkscape="http://www.inkscape.org/namespaces/inkscape"
   xmlns:sodipodi="http://sodipodi.sourceforge.net/DTD/sodipodi-0.dtd"
   xmlns="http://www.w3.org/2000/svg"
   xmlns:svg="http://www.w3.org/2000/svg"><defs
     id="defs186" /><sodipodi:namedview
     id="namedview184"
     pagecolor="#505050"
     bordercolor="#eeeeee"
     borderopacity="1"
     inkscape:showpageshadow="0"
     inkscape:pageopacity="0"
     inkscape:pagecheckerboard="0"
     inkscape:deskcolor="#505050"
     showgrid="false"
     inkscape:zoom="0.87169907"
     inkscape:cx="77.43498"
     inkscape:cy="150.85481"
     inkscape:window-width="1920"
     inkscape:window-height="991"
     inkscape:window-x="-9"
     inkscape:window-y="-9"
     inkscape:window-maximized="1"
     inkscape:current-layer="g188" /><g
     inkscape:groupmode="layer"
     inkscape:label="Image"
     id="g188"><path
       style="fill:#333333;stroke-width:0.308656"
       d="m 5.2784691,185.21723 0.078591,-29.70809 224.4954099,-0.0774 c 145.18056,-0.05 224.45901,0.0286 224.39243,0.2226 -0.0566,0.16499 -10.09987,13.56838 -22.31829,29.78545 l -22.21535,29.48548 H 207.45544 5.1996577 Z M 110.38031,197.1759 c 1.06275,-0.25056 2.76421,-0.87554 3.78103,-1.38883 l 1.84876,-0.93326 v -4.7797 -4.77974 h -2.30479 -2.30482 l -0.0874,3.44192 -0.0874,3.44188 -1.23462,0.43372 c -0.67904,0.23846 -2.10411,0.44148 -3.16687,0.45098 -5.46296,0.0488 -8.95578,-4.72403 -7.35344,-10.04827 0.9754,-3.24097 3.71955,-5.16652 7.36289,-5.16652 2.16484,0 3.64832,0.48356 5.26404,1.71594 l 1.02658,0.78302 1.67428,-1.50618 1.67428,-1.50618 -0.77165,-0.83525 c -1.63554,-1.77037 -5.68734,-3.2426 -8.92405,-3.2426 -5.37038,0 -9.737687,2.48983 -11.833035,6.74609 -0.947768,1.92521 -1.003095,2.22525 -1.003095,5.43929 0,3.03846 0.08762,3.58877 0.821139,5.15338 2.581738,5.50734 8.892081,8.16609 15.617911,6.58031 z m 29.63683,-0.45856 c 1.97649,-0.85372 4.10721,-3.11146 4.88337,-5.17447 0.4655,-1.23728 0.56911,-2.74454 0.66812,-9.72087 l 0.11716,-8.25651 h -2.627 -2.62699 l -0.0962,7.94785 c -0.0881,7.29287 -0.14693,8.03427 -0.71345,8.99593 -0.8126,1.3796 -1.97493,2.21545 -3.43898,2.47307 -2.54011,0.44698 -4.62162,-0.43743 -5.82069,-2.47307 -0.56641,-0.96166 -0.62522,-1.70306 -0.71342,-8.99593 l -0.0962,-7.94785 h -2.60458 -2.60462 v 7.81469 c 0,8.5716 0.16597,9.69492 1.81718,12.29802 1.00136,1.57865 2.96927,2.91049 5.26009,3.55989 2.15979,0.61229 6.59503,0.34359 8.59607,-0.52075 z m 80.38043,0.58104 c 1.91716,-0.40111 4.83345,-1.86719 5.83519,-2.93348 l 0.70368,-0.74904 -1.51406,-1.53717 c -0.83271,-0.84543 -1.67135,-1.53716 -1.86363,-1.53716 -0.19233,0 -0.61416,0.29794 -0.93756,0.66212 -1.48442,1.67157 -4.98085,2.32495 -7.8414,1.46533 -2.68284,-0.80625 -4.93847,-4.03309 -4.93847,-7.0649 0,-3.31995 2.15558,-6.53933 4.93847,-7.37563 2.86055,-0.85963 6.35698,-0.20624 7.8414,1.46532 0.3234,0.36419 0.74531,0.66213 0.93756,0.66213 0.19233,0 1.03092,-0.69174 1.86363,-1.53716 l 1.51406,-1.53718 -0.74772,-0.7959 c -1.37311,-1.46163 -4.81756,-2.90345 -7.45532,-3.12075 -5.96556,-0.4915 -10.90057,2.10914 -13.16375,6.93693 -0.73317,1.56398 -0.82114,2.11544 -0.82114,5.14686 0,3.03143 0.0879,3.58291 0.82114,5.14689 2.4866,5.30439 8.50614,8.02546 14.82792,6.70279 z m 145.48136,-0.13375 c 3.67752,-0.95165 6.47248,-3.24116 8.06421,-6.60575 1.08035,-2.2837 1.3532,-6.32386 0.58875,-8.71781 -1.54118,-4.8264 -5.83429,-8.10109 -11.13451,-8.4931 -5.72771,-0.42362 -10.64969,2.1117 -12.87503,6.63195 -0.9612,1.95248 -1.01447,2.23968 -1.01447,5.46888 0,3.2292 0.0532,3.51642 1.01447,5.46887 1.07043,2.17436 2.99539,4.1509 5.08169,5.2178 2.8882,1.47701 6.96595,1.88545 10.27489,1.02916 z m -5.18143,-4.19192 c -3.409,-0.50971 -6.0968,-3.75099 -6.0968,-7.35238 0,-5.53057 4.79326,-9.00101 10.20011,-7.38517 3.5256,1.05367 5.65644,5.40732 4.58806,9.37423 -1.00342,3.72567 -4.63908,5.96918 -8.69137,5.36332 z m -203.47156,1.73576 1.02284,-2.46925 h 5.60288 5.60292 l 1.02289,2.46925 1.02292,2.46924 2.81294,0.0889 2.81299,0.0888 -0.78846,-1.78638 c -0.43365,-0.9825 -2.81927,-6.33516 -5.30137,-11.89481 l -4.5129,-10.10848 -2.64775,0.005 -2.64773,0.005 -5.17168,11.64739 c -2.84444,6.40605 -5.17093,11.75696 -5.16998,11.89089 8.2e-4,0.13399 1.19757,0.20331 2.65919,0.15425 l 2.65748,-0.0891 1.02282,-2.46925 z m 3.05024,-7.17626 c 0.82436,-2.29055 3.42611,-8.41084 3.57548,-8.41084 0.14937,0 2.75115,6.12029 3.57551,8.41084 0.17842,0.49557 -0.11691,0.54017 -3.57551,0.54017 -3.45865,0 -3.75383,-0.0446 -3.57548,-0.54017 z m 39.68816,7.63923 v -2.16059 h -5.86444 -5.86445 v -9.72264 -9.72263 h -2.7779 -2.77791 v 11.88322 11.88324 h 8.64235 8.64235 z m 36.89469,-0.46297 1.02285,-2.46925 h 5.60289 5.6029 l 1.02291,2.46925 1.02289,2.46924 2.83731,0.0891 c 1.56055,0.049 2.77786,-0.0195 2.70518,-0.15425 -0.0727,-0.13376 -2.4705,-5.4867 -5.32846,-11.89516 l -5.19631,-11.65173 -2.64499,0.005 -2.645,0.005 -5.1717,11.64737 c -2.84444,6.40607 -5.17092,11.75695 -5.16998,11.89088 8.2e-4,0.134 1.19758,0.20331 2.6592,0.15425 l 2.65748,-0.0891 1.02283,-2.46923 z m 3.05023,-7.17626 c 0.82436,-2.29055 3.42614,-8.41084 3.57551,-8.41084 0.14937,0 2.75116,6.12029 3.57551,8.41084 0.17843,0.49557 -0.11691,0.54017 -3.57551,0.54017 -3.45867,0 -3.75386,-0.0446 -3.57551,-0.54017 z m 27.34197,2.85509 c 0,-3.81962 0.10422,-6.93972 0.23138,-6.93356 0.12741,0.005 1.73527,2.50627 3.57322,5.55581 l 3.34172,5.54458 h 1.32088 1.32088 l 3.36244,-5.69479 3.36242,-5.69478 0.19794,1.75943 c 0.10886,0.96769 0.21308,4.15536 0.23163,7.08375 l 0.0335,5.3243 h 2.51687 2.51689 l -0.20063,-3.93535 c -0.11032,-2.16445 -0.20136,-7.5119 -0.20185,-11.88325 l -0.002,-7.94786 h -2.11058 -2.11059 l -4.07054,6.89671 c -2.2388,3.79321 -4.24055,7.12565 -4.44836,7.40543 -0.32369,0.43582 -1.01785,-0.55168 -4.84811,-6.89673 l -4.47032,-7.40541 h -2.24292 -2.24295 v 11.88322 11.88324 h 2.46925 2.46925 z m 34.11677,4.32117 1.02284,-2.46925 h 5.60289 5.60289 l 1.02292,2.46925 1.02289,2.46924 2.81301,0.0889 2.81295,0.0888 -0.78846,-1.78638 c -0.43367,-0.9825 -2.81925,-6.33516 -5.30138,-11.89481 l -4.51291,-10.10848 -2.64773,0.005 -2.64773,0.005 -5.17171,11.64739 c -2.84442,6.40605 -5.17091,11.75696 -5.16996,11.89089 8.2e-4,0.13399 1.19757,0.20331 2.65919,0.15425 l 2.65746,-0.0891 1.02284,-2.46925 z m 3.05021,-7.17626 c 0.82439,-2.29055 3.42615,-8.41084 3.57552,-8.41084 0.14937,0 2.75116,6.12029 3.57552,8.41084 0.17841,0.49557 -0.11691,0.54017 -3.57552,0.54017 -3.45868,0 -3.75386,-0.0446 -3.57552,-0.54017 z m 32.58913,5.56119 v -4.23864 l 4.4755,-7.46538 c 2.46153,-4.10596 4.47551,-7.55163 4.47551,-7.65707 0,-0.10544 -1.14588,-0.15133 -2.5464,-0.10202 l -2.54642,0.0896 -3.08655,5.15924 c -1.6976,2.83756 -3.15841,5.16405 -3.24623,5.16996 -0.0879,0.005 -1.53777,-2.29547 -3.22217,-5.11418 -1.68436,-2.81872 -3.22144,-5.18593 -3.41567,-5.26046 -0.19429,-0.0744 -1.48898,-0.0947 -2.8772,-0.0451 l -2.52402,0.0906 4.63326,7.67154 4.63324,7.67154 v 4.13452 4.13455 h 2.62358 2.62357 z m 94.05578,21.44617 c 0.16499,-0.2121 12.34269,-16.39344 27.06134,-35.95833 14.71868,-19.56489 26.87294,-35.57253 27.00949,-35.57253 0.29631,0 19.47327,25.45853 19.47327,25.85193 0,0.22186 -2.06687,3.17082 -2.58702,3.69094 -0.0786,0.0786 -3.91136,-4.87748 -8.51716,-11.01366 l -8.37412,-11.15665 -18.07784,24.01553 c -9.9428,13.20854 -20.87338,27.73057 -24.29012,32.27118 l -6.21227,8.25566 -2.89284,8.2e-4 c -2.26872,6.1e-4 -2.82811,-0.0823 -2.59273,-0.38495 z m 44.27326,0.10007 c 0.15986,-0.44432 44.76504,-59.63566 44.86134,-59.53141 0.23554,0.25496 44.50574,59.11077 44.7073,59.4369 0.18573,0.30067 -9.18025,0.38032 -44.71822,0.38032 -27.44239,0 -44.91323,-0.1113 -44.85042,-0.28581 z m 7.45602,-33.04897 c 0.0886,-0.93368 0.24571,-2.18373 0.34935,-2.77789 0.1523,-0.87329 -0.0471,-0.6367 -1.04103,1.23463 -1.40457,2.64464 -1.50804,2.66949 -0.64267,0.15426 0.3395,-0.98684 0.61729,-1.86348 0.61729,-1.94811 0,-0.41804 -1.37287,1.16429 -1.89104,2.17959 -0.32491,0.6366 -0.72456,1.15745 -0.88811,1.15745 -0.35401,0 0.52983,-2.05426 1.26157,-2.93221 0.28298,-0.33954 0.68873,-0.96456 0.9017,-1.38896 0.42606,-0.84901 0.49943,-0.90344 -2.90655,2.15615 -1.18147,1.06131 -1.1936,1.06476 -0.56191,0.15866 0.35508,-0.50929 1.26145,-1.61849 2.01412,-2.46489 1.26087,-1.41788 1.41434,-1.50327 1.95087,-1.08562 0.5702,0.44388 0.57025,0.43914 0.002,-0.22698 l -0.57992,-0.68024 -0.62936,0.80013 c -0.34615,0.44006 -1.05746,0.99289 -1.58068,1.22852 -0.52325,0.23553 -1.33099,0.73036 -1.79507,1.09938 -0.46405,0.36904 -0.92873,0.586 -1.0326,0.48214 -0.22845,-0.22845 1.7341,-2.06291 2.22053,-2.0757 0.39807,-0.01 2.05782,-1.25949 1.89282,-1.42444 -0.0608,-0.0608 -1.20623,0.29843 -2.54564,0.7981 -1.33943,0.49966 -2.49176,0.85201 -2.5608,0.78296 -0.0691,-0.0691 0.82614,-0.62312 1.98927,-1.2313 l 2.11479,-1.10578 -1.38896,0.13985 c -0.7639,0.0769 -1.87507,0.23602 -2.46922,0.35345 -0.59417,0.1174 -0.97354,0.1008 -0.84304,-0.0374 0.34542,-0.3653 2.43033,-1.05239 3.20987,-1.05781 0.36807,-0.002 0.92365,-0.10691 1.2346,-0.23188 0.3617,-0.14522 -0.4354,-0.35159 -2.21248,-0.57262 -2.31211,-0.28759 -2.51914,-0.35371 -1.23462,-0.39442 0.84878,-0.0268 1.87078,-0.13644 2.27111,-0.24383 0.70588,-0.18891 0.69783,-0.20747 -0.26694,-0.61309 -0.5471,-0.23017 -1.46497,-0.41828 -2.03961,-0.41828 -0.5747,0 -1.04486,-0.11763 -1.04486,-0.26147 0,-0.27482 1.77391,-0.23504 3.85818,0.0864 1.13521,0.175 1.05389,0.0993 -1.01012,-0.94198 -1.23463,-0.62285 -2.19494,-1.18224 -2.13407,-1.24314 0.061,-0.0608 0.91913,0.16744 1.90727,0.50743 0.98809,0.33997 1.86578,0.61812 1.9504,0.61812 0.42395,0 -1.17153,-1.37658 -2.20949,-1.90632 -0.65307,-0.33328 -1.1089,-0.68446 -1.01305,-0.78033 0.26555,-0.26553 2.10345,0.53943 2.97204,1.30168 0.42442,0.37243 1.0492,0.77583 1.38844,0.89645 0.5313,0.18892 0.50646,0.0989 -0.17915,-0.64923 -2.2526,-2.45819 -2.71125,-3.01898 -2.57803,-3.1522 0.08,-0.08 0.66376,0.33463 1.29725,0.92141 0.63347,0.58675 1.56845,1.41111 2.07773,1.83187 l 0.92597,0.76503 -0.6356,-0.77164 c -0.34953,-0.4244 -0.79897,-1.11889 -0.99872,-1.54329 -0.19965,-0.42439 -0.66837,-1.15131 -1.04134,-1.61538 -0.37302,-0.46405 -0.59046,-0.9315 -0.48322,-1.03875 0.26345,-0.26345 1.64345,1.30604 2.40147,2.73131 1.05148,1.97691 1.20907,1.27468 0.29443,-1.3118 -0.48026,-1.35807 -0.81753,-2.46923 -0.7495,-2.46923 0.0681,0 0.6165,0.93754 1.21885,2.08342 l 1.09514,2.08342 -0.15206,-1.54328 c -0.0837,-0.84879 -0.24359,-1.92524 -0.35528,-2.39208 -0.11178,-0.46683 -0.082,-0.84879 0.0664,-0.84879 0.34475,0 1.03568,2.19725 1.04185,3.31319 0.002,0.4695 0.12985,1.05134 0.28279,1.29298 0.18574,0.29355 0.35847,-0.4234 0.52041,-2.16059 0.23212,-2.48927 0.25194,-2.54079 0.46601,-1.21098 0.12302,0.76393 0.25242,2.08344 0.28772,2.93224 l 0.0642,1.54328 0.2785,-1.54328 c 0.15329,-0.8488 0.35763,-2.06499 0.45432,-2.70266 0.0967,-0.63767 0.31467,-1.24517 0.4843,-1.35003 0.3028,-0.1872 0.21527,1.4534 -0.20771,3.89836 -0.16499,0.95409 -0.072,0.86395 0.79746,-0.77164 1.14481,-2.15359 1.50689,-1.88874 0.59184,0.43286 -0.76957,1.95237 -0.79342,2.28742 -0.0874,1.22909 0.29618,-0.44399 0.92221,-1.38156 1.39117,-2.08342 0.46899,-0.70185 0.9783,-1.27614 1.13182,-1.27614 0.28264,0 -0.58522,1.69651 -1.62765,3.1818 -1.10256,1.57091 -0.33646,1.40936 1.42739,-0.30102 0.98135,-0.95157 1.84002,-1.67432 1.90822,-1.60613 0.0681,0.0681 -0.72122,1.06964 -1.75433,2.22538 -1.69983,1.90163 -1.76707,2.02584 -0.70767,1.30691 0.64385,-0.43691 1.33806,-0.79441 1.54272,-0.79441 0.20453,0 0.62344,-0.27778 0.9307,-0.61731 0.30727,-0.33953 0.75863,-0.61732 1.00303,-0.61732 0.24439,0 -0.15914,0.4802 -0.89666,1.06712 -0.73752,0.5869 -1.68821,1.34324 -2.1126,1.68075 -0.77097,0.61308 -0.76986,0.61311 1.2346,0.017 1.10345,-0.3287 2.24934,-0.73896 2.54642,-0.91174 0.29706,-0.17281 0.54014,-0.19282 0.54014,-0.0444 0,0.14816 -1.04476,0.72512 -2.32172,1.28188 -1.27691,0.55676 -2.28392,1.0421 -2.23774,1.07854 0.11496,0.0908 3.2829,-0.37278 4.32798,-0.63325 0.46683,-0.11643 0.84879,-0.0903 0.84879,0.0579 0,0.34473 -2.19728,1.03566 -3.31321,1.04183 -0.46948,0.002 -1.03846,0.1218 -1.26435,0.26509 -0.47449,0.3008 0.92909,0.65615 2.59167,0.65615 0.56294,0 1.10934,0.13887 1.21424,0.30866 0.12058,0.19525 -0.75233,0.32383 -2.37386,0.3499 -2.50967,0.0403 -2.53156,0.0471 -1.02133,0.31973 0.8488,0.15328 2.065,0.35762 2.70266,0.45435 0.63767,0.0966 1.24514,0.31464 1.35,0.48426 0.18696,0.30266 -1.44827,0.21577 -3.89835,-0.20722 -0.88121,-0.15205 -0.65366,0.0425 1.23462,1.05609 2.36686,1.27046 1.90254,1.39035 -1.0803,0.27891 -1.92886,-0.71873 -2.09217,-0.71995 -0.92594,-0.007 0.50926,0.3114 1.11659,0.79701 1.34956,1.07915 0.23309,0.28216 0.59341,0.513 0.80098,0.513 0.20746,0 0.62873,0.27778 0.936,0.61732 0.30726,0.33953 0.43296,0.6061 0.27934,0.59244 -0.32133,-0.0286 -2.14834,-1.09228 -3.34267,-1.94603 -1.55414,-1.11096 -1.21263,-0.16353 0.60208,1.67032 2.28715,2.31126 1.94562,2.39178 -0.61382,0.14473 l -1.93529,-1.69912 0.69657,1.3759 c 0.38309,0.75675 0.99153,1.75089 1.35202,2.20921 0.36054,0.45832 0.58983,0.899 0.50953,0.9793 -0.16939,0.16938 -1.63237,-1.50562 -2.38405,-2.72941 -1.04473,-1.70088 -1.15498,-1.18217 -0.26293,1.23719 0.50428,1.36764 0.85259,2.48663 0.774,2.48663 -0.0786,0 -0.68267,-1.07298 -1.34253,-2.38439 l -1.19974,-2.38441 0.15523,1.68992 c 0.0854,0.92946 0.27634,1.92387 0.42435,2.20977 0.33103,0.63948 0.35132,1.48642 0.0357,1.48642 -0.31576,0 -0.99997,-2.25383 -1.00583,-3.31319 -0.002,-0.46952 -0.13058,-1.05257 -0.28445,-1.29566 -0.18989,-0.30019 -0.35212,0.29298 -0.50541,1.84876 -0.25966,2.63503 -0.6678,2.2142 -0.76565,-0.78946 -0.0593,-1.81943 -0.0647,-1.83026 -0.31547,-0.61731 -0.14035,0.67904 -0.37895,1.8957 -0.53022,2.70371 -0.3916,2.09167 -0.77172,2.24121 -0.58093,0.22845 z m 0.82625,-4.75112 c 0,-0.0667 -0.21552,-0.20405 -0.479,-0.30512 -0.27471,-0.10544 -0.3986,-0.0537 -0.29046,0.12131 0.18136,0.29328 0.76946,0.43379 0.76946,0.18378 z m 4.0519,-1.03615 c 0.3839,-0.48956 0.37302,-0.50047 -0.11643,-0.11642 -0.29709,0.23309 -0.54016,0.47604 -0.54016,0.54013 0,0.25404 0.25347,0.0906 0.65671,-0.42361 z m 1.10489,-3.54596 c -0.0737,-0.38393 -0.13717,-0.14254 -0.14034,0.53655 -0.002,0.67907 0.0569,0.99319 0.13424,0.69808 0.0774,-0.29509 0.0801,-0.85067 0.007,-1.23463 z m -6.85443,-2.39566 c 0.30729,-0.33953 0.48922,-0.61731 0.40436,-0.61731 -0.0849,0 -0.40573,0.27778 -0.713,0.61731 -0.30728,0.33951 -0.48922,0.61732 -0.40435,0.61732 0.0849,0 0.40573,-0.27781 0.71299,-0.61732 z m 4.98995,-0.7422 c 0,-0.24732 -0.18794,-0.36148 -0.4374,-0.26573 -0.35999,0.13814 -0.36453,0.21406 -0.0256,0.42884 0.22651,0.14352 0.42326,0.26311 0.43741,0.2657 0.0147,0.002 0.0256,-0.19038 0.0256,-0.42881 z m -2.7586,-0.37024 c -0.10251,-0.10251 -0.36877,-0.1135 -0.59159,-0.0244 -0.24622,0.0986 -0.17305,0.17159 0.18647,0.18647 0.32536,0.0122 0.50768,-0.0596 0.40512,-0.16206 z M 136.34648,135.60177 c -0.61333,-0.15524 -2.19351,-0.7107 -3.51154,-1.23429 -2.26501,-0.89975 -2.4281,-0.92326 -2.97453,-0.42874 -0.56267,0.50919 -0.57811,0.39721 -0.57811,-4.18774 v -4.71092 l 1.84124,1.70469 c 2.13643,1.97795 4.26027,2.89462 7.37795,3.1844 2.49437,0.23187 4.16086,-0.21676 4.87934,-1.31323 0.39073,-0.59637 0.42395,-0.91445 0.15669,-1.50088 -0.42906,-0.94172 -1.37367,-1.42503 -4.84131,-2.47705 -5.03132,-1.52638 -7.51143,-3.11429 -8.9273,-5.7157 -0.79239,-1.4559 -0.85807,-1.81203 -0.72986,-3.95806 0.16767,-2.80772 0.86936,-4.36028 2.73016,-6.04141 0.71341,-0.64451 2.07771,-1.53787 3.03174,-1.9852 1.58002,-0.74085 2.06487,-0.81207 5.43852,-0.79879 3.25594,0.0122 3.96967,0.11545 5.90181,0.84882 2.427,0.92116 3.2057,1.01725 3.75911,0.46384 0.28808,-0.28808 0.37038,0.71585 0.37038,4.51774 v 4.88812 l -1.55312,-1.45278 c -2.03838,-1.90665 -4.34923,-2.94488 -6.99958,-3.14477 -3.23948,-0.24434 -4.79552,0.77769 -4.28443,2.81405 0.15547,0.61988 0.85031,0.94447 4.93513,2.30589 3.22791,1.07584 5.27427,1.95113 6.37449,2.72656 4.43524,3.12595 4.6911,8.9056 0.56571,12.77878 -2.22327,2.08734 -4.23925,2.77927 -8.45219,2.90094 -1.86737,0.0539 -3.89703,-0.029 -4.51037,-0.18427 z m 106.937,-0.13034 c -5.22384,-1.26713 -9.78193,-5.6005 -11.05155,-10.50675 -0.94538,-3.65323 -0.43887,-8.17275 1.26721,-11.30742 1.85327,-3.40507 6.21681,-6.56401 10.21323,-7.39381 2.58519,-0.53677 6.79363,-0.20258 10.08874,0.80117 2.17765,0.66335 2.87231,0.7653 3.31804,0.48693 0.53681,-0.33524 0.56376,-0.1235 0.56376,4.42655 v 4.77866 l -1.40545,-1.40545 c -2.14532,-2.14531 -4.36468,-3.05745 -7.39123,-3.03767 -2.79511,0.0171 -4.24137,0.59148 -5.92597,2.34889 -3.60974,3.7658 -2.62939,11.71801 1.74103,14.12255 1.04207,0.57333 1.85633,0.75936 3.39521,0.77567 l 2.02436,0.022 0.0888,-3.04937 c 0.0732,-2.51657 -0.002,-3.15024 -0.43365,-3.6267 -0.50855,-0.56192 -0.37714,-0.57733 4.92683,-0.57733 h 5.44931 l -0.61731,0.61731 c -0.56263,0.56262 -0.61732,1.02885 -0.61732,5.26234 v 4.64506 l -2.2466,1.06692 c -1.23563,0.5868 -3.21488,1.27202 -4.39834,1.52268 -2.5805,0.54663 -6.7975,0.55991 -8.98911,0.0283 z m 197.39722,0.13034 c -0.61337,-0.15524 -2.19358,-0.7107 -3.51157,-1.23429 -2.26501,-0.89975 -2.4281,-0.92326 -2.97456,-0.42874 -0.56264,0.50919 -0.57812,0.39721 -0.57812,-4.18774 v -4.71092 l 1.84125,1.70469 c 2.13643,1.97795 4.26029,2.89462 7.37795,3.1844 2.49441,0.23187 4.16085,-0.21676 4.87936,-1.31323 0.39072,-0.59637 0.42395,-0.91445 0.1567,-1.50088 -0.42909,-0.94172 -1.37368,-1.42503 -4.84134,-2.47705 -5.03129,-1.52638 -7.51143,-3.11429 -8.92731,-5.7157 -0.79235,-1.4559 -0.85804,-1.81203 -0.72982,-3.95806 0.16767,-2.80772 0.86934,-4.36028 2.73016,-6.04141 0.7134,-0.64451 2.07768,-1.53787 3.03174,-1.9852 1.58002,-0.74085 2.06485,-0.81207 5.43851,-0.79879 3.25595,0.0122 3.96968,0.11545 5.90179,0.84882 2.427,0.92116 3.20569,1.01725 3.75913,0.46384 0.28806,-0.28808 0.37039,0.71585 0.37039,4.51774 v 4.88812 l -1.55312,-1.45278 c -2.03841,-1.90665 -4.34923,-2.94488 -6.99961,-3.14477 -3.23945,-0.24434 -4.79552,0.77769 -4.28441,2.81405 0.15548,0.61988 0.85031,0.94447 4.93511,2.30589 3.22793,1.07584 5.27427,1.95113 6.37451,2.72656 4.43522,3.12595 4.69111,8.9056 0.56571,12.77878 -2.22326,2.08734 -4.23927,2.77927 -8.45219,2.90094 -1.86736,0.0539 -3.89703,-0.029 -4.51034,-0.18427 z m 59.38882,-0.29707 c -2.61736,-1.59588 -2.51063,-5.54698 0.18744,-6.94226 1.89263,-0.97868 4.18551,-0.34307 5.28865,1.46614 2.15176,3.52902 -1.94713,7.62791 -5.47617,5.47612 z m 39.81652,0 c -2.61735,-1.59588 -2.51062,-5.54698 0.18745,-6.94226 1.89263,-0.97868 4.18551,-0.34307 5.28863,1.46614 2.15175,3.52902 -1.9471,7.62791 -5.47615,5.47612 z m -60.61573,-0.0283 c -0.60906,-0.14425 -1.84251,-0.55219 -2.741,-0.90635 -1.53793,-0.60618 -1.66742,-0.61331 -2.21063,-0.12179 -0.56071,0.50743 -0.57704,0.41173 -0.57704,-3.38384 0,-2.14833 0.0737,-3.90603 0.16378,-3.90603 0.0901,0 0.57245,0.46547 1.07197,1.03441 2.55668,2.91191 9.76373,3.99047 10.37557,1.55273 0.29557,-1.17764 -0.61888,-1.89268 -3.56277,-2.78589 -3.2729,-0.99307 -4.81688,-1.74631 -6.14577,-2.99825 -1.47274,-1.38747 -1.90278,-2.39059 -1.90278,-4.43867 0,-5.83679 6.49472,-9.04514 13.68683,-6.76122 1.53337,0.48693 2.45512,0.63486 2.78965,0.44766 0.44873,-0.25113 0.49959,0.11715 0.49959,3.61762 v 3.8972 l -0.7858,-0.93388 c -1.30902,-1.55568 -3.95534,-2.65936 -6.3811,-2.66133 -1.72863,-0.002 -2.18766,0.11179 -2.75623,0.6797 -0.56091,0.56027 -0.62458,0.80717 -0.35822,1.38895 0.25654,0.56034 1.17458,0.98738 4.41195,2.05235 3.63639,1.19623 4.25141,1.5031 5.56726,2.7779 1.65106,1.59957 2.32512,3.36542 2.00588,5.25487 -0.45705,2.7054 -2.80857,5.16314 -5.78591,6.04732 -1.69338,0.50287 -5.5385,0.57933 -7.36523,0.14644 z M 6.1064179,134.4789 c 0.6239515,-0.79323 0.6396942,-1.13026 0.6396942,-13.69352 0,-12.59819 -0.014648,-12.89825 -0.6451371,-13.70047 l -0.6451615,-0.82017 5.7815805,0.084 5.781557,0.084 3.716249,7.93152 c 2.043926,4.36231 3.803579,7.87749 3.910313,7.81154 0.10666,-0.0659 1.844419,-3.66987 3.861474,-8.00866 l 3.66741,-7.88872 h 5.873865 c 5.404315,0 5.819022,0.0384 5.18787,0.48048 l -0.685995,0.48049 v 13.39699 c 0,13.38425 6.1e-4,13.39758 0.6755,14.02631 l 0.675525,0.62935 h -5.623251 -5.623225 l 0.631639,-0.85436 c 0.605475,-0.81894 0.628247,-1.20577 0.549387,-9.33682 l -0.08225,-8.48248 -4.155046,9.33681 -4.155046,9.33685 h -1.86746 -1.86746 l -4.126587,-9.02819 c -2.269602,-4.9655 -4.247187,-9.1601 -4.394608,-9.32139 -0.152303,-0.16646 -0.268019,3.38306 -0.268019,8.2149 0,8.14011 0.02758,8.54334 0.639694,9.3214 l 0.639719,0.81328 H 9.8326742 5.4666992 Z m 42.3511451,0.22333 0.728659,-0.59002 v -13.32673 -13.32675 l -0.728659,-0.59002 c -0.723534,-0.58588 -0.68768,-0.59005 5.069446,-0.59005 h 5.798131 l -0.671137,0.71437 c -0.667075,0.71007 -0.671103,0.79232 -0.671103,13.69354 0,12.66332 0.01465,12.99897 0.639719,13.79243 l 0.63972,0.81328 H 53.49562 c -5.726225,0 -5.761615,-0.005 -5.038057,-0.59005 z m 16.910659,-0.22333 c 0.623971,-0.79323 0.639712,-1.13026 0.639712,-13.69352 0,-12.56329 -0.01461,-12.9003 -0.639712,-13.69354 l -0.639696,-0.81328 5.038029,0.0146 5.038062,0.0146 5.864447,8.03177 5.864465,8.03181 0.08299,-7.19014 c 0.07883,-6.8333 0.05174,-7.23258 -0.549386,-8.04551 l -0.632401,-0.85539 h 4.352824 4.352815 l -0.63972,0.81328 c -0.625342,0.795 -0.639712,1.12076 -0.639712,14.50679 v 13.69355 h -3.397491 -3.397515 l -6.865291,-9.18249 -6.865298,-9.18251 -0.08226,8.32803 c -0.07883,7.97596 -0.05565,8.36419 0.549387,9.18252 l 0.631715,0.85445 h -4.352799 -4.352816 z m 30.4576,0.2431 c 0.336609,-0.31361 1.11906,-1.80671 1.738788,-3.31804 2.72922,-6.65584 9.18583,-23.24635 9.18583,-23.60341 0,-0.21624 -0.22992,-0.64709 -0.51083,-0.95754 -0.4929,-0.54465 -0.33206,-0.56445 4.58928,-0.56445 h 5.10011 l 5.3431,14.06514 c 3.66484,9.64729 5.54118,14.20386 5.97368,14.5068 0.55625,0.38962 -0.0756,0.44168 -5.36155,0.44168 -5.23788,0 -5.91703,-0.0549 -5.39569,-0.43611 0.58338,-0.42659 0.57411,-0.50418 -0.42408,-3.54955 l -1.02053,-3.11342 h -4.72403 -4.72403 l -0.78023,2.23776 c -1.25566,3.60126 -1.25784,3.61518 -0.66874,4.26613 0.52974,0.58535 0.46042,0.59519 -4.19722,0.59519 -4.620497,0 -4.720957,-0.0147 -4.123858,-0.57018 z m 16.004318,-15.65441 c -0.75671,-2.13309 -1.38598,-3.97343 -1.39838,-4.08969 -0.0122,-0.11618 -0.27441,0.48317 -0.58226,1.33197 -0.30783,0.84878 -0.98248,2.68916 -1.49916,4.08968 l -0.93946,2.54639 h 2.89752 2.89756 z m 55.9147,15.65221 c 0.33792,-0.3148 1.12364,-1.80793 1.74608,-3.31804 2.51684,-6.1062 9.17621,-23.23407 9.17621,-23.60121 0,-0.21624 -0.22991,-0.64709 -0.51082,-0.95754 -0.49293,-0.54465 -0.33207,-0.56445 4.58928,-0.56445 h 5.10008 l 5.34312,14.06514 c 3.66485,9.64729 5.54117,14.20386 5.97367,14.5068 0.55627,0.38962 -0.0756,0.44168 -5.36153,0.44168 -5.23788,0 -5.91707,-0.0549 -5.3957,-0.43611 0.58336,-0.42659 0.57409,-0.50418 -0.4241,-3.54955 l -1.0205,-3.11342 h -4.72403 -4.72406 l -0.78023,2.23776 c -1.25564,3.60126 -1.25784,3.61518 -0.66874,4.26613 0.52974,0.58535 0.46042,0.59519 -4.19722,0.59519 -4.62702,0 -4.72177,-0.0122 -4.12151,-0.57238 z m 16.00197,-15.65221 c -0.75671,-2.13309 -1.38598,-3.97343 -1.39838,-4.08969 -0.0122,-0.11618 -0.27441,0.48317 -0.58226,1.33197 -0.30783,0.84878 -0.98245,2.68916 -1.49916,4.08968 l -0.93946,2.54639 h 2.89755 2.89753 z m 17.80379,15.63454 0.72866,-0.59002 v -13.32673 -13.32675 l -0.72866,-0.59002 c -0.72114,-0.58392 -0.62958,-0.59005 8.84132,-0.59005 8.80573,0 9.7352,0.051 11.63846,0.63889 5.97821,1.84649 7.73659,9.40444 3.23518,13.90583 -0.82795,0.82795 -1.65087,1.50535 -1.8287,1.50535 -0.17793,0 -0.32337,0.19283 -0.32337,0.42831 0,0.8152 5.49232,11.85178 6.06306,12.18346 0.42694,0.24812 -0.7338,0.33541 -4.55332,0.34238 l -5.12639,0.01 -2.40212,-5.24716 -2.40214,-5.24714 h -1.80832 -1.80832 v 4.43388 c 0,4.01828 0.0601,4.51011 0.63972,5.24714 l 0.63969,0.81328 h -5.76671 c -5.72623,0 -5.7616,-0.005 -5.03804,-0.59005 z m 16.23206,-16.77884 c 0.70443,-0.70482 0.85533,-1.12562 0.85533,-2.38507 0,-1.25942 -0.15083,-1.68023 -0.85533,-2.38507 -0.79434,-0.79477 -1.06392,-0.86343 -3.78103,-0.96277 l -2.92569,-0.1069 v 3.45479 3.4548 l 2.92569,-0.10691 c 2.71711,-0.0993 2.98669,-0.16792 3.78103,-0.96277 z m 47.35096,16.77884 0.72866,-0.59002 v -13.32673 -13.32675 l -0.72866,-0.59002 c -0.72066,-0.58356 -0.60768,-0.59005 10.26278,-0.59005 h 10.99147 v 3.74549 3.74549 l -0.63972,-0.81325 -0.63972,-0.81326 h -5.22473 -5.22475 v 2.48433 2.48434 l 4.707,-0.0947 c 2.58885,-0.052 4.95007,-0.21259 5.24715,-0.35677 0.49973,-0.24261 0.54014,0.0291 0.54014,3.62906 0,2.14017 -0.10422,3.88679 -0.23138,3.8814 -0.1274,-0.005 -0.50111,-0.21381 -0.83064,-0.46299 -0.46198,-0.34941 -1.6102,-0.45317 -5.01564,-0.45317 h -4.41653 v 2.93223 2.93224 h 5.55582 c 5.14425,0 5.6015,-0.0456 6.1731,-0.61731 0.61731,-0.61731 0.61731,-0.61731 0.61731,3.08655 v 3.70387 h -11.30012 c -11.17438,0 -11.292,-0.007 -10.57144,-0.59005 z m 27.09629,-0.22332 c 0.62397,-0.79324 0.63971,-1.13027 0.63971,-13.69353 0,-12.56328 -0.0146,-12.9003 -0.63971,-13.69354 l -0.6397,-0.81328 5.03803,0.0146 5.03806,0.0146 5.86445,8.03178 5.86446,8.0318 0.083,-7.19013 c 0.0788,-6.83331 0.0517,-7.23258 -0.54938,-8.04552 l -0.6324,-0.85539 h 4.35279 4.35284 l -0.63972,0.81328 c -0.62536,0.795 -0.63971,1.12077 -0.63971,14.5068 v 13.69355 h -3.39749 -3.39751 l -6.86529,-9.18249 -6.8653,-9.18252 -0.0823,8.32803 c -0.0788,7.97597 -0.0557,8.36419 0.54939,9.18252 l 0.63172,0.85446 h -4.35283 -4.35279 z m 38.91299,0.19599 c 0.59413,-0.59413 0.61729,-1.02885 0.61729,-11.5746 v -10.95724 h -2.91769 c -3.23818,0 -4.13254,0.27256 -4.88754,1.48955 -0.4929,0.79452 -0.51233,0.67258 -0.52024,-3.26434 l -0.007,-4.08968 h 12.65488 12.65486 v 3.87541 3.87541 l -0.74428,-0.86602 c -0.72016,-0.83794 -0.85573,-0.86943 -4.18168,-0.97088 l -3.43739,-0.10496 0.092,11.01256 0.092,11.01257 0.72869,0.5897 c 0.72346,0.58551 0.68755,0.58973 -5.01566,0.58973 h -5.74431 z m 21.34017,0.0273 0.72868,-0.59005 v -13.32674 -13.32672 l -0.72868,-0.59005 c -0.72351,-0.58584 -0.68768,-0.59002 5.06944,-0.59002 h 5.79813 l -0.6711,0.71435 c -0.66709,0.71009 -0.67112,0.79234 -0.67112,13.69354 0,12.66334 0.0146,12.999 0.63972,13.79245 l 0.63972,0.81326 h -5.76674 c -5.72622,0 -5.76159,-0.005 -5.03805,-0.59003 z m 16.91068,-0.22333 c 0.62397,-0.79324 0.63972,-1.13029 0.63972,-13.69355 0,-12.56326 -0.0147,-12.90028 -0.63972,-13.69354 l -0.63972,-0.81326 5.03805,0.0146 5.03806,0.0146 5.86445,8.0318 5.86444,8.03178 0.083,-7.19011 c 0.0788,-6.8333 0.0517,-7.23258 -0.54936,-8.04552 l -0.63245,-0.85538 h 4.35282 4.35284 l -0.63971,0.81325 c -0.62538,0.795 -0.63972,1.12079 -0.63972,14.50682 v 13.69355 h -3.39752 -3.39749 l -6.86529,-9.18251 -6.8653,-9.18249 -0.0822,8.32803 c -0.0788,7.97596 -0.0557,8.36418 0.54941,9.18251 l 0.63172,0.85446 h -4.3528 -4.35284 l 0.63972,-0.81328 z m 30.76623,0.2431 c 0.33663,-0.31362 1.11906,-1.80674 1.73879,-3.31807 2.72923,-6.65582 9.18585,-23.24635 9.18585,-23.60341 0,-0.21624 -0.22991,-0.64706 -0.51082,-0.95752 -0.49294,-0.54465 -0.33206,-0.56445 4.58927,-0.56445 h 5.10008 l 5.34311,14.06512 c 3.66487,9.64731 5.54121,14.20389 5.97369,14.50683 0.55626,0.38959 -0.0756,0.44165 -5.36154,0.44165 -5.23788,0 -5.91703,-0.0549 -5.39569,-0.43611 0.58336,-0.42657 0.57411,-0.50418 -0.42408,-3.54953 l -1.02052,-3.11344 h -4.72403 -4.72406 l -0.78021,2.23778 c -1.25569,3.60127 -1.25784,3.61518 -0.66874,4.26613 0.52974,0.58535 0.46042,0.59517 -4.19724,0.59517 -4.62047,0 -4.72096,-0.0146 -4.12386,-0.57015 z m 16.00434,-15.65442 c -0.7567,-2.13309 -1.386,-3.97346 -1.3984,-4.08969 -0.0122,-0.11618 -0.27442,0.48315 -0.58224,1.33197 -0.30785,0.84879 -0.98249,2.68916 -1.49918,4.08968 l -0.93944,2.5464 h 2.89753 2.89752 z m 93.82649,15.62701 c 0.29745,-0.32868 2.38907,-5.29418 4.64807,-11.03444 3.79748,-9.64977 4.07402,-10.48923 3.66676,-11.13132 l -0.44048,-0.69449 h 4.11614 4.11611 l 4.09728,10.8801 c 2.25349,5.98406 4.3671,11.26208 4.69692,11.72892 l 0.59961,0.84879 h -4.64168 c -4.42612,0 -4.62528,-0.0264 -4.28783,-0.56664 0.28049,-0.4491 0.19576,-1.04137 -0.40845,-2.85506 l -0.76232,-2.28843 -3.853,-0.0859 -3.85301,-0.0859 -0.73539,2.34495 c -0.59925,1.91076 -0.6665,2.45529 -0.36314,2.94102 0.36016,0.57675 0.25045,0.59608 -3.38206,0.59608 -3.69343,0 -3.74556,-0.01 -3.21353,-0.59756 z m 12.59804,-12.90351 c -0.6106,-1.82348 -1.17527,-3.10826 -1.25478,-2.85506 -0.0796,0.2532 -0.60556,1.74515 -1.16898,3.31546 l -1.02443,2.85505 h 2.27922 2.27919 z"
       id="path314" /></g></svg>
