<?xml version="1.0" encoding="UTF-8" standalone="no"?>
<!-- Created with Inkscape (http://www.inkscape.org/) -->

<svg
   version="1.1"
   id="svg336"
   width="1587.52"
   height="842.23999"
   viewBox="0 0 1587.52 842.23999"
   sodipodi:docname="molinos.svg"
   inkscape:version="1.2.2 (732a01da63, 2022-12-09)"
   xml:space="preserve"
   xmlns:inkscape="http://www.inkscape.org/namespaces/inkscape"
   xmlns:sodipodi="http://sodipodi.sourceforge.net/DTD/sodipodi-0.dtd"
   xmlns="http://www.w3.org/2000/svg"
   xmlns:svg="http://www.w3.org/2000/svg"><defs
     id="defs340" /><sodipodi:namedview
     id="namedview338"
     pagecolor="#505050"
     bordercolor="#eeeeee"
     borderopacity="1"
     inkscape:showpageshadow="0"
     inkscape:pageopacity="0"
     inkscape:pagecheckerboard="0"
     inkscape:deskcolor="#505050"
     showgrid="false"
     inkscape:zoom="0.62937278"
     inkscape:cx="734.8586"
     inkscape:cy="491.75943"
     inkscape:window-width="1920"
     inkscape:window-height="991"
     inkscape:window-x="-9"
     inkscape:window-y="-9"
     inkscape:window-maximized="1"
     inkscape:current-layer="g342" /><g
     inkscape:groupmode="layer"
     inkscape:label="Image"
     id="g342"><path
       style="fill:#000000"
       id="path487"
       d="" /><path
       style="fill:#333333;stroke-width:2.06428"
       d="m 601.72555,688.20798 c -29.70234,-4.98192 -43.05806,-33.49506 -33.27767,-71.04454 4.5018,-17.28356 12.55907,-30.93147 24.94262,-42.24932 12.76206,-11.6638 21.286,-16.00408 37.213,-18.94836 29.20841,-5.39945 54.60452,6.98147 60.75357,29.61816 3.44582,12.6852 1.19198,35.50558 -5.01549,50.78227 -15.63082,38.46767 -47.59506,58.05125 -84.61603,51.84179 z m 32.69676,-26.72569 c 14.43448,-8.92099 26.24222,-34.76197 26.62452,-58.26715 0.20436,-12.56132 -0.31669,-14.41956 -5.49801,-19.61066 -8.15092,-8.16635 -22.43375,-8.12044 -33.2202,0.1067 -14.85741,11.33231 -24.81672,34.2586 -24.96238,57.4634 -0.074,11.78989 0.63074,14.52613 4.91806,19.09458 6.45296,6.87606 22.0241,7.46379 32.13801,1.21305 z m 438.11509,26.77063 c -30.0678,-5.12402 -43.3226,-33.12393 -33.5116,-70.79089 4.2757,-16.41524 9.4668,-25.83063 21.502,-38.9991 14.2189,-15.55767 30.6436,-22.8936 51.7827,-23.12816 36.4442,-0.40439 53.7022,17.69827 51.0036,53.4994 -3.8602,51.20721 -45.0192,87.21651 -90.7767,79.41875 z m 32.5407,-26.77063 c 17.4775,-10.80175 32.3605,-51.40297 25.9558,-70.80906 -2.4986,-7.57078 -11.8456,-13.83539 -20.6427,-13.83539 -17.1663,0 -33.0321,18.25093 -40.3049,46.36391 -4.7918,18.52251 -4.1938,28.49623 2.1613,36.04886 4.6667,5.54605 6.664,6.35124 15.7546,6.35124 6.7998,0 12.722,-1.42873 17.0759,-4.11956 z m 69.9929,23.99968 c -7.1346,-3.24047 -9.0971,-6.80444 -9.0506,-16.43647 0.051,-10.77364 2.3945,-12.68716 10.4386,-8.52737 9.058,4.68403 30.2262,6.14769 37.0082,2.55892 3.7784,-1.99938 5.3273,-4.70704 5.7827,-10.10878 0.5277,-6.26226 -1.1474,-9.68879 -11.0769,-22.65959 -20.0659,-26.21121 -23.2316,-37.43264 -14.7739,-52.36567 7.3052,-12.89768 21.4864,-20.49876 39.9878,-21.43301 25.7974,-1.30272 31.6872,2.11934 31.6872,18.41101 0,5.59565 -0.3215,10.17394 -0.7148,10.17394 -0.3933,0 -3.8142,-1.54604 -7.6019,-3.43566 -11.3996,-5.6868 -24.7602,-6.00404 -31.4206,-0.74609 -3.1223,2.46476 -5.6702,6.50407 -5.6624,8.97621 0,2.47213 5.5912,11.46174 12.4068,19.97689 6.8156,8.51516 14.3544,19.49384 16.7524,24.39708 8.4109,17.19623 0.7705,35.92654 -19.0747,46.76134 -9.5638,5.22157 -13.7467,6.16775 -29.7095,6.72061 -12.7878,0.44287 -20.5733,-0.26258 -24.9784,-2.26336 z m -805.94189,-5.94624 c 2.16779,-3.6899 6.70003,-16.92709 10.07165,-29.41598 16.5551,-61.32222 25.06897,-96.31426 25.06897,-103.03346 v -7.40549 h 16.37513 c 13.81973,0 16.53875,0.56373 17.42369,3.61249 0.57672,1.98687 4.87069,24.95159 9.54216,51.03268 4.67147,26.0811 8.73617,47.66277 9.03266,47.95926 0.48372,0.48372 22.28806,-29.37985 60.95305,-83.48228 l 13.62649,-19.06701 17.03031,-0.0277 c 9.36667,-0.0145 17.0303,0.26244 17.0303,0.61686 0,0.35442 -1.73164,4.30235 -3.84808,8.77318 -5.12374,10.82353 -33.30894,120.78216 -33.30894,129.94785 v 7.19848 h -19.54103 -19.54104 l 3.90222,-6.70891 c 3.76612,-6.47493 23.87853,-79.59455 22.32166,-81.15142 -0.42132,-0.42132 -14.65348,19.14924 -31.62702,43.49011 -30.30574,43.45989 -30.99311,44.25718 -38.20441,44.31318 l -7.34345,0.057 -7.10651,-44.2762 c -3.9086,-24.35192 -7.66856,-43.62712 -8.35548,-42.8338 -2.0372,2.35277 -20.42598,75.97358 -20.42598,81.77693 v 5.33307 h -18.50889 -18.50891 z m 332.35367,-2.06428 c 4.64713,-10.58075 28.91952,-102.2788 29.85665,-112.79461 l 0.66388,-7.44966 18.90395,-0.59462 18.90397,-0.59462 -3.94438,7.8196 c -2.16942,4.30078 -8.30288,24.54026 -13.62993,44.97663 -5.32703,20.43636 -10.55592,39.85019 -11.61972,43.14183 -1.06382,3.29165 -1.9342,7.18266 -1.9342,8.6467 0,4.18495 16.57306,5.65375 35.32237,3.1305 9.33292,-1.25601 17.44593,-1.8067 18.02888,-1.22372 2.34415,2.34412 -6.24254,15.74423 -12.55509,19.59302 -6.07057,3.70125 -10.44351,4.10746 -44.29258,4.11442 l -37.55703,0.009 3.85323,-8.77319 z m 100.86329,1.03214 c 4.72869,-9.42729 29.23301,-102.15681 29.93932,-113.29669 l 0.50596,-7.97972 19.08477,-0.59462 19.0848,-0.59462 -3.94064,7.8196 c -5.40949,10.73427 -31.81813,111.95758 -30.71486,117.72893 0.87304,4.56697 0.51133,4.65817 -18.47589,4.65817 h -19.36635 z m 66.38652,7.02606 c 0,-0.39324 1.34754,-3.41621 2.99455,-6.7177 4.32655,-8.67275 28.11189,-98.94355 29.47657,-111.87021 l 1.15369,-10.92823 12.36848,0.60683 12.36848,0.60684 23.28372,42.03996 c 12.806,23.12197 24.0752,42.83151 25.0427,43.79896 1.9579,1.95791 21.4824,-72.22806 21.369,-81.1943 l -0.072,-5.67676 h 17.54632 c 9.6505,0 17.5464,0.43961 17.5464,0.97692 0,0.53731 -1.8504,4.9497 -4.1119,9.80533 -2.2616,4.85562 -10.197,32.05155 -17.6343,60.43539 -7.4373,28.38384 -14.02442,53.27846 -14.63812,55.3214 -0.9207,3.06541 -2.9781,3.60644 -11.7746,3.09643 l -10.659,-0.618 -23.4946,-41.88126 c -12.9221,-23.0347 -23.93407,-41.44181 -24.47116,-40.90473 -2.08121,2.0812 -19.11987,70.76653 -19.12838,77.10921 l -0.009,6.70891 h -18.57852 c -10.21818,0 -18.57851,-0.32174 -18.57851,-0.71499 z M 784.79845,452.82567 c -26.77937,-2.63435 -50.79604,-13.1939 -69.3386,-30.48652 -10.95686,-10.21826 -11.62733,-11.85146 -5.64471,-13.75026 6.40788,-2.03378 25.14519,-33.2265 56.85723,-94.65236 l 16.89952,-32.73412 1.34272,17.25203 c 1.28157,16.46612 5.28685,94.72322 5.3468,104.46785 0.0506,8.21033 10.14341,6.1208 19.9419,-4.12855 10.14017,-10.60675 42.21328,-50.63327 69.88573,-87.21581 11.16472,-14.7596 21.01242,-27.65775 21.88376,-28.66254 0.87133,-1.0048 -0.20832,5.03321 -2.39927,13.41782 -5.30687,20.30912 -14.30773,82.15545 -14.31828,98.38306 -0.009,12.23372 0.30673,13.07279 5.66834,15.11328 3.12223,1.18826 11.9049,1.86197 19.51705,1.49712 7.61215,-0.36484 13.18571,-0.0145 12.38567,0.77636 -0.80003,0.79182 -9.21847,6.10429 -18.70767,11.80547 -37.47431,22.51487 -79.89513,32.79551 -119.32019,28.91717 z m 149.71386,-53.98435 c -2.31869,-21.97989 25.38687,-170.33398 34.37107,-184.0456 2.9201,-4.45659 2.9085,-5.01728 -0.1279,-6.18248 -1.8367,-0.70478 -12.4666,-1.28141 -23.6221,-1.28141 h -20.28264 l -9.49908,10.56524 c -11.14147,12.39199 -36.57129,46.17913 -61.63183,81.88665 -20.78273,29.61227 -18.6265,31.57011 -22.24909,-20.20212 -2.56585,-36.67 -5.10033,-56.99754 -8.08556,-64.84927 l -2.08212,-5.47639 -22.12523,0.58615 -22.12521,0.58615 0.53491,10.32139 c 0.29423,5.67678 -0.94535,14.50157 -2.75458,19.61067 -4.17394,11.78667 -33.0473,64.56182 -73.92435,135.11987 l -8.31904,14.35953 -2.98101,-8.16669 c -1.63955,-4.49168 -3.45802,-17.50103 -4.04102,-28.90969 -0.8577,-16.7845 -0.22799,-24.07235 3.2998,-38.18917 17.88578,-71.57214 88.02773,-134.36439 166.07487,-148.67301 19.24243,-3.52778 49.77461,-3.0001 66.42952,1.14806 28.24996,7.03609 54.98516,25.69653 68.47916,47.79646 6.0887,9.97182 12.08562,29.10807 13.97142,44.58294 3.0042,24.6523 -5.99072,59.96632 -22.40612,87.96664 -15.3143,26.122 -46.0222,59.8037 -46.90387,51.44608 z m -395.36996,-6.89205 c -0.68212,-1.77762 -0.59818,-11.29911 0.18662,-21.15886 5.6917,-71.51468 39.45622,-115.78932 104.82386,-137.45312 18.79621,-6.22938 49.79223,-11.55552 67.24851,-11.55552 h 13.2764 l -11.69544,12.63247 c -37.33833,40.32987 -60.99905,92.72386 -60.99905,135.07556 v 10.70736 l -39.73737,1.01556 c -34.69791,0.88678 -41.30813,1.60746 -52.12305,5.6827 -6.81213,2.56692 -13.26817,5.48134 -14.34675,6.47647 -2.92322,2.69708 -5.2438,2.1994 -6.63373,-1.42262 z m 437.35093,-10.87085 c 35.56742,-37.70336 59.44592,-89.79976 59.44592,-129.69479 v -15.1519 l 31.4803,-0.0165 c 36.6895,-0.0186 53.8302,-2.35822 68.6586,-9.37321 5.8841,-2.78353 11.3055,-5.06106 12.0475,-5.06106 2.0865,0 1.5636,28.37443 -0.7992,43.34988 -9.1829,58.20384 -43.6644,98.6558 -100.1551,117.49714 -20.2024,6.73808 -53.72222,12.55245 -72.36482,12.55245 h -11.6171 z"
       id="path1413" /></g></svg>
