<?xml version="1.0" encoding="UTF-8" standalone="no"?>
<!-- Created with Inkscape (http://www.inkscape.org/) -->

<svg
   version="1.1"
   id="svg336"
   width="1587.52"
   height="842.23999"
   viewBox="0 0 1587.52 842.23999"
   sodipodi:docname="naturgy.svg"
   inkscape:version="1.2.2 (732a01da63, 2022-12-09)"
   xml:space="preserve"
   xmlns:inkscape="http://www.inkscape.org/namespaces/inkscape"
   xmlns:sodipodi="http://sodipodi.sourceforge.net/DTD/sodipodi-0.dtd"
   xmlns="http://www.w3.org/2000/svg"
   xmlns:svg="http://www.w3.org/2000/svg"><defs
     id="defs340" /><sodipodi:namedview
     id="namedview338"
     pagecolor="#505050"
     bordercolor="#eeeeee"
     borderopacity="1"
     inkscape:showpageshadow="0"
     inkscape:pageopacity="0"
     inkscape:pagecheckerboard="0"
     inkscape:deskcolor="#505050"
     showgrid="false"
     inkscape:zoom="0.44503376"
     inkscape:cx="585.34885"
     inkscape:cy="468.50378"
     inkscape:window-width="1920"
     inkscape:window-height="991"
     inkscape:window-x="-9"
     inkscape:window-y="-9"
     inkscape:window-maximized="1"
     inkscape:current-layer="g342" /><g
     inkscape:groupmode="layer"
     inkscape:label="Image"
     id="g342"><path
       style="fill:#000000"
       id="path487"
       d="" /><path
       style="fill:#333333;stroke-width:3.35324"
       d="m 913.50966,603.5929 c -17.49251,-4.11818 -23.64571,-15.31532 -17.30339,-31.48818 2.24701,-5.72942 6.38189,-6.4289 39.64671,-6.70648 41.35086,-0.34508 49.28526,-3.74842 52.00909,-22.30815 0.7957,-5.42168 0.9483,-9.85759 0.33866,-9.85759 -0.6092,0 -6.73859,3.01792 -13.62085,6.70648 -17.45322,9.35454 -45.27778,8.99303 -64.5207,-0.8383 -21.02817,-10.74345 -33.00763,-27.32608 -37.60693,-52.05716 -7.52837,-40.48135 9.20799,-76.55004 42.57039,-91.74439 20.29819,-9.24456 58.93092,-8.43589 80.4778,1.68457 34.10286,16.01817 38.56236,27.89605 38.56236,102.71639 0,64.23986 -1.9894,72.6971 -21.0325,89.41703 -18.19216,15.973 -64.5309,22.71319 -99.52064,14.47578 z m 64.42413,-103.27883 c 8.2919,-8.29183 12.58108,-30.81612 8.9421,-46.95886 -3.74551,-16.61504 -13.73481,-24.07319 -32.24408,-24.07319 -12.0814,0 -16.87049,1.89448 -24.77777,9.8018 -17.90262,17.90281 -13.09274,58.47422 7.99848,67.46218 10.91816,4.65286 32.56161,1.28771 40.08127,-6.23193 z m 119.84061,102.30894 c -11.2916,-3.85056 -11.7363,-4.63096 -11.7363,-20.58642 v -16.58413 l 34.259,0.92006 c 32.7807,0.88033 34.6264,0.55338 42.754,-7.57447 4.6721,-4.67197 8.4948,-12.17284 8.4948,-16.66855 v -8.17403 l -12.5747,6.5585 c -17.0073,8.87039 -53.3404,7.42512 -66.9579,-2.66348 -23.8919,-17.70069 -28.8564,-36.60382 -27.1301,-103.30297 1.022,-39.49139 1.1424,-40.03083 9.4186,-42.15951 4.6106,-1.18597 14.6918,-1.52065 22.4029,-0.74381 l 14.0199,1.41248 1.0697,51.5346 c 1.2457,60.02898 2.7896,63.49192 28.3059,63.49192 12.5626,0 16.6903,-1.66315 23.3526,-9.4084 7.7409,-8.99912 8.0931,-11.49894 8.0931,-57.46282 v -48.05443 l 10.8979,-1.61261 c 5.9939,-0.88693 16.5567,-0.85954 23.4728,0.061 l 12.5746,1.67354 -0.033,77.52134 c 0,46.20498 -1.5157,82.93978 -3.7245,90.93431 -5.3356,19.3142 -25.1245,37.0061 -46.5259,41.59588 -22.0603,4.7311 -55.4831,4.39523 -70.448,-0.70794 z M 294.97223,546.47405 c -21.86552,-5.50401 -34.49034,-15.38135 -40.80972,-31.92836 -4.76345,-12.47292 -5.0916,-17.27683 -1.90636,-27.90825 8.45889,-28.23319 33.13872,-39.05269 83.83013,-36.75066 l 27.65037,1.25565 -2.07509,-8.41526 c -1.14131,-4.6284 -3.56516,-9.92424 -5.38634,-11.76853 -1.93566,-1.9602 -21.41223,-3.09743 -46.88274,-2.73741 l -43.57149,0.61578 1.01295,-15.62543 c 1.45517,-22.44731 7.20709,-24.64529 61.3713,-23.4521 38.48806,0.84783 45.02266,1.84984 55.8098,8.5579 20.27631,12.609 24.06896,25.29448 24.3894,81.57646 0.20019,35.18213 -0.92794,50.3917 -4.01437,54.11762 -9.44055,11.39656 -81.18834,19.56861 -109.41784,12.46259 z m 65.50768,-40.63045 c 1.55742,-2.45679 2.85479,-8.61653 2.88301,-13.6883 l 0.0513,-9.22142 h -26.55167 c -32.90582,0 -37.15991,1.54461 -37.15991,13.49227 0,7.17685 2.19704,10.27239 9.22141,12.99267 12.12042,4.6938 47.8862,2.21358 51.55582,-3.57522 z m 114.6484,40.46024 c -14.35734,-4.15423 -30.53934,-20.94321 -32.9246,-34.15957 -1.06882,-5.92216 -1.50343,-45.47361 -0.96578,-87.89211 l 0.97751,-77.12456 22.63438,-0.99152 22.63438,-0.99151 v 23.06701 23.06705 h 25.44433 c 27.09603,0 31.41088,2.36437 31.50943,17.26607 0.11536,17.45161 -4.94251,20.73732 -31.92242,20.73732 H 487.4842 l 0.0513,34.37073 c 0.0268,18.9039 1.486,36.63415 3.23944,39.40058 3.07912,4.85797 10.30116,5.21574 48.67126,2.41098 9.0068,-0.65838 10.3651,0.54956 13.12492,11.67196 3.96051,15.9612 -0.29944,21.2276 -22.50525,27.82199 -18.76692,5.57318 -38.64419,6.06004 -54.93759,1.34558 z m 143.13231,-1.24898 c -8.29928,-2.70154 -19.40659,-8.94642 -24.68288,-13.87752 -16.51713,-15.43645 -18.90926,-26.14402 -18.90926,-84.64081 v -53.37898 l 9.36201,-1.37406 c 5.1491,-0.75572 15.71181,-0.7685 23.47269,-0.0301 l 14.11068,1.34579 v 49.2003 c 0,54.56334 2.22866,61.85265 20.112,65.78046 14.39308,3.16127 33.29611,-3.95052 37.10107,-13.9583 1.7299,-4.54997 3.14528,-29.12863 3.14528,-54.61921 v -46.34649 l 9.362,-1.37405 c 5.14911,-0.75572 15.71182,-0.7685 23.4727,-0.0302 l 14.11067,1.3458 -0.14721,50.7847 c -0.19549,67.40263 -5.33189,81.73295 -34.66179,96.70206 -17.23539,8.79641 -55.60606,11.0564 -75.84799,4.46731 z M 14.677159,448.24456 c 0,-114.03538 -1.290565,-109.50006 31.159254,-109.50006 h 18.89488 l 16.050128,19.43143 c 8.827571,10.68729 32.648699,40.90029 52.935809,67.14004 l 36.88565,47.70862 0.90776,-67.14005 0.90773,-67.14004 h 25.07989 25.07986 v 91.71377 c 0,96.76647 -1.76877,110.72477 -14.46219,114.12885 -9.65479,2.5892 -30.54618,2.59118 -37.28942,0.003 -2.94512,-1.13014 -28.34358,-31.65682 -56.44105,-67.83704 L 63.299162,410.97087 62.391403,478.80796 61.483687,546.645 H 38.080401 14.677159 Z m 744.424801,38.88087 c 0,-50.03901 0.93923,-61.35157 5.86816,-71.01803 10.01446,-19.63933 21.10799,-25.23345 52.65931,-26.55395 37.03252,-1.5499 42.74276,1.53082 41.40147,22.33574 l -1.01335,15.71621 -22.76046,1.67662 c -15.13117,1.11465 -23.82478,3.36256 -25.93633,6.70648 -1.7467,2.76642 -3.19898,28.79596 -3.22716,57.84342 l -0.0503,52.81355 H 782.57061 759.09792 V 487.12543 Z M 1376.0936,499.512 c 0,-3.79201 4.5587,-16.08312 10.1308,-27.31359 5.572,-11.23044 9.7216,-20.82252 9.2213,-21.31565 -0.5003,-0.49316 -11.412,8.05281 -24.2489,18.99105 -27.4614,23.40033 -43.694,29.30941 -61.6942,22.45847 -7.2712,-2.76743 -14.6111,-9.09587 -18.7799,-16.19209 -6.4144,-10.91896 -6.912,-18.09645 -7.9354,-114.50754 -1.1549,-108.75091 -0.2046,-116.77891 13.8294,-116.77891 18.4315,0 80.2746,54.49889 107.9794,95.1557 11.0895,16.27425 13.3663,22.37082 13.1454,35.19703 -0.3085,17.98826 -7.0317,32.3787 -23.7852,50.92263 -6.5654,7.26694 -10.9544,13.21265 -9.7536,13.21265 1.2005,0 42.0476,-30.93366 90.7709,-68.74145 48.7232,-37.8078 90.1673,-68.74145 92.0978,-68.74145 10.0986,0 -0.1342,18.39296 -33.9422,61.01356 -31.1791,39.30559 -115.9336,125.90771 -133.5629,136.47451 -15.1205,9.06291 -23.4727,9.12166 -23.4727,0.16499 z"
       id="path1003" /></g></svg>
