<?xml version="1.0" encoding="UTF-8" standalone="no"?>
<!-- Created with Inkscape (http://www.inkscape.org/) -->

<svg
   version="1.1"
   id="svg336"
   width="1587.52"
   height="842.23999"
   viewBox="0 0 1587.52 842.23999"
   sodipodi:docname="ngex.svg"
   inkscape:version="1.2.2 (732a01da63, 2022-12-09)"
   xml:space="preserve"
   xmlns:inkscape="http://www.inkscape.org/namespaces/inkscape"
   xmlns:sodipodi="http://sodipodi.sourceforge.net/DTD/sodipodi-0.dtd"
   xmlns="http://www.w3.org/2000/svg"
   xmlns:svg="http://www.w3.org/2000/svg"><defs
     id="defs340" /><sodipodi:namedview
     id="namedview338"
     pagecolor="#505050"
     bordercolor="#eeeeee"
     borderopacity="1"
     inkscape:showpageshadow="0"
     inkscape:pageopacity="0"
     inkscape:pagecheckerboard="0"
     inkscape:deskcolor="#505050"
     showgrid="false"
     inkscape:zoom="0.44503376"
     inkscape:cx="542.65546"
     inkscape:cy="499.96207"
     inkscape:window-width="1920"
     inkscape:window-height="991"
     inkscape:window-x="-9"
     inkscape:window-y="-9"
     inkscape:window-maximized="1"
     inkscape:current-layer="g342" /><g
     inkscape:groupmode="layer"
     inkscape:label="Image"
     id="g342"><path
       style="fill:#000000"
       id="path487"
       d="" /><path
       style="fill:#333333;stroke-width:2.87627"
       d="m 509.43086,545.80471 0.75284,-111.44475 13.6522,-7.37256 c 7.50872,-4.05494 17.25285,-10.82222 21.65363,-15.03842 4.40077,-4.21621 12.49479,-9.19965 17.9867,-11.07432 5.49195,-1.87469 13.64403,-6.43749 18.11574,-10.13953 4.47173,-3.70207 10.66531,-6.73104 13.76348,-6.73104 3.09817,0 9.0846,-2.26155 13.30316,-5.02567 7.47292,-4.89644 7.60972,-4.87795 5.31986,0.71907 -1.29265,3.1596 -3.36839,9.99226 -4.6127,15.18369 -1.24433,5.19143 -7.56676,15.19348 -14.04984,22.22681 -12.1266,13.15579 -12.96604,15.41346 -9.9365,26.72423 1.64178,6.12953 3.52073,4.91071 25.49569,-16.53853 13.04781,-12.73565 25.58322,-23.15573 27.85642,-23.15573 2.27323,0 6.19806,-4.33025 8.7219,-9.62278 2.52384,-5.29253 12.67134,-15.97067 22.54999,-23.7292 9.87865,-7.75853 23.98706,-20.25444 31.35197,-27.76869 7.36491,-7.51425 14.28331,-13.66227 15.37419,-13.66227 1.09088,0 2.01115,12.61962 2.045,28.0436 l 0.0616,28.0436 12.55721,19.38138 c 11.2246,17.32462 12.97317,18.87657 16.47698,14.62427 2.15588,-2.6164 10.69724,-9.1014 18.9808,-14.41111 8.28353,-5.30967 17.91077,-13.5085 21.39382,-18.21959 7.77593,-10.5175 11.83057,-11.11528 8.0561,-1.1877 -1.5428,4.05784 -2.80508,15.01567 -2.80508,24.35068 0,9.33503 -1.79246,21.22322 -3.98322,26.41822 -2.1908,5.195 -5.12588,13.32842 -6.52246,18.07426 -1.87216,6.36207 -6.61296,10.81899 -18.04702,16.96629 -16.00058,8.60242 -32.70738,24.1932 -52.70879,49.18784 l -11.50835,14.38134 174.37879,0.74135 174.37873,0.74133 v 60.37934 60.37931 H 779.08087 508.678 Z m 45.46495,71.89606 0.13001,-22.29107 6.44827,12.31859 6.44828,12.31862 6.18653,-12.31862 6.1865,-12.31859 0.17833,22.29107 0.17833,22.29106 h 8.6288 8.6288 v -43.144 -43.144 h -8.13713 c -6.96848,0 -9.12228,2.10333 -14.9964,14.6448 l -6.85926,14.64477 -7.17047,-14.64477 c -6.07241,-12.40209 -8.4008,-14.6448 -15.20441,-14.6448 h -8.03393 v 43.144 43.144 h 8.6288 8.6288 l 0.13001,-22.29106 z m 77.52922,-20.85294 v -43.144 h -8.6288 -8.6288 v 43.144 43.144 h 8.6288 8.6288 z m 35.10826,22.29107 0.84508,-20.85293 8.16118,20.85293 c 7.53202,19.24527 8.80704,20.85293 16.53853,20.85293 h 8.37736 v -43.144 -43.144 h -7.19067 c -7.00426,0 -7.19067,0.53691 -7.19067,20.70912 0,23.71747 -2.26563,23.18251 -11.57245,-2.73245 -5.87823,-16.36809 -7.19358,-17.97667 -14.69934,-17.97667 h -8.24341 v 43.144 43.144 h 7.06466 c 6.7747,0 7.09935,-0.85586 7.90973,-20.85293 z m 94.32375,13.66227 c 0,-6.60477 -1.05464,-7.19067 -12.9432,-7.19067 -12.87472,0 -12.9432,-0.0532 -12.9432,-10.06693 0,-9.58755 0.47939,-10.06694 10.06693,-10.06694 9.26797,0 10.06694,-0.68484 10.06694,-8.6288 0,-7.94396 -0.79897,-8.6288 -10.06694,-8.6288 -9.58754,0 -10.06693,-0.47939 -10.06693,-10.06693 0,-10.01367 0.0684,-10.06694 12.9432,-10.06694 11.88856,0 12.9432,-0.58589 12.9432,-7.19066 0,-7.03086 -0.47939,-7.19067 -21.572,-7.19067 h -21.572 v 43.144 43.144 h 21.572 c 21.09261,0 21.572,-0.15992 21.572,-7.19066 z m 31.63893,-10.30662 c 0,-21.72234 4.43547,-21.5724 13.25885,0.44821 5.50704,13.74396 7.3278,15.719 15.22462,16.51455 l 8.96953,0.90358 -5.9663,-15.13662 c -3.28148,-8.32515 -6.46481,-15.94323 -7.07409,-16.92907 -0.60928,-0.98584 1.41454,-3.95213 4.49741,-6.59174 4.45678,-3.81603 5.60519,-8.51769 5.60519,-22.94795 0,-10.28058 -1.49635,-19.64499 -3.45153,-21.60016 -2.05411,-2.05411 -11.95249,-3.45152 -24.44826,-3.45152 h -20.99675 v 43.144 43.144 h 7.19067 c 6.88201,0 7.19066,-0.75102 7.19066,-17.49728 z m 1.10461,-38.42192 c -3.1366,-8.17383 0.26576,-14.53584 8.26785,-15.45944 7.29217,-0.84168 7.88514,-0.13864 7.88514,9.34787 0,9.05825 -0.85154,10.25797 -7.28092,10.25797 -4.00454,0 -7.99694,-1.86586 -8.87207,-4.1464 z m 67.94038,45.85227 c 1.24951,-7.28481 2.79116,-8.6288 9.89775,-8.6288 7.08252,0 8.80195,1.48274 10.83999,9.34787 1.9101,7.37129 3.92533,9.34786 9.53071,9.34786 3.90965,0 7.10843,-1.54337 7.10843,-3.42971 0,-1.88638 -3.52434,-21.36149 -7.8319,-43.27807 l -7.8319,-39.84832 -11.50432,0.85313 -11.50432,0.8531 -7.88681,38.82961 c -9.8475,48.48284 -9.8395,46.60403 -0.19386,45.49224 6.24001,-0.71921 8.20651,-2.71989 9.37611,-9.53891 z m 6.81655,-33.4366 c 0.98872,-4.94358 1.88864,-10.44445 1.99984,-12.22414 0.33776,-5.40643 5.13158,7.80642 5.34819,14.74087 0.12943,4.13921 -1.48234,6.4716 -4.47176,6.4716 -3.70081,0 -4.29965,-1.87141 -2.87627,-8.98833 z m 88.08563,36.48651 c 0,-6.0324 -1.5135,-7.14232 -10.786,-7.90974 l -10.786,-0.8927 -0.8076,-35.23427 -0.8076,-35.23427 h -7.1021 -7.1021 v 43.144 43.144 h 18.6957 c 17.9013,0 18.6957,-0.29818 18.6957,-7.01702 z m 62.69016,-15.5401 c 1.0228,-25.39953 -1.3884,-29.21568 -18.4602,-29.21568 -12.47216,0 -12.59096,-0.0949 -12.59096,-10.06693 0,-9.26797 0.6848,-10.06694 8.6288,-10.06694 5.75246,0 8.62876,1.43814 8.62876,4.3144 0,2.71163 2.7357,4.3144 7.3643,4.3144 6.751,0 7.2899,-0.8982 6.4716,-10.786 l -0.8927,-10.786 h -21.57196 -21.572 l -0.8505,21.11899 c -1.0253,25.46307 1.3692,29.21568 18.6425,29.21568 12.67816,0 12.76656,0.0696 11.87186,9.34787 -0.6913,7.17079 -2.4115,9.56232 -7.38566,10.26867 -3.8895,0.55231 -7.178,-0.88646 -8.2175,-3.59533 -0.9531,-2.48389 -4.8303,-4.51614 -8.6159,-4.51614 -5.8832,0 -6.883,1.39266 -6.883,9.58755 0,5.27317 0.9142,10.50176 2.0316,11.61911 1.1173,1.11734 11.1483,1.65664 22.291,1.19845 l 20.25956,-0.83311 z m 4.8714,-134.71571 c -11.0567,-7.4027 -28.72116,-20.86236 -39.25426,-29.91035 -10.5332,-9.04796 -21.5349,-17.8158 -24.4483,-19.48409 -4.9755,-2.84903 -4.8605,-3.33805 1.8936,-8.05381 3.9548,-2.76133 15.2801,-12.73395 25.1673,-22.1614 l 17.97666,-17.14083 v 9.17711 c 0,5.04741 1.9415,13.82371 4.3144,19.5029 2.3729,5.67922 4.3144,13.22752 4.3144,16.77404 0,4.29162 3.9024,9.15265 11.6683,14.53438 16.8208,11.65679 22.8469,21.41683 22.8469,37.00329 0,7.27005 -0.9846,13.21826 -2.1879,13.21826 -1.2034,0 -11.2344,-6.05676 -22.2911,-13.4595 z M 921.82954,470.68312 c -2.977,-3.29818 -7.8524,-6.77102 -10.8342,-7.7174 -2.9818,-0.94637 -8.0877,-6.94701 -11.34646,-13.33471 -4.29455,-8.418 -9.03035,-12.83382 -17.20936,-16.04664 -6.20638,-2.43795 -11.28434,-5.41244 -11.28434,-6.61003 0,-2.21884 36.03406,-31.46518 38.76786,-31.46518 0.8249,0 1.4999,7.56021 1.4999,16.80047 0,19.05809 5.9297,41.60385 12.9956,49.41165 2.6214,2.8966 4.3292,7.44726 3.795,10.11255 -0.8571,4.27712 -1.6066,4.14203 -6.384,-1.15071 z M 508.74556,298.16188 V 171.16035 h 22.56035 22.56031 l 21.30276,55.36814 21.30272,55.36813 0.78117,-55.36813 0.78119,-55.36814 h 21.50987 21.5099 v 104.98374 c 0,68.07165 -1.01129,104.98373 -2.87626,104.98373 -1.58195,0 -2.87627,-1.22845 -2.87627,-2.72989 0,-1.50144 -4.27882,-5.99351 -9.50851,-9.98237 l -9.50847,-7.25248 -12.07167,5.97257 c -6.6394,3.28493 -13.76149,5.32411 -15.82685,4.53156 -2.06539,-0.79256 -10.79837,-20.21886 -19.40667,-43.16957 -8.60829,-22.95071 -16.5473,-41.17687 -17.64227,-40.50256 -1.09494,0.67434 -1.91323,24.26715 -1.81843,52.42851 0.193,57.35218 -0.3795,59.44774 -19.03821,69.6773 -6.41724,3.51822 -13.93278,8.34655 -16.70119,10.72963 -4.7832,4.11743 -5.03347,-1.98172 -5.03347,-122.66864 z m 358.06142,111.67391 c -0.99628,-1.61201 -8.25227,-6.19476 -16.12438,-10.18386 -7.87208,-3.98909 -15.03773,-9.14178 -15.92362,-11.45039 -0.91517,-2.38485 -5.32673,-4.19745 -10.21595,-4.19745 -5.91775,0 -11.21131,-2.78983 -16.94987,-8.93299 l -8.34465,-8.93297 v -97.4889 -97.48888 h 53.21093 53.2109 v 21.572 21.572 h -33.19335 -33.19338 l 0.83538,23.7292 0.83539,23.7292 28.0436,0.82322 28.0436,0.82322 v 20.02971 20.02972 h -28.76267 -28.76267 v 24.44827 24.44827 h 33.07707 33.07703 v 17.11942 c 0,16.93957 -0.13026,17.20899 -12.38954,25.64367 -6.81425,4.68832 -14.09149,10.57494 -16.17164,13.08138 -4.36683,5.2617 -7.72746,5.79217 -10.30218,1.62616 z m 74.37786,-1.4898 c -0.933,-2.43145 -5.1447,-6.20399 -9.3592,-8.38342 -4.2146,-2.17946 -9.4376,-7.27862 -11.6066,-11.33146 -3.6388,-6.79918 -2.4637,-11.16897 15.2021,-56.52695 10.5302,-27.03697 19.1397,-50.68857 19.1323,-52.55909 -0.01,-1.87055 -9.7149,-25.9963 -21.572,-53.61278 -11.8572,-27.6165 -21.5585,-51.23781 -21.5585,-52.49187 0,-1.25405 9.7615,-2.28007 21.6923,-2.28007 h 21.6923 l 8.5208,19.4148 c 17.7779,40.50704 14.2899,39.46345 27.2728,8.15985 l 11.42416,-27.54534 22.291,-0.0144 c 12.2601,-0.009 22.2911,1.03824 22.2911,2.32511 0,1.2869 -9.7074,24.82607 -21.572,52.30932 -11.8646,27.48321 -21.572,51.91583 -21.572,54.29468 0,2.37882 10.3546,30.68266 23.0101,62.8974 12.6556,32.21476 23.0102,59.86224 23.0102,61.43887 0,3.39966 -17.2302,-8.83086 -32.2298,-22.87769 -9.0605,-8.4849 -11.3341,-9.41954 -15.1699,-6.23609 -5.57616,4.62777 -4.73806,5.76246 -14.65136,-19.83683 l -8.2575,-21.32367 -4.7576,11.25673 c -2.6167,6.1912 -9.5816,23.87635 -15.4776,39.30034 -10.4859,27.43141 -14.3306,32.54674 -17.7551,23.6228 z M 768.47188,360.96258 c -6.47678,-4.7631 -12.51559,-10.58754 -13.41954,-12.9432 -0.90395,-2.35567 -4.27281,-4.28302 -7.48638,-4.28302 -5.31643,0 -5.84279,-1.81384 -5.84279,-20.13387 V 303.46862 H 727.34184 712.9605 v -20.13387 -20.13386 h 34.51521 34.5152 v 53.21093 c 0,29.26602 -0.39218,53.21094 -0.87151,53.21094 -0.47933,0 -6.17072,-3.89709 -12.64752,-8.66018 z M 655.43517,277.55682 v -89.58138 l 8.40756,-8.40753 8.40753,-8.40756 h 44.94624 c 46.66185,0 58.97152,2.55387 63.00773,13.07206 0.98267,2.56082 1.78668,14.25757 1.78668,25.99279 v 21.33675 h -20.13387 -20.13387 v -8.6288 -8.6288 H 718.71304 695.7029 v 62.92892 62.92892 l -8.53342,3.53468 c -4.69341,1.94404 -10.0793,5.39731 -11.96869,7.67387 -1.88939,2.27657 -7.10959,6.75558 -11.60045,9.95333 l -8.16517,5.81414 z"
       id="path1327" /></g></svg>
