<?xml version="1.0" encoding="UTF-8" standalone="no"?>
<!-- Created with Inkscape (http://www.inkscape.org/) -->

<svg
   version="1.1"
   id="svg336"
   width="1587.52"
   height="842.23999"
   viewBox="0 0 1587.52 842.23999"
   sodipodi:docname="platense.svg"
   inkscape:version="1.2.2 (732a01da63, 2022-12-09)"
   xml:space="preserve"
   xmlns:inkscape="http://www.inkscape.org/namespaces/inkscape"
   xmlns:sodipodi="http://sodipodi.sourceforge.net/DTD/sodipodi-0.dtd"
   xmlns="http://www.w3.org/2000/svg"
   xmlns:svg="http://www.w3.org/2000/svg"><defs
     id="defs340" /><sodipodi:namedview
     id="namedview338"
     pagecolor="#505050"
     bordercolor="#eeeeee"
     borderopacity="1"
     inkscape:showpageshadow="0"
     inkscape:pageopacity="0"
     inkscape:pagecheckerboard="0"
     inkscape:deskcolor="#505050"
     showgrid="false"
     inkscape:zoom="0.44503376"
     inkscape:cx="585.34885"
     inkscape:cy="468.50378"
     inkscape:window-width="1920"
     inkscape:window-height="991"
     inkscape:window-x="-9"
     inkscape:window-y="-9"
     inkscape:window-maximized="1"
     inkscape:current-layer="g342" /><g
     inkscape:groupmode="layer"
     inkscape:label="Image"
     id="g342"><path
       style="fill:#000000"
       id="path487"
       d="" /><path
       style="fill:#333333;stroke-width:3.31622"
       d="M 673.97111,613.12714 C 633.14604,607.96319 569.91948,595.09186 528.85279,583.58471 513.34947,579.24056 446.19605,560.0397 379.62296,540.91613 313.04988,521.79252 247.95423,503.41643 234.96592,500.08035 l -23.61501,-6.06557 -14.5215,12.43078 c -51.62414,44.19176 -141.777212,54.74423 -160.378914,18.77245 -7.04839,-13.63002 -6.298129,-21.30664 3.183537,-32.57498 18.066388,-21.47069 70.115067,-33.45809 121.120797,-27.8955 15.50206,1.69061 30.47849,1.90483 33.28097,0.47604 6.44288,-3.28481 70.98226,-105.5677 68.30276,-108.24717 -1.09187,-1.09187 -14.32235,-2.3193 -29.40113,-2.72759 -32.1913,-0.87174 -61.9785,-10.76342 -76.6783,-25.46325 -8.82711,-8.82708 -9.44118,-11.04358 -8.12,-29.30891 1.18048,-16.31987 3.71998,-23.07972 14.58796,-38.83175 l 13.15861,-19.07211 20.36689,0.0232 c 23.65923,0.0265 29.22895,3.51175 17.55944,10.99091 -36.28238,23.25396 -47.98027,63.50396 -21.39398,73.61206 14.1121,5.36541 42.63831,7.55461 65.93322,5.05996 l 21.95125,-2.35081 16.93622,-25.09837 c 35.80084,-53.05448 81.21383,-87.00334 117.48872,-87.82965 19.65715,-0.44775 30.42073,4.67421 33.21447,15.80547 3.29247,13.11823 -5.06028,27.90976 -30.09564,53.29498 -24.28663,24.62608 -54.07848,42.38058 -85.36825,50.8754 l -15.64081,4.24629 -38.36308,62.63769 c -21.09971,34.45073 -39.14153,64.66629 -40.09295,67.14566 -1.29107,3.36448 13.74642,8.84015 59.28388,21.58726 140.0623,39.20709 273.64456,65.12914 396.99863,77.03884 53.84266,5.19844 189.16775,5.11563 225.50283,-0.13795 68.36019,-9.88405 208.79176,-52.61877 305.90856,-93.091 50.4327,-21.01723 58.8754,-23.12501 58.8754,-14.69844 0,6.23904 -64.9858,37.82877 -135.9649,66.09246 -83.3764,33.20043 -209.57637,73.44718 -255.34877,81.434 -52.83573,9.21928 -165.68528,11.74568 -219.66572,4.91772 z M 131.85452,517.31165 c 9.62134,-4.70731 21.78868,-13.04206 27.03849,-18.52168 12.59801,-13.1495 8.50702,-14.63053 -35.4986,-12.85144 -56.370201,2.27901 -91.61892,23.9871 -61.29936,37.75153 15.798561,7.17219 48.09955,4.21876 69.75947,-6.37841 z M 399.49789,273.96557 c 28.01263,-25.34999 36.24049,-43.99955 19.41178,-43.99955 -18.42335,0 -87.46974,68.69939 -80.45458,80.0502 3.06044,4.95185 39.54163,-16.5932 61.0428,-36.05065 z m 739.77981,325.31159 c -8.2477,-10.48522 -8.5005,-15.01862 -1.6425,-29.47038 9.3965,-19.80147 33.2431,-25.82318 48.6578,-12.28701 11.0113,9.66906 2.849,15.12465 -10.322,6.8992 -9.0752,-5.66743 -23.3521,-0.78025 -27.1871,9.3063 -6.8453,18.00467 6.458,29.69604 22.1163,19.43639 4.5787,-3.00002 10.8476,-4.95255 13.9314,-4.33888 4.7147,0.9382 4.1797,2.55366 -3.362,10.15393 -12.4809,12.57743 -32.423,12.71943 -42.1919,0.30045 z m 61.346,3.52656 c -17.3707,-17.37091 8.7276,-48.38439 32.9082,-39.10547 13.0012,4.98905 12.4176,29.6457 -0.9421,39.79568 -7.8561,5.96873 -25.6921,5.58362 -31.9661,-0.69021 z m 28.6104,-13.15049 c 3.0898,-6.78127 2.8686,-9.37774 -1.1404,-13.38671 -2.8049,-2.80472 -7.4122,-4.03797 -10.5655,-2.82794 -6.1502,2.36008 -10.7283,15.5905 -7.3089,21.12298 4.0318,6.52393 15.1086,3.66466 19.0148,-4.90833 z m 20.6889,-4.00712 3.669,-22.36882 16.9957,-0.76721 c 22.2787,-1.00571 25.8031,3.20513 22.8,27.24058 -1.8943,15.16188 -3.3872,18.26427 -8.79,18.26427 -5.8889,0 -6.2995,-1.57145 -4.316,-16.52412 1.8558,-13.98784 1.2906,-16.87006 -3.6813,-18.77802 -7.6141,-2.92168 -13.4159,5.02126 -16.1477,22.10664 -1.565,9.7848 -3.6725,13.1955 -8.1542,13.1955 -5.6135,0 -5.7829,-1.59443 -2.3755,-22.36882 z m 58.5816,1.37082 c -4.6419,-26.65589 -4.7707,-25.42906 2.6646,-25.42906 5.1094,0 6.7827,3.33818 8.7276,17.41015 l 2.4066,17.41015 8.5394,-17.41015 c 5.5692,-11.3553 10.6071,-17.41015 14.4854,-17.41015 7.9286,0 7.7839,0.61132 -5.9455,25.16188 -9.2712,16.57884 -13.5813,21.26518 -19.5568,21.26518 -6.8168,0 -8.0693,-2.32287 -11.3213,-20.998 z m 45.9913,15.9088 c -2.323,-2.79909 -4.0875,-9.88751 -3.9207,-15.75203 0.6277,-22.10071 31.1476,-34.5564 42.4407,-17.32088 8.5518,13.05187 4.1615,18.2648 -15.3834,18.2648 -12.1386,0 -16.5456,1.17872 -15.4989,4.14528 0.9255,2.62309 6.5071,3.81875 15.1996,3.25606 14.5456,-0.94161 18.008,3.34411 7.3218,9.06309 -9.4363,5.05017 -25.317,4.17804 -30.1591,-1.65632 z m 29.9412,-24.56104 c 0,-5.02397 -6.1741,-7.4206 -13.2944,-5.16063 -9.9785,3.16699 -7.9121,8.28113 3.3458,8.28113 5.4717,0 9.9486,-1.40422 9.9486,-3.1205 z m 16.5811,27.4347 c 0,-1.2185 1.6207,-11.52235 3.6017,-22.89738 l 3.6014,-20.6819 16.2492,-0.12601 c 20.8713,-0.16184 27.2231,5.61097 24.4326,22.2041 -3.433,20.41076 -4.9983,23.7166 -11.2281,23.7166 -5.3987,0 -5.6776,-1.54314 -2.7548,-15.24828 2.3145,-10.85049 2.1721,-16.32852 -0.4931,-18.99373 -6.4938,-6.49379 -14.9435,2.23367 -18.2126,18.81098 -2.2959,11.64265 -4.5347,15.43103 -9.1196,15.43103 -3.3422,1.3e-4 -6.0767,-0.99686 -6.0767,-2.21541 z m 55.8839,-5.83047 c -10.6274,-23.32436 20.9526,-50.60894 38.3915,-33.16984 10.3477,10.3478 2.2126,15.7666 -11.1457,7.42411 -8.2024,-5.12242 -16.8054,1.40277 -16.8054,12.74645 0,9.00712 8.4537,13.91811 14.151,8.22074 4.5462,-4.54614 15.6951,-4.9925 15.6951,-0.62836 0,5.7816 -14.6438,13.45291 -25.6805,13.45291 -8.3625,0 -11.8037,-1.89565 -14.606,-8.04601 z m 52.13,2.8348 c -13.3325,-13.33272 1.342,-40.86615 21.9109,-41.11039 11.0225,-0.13099 19.3051,7.7509 19.3051,18.37063 0,7.45359 -1.2354,8.05366 -16.5812,8.05366 -12.8171,0 -16.581,1.17531 -16.581,5.17751 0,4.29066 2.698,4.78116 15.752,2.86353 l 15.752,-2.31407 -6.3173,7.08518 c -7.5716,8.49184 -25.6059,9.50852 -33.2405,1.87395 z m 27.9511,-24.73882 c 0,-6.2199 -10.3685,-7.52977 -15.8907,-2.00751 -5.0264,5.02624 -4.6394,5.4278 5.2313,5.4278 5.8628,0 10.6594,-1.53913 10.6594,-3.42029 z M 429.36623,499.90933 c -33.07383,-11.69517 -33.53353,-11.96499 -32.51854,-19.08485 0.77763,-5.4549 2.95008,-6.87641 9.30502,-6.0884 4.5598,0.56541 14.47377,1.82226 22.03107,2.79298 7.55729,0.97072 16.57233,0.24938 20.03346,-1.6029 6.04186,-3.23351 47.53322,-66.54452 47.41676,-72.35251 -0.0298,-1.5523 -8.19193,-6.34377 -18.13511,-10.64772 -21.17156,-9.16417 -26.93425,-14.58678 -20.81475,-19.58635 2.97413,-2.42983 10.1032,-0.98196 24.62216,5.00056 11.2398,4.63133 22.64898,7.57139 25.3538,6.53348 2.70477,-1.03794 17.05746,-22.0623 31.89486,-46.72084 16.6824,-27.72482 32.27224,-49.36616 40.85312,-56.71108 13.76943,-11.78611 49.66623,-25.72828 58.00434,-22.52867 7.96765,3.05749 4.14351,9.8621 -8.83026,15.71245 -7.16213,3.22965 -16.6906,9.79859 -21.17432,14.59758 -14.59216,15.61814 -58.65774,83.23613 -58.65774,90.00944 0,25.44528 72.3702,-31.09207 93.28609,-72.87732 16.2235,-32.41099 10.06532,-67.98224 -13.97809,-80.74099 -16.26155,-8.62927 -51.90984,-6.2008 -76.89631,5.23839 -36.50338,16.71178 -72.05227,58.00368 -72.05227,83.69244 0,18.11099 5.62868,24.90791 22.50083,27.17094 16.47173,2.20932 17.60336,5.58865 4.1936,12.5231 -12.57553,6.50303 -21.23647,6.38696 -35.70437,-0.4785 -47.97716,-22.76664 -20.97216,-90.56739 49.98267,-125.49015 55.61057,-27.37061 113.05789,-26.95048 142.55203,1.04249 35.30814,33.51101 27.93576,78.4875 -20.76317,126.66942 -28.13367,27.83502 -54.81958,43.1512 -79.05753,45.3746 -28.84755,2.64621 -29.65737,3.16649 -44.27005,28.44228 -20.16622,34.88188 -34.96067,54.25957 -47.20219,61.82526 -11.23274,6.94219 -33.39933,11.31735 -41.97511,8.28487 z m -132.07062,-26.98136 -6.60753,-9.07065 -12.73733,6.9967 c -11.96495,6.57241 -21.02788,7.18242 -21.02788,1.41529 0,-1.39928 7.26212,-7.05854 16.13805,-12.57613 9.0229,-5.60895 20.92676,-17.15875 26.99942,-26.1964 31.57935,-46.99791 64.04185,-66.05765 91.33155,-53.62366 7.45168,3.39522 9.23862,3.1468 11.92757,-1.6581 3.26737,-5.83843 20.91934,-7.94888 24.05462,-2.87589 0.9435,1.52662 -9.27486,20.54882 -22.70751,42.2715 -13.43264,21.7227 -23.7284,40.61963 -22.87948,41.99324 3.00283,4.85867 8.10049,2.34278 22.90694,-11.30531 11.051,-10.18643 15.9472,-12.82982 18.68782,-10.0892 4.95121,4.95121 -0.39944,11.23856 -25.05545,29.44195 -23.5295,17.37171 -40.4454,19.70706 -43.87142,6.05678 -1.14443,-4.55981 -2.74433,-8.29056 -3.55531,-8.29056 -0.81102,0 -6.96483,3.73075 -13.6752,8.29056 -16.54272,11.24108 -31.38322,10.95115 -39.92886,-0.78012 z m 41.86835,-15.53502 c 21.30677,-11.20274 55.42582,-57.92432 47.8398,-65.51034 -9.54884,-9.54884 -45.48338,17.44508 -59.16515,44.44466 -11.84669,23.37835 -7.70944,31.07386 11.32535,21.06568 z m 278.07885,16.35161 c -3.0165,-3.0165 -5.48456,-9.85484 -5.48456,-15.19634 0,-5.34147 -0.69581,-9.71177 -1.54622,-9.71177 -0.85041,0 -10.78172,5.96919 -22.06953,13.26487 -11.28785,7.29568 -23.27661,13.26487 -26.64167,13.26487 -12.70978,0 -5.27133,-9.11094 18.46378,-22.61518 29.18099,-16.60275 39.01789,-27.11854 58.16073,-62.17465 23.02102,-42.15823 51.43816,-81.52688 75.88134,-105.12479 23.68225,-22.86327 36.8676,-29.34097 45.36637,-22.28761 6.97298,5.78707 6.23512,10.85411 -4.71686,32.39196 -16.51042,32.46886 -43.2533,67.19103 -83.04511,107.82313 -29.79402,30.42321 -38.29741,41.09985 -38.29741,48.08516 0,7.10872 1.72689,9.18059 8.29055,9.94677 11.48668,1.34084 27.44224,-11.32068 43.55532,-34.56332 31.6714,-45.68505 60.58302,-64.59154 87.43514,-57.17731 9.32163,2.57382 12.79215,2.18161 16.88161,-1.90785 2.83125,-2.83126 6.63154,-5.14774 8.44508,-5.14774 5.33599,0 16.12621,6.60973 16.12621,9.87836 0,1.65688 -10.44608,19.06023 -23.21353,38.67407 -22.66609,34.82053 -26.87484,44.3017 -19.66578,44.3017 4.82252,0 29.59915,-17.3823 38.49493,-27.00653 10.22268,-11.05969 44.12067,-69.89155 42.12809,-73.11562 -0.9112,-1.47435 -6.14934,-2.68063 -11.64032,-2.68063 -8.45654,0 -9.82148,-1.14128 -8.92388,-7.4615 0.93042,-6.55141 3.28434,-7.58833 19.29889,-8.50141 l 18.2392,-1.03994 11.60677,-20.21252 c 6.38372,-11.11685 18.08732,-27.43726 26.00807,-36.26752 14.37846,-16.02954 23.33689,-19.41914 33.68383,-12.74456 4.09121,2.63924 2.48086,5.42639 -9.07318,15.70123 -14.71538,13.08672 -38.42456,49.52978 -35.40324,54.41838 0.96637,1.56364 8.49379,2.84297 16.7273,2.84297 12.46633,0 14.78635,0.97075 13.86942,5.80337 -0.85492,4.50367 -5.46712,6.17474 -20.59438,7.4615 l -19.49313,1.65811 -27.5284,43.11084 c -15.14059,23.71096 -27.62088,44.88813 -27.73396,47.06039 -0.74934,14.39437 29.13441,0.31537 41.75049,-19.66992 11.24228,-17.80893 39.04483,-47.24533 52.26924,-55.34105 17.88305,-10.94757 39.41293,-10.18742 47.17918,1.6657 5.3149,8.11118 5.24029,9.26101 -1.49926,23.13325 -8.83109,18.17711 -29.29913,33.38036 -54.29612,40.33015 -19.24677,5.35102 -24.10738,9.73592 -19.34108,17.44796 4.39429,7.11013 24.4915,1.09321 47.2076,-14.13339 16.31678,-10.93729 25.36078,-20.61101 41.73229,-44.63836 20.58308,-30.2084 21.10538,-30.67503 34.34608,-30.67503 10.5887,0 13.0394,1.05679 11.5361,4.97434 -2.3621,6.15529 -1.8256,6.15639 9.9397,0.0199 18.9168,-9.86568 37.7618,-3.52869 37.6259,12.65227 -0.033,3.97353 -8.2412,19.74046 -18.2392,35.03758 -19.3936,29.67169 -20.9317,33.53695 -13.3458,33.53695 7.0881,0 86.6205,-68.3269 110.0765,-94.56748 14.3818,-16.0892 21.7143,-21.95711 25.5823,-20.47281 8.5568,3.28362 6.4077,11.03104 -6.6957,24.13428 l -12.1179,12.11783 5.8491,16.26615 c 3.2171,8.94636 5.194,20.73286 4.3924,26.19216 -2.9564,20.14399 5.4933,17.51758 24.2588,-7.54029 20.3129,-27.12425 38.827,-41.58644 57.016,-44.53817 24.565,-3.98633 33.6381,18.62481 17.1877,42.8336 -9.5169,14.00539 -18.2498,19.17763 -45.7134,27.07424 -16.6686,4.79283 -19.1379,6.53259 -18.2392,12.85094 2.0296,14.26601 22.7831,11.85173 48.1565,-5.60206 11.4682,-7.88875 17.9191,-10.43619 21.1678,-8.35892 10.6742,6.82604 -42.8808,39.53795 -64.5984,39.45707 -17.1415,-0.064 -20.4382,-2.21242 -26.8156,-17.47558 -2.831,-6.77579 -6.4145,-12.31962 -7.9632,-12.31962 -1.5486,0 -8.6172,4.67172 -15.7076,10.38159 -28.614,23.04235 -53.6441,28.67703 -63.1236,14.20996 -4.832,-7.37474 -5.0316,-10.1857 -1.4299,-20.14557 2.3018,-6.36623 3.4216,-12.33858 2.4885,-13.27187 -0.9332,-0.93331 -9.5477,4.50873 -19.1428,12.09339 -30.7832,24.33266 -55.1607,32.7657 -65.3276,22.59901 -7.4834,-7.48325 -3.9576,-17.5884 15.9669,-45.76382 20.2154,-28.5864 22.8753,-37.14343 12.1858,-39.20204 -10.5081,-2.02363 -21.0961,8.37155 -47.42289,46.55877 -14.18613,20.5767 -27.3681,38.50859 -29.2935,39.84861 -6.17976,4.3008 -25.94708,2.98085 -24.0711,-1.60734 7.45851,-18.24328 7.79743,-17.62188 -5.22171,-9.57564 -20.4624,12.64649 -32.12853,17.65305 -45.22957,19.41026 -10.18199,1.36572 -13.94849,0.22948 -19.69808,-5.94191 -3.90988,-4.19677 -7.10888,-10.30117 -7.10888,-13.56529 0,-4.91616 -3.50341,-3.67045 -20.41145,7.25774 -25.49721,16.47966 -38.14766,17.4319 -43.0936,3.24389 -1.90749,-5.47176 -4.09092,-9.94865 -4.85206,-9.94865 -0.76117,0 -9.31658,4.47689 -19.01201,9.94865 -20.87639,11.7819 -35.14415,13.03742 -37.6863,3.31622 -0.95394,-3.64783 -3.11214,-6.63243 -4.79598,-6.63243 -1.68385,0 -8.91185,2.9846 -16.06221,6.63243 -18.14443,9.2566 -31.14625,8.64045 -38.77906,-1.83768 l -6.17002,-8.47011 -14.83292,8.21984 c -20.62927,11.432 -37.17603,14.09138 -44.16865,7.09876 z m 512.79589,-21.62754 c 10.3443,-8.13698 18.9569,-29.64746 19.902,-49.70763 0.849,-18.02182 -2.259,-18.63032 -19.1973,-3.75837 -10.919,9.58701 -12.1688,12.04082 -8.8437,17.36518 6.0796,9.73498 4.585,19.1443 -4.4815,28.21077 -13.7603,13.76042 -3.2201,20.3501 12.6205,7.89005 z M 741.54532,439.0597 c 33.33065,-34.57993 40.14695,-71.60279 9.40294,-51.07215 -24.40272,16.296 -43.01967,41.8539 -43.01967,59.05867 0,6.92721 1.58024,8.42267 8.9002,8.42267 6.32604,0 13.47466,-4.74591 24.71653,-16.40919 z m 194.35269,-29.78359 c 12.89546,-9.34155 24.06314,-22.10502 24.06314,-27.50192 0,-1.41808 -3.94397,-2.57833 -8.76443,-2.57833 -10.01597,0 -43.05977,30.42856 -39.42685,36.30655 3.5268,5.70652 9.9397,4.05163 24.12814,-6.2263 z m 318.84809,-8.83215 c 9.3166,-8.37666 16.9395,-17.33045 16.9395,-19.89731 0,-10.8682 -23.8309,-1.16588 -37.7415,15.36563 -19.7918,23.52151 -4.1174,26.93626 20.802,4.53168 z M 700.04339,358.46949 c 37.22836,-44.52862 59.06281,-82.0764 47.72831,-82.0764 -6.64515,0 -64.09598,81.05251 -71.94032,101.49452 -4.109,10.70794 5.40285,3.07937 24.21201,-19.41812 z m 637.91991,109.22639 c -5.8273,-2.88942 -8.5535,-7.29373 -9.3003,-15.02449 -1.1597,-12.00137 6.7412,-27.04848 14.2023,-27.04848 8.3539,0 9.0384,6.49044 1.9022,18.03711 -8.1642,13.20966 -3.6451,19.27672 7.1846,9.64655 13.043,-11.59787 24.0386,-44.97332 17.1018,-51.91012 -1.165,-1.16509 -6.5032,1.57122 -11.8621,6.08072 -10.527,8.85775 -24.7009,13.78449 -28.4559,9.89095 -1.2827,-1.33036 1.3981,-4.74996 5.958,-7.59905 4.5597,-2.84909 18.3473,-15.53482 30.6388,-28.19054 18.3225,-18.86514 22.7476,-21.97051 24.5636,-17.23791 1.2373,3.22403 -0.3688,10.57095 -3.6379,16.64119 -4.9177,9.13171 -5.2389,12.72996 -2.0097,22.51529 4.7608,14.42439 10.3347,19.49456 16.8809,15.35446 7.3309,-4.6365 13.1535,-3.79149 13.1535,1.90885 0,2.7974 -4.9186,7.9882 -10.9302,11.53514 -6.0114,3.54693 -14.2565,10.94812 -18.3222,16.44715 -13.4158,18.14612 -32.8843,25.98575 -47.0674,18.95318 z m 57.536,-4.15936 c -2.3932,-6.23692 3.4755,-13.03825 8.5463,-9.90432 5.4661,3.37826 4.3224,15.10155 -1.4735,15.10155 -2.7928,0 -5.9757,-2.33876 -7.0728,-5.19723 z m 81.9943,0.46649 c -3.0079,-3.62397 -6.143,-3.95802 -13.4009,-1.42783 -5.2111,1.81658 -14.4358,2.82618 -20.4996,2.24354 -14.2232,-1.36664 -21.6452,-14.60833 -16.4849,-29.4114 11.3783,-32.63971 57.8143,-63.83486 72.7658,-48.88325 3.1385,3.13854 6.2425,2.69442 14.2571,-2.03987 9.167,-5.41506 10.7754,-5.5214 15.2861,-1.01072 4.5108,4.51069 3.0804,8.211 -13.5938,35.16661 -10.2492,16.56902 -18.6348,30.88758 -18.6348,31.81901 0,5.46136 10.3475,-0.0935 21.5554,-11.57131 13.5427,-13.86909 18.2392,-16.17711 18.2392,-8.96357 0,4.60517 -19.5693,24.33368 -33.0711,33.34009 -10.0803,6.72417 -21.1932,7.03489 -26.4185,0.7387 z m -2.6156,-21.58089 c 15.253,-13.39212 25.0726,-31.94483 19.7339,-37.28361 -6.5128,-6.5125 -20.7679,0.68535 -32.9255,16.62499 -19.969,26.18125 -10.3157,41.29849 13.1916,20.65862 z m 56.5863,21.1144 c -3.0177,-7.86422 4.0554,-13.41066 10.3937,-8.15034 3.9278,3.25977 4.2594,5.35887 1.3925,8.81325 -4.966,5.98362 -9.3299,5.73818 -11.7862,-0.66291 z"
       id="path1075" /></g></svg>
