<?xml version="1.0" encoding="UTF-8" standalone="no"?>
<!-- Created with Inkscape (http://www.inkscape.org/) -->

<svg
   version="1.1"
   id="svg336"
   width="1587.52"
   height="842.23999"
   viewBox="0 0 1587.52 842.23999"
   sodipodi:docname="terra.svg"
   inkscape:version="1.2.2 (732a01da63, 2022-12-09)"
   xml:space="preserve"
   xmlns:inkscape="http://www.inkscape.org/namespaces/inkscape"
   xmlns:sodipodi="http://sodipodi.sourceforge.net/DTD/sodipodi-0.dtd"
   xmlns="http://www.w3.org/2000/svg"
   xmlns:svg="http://www.w3.org/2000/svg"><defs
     id="defs340" /><sodipodi:namedview
     id="namedview338"
     pagecolor="#505050"
     bordercolor="#eeeeee"
     borderopacity="1"
     inkscape:showpageshadow="0"
     inkscape:pageopacity="0"
     inkscape:pagecheckerboard="0"
     inkscape:deskcolor="#505050"
     showgrid="false"
     inkscape:zoom="0.62937278"
     inkscape:cx="734.8586"
     inkscape:cy="491.75943"
     inkscape:window-width="1920"
     inkscape:window-height="991"
     inkscape:window-x="-9"
     inkscape:window-y="-9"
     inkscape:window-maximized="1"
     inkscape:current-layer="g342" /><g
     inkscape:groupmode="layer"
     inkscape:label="Image"
     id="g342"><path
       style="fill:#000000"
       id="path487"
       d="" /><path
       style="fill:#333333"
       d="m 476.2221,665.73264 c -23.9266,-3.05278 -35.30315,-6.68954 -33.73225,-10.78323 0.58429,-1.52264 23.56716,-2.73933 51.73225,-2.73867 7.425,1.7e-4 22.95,-0.48454 34.5,-1.07715 17.67073,-0.90664 23.53658,-1.63308 37,-4.58216 15.00152,-3.28599 34.65365,-8.18744 35.27942,-8.79906 0.15368,-0.15021 -1.05959,-1.70652 -2.69615,-3.45846 -3.12124,-3.3413 -6.16545,-10.44704 -8.86162,-20.68466 l -1.60532,-6.09552 -14.05816,-1.23506 c -7.73199,-0.67929 -22.15817,-2.32329 -32.05817,-3.65334 -29.63177,-3.98098 -53.58027,-9.5681 -37.78519,-8.81517 4.78739,0.22821 5.18153,0.13625 2.28519,-0.53317 -1.925,-0.44492 -2.825,-0.9062 -2,-1.02508 0.825,-0.11888 18.9375,-0.14329 40.25,-0.0542 32.48195,0.13573 38.75,-0.0628 38.75,-1.22729 0,-1.21952 -6.16676,-26.10781 -14.93247,-60.26561 -1.55258,-6.05 -3.09392,-12.16752 -3.42522,-13.5945 -0.5708,-2.45858 -0.83964,-2.55848 -5.13192,-1.90708 -2.49126,0.37808 -4.68424,0.87061 -4.87329,1.0945 -0.18906,0.22389 0.22918,3.55708 0.92941,7.40708 2.20588,12.12828 3.6767,26.15836 2.97428,28.37148 -0.9289,2.9267 -4.03097,4.47173 -6.41574,3.19544 -2.90039,-1.55224 -6.09144,-9.40245 -8.74763,-21.51983 -1.33187,-6.0759 -2.64972,-12.07753 -2.92856,-13.33695 -0.43307,-1.95607 -0.97649,-2.21322 -3.72792,-1.76411 -10.48384,1.71129 -33.51393,2.45989 -45.83704,1.48995 -20.51625,-1.61483 -26.16929,-2.69911 -65.06098,-12.47906 -14.1224,-3.55135 -25.90661,-6.45696 -26.18713,-6.45696 -1.01836,0 0.72123,7.69136 3.61879,16 8.19722,23.50527 26.63305,52.60882 50.29607,79.39945 7.34318,8.31375 8.56905,10.17924 7.65299,11.64608 -1.18136,1.89166 0.12324,3.57355 4.54636,5.86115 1.40123,0.72471 2.25,2.08472 2.25,3.60525 0,1.74198 1.45838,3.59434 5.0898,6.46482 5.76846,4.55971 7.88297,5.0301 7.97105,1.77325 0.0441,-1.63021 0.79649,-0.78996 2.73145,3.05032 2.23087,4.42756 3.0243,5.21154 4.81856,4.76121 1.26402,-0.31725 3.12349,0.211 4.51854,1.28364 1.30383,1.0025 7.0025,4.65305 12.6637,8.11234 5.66121,3.45929 10.07369,6.50904 9.80551,6.77722 -0.26819,0.26818 -4.45008,-0.0583 -9.29311,-0.72559 -9.59751,-1.32231 -17.08475,-4.77019 -34.3055,-15.79771 -56.75757,-36.34541 -86.12677,-74.66054 -104.63487,-136.50692 l -3.82917,-12.79549 -8.01798,-4.37337 c -9.40947,-5.13236 -17.42661,-12.02702 -15.83535,-13.61828 0.73381,-0.73381 2.07005,-0.4287 4.43386,1.0124 4.51209,2.75079 6.84318,2.78814 4.38351,0.0702 -0.99549,-1.1 -1.62756,-2 -1.40461,-2 0.22295,0 3.55519,0.66719 7.40498,1.48264 11.48322,2.43236 10.49963,3.70126 10.49963,-13.54522 0,-27.05549 2.90871,-57.3577 7.08968,-73.85848 2.52605,-9.96939 5.44297,-17.19414 10.01222,-24.79869 l 3.7372,-6.21978 -3.54623,-0.66528 c -5.69865,-1.06907 -16.14442,-5.13738 -22.70988,-8.8448 -13.70282,-7.73781 -23.73548,-18.75267 -28.12686,-30.88051 l -2.1725,-5.99985 -4.9534,7.415 c -7.57847,11.34458 -9.15731,14.14881 -15.056,26.7414 -3.00751,6.42048 -5.16825,10.5486 -4.80164,9.1736 0.36661,-1.375 0.86143,-6.96335 1.09961,-12.41856 0.4246,-9.72547 0.53724,-10.11483 5.78576,-20 2.94401,-5.54479 7.97128,-14.35644 11.17172,-19.58144 3.20044,-5.225 6.92821,-11.75 8.28394,-14.5 7.8561,-15.93562 26.81618,-37.46395 44.68638,-50.7394 9.88256,-7.34157 28.7178,-18.80393 43.5,-26.47232 44.56943,-23.12075 95.56128,-35.32515 147.35681,-35.2684 55.8759,0.0612 102.70341,13.33903 143.38966,40.65774 30.40614,20.41616 50.12361,39.01606 64.74188,61.07238 2.6428,3.9875 5.1824,7.25 5.64357,7.25 1.04993,0 70.17386,-7.56499 82.36808,-9.01444 4.95,-0.58838 65.925,-7.35349 135.5,-15.03358 69.5751,-7.68009 146.8092,-16.21114 171.6315,-18.95789 47.0573,-5.20719 63.8493,-6.07356 69.77,-3.59972 8.8283,3.68872 8.6823,13.38012 -0.2775,18.41582 -3.9769,2.23512 -4.0584,2.38895 -3.4846,6.57523 1.3313,9.71299 -8.4502,14.51886 -40.8015,20.04653 l -3.6622,0.62573 36.5083,53.54171 c 20.0796,29.44793 36.3396,53.71042 36.1334,53.91663 -0.2062,0.20621 -3.512,0.85292 -7.3461,1.43713 -12.7841,1.9479 -12.1313,1.07815 -6.8125,9.07687 2.5578,3.84667 4.4685,7.15225 4.2459,7.34573 -0.2225,0.19348 -14.8046,2.91142 -32.4046,6.03986 -17.6,3.12845 -32.5361,5.86546 -33.1912,6.08226 -0.6551,0.2168 -3.988,-3.40653 -7.4064,-8.05184 -3.4184,-4.64532 -6.8234,-8.44603 -7.5666,-8.44603 -1.201,0 -8.1177,0.90764 -39.3358,5.16183 -5.7836,0.78815 -9.0717,1.74631 -10.289,2.99824 -0.9839,1.01196 -2.6345,1.83993 -3.6679,1.83993 -1.467,0 -2.4747,1.80833 -4.5971,8.25 -1.495,4.5375 -2.8182,8.37376 -2.9405,8.52502 -0.2414,0.29876 -2.9442,0.76551 -30.0055,5.18184 -9.9,1.61565 -22.05,3.62197 -27,4.45848 -4.95,0.83652 -17.775,2.91301 -28.5,4.61443 -10.725,1.70143 -21.6479,3.4562 -24.2729,3.89949 -2.625,0.4433 -4.92726,0.52806 -5.11607,0.18837 -0.18881,-0.3397 -0.89942,-6.46763 -1.57914,-13.61763 -0.67972,-7.15 -1.42017,-13.61282 -1.64544,-14.36182 -0.42792,-1.42274 -2.20604,-1.31022 -16.13655,1.02115 l -6.25,1.04598 v 7.2567 7.2567 l -5.25,0.89065 -5.25,0.89064 0.35483,7.74116 c 0.40302,8.79248 0.87513,8.2775 -8.85483,9.6589 -9.02471,1.28127 -72.10298,11.32949 -104.42622,16.63484 -13.8104,2.26676 -13.28061,2.42944 -13.95459,-4.2849 -0.31745,-3.1625 -0.86595,-9.70059 -1.21889,-14.52908 -0.54667,-7.47906 -0.88297,-8.70612 -2.271,-8.28638 -0.89611,0.27099 -4.7793,0.96253 -8.6293,1.53676 -12.68338,1.89172 -11.78503,1.21148 -11.31654,8.56901 l 0.41041,6.44525 -3.2561,0.61085 c -2.91693,0.54722 -3.41661,1.16297 -4.79694,5.91113 -0.84746,2.91515 -1.54083,6.69352 -1.54083,8.39637 0,1.70285 -0.41278,3.09609 -0.91729,3.09609 -0.50451,0 -1.69607,2.1375 -2.6479,4.75 -5.24917,14.40744 -15.77411,36.79959 -24.07683,51.22421 l -3.72651,6.47422 9.33581,-7.97422 c 5.1347,-4.38581 10.73012,-9.19342 12.43427,-10.68357 3.5134,-3.0722 4.86967,-3.37369 6.47504,-1.43934 1.7892,2.15585 -3.1829,7.98972 -15.89394,18.6487 -27.09599,22.72162 -32.26127,27.44896 -41.70328,38.16745 -27.32151,31.01517 -56.30904,53.48989 -90.77937,70.38342 -23.89703,11.71168 -46.46123,18.98471 -71.5,23.04632 -14.21574,2.30598 -87.06206,2.9642 -103,0.93068 z m 158.5,-39.51364 c 21.41723,-8.5345 50.61821,-26.76105 54.5027,-34.01927 1.11825,-2.08947 1.41708,-2.14585 -16.33905,3.08265 -9.51265,2.80111 -32.56585,7.53388 -39.60426,8.13066 -3.20102,0.27142 -3.52508,0.62448 -4.65366,5.07022 -1.48484,5.84914 -3.76276,9.47143 -6.83711,10.8722 -1.69811,0.77371 -2.48964,2.17796 -2.93356,5.20446 -0.33438,2.27967 -0.89566,5.17309 -1.24729,6.42984 l -0.63933,2.28498 4.87578,-1.93392 c 2.68168,-1.06366 8.47578,-3.36848 12.87578,-5.12182 z m 9.64194,-41.05728 c 27.47739,-5.41969 56.7017,-13.80359 67.90463,-19.48055 14.57138,-7.38388 39.82756,-36.56049 47.50037,-54.8737 5.68249,-13.56279 12.0907,-32.29839 11.31312,-33.07598 -0.3456,-0.34559 -10.69299,0.98921 -22.99421,2.96621 -12.30122,1.97701 -29.34085,4.69664 -37.86585,6.04362 -8.525,1.34697 -18.30384,2.95161 -21.73074,3.56585 l -6.23075,1.1168 -5.06983,9.63025 c -9.83382,18.67955 -24.57221,38.62154 -40.17286,54.35648 l -8.79582,8.87154 v 6.8217 c 0,3.75193 0.28617,8.90949 0.63592,11.46126 0.76096,5.55177 0.63235,5.53024 15.50602,2.59652 z m -32.1402,-21.54736 c -0.55683,-9.30028 -1.4551,-23.65959 -1.99616,-31.90959 -1.23275,-18.79696 -2.68519,-42.00496 -4.00536,-64 -1.0766,-17.93712 -1.99234,-32.5202 -4.55259,-72.5 -2.39995,-37.47665 -3.10126,-49.47451 -2.90942,-49.77352 0.0965,-0.15043 5.30241,-1.13935 11.56864,-2.19761 12.75914,-2.15478 55.5177,-9.49291 81.39315,-13.96849 17.37767,-3.00576 49.88161,-8.57938 82,-14.06097 9.9,-1.68961 24.3,-4.16019 32,-5.49018 19.52036,-3.37165 46.83685,-8.06193 67.5,-11.58984 9.625,-1.64332 22.45,-3.85067 28.5,-4.90522 13.67051,-2.38284 39.50492,-6.82433 67,-11.51873 11.55,-1.972 27.3,-4.67386 35,-6.00414 7.7001,-1.33028 22.1001,-3.80043 32.0001,-5.48923 9.9,-1.68879 22.95,-3.93816 29,-4.9986 34.8017,-6.1 99.3478,-17.00347 100.6566,-17.00347 0.6472,0 0.9217,-0.25497 0.6101,-0.56661 -0.6166,-0.61662 -11.9619,0.61379 -156.7667,17.00154 -68.5551,7.75845 -96.13349,10.87263 -120.0001,13.5505 -14.575,1.63534 -44.5,5.01514 -66.5,7.51066 -22,2.49551 -47.875,5.41978 -57.5,6.49836 -9.625,1.07858 -31.675,3.5742 -49,5.54582 -17.325,1.97162 -35.1,3.97992 -39.5,4.46287 -11.60804,1.27414 -57.20513,6.41357 -93,10.48241 -17.05,1.9381 -49.225,5.54201 -71.5,8.0087 -22.275,2.46669 -42.06981,4.75511 -43.98847,5.08537 l -3.48847,0.60048 2.98847,1.21844 c 1.64366,0.67014 21.99496,7.00623 45.22512,14.08019 29.61958,9.01966 42.38565,13.33367 42.73546,14.44151 0.27435,0.86887 12.67612,50.17976 27.55949,109.57976 31.20113,124.52467 28.9725,115.82924 29.5412,115.26053 0.24275,-0.24275 -0.0142,-8.05067 -0.57106,-17.35094 z m 24.19567,-26.08294 c 4.01642,-5.59534 11.17989,-15.27034 15.9188,-21.5 8.63396,-11.34998 14.42216,-20.62161 13.46897,-21.5748 -0.27985,-0.27986 -9.80681,0.97384 -21.17102,2.78599 l -20.66221,3.29482 0.59439,8.08367 c 0.32692,4.44602 0.85267,13.93367 1.16834,21.08367 0.67987,15.39892 1.30101,20.08526 2.50248,18.88025 0.48271,-0.48414 4.16383,-5.45826 8.18025,-11.0536 z m -119.6473,-38.38313 c 7.12244,-0.58106 14.34591,-1.36856 16.05215,-1.75 l 3.10225,-0.69352 -1.81864,-8.5 c -7.5813,-35.43374 -12.44192,-68.24967 -14.44489,-97.52305 l -0.61738,-9.02304 -12.6618,-3.63598 c -6.96399,-1.99978 -21.03561,-6.10531 -31.27027,-9.12339 -12.41689,-3.66159 -22.06604,-5.86926 -29,-6.63502 -5.71534,-0.63119 -15.11653,-1.97844 -20.89153,-2.9939 -5.775,-1.01545 -10.89611,-1.60785 -11.38025,-1.31644 -0.48413,0.29142 -2.58708,4.17957 -4.67322,8.64033 -12.1693,26.02154 -18.49358,70.36112 -14.92089,104.61049 0.68948,6.60962 1.47189,9.85757 2.57159,10.67526 0.86934,0.6464 6.6031,2.76619 12.74169,4.71065 36.48657,11.5575 70.55584,15.54803 107.21119,12.55761 z m 41.25611,-6.41641 c 0.24863,-0.24863 -2.19355,-10.93144 -5.42708,-23.73958 -4.15241,-16.44789 -5.97495,-22.28234 -6.20536,-19.86506 -0.31938,3.35068 3.46432,41.24381 4.38844,43.94945 0.33019,0.96673 1.40238,1.18516 3.63026,0.73958 1.73893,-0.34778 3.36511,-0.83576 3.61374,-1.08439 z m 86.83593,-28.44768 c 9.82182,-1.60632 25.28285,-4.09629 34.35785,-5.53328 9.075,-1.43699 22.125,-3.51384 29,-4.61522 6.875,-1.10139 16.1,-2.57862 20.5,-3.28273 l 8,-1.28021 0.28654,-10.32493 0.28654,-10.32492 -4.28654,0.62725 c -2.3576,0.34499 -9.68654,1.49682 -16.28654,2.55962 -45.96023,7.40099 -58.56306,9.37564 -62.75,9.83187 l -4.75,0.51758 v -12.55984 c 0,-13.93262 -0.50753,-12.97718 7.5,-14.11878 3.90781,-0.55712 18.72298,-2.89519 51,-8.04863 24.27405,-3.87566 21.5,-2.45023 21.5,-11.04765 0,-4.04884 -0.38326,-7.59839 -0.85169,-7.8879 -0.46842,-0.2895 -6.20592,0.34162 -12.75,1.40248 -6.54407,1.06087 -22.02331,3.54849 -34.39831,5.52804 -12.375,1.97956 -24.75,3.98209 -27.5,4.45007 -2.75,0.46798 -5.19638,0.65679 -5.4364,0.41957 -0.24003,-0.23721 -0.63329,-5.57484 -0.87392,-11.8614 -0.43524,-11.37091 -0.42521,-11.43285 1.9364,-11.95898 2.14072,-0.47692 17.55508,-2.93047 63.87392,-10.16702 8.525,-1.33189 16.0625,-2.62863 16.75,-2.88164 1.54765,-0.56955 1.76174,-17.08847 0.23371,-18.03285 -0.55896,-0.34545 -5.17146,0.0635 -10.25,0.90867 -8.83149,1.46982 -24.58143,3.99704 -66.23371,10.62781 -10.45,1.66357 -22.10455,3.54723 -25.89899,4.18591 l -6.89899,1.16124 0.63901,17.06322 c 2.86246,76.43519 3.45225,87.56322 4.64089,87.56322 0.44131,0 8.83842,-1.31426 18.66023,-2.92057 z m -98.97987,-22.32943 c -0.27741,-0.6875 -0.50439,-0.125 -0.50439,1.25 0,1.375 0.22698,1.9375 0.50439,1.25 0.27741,-0.6875 0.27741,-1.8125 0,-2.5 z m 235.20148,0.63828 c 5.84993,-0.88644 11.23639,-1.78677 11.96992,-2.00072 1.07453,-0.31342 1.19588,-3.1708 0.62454,-14.70571 l -0.70912,-14.31671 6.87545,-1.17584 c 30.92081,-5.2881 52.48842,-8.32396 56.17985,-7.90788 7.83615,0.88325 11.1956,6.78302 11.1956,19.6614 0,5.94709 0.05,6.05674 2.75,6.03273 1.5125,-0.0134 4.55,-0.41862 6.75,-0.9004 2.2,-0.48177 6.47888,-1.16458 9.50861,-1.51735 3.02974,-0.35276 6.0208,-0.96009 6.64681,-1.3496 1.66555,-1.03632 -0.0841,-24.20263 -2.12611,-28.15152 -2.17997,-4.2156 -6.08371,-5.92177 -16.78554,-7.33629 l -9.24377,-1.22181 7.5,-3.34167 c 9.6313,-4.29129 13.5104,-7.2769 16.13248,-12.41659 4.20409,-8.2407 3.39013,-30.43897 -1.43699,-39.1896 -4.71093,-8.53998 -15.08052,-10.96595 -34.69549,-8.11702 -11.76791,1.70921 -44.1304,6.78823 -54,8.47484 -3.025,0.51694 -12.025,1.93723 -20,3.15619 -7.975,1.21897 -14.79438,2.49057 -15.15418,2.82579 -0.3598,0.33521 -0.0427,12.08448 0.70472,26.10948 0.74739,14.025 1.83699,36.075 2.42132,49 1.17071,25.89491 1.60683,30 3.18721,30 0.58764,0 5.85475,-0.72527 11.70469,-1.61172 z m 10.7347,-55.63828 c -0.27069,-1.7875 -0.72986,-9.60076 -1.02038,-17.36281 l -0.52821,-14.1128 7.22507,-1.17458 c 3.97378,-0.64602 16.77233,-2.73276 28.44122,-4.6372 11.66889,-1.90443 23.1957,-3.46261 25.61514,-3.46261 8.03098,0 12.6687,6.0211 12.6687,16.44764 0,7.35443 -2.37346,13.00202 -6.5487,15.58246 -2.03905,1.2602 -7.76343,2.79984 -14.6491,3.94005 -22.8225,3.77921 -49.32144,8.0359 -50.00689,8.03292 -0.38757,-0.002 -0.92616,-1.46557 -1.19685,-3.25307 z m 162.87052,13.28607 -0.70311,-14.58078 8.86706,-1.30934 c 4.87689,-0.72014 13.81707,-2.12885 19.86707,-3.13047 30.4185,-5.03595 32.6441,-5.2889 36.4641,-4.1444 2.0407,0.61141 4.4139,1.90304 5.2738,2.87028 2.3249,2.61519 3.7503,8.90501 3.7566,16.57603 0,6.00971 0.2129,6.75983 1.7556,6.33161 0.9625,-0.26718 7.0191,-1.25316 13.4591,-2.19108 l 11.7092,-1.70529 -0.5015,-8.12632 c -1.0558,-17.10696 -1.377,-18.61226 -4.7601,-22.3038 -2.946,-3.21462 -3.8832,-3.56744 -13.133,-4.94384 -5.4783,-0.8152 -10.1047,-1.6263 -10.2808,-1.80244 -0.1762,-0.17613 3.228,-1.75055 7.5647,-3.49869 8.5609,-3.45089 13.8562,-8.02802 16.2864,-14.07754 2.0877,-5.19695 1.8433,-26.00782 -0.3817,-32.51143 -3.5252,-10.3035 -8.9777,-13.48857 -23.0914,-13.48857 -8.5733,0 -15.6443,0.92309 -53.621,7 -6.325,1.01211 -18.925,3.00143 -28,4.42072 -9.075,1.41928 -17.77867,2.85004 -19.34149,3.17945 l -2.8415,0.59893 0.60711,6.65045 c 0.33391,3.65775 1.04841,16.10045 1.58776,27.65045 2.24905,48.16206 3.04217,63.21445 3.53298,67.05178 l 0.51824,4.05178 13.0545,-1.99335 13.0545,-1.99336 z m -1.87103,-39.28607 c -0.27097,-1.7875 -0.74328,-9.56764 -1.04956,-17.28919 l -0.55688,-14.03919 10.75425,-1.61809 c 5.91483,-0.88995 19.97924,-3.06839 31.25424,-4.84099 19.2202,-3.02169 20.7293,-3.12634 24.1723,-1.67625 4.6622,1.96365 6.7364,5.14677 7.4878,11.4913 0.8622,7.27989 -0.3776,13.73323 -3.3072,17.21489 -3.0887,3.67073 -7.774,5.04332 -27.3529,8.01318 -7.975,1.2097 -19.675,3.05091 -26,4.09157 -15.161,2.49447 -14.81509,2.52472 -15.40205,-1.34723 z m 145.40215,30.74965 c 5.775,-0.866 11.4342,-1.96238 12.576,-2.43641 1.3238,-0.54954 3.6588,-4.35161 6.4436,-10.49208 3.1397,-6.92296 4.9456,-9.75322 6.4239,-10.06772 1.1311,-0.24063 6.5565,-1.12699 12.0565,-1.96969 5.5,-0.8427 16.975,-2.66245 25.5,-4.04387 8.525,-1.38142 18.65,-2.9668 22.5,-3.52306 3.85,-0.55626 7.7269,-1.23746 8.6154,-1.51379 1.145,-0.35607 3.4423,2.01204 7.8879,8.13075 5.9244,8.15414 6.4451,8.6052 9.3845,8.12916 1.7117,-0.2772 8.4044,-1.32416 14.8728,-2.32658 6.4683,-1.00242 11.6433,-2.07887 11.5,-2.39211 -0.4209,-0.91967 -59.8297,-88.17851 -62.4626,-91.74425 -1.325,-1.79438 -3.3008,-3.25 -4.4116,-3.25 -1.9451,0 -31.1835,4.52915 -35.5282,5.50348 -1.6047,0.35986 -3.034,2.67662 -5.6996,9.23842 -1.9568,4.81695 -6.3298,15.2831 -9.7179,23.2581 -3.3881,7.975 -8.9794,21.25 -12.4252,29.5 -3.4458,8.25 -9.5138,22.65 -13.4845,32 -8.8934,20.94207 -8.8789,20.89652 -6.4274,20.15096 1.043,-0.31722 6.6214,-1.2853 12.3964,-2.15131 z m 31.9365,-46.74965 c 3.1977,-8.11149 20.2937,-49.33909 20.9343,-50.48376 0.9562,-1.7085 1.1719,-1.43081 19.0596,24.53677 7.3133,10.61666 13.1246,19.47529 12.914,19.68586 -0.2105,0.21057 -8.9242,1.76331 -19.3636,3.45054 -10.4395,1.68724 -21.4184,3.5161 -24.3976,4.06414 -2.9792,0.54805 -6.4556,0.99645 -7.7253,0.99645 -1.9901,0 -2.1861,-0.31029 -1.4214,-2.25 z m -47.4576,-5.25 c 17.7065,-42.73286 20.5528,-49.80158 20.1967,-50.15773 -0.3139,-0.31382 -34.092,4.99015 -39.435,6.19223 l -2.2594,0.50832 2.0188,3.95727 c 5.5898,10.95689 7.1764,35.57631 3.1068,48.20766 -1.1886,3.68926 -2.5797,6.96644 -3.0913,7.28262 -0.5115,0.31618 0.3756,2.63372 1.9714,5.15009 1.5958,2.51637 3.2045,5.95463 3.5748,7.64058 l 0.6732,3.06536 1.4426,-3.4232 c 0.7934,-1.88276 6.104,-14.6732 11.8014,-28.4232 z m -658.38764,0.75 c 1.34998,-3.56327 4.42458,-6.80686 7.76302,-8.18968 2.40941,-0.99801 2.62351,-1.51952 2.29898,-5.59989 -0.59431,-7.47254 2.93984,-10.95345 14.0461,-13.83453 2.9153,-0.75626 20.82554,-3.04322 39.80054,-5.08214 18.975,-2.03891 35.4,-4.05978 36.5,-4.49083 1.26116,-0.49419 3.20457,-3.69645 5.26069,-8.66832 5.51164,-13.32757 8.35862,-17.84078 11.48086,-18.20022 4.29043,-0.49391 5.16459,2.64531 4.09833,14.71765 -0.49053,5.55388 -0.65518,10.10397 -0.36588,10.11131 1.63342,0.0414 103.75032,-11.2477 104.84593,-11.59085 1.61305,-0.5052 -5.12754,-9.48513 -15.6348,-20.82897 -7.8297,-8.45308 -13.16048,-16.68388 -13.17575,-20.34353 -0.0115,-2.76073 1.02947,-2.79067 9.20746,-0.26474 12.11953,3.74334 24.1144,14.01444 36.60385,31.34356 l 5.6424,7.82882 4.01845,-0.56187 c 2.21015,-0.30904 10.99346,-1.2829 19.51846,-2.16414 12.86849,-1.33024 16.11589,-2.00089 19.1277,-3.9502 4.13906,-2.6789 16.11858,-14.40147 18.62273,-18.22329 l 1.673,-2.55332 -8.69906,-8.29784 C 698.25568,224.24427 659.2932,203.49597 615.2221,192.11629 c -10.71387,-2.76644 -34.98927,-7.25559 -35.65191,-6.59295 -0.16198,0.16199 1.97277,1.9872 4.74388,4.05603 6.28842,4.69474 10.90803,11.73545 10.90803,16.62484 0,12.01929 -16.8514,27.63543 -41.29915,38.27181 -7.04723,3.066 -10.58183,4.0294 -15.10076,4.11586 -10.35165,0.19807 -8.78874,-1.5281 12.68285,-14.00764 12.93524,-7.51811 19.4856,-12.80485 23.64397,-19.08284 1.6902,-2.55173 3.07309,-4.93137 3.07309,-5.28808 0,-1.86939 -7.8327,-9.39046 -11.86215,-11.39019 -8.77401,-4.35438 -13.61592,-5.12036 -32.13785,-5.08414 -24.13156,0.0472 -44.83217,3.97354 -70.04606,13.28588 -7.39967,2.73294 -16.82894,5.9484 -20.95394,7.14545 -18.66928,5.41772 -28.4094,9.62221 -44,18.99335 -27.87155,16.75292 -45.76439,33.00199 -53.55733,48.63715 -6.06829,12.17496 -3.13973,25.66342 7.98795,36.7911 8.27365,8.27365 25.40911,15.55228 36.72118,15.59807 2.9437,0.0119 4.01017,-0.54634 5.5,-2.87901 6.73837,-10.55051 26.62621,-29.97379 44.90208,-43.85322 8.76543,-6.65682 12.57071,-8.2244 15.02339,-6.18886 2.49066,2.06707 1.03008,5.10917 -8.74542,18.215 -16.8022,22.5264 -27.7503,40.42577 -26.23044,42.88495 0.9963,1.61205 2.45771,0.81054 3.48995,-1.91408 z m 326.98725,-62.13224 3.23764,-0.66217 -5.78086,-6.24403 -5.78087,-6.24402 -4.45867,6.76623 c -2.45226,3.72143 -4.70041,7.14713 -4.99587,7.61267 -0.54097,0.85235 11.76017,0.002 17.77863,-1.22868 z m 420.19049,-31.7737 c -0.677,-0.27392 -2.027,-0.29059 -3,-0.0371 -0.973,0.25354 -0.419,0.47766 1.231,0.49804 1.65,0.0204 2.446,-0.18706 1.769,-0.46099 z M 360.56168,579.95477 c -19.55334,-18.00401 -45.17975,-58.58348 -56.67818,-89.75 -8.59099,-23.28591 -15.42038,-51.50265 -17.69008,-73.08951 -1.55529,-14.79218 0.69497,-38.58249 3.99186,-42.20287 1.85708,-2.03929 3.3549,3.54631 5.09365,18.99502 4.71483,41.89079 9.6889,63.24974 22.65862,97.29736 10.41738,27.34732 23.64798,52.96495 39.71181,76.89165 5.08978,7.58112 9.57739,14.30686 9.97246,14.9461 1.73524,2.80767 -2.82202,0.81456 -7.06014,-3.08775 z m 473.12223,-65.07762 c -0.59802,-1.68593 -5.53439,-35.93514 -5.22255,-36.23476 0.14341,-0.13779 2.34998,-0.56149 4.9035,-0.94154 l 4.64276,-0.691 0.66271,5.34746 c 0.3645,2.9411 1.05767,7.59746 1.54038,10.34746 0.48271,2.75 1.14966,7.06638 1.4821,9.59196 l 0.60444,4.59197 11.71242,-1.83074 c 6.44184,-1.00691 12.27493,-1.62492 12.96243,-1.37335 0.6875,0.25156 1.25,1.96695 1.25,3.81196 v 3.35457 l -15.25,2.22789 c -8.3875,1.22534 -16.06503,2.39498 -17.06117,2.59919 -0.99615,0.20422 -1.99831,-0.15627 -2.22702,-0.80107 z m 39.90227,-6.77241 c -2.94948,-1.52422 -4.4168,-5.0557 -5.98311,-14.39997 -2.03064,-12.11432 -1.81683,-16.15505 1.00408,-18.97596 2.94757,-2.94757 6.6401,-3.93896 22.96711,-6.16638 11.36172,-1.55002 13.15923,-1.58382 15.5,-0.29146 3.9504,2.18105 5.98748,7.38762 7.31401,18.69387 1.31367,11.1967 0.75013,13.93821 -3.42781,16.67571 -4.94213,3.23821 -33.21236,6.61496 -37.37428,4.46419 z m 27.63592,-10.69099 c 3.14128,-1.53382 3.52844,-2.1702 3.77744,-6.20898 0.15259,-2.475 -0.31594,-6.52068 -1.0412,-8.99041 -1.75373,-5.97206 -4.01732,-6.73613 -15.08015,-5.09025 -9.77067,1.45363 -12.66967,3.37449 -12.63164,8.36962 0.0402,5.28297 1.94002,12.12059 3.76544,13.55232 2.28986,1.79599 16.41528,0.70892 21.21011,-1.6323 z m 21.88805,2.29138 c -1.43657,-0.78076 -3.10466,-2.67525 -3.70686,-4.20996 -1.65144,-4.2087 -3.18119,-13.96346 -3.18119,-20.2855 0,-6.08636 1.88869,-9.25168 6.58591,-11.03756 3.90755,-1.48565 20.94011,-3.96734 27.22901,-3.96734 6.64477,0 9.66817,2.16546 10.77916,7.72039 0.61254,3.06269 0.53598,3.13756 -3.88588,3.80066 -3.7957,0.5692 -4.84341,0.34374 -6.60946,-1.42231 -2.50025,-2.50025 -2.33799,-2.49276 -13.09874,-0.60426 -10.57802,1.85643 -11.39245,2.73722 -10.54214,11.40118 1.11598,11.371 3.2288,12.81269 15.60966,10.65128 9.0269,-1.57589 10.93248,-2.67132 10.93248,-6.28461 0,-2.45021 -0.0982,-2.48067 -5.75,-1.78384 -3.1625,0.38991 -6.2,0.77926 -6.75,0.86522 -0.55,0.086 -1.13537,-1.23054 -1.30082,-2.92556 l -0.30082,-3.08186 11.2866,-1.59903 c 6.20763,-0.87947 11.42698,-1.45865 11.59856,-1.28708 0.85481,0.85482 2.31692,14.0135 1.79025,16.11192 -0.90515,3.60639 -6.85744,6.10098 -18.78246,7.87167 -12.86855,1.9108 -18.4786,1.92785 -21.90326,0.0666 z m 48.83537,-6.6396 c -1.38463,-5.9542 -4.97173,-33.94578 -4.42073,-34.49678 1.29045,-1.29046 9.18714,-2.18945 9.84743,-1.12108 0.36181,0.58541 0.95772,3.58275 1.32425,6.66074 0.36654,3.078 1.51519,10.97842 2.55256,17.5565 1.03737,6.57808 1.78503,12.06124 1.66146,12.1848 -0.12356,0.12356 -2.5177,0.52884 -5.32031,0.90062 -4.78636,0.63493 -5.12899,0.53267 -5.64466,-1.6848 z m 17.41358,-2.72376 c -1.22682,-1.22682 -2.137,-3.40663 -2.137,-5.11795 0,-2.4392 0.49978,-3.09046 2.75,-3.58352 1.5125,-0.33142 3.30564,-0.77323 3.98475,-0.98181 0.67911,-0.20859 1.70744,0.504 2.28518,1.58352 1.23342,2.30466 3.93947,2.46121 14.28747,0.82654 8.3345,-1.31659 10.228,-2.59459 9.3033,-6.27914 -0.5816,-2.31727 -1.1311,-2.58464 -5.312,-2.58464 -2.5647,0 -8.6047,0.50546 -13.4219,1.12325 -4.81719,0.61778 -9.93982,0.82677 -11.38358,0.4644 -3.30897,-0.83049 -5.49322,-5.76128 -5.49322,-12.40054 0,-7.85423 2.02953,-8.93637 22.0979,-11.78256 13.6963,-1.94246 16.1469,-1.43046 18.3614,3.83623 1.6788,3.99284 1.4617,4.36387 -3.0486,5.21 -2.7134,0.50903 -4.0852,0.24869 -5.5169,-1.04694 -1.7107,-1.54817 -2.8261,-1.61109 -10.9121,-0.61552 -4.9535,0.6099 -9.45085,1.38359 -9.99405,1.71931 -1.6,0.98886 -1.15615,6.21373 0.5846,6.88172 0.86473,0.33183 5.92725,0.085 11.25005,-0.54849 17.7895,-2.11726 19.7403,-1.58218 22.0243,6.04127 2.128,7.10246 1.1485,11.9798 -2.8338,14.11106 -2.6049,1.3941 -16.6172,3.83182 -26.6258,4.6321 -7.42654,0.59381 -8.29382,0.46789 -10.25,-1.48829 z m 59.551,-8.32025 c -0.3092,-1.27421 -1.3665,-7.87855 -2.3495,-14.6763 l -1.7873,-12.35955 -7.6593,0.66813 -7.6593,0.66814 -0.419,-3.58904 c -0.3485,-2.98458 -0.073,-3.66828 1.6337,-4.05953 3.8732,-0.88773 36.7845,-5.57025 37.036,-5.26937 0.1383,0.16542 0.5461,1.93244 0.9061,3.92669 l 0.6547,3.62593 -7.1216,1.057 c -3.9169,0.58135 -7.3302,1.26556 -7.5851,1.52047 -0.2549,0.25491 0.4933,6.85672 1.6627,14.67068 1.1693,7.81396 1.9852,14.33418 1.813,14.48936 -0.1722,0.15519 -2.1692,0.58861 -4.4379,0.96315 -3.7504,0.61918 -4.1759,0.47069 -4.6872,-1.63576 z m 26.3058,-20.47025 c -1.3716,-9.81557 -2.4937,-18.2965 -2.4937,-18.8465 0,-1.05038 9.3758,-2.50987 9.968,-1.55167 0.5447,0.88129 5.687,36.22993 5.3235,36.5935 -0.1803,0.18027 -2.5725,0.62553 -5.316,0.98947 l -4.9881,0.66171 z m 27.5063,13.70814 c -5.3412,-2.18609 -8.3976,-11.07946 -8.4649,-24.63033 -0.03,-6.09624 0.2763,-7.35606 2.2149,-9.10123 3.3237,-2.99216 3.8709,-3.20249 12.4111,-4.77067 22.5637,-4.1432 27.1292,-3.10978 28.4844,6.44759 0.3262,2.30067 0.01,2.52492 -3.9977,2.81249 -3.0301,0.21756 -4.921,-0.20221 -6.2244,-1.38174 -1.5616,-1.41331 -3.0427,-1.57888 -8.9319,-0.99858 -13.9425,1.37386 -15.6067,2.95712 -13.9579,13.27854 1.5163,9.49148 2.8263,10.67503 10.9664,9.90764 10.4135,-0.98171 13.6639,-2.21568 14.8578,-5.64047 0.7436,-2.13306 1.6912,-2.98175 3.3401,-2.99153 1.2662,-0.008 3.3146,-0.285 4.5521,-0.61664 2.1187,-0.5678 2.25,-0.30447 2.25,4.51366 0,8.35978 -2.2694,9.66104 -21.9262,12.57241 -11.6321,1.72283 -12.725,1.76486 -15.5738,0.59886 z m 41.5,-5.72871 c 0,-2.86959 12.6806,-38.61646 13.9313,-39.27264 0.8628,-0.45266 3.8779,-1.13474 6.7004,-1.51573 l 5.1317,-0.6927 11.6183,17.02433 c 6.39,9.36339 11.6183,17.24572 11.6183,17.5163 0,0.27058 -2.0984,0.80664 -4.6632,1.19124 -4.3373,0.65043 -4.8438,0.48984 -7.25,-2.29846 l -2.5868,-2.99775 -10.5,1.60974 c -5.775,0.88536 -11.0279,1.9524 -11.6731,2.37121 -0.6452,0.4188 -1.4563,2.05127 -1.8026,3.62769 -0.5186,2.36141 -1.2807,2.97389 -4.3269,3.47753 -4.8018,0.79388 -6.1974,0.78471 -6.1974,-0.0408 z m 25,-17.33024 c 5.5451,-0.0584 5.5796,-1.36639 0.2364,-8.95049 -2.7754,-3.93921 -5.2656,-6.79838 -5.5339,-6.3537 -0.6136,1.01712 -4.7025,14.75297 -4.7025,15.79716 0,0.42516 1.6875,0.4941 3.75,0.15319 2.0625,-0.34091 4.875,-0.63168 6.25,-0.64616 z"
       id="path1287" /></g></svg>
