<?xml version="1.0" encoding="UTF-8" standalone="no"?>
<!-- Created with Inkscape (http://www.inkscape.org/) -->

<svg
   version="1.1"
   id="svg336"
   width="1587.52"
   height="842.23999"
   viewBox="0 0 1587.52 842.23999"
   sodipodi:docname="veladero.svg"
   inkscape:version="1.2.2 (732a01da63, 2022-12-09)"
   xmlns:inkscape="http://www.inkscape.org/namespaces/inkscape"
   xmlns:sodipodi="http://sodipodi.sourceforge.net/DTD/sodipodi-0.dtd"
   xmlns="http://www.w3.org/2000/svg"
   xmlns:svg="http://www.w3.org/2000/svg">
  <defs
     id="defs340" />
  <sodipodi:namedview
     id="namedview338"
     pagecolor="#505050"
     bordercolor="#eeeeee"
     borderopacity="1"
     inkscape:showpageshadow="0"
     inkscape:pageopacity="0"
     inkscape:pagecheckerboard="0"
     inkscape:deskcolor="#505050"
     showgrid="false"
     inkscape:zoom="0.44503376"
     inkscape:cx="585.34885"
     inkscape:cy="468.50378"
     inkscape:window-width="1920"
     inkscape:window-height="991"
     inkscape:window-x="-9"
     inkscape:window-y="-9"
     inkscape:window-maximized="1"
     inkscape:current-layer="g342" />
  <g
     inkscape:groupmode="layer"
     inkscape:label="Image"
     id="g342">
    <path
       style="fill:#333333;stroke-width:0.32"
       d="m 1434.5459,793.98755 c -0.616,-0.059 -2.776,-0.2648 -4.8,-0.4566 -2.024,-0.1918 -5.84,-0.7016 -8.48,-1.133 -32.5895,-5.3245 -58.4048,-21.568 -72.9421,-45.8968 -6.9085,-11.5617 -10.846,-23.0014 -12.8809,-37.42329 -0.8258,-5.85264 -0.8212,-23.95619 0.01,-30.08 1.6587,-12.25331 4.2985,-21.2391 9.1661,-31.2 14.8665,-30.42269 43.6328,-48.69593 84.1692,-53.46694 5.8337,-0.68663 22.4977,-0.96691 28.6849,-0.4825 24.5374,1.92115 45.2743,8.66243 61.7846,20.08544 8.7581,6.05943 17.0927,14.31523 22.8803,22.664 12.111,17.47063 17.6764,39.12627 16.2971,63.41389 -0.929,16.35629 -3.9404,28.6795 -9.957,40.7461 -4.7674,9.5611 -9.6683,16.4108 -16.9539,23.6955 -4.7211,4.7205 -7.9291,7.3435 -13.6187,11.1354 -15.3313,10.2176 -35.8733,16.4569 -60.1573,18.2717 -4.049,0.3026 -20.4449,0.3925 -23.2,0.1271 z m 21.3832,-22.3579 c 6.9913,-1.3263 12.8947,-4.5595 18.31,-10.0284 5.3761,-5.4292 8.9146,-11.6123 11.9839,-20.9399 3.5416,-10.7633 5.1843,-20.84611 5.9537,-36.54349 0.7352,-14.99987 -0.3889,-33.41606 -2.7567,-45.1624 -2.7571,-13.67763 -8.0642,-24.61126 -15.6108,-32.16115 -7.744,-7.74746 -16.823,-10.93523 -29.6633,-10.4153 -9.7359,0.39424 -16.2095,2.7512 -22.672,8.25444 -4.6262,3.93952 -8.964,9.71081 -11.8788,15.80441 -6.2221,13.00778 -8.6546,27.63047 -8.6447,51.96647 0.01,22.81094 1.5907,35.57762 6.0648,48.96152 6.1643,18.44 18.5038,29.0878 35.6285,30.7439 3.7567,0.3633 10.0353,0.1364 13.2854,-0.4801 z M 96.625959,792.13995 c 0,-0.7578 -7.011558,-21.7235 -10.976717,-32.8221 C 74.667361,728.57915 57.252026,682.1705 45.481364,652.27786 37.557639,632.15485 27.040438,606.75921 23.960518,600.31194 c -1.042007,-2.18125 -1.894559,-4.05456 -1.894559,-4.16288 0,-0.10832 3.132,0.11555 6.96,0.49747 13.275088,1.32445 17.865984,1.55159 31.12,1.53965 13.137533,-0.0118 16.489296,-0.19261 27.454157,-1.48041 3.463795,-0.40685 5.957824,-0.56925 6.108051,-0.39776 0.139642,0.15942 0.801165,2.16185 1.470051,4.44985 9.614272,32.88666 21.868782,70.46957 31.198012,95.68 4.17417,11.27991 9.03393,23.26381 9.31859,22.97914 0.14438,-0.14439 1.71268,-4.19939 3.48513,-9.01114 6.58566,-17.87837 12.71594,-35.99056 22.27348,-65.808 2.76429,-8.624 5.88104,-18.344 6.92609,-21.6 2.00716,-6.25357 6.17209,-20.62784 7.12498,-24.59017 0.6481,-2.69492 -0.008,-2.5265 5.44146,-1.396 4.2331,0.87808 9.24659,1.34672 14.37558,1.34374 4.96205,-0.003 8.04316,-0.32675 14.17939,-1.49046 2.50523,-0.47511 4.63824,-0.78055 4.74002,-0.67879 0.1948,0.19482 -1.7698,4.77216 -13.22435,30.81168 -11.22596,25.51984 -15.45969,35.65559 -23.08623,55.26944 -2.61989,6.73783 -8.74985,22.40256 -13.62213,34.81056 -13.12073,33.41389 -19.53745,50.27279 -25.76008,67.67999 -1.44704,4.048 -2.72423,7.4615 -2.83818,7.5856 -0.11396,0.1241 -1.93448,-0.1201 -4.0456,-0.5426 -5.49787,-1.1003 -9.25902,-1.443 -15.83842,-1.443 -7.5611,0 -12.1828,0.5262 -18.320001,2.0858 -0.69445,0.1765 -0.88,0.1124 -0.88,-0.3037 z m 137.712031,-0.5323 c 0.48739,-2.6304 1.18106,-10.2558 1.49641,-16.4498 0.525,-10.312 0.76832,-94.82722 0.34778,-120.79999 -0.38194,-23.58873 -0.61056,-29.98147 -1.6479,-46.08 -0.35724,-5.544 -0.68076,-10.584 -0.71893,-11.2 -0.0677,-1.09257 -0.042,-1.11814 1.05061,-1.04457 2.03038,0.1367 18.27842,1.04576 24.8,1.38752 10.32433,0.54105 45.44554,0.71568 66.88,0.33254 19.33069,-0.34554 26.69622,-0.63363 36.42589,-1.42474 2.61024,-0.21222 4.78697,-0.31046 4.83718,-0.2183 0.0502,0.0922 -0.16845,2.11155 -0.48595,4.48755 -0.92861,6.94919 -0.70742,17.58179 0.51098,24.56304 l 0.18204,1.04301 -2.65507,-0.17904 c -1.46029,-0.0985 -7.11907,-0.48074 -12.57507,-0.8495 -8.0695,-0.54538 -14.08358,-0.69684 -32.24,-0.81178 l -22.32,-0.14131 v 26.74781 26.74777 h 1.89336 c 11.85849,0 56.56066,-1.88211 63.78658,-2.68566 0.65996,-0.0734 1.26681,-0.0253 1.34857,0.10707 0.0817,0.13226 -0.13424,2.52186 -0.47993,5.31024 -0.925,7.46045 -0.71821,16.35251 0.53833,23.15002 l 0.19994,1.08166 -2.36343,-0.20838 c -11.34358,-1.00016 -46.05267,-2.39466 -60.36342,-2.42522 l -4.56,-0.01 v 31.41226 31.4122 l 17.84,-0.2147 c 18.75437,-0.2257 26.85216,-0.4863 42.25258,-1.3597 5.15488,-0.2924 9.42627,-0.4773 9.4919,-0.4108 0.0657,0.066 -0.11069,1.7047 -0.39187,3.6407 -0.71607,4.9304 -0.72503,18.658 -0.015,22.88 0.28121,1.672 0.46656,3.0888 0.41184,3.1484 -0.0547,0.06 -3.31472,-0.1214 -7.24448,-0.4022 -21.39978,-1.529 -36.11683,-1.9003 -67.11594,-1.6935 -14.18399,0.095 -28.88509,0.332 -32.66909,0.5274 -7.26502,0.3753 -19.88141,1.1666 -24.12494,1.5132 l -2.52495,0.2063 0.20192,-1.0898 z m 163.49687,-0.1602 c 0.10256,-0.6873 0.54518,-3.4861 0.98361,-6.2196 2.04384,-12.7426 2.4801,-20.8278 2.6704,-49.4899 0.17178,-25.87116 -0.24147,-59.20185 -1.02291,-82.50009 -0.25382,-7.568 -0.60934,-19.016 -0.79002,-25.44 -0.37648,-13.38601 -0.84643,-22.52358 -1.4312,-27.82829 -0.2238,-2.03043 -0.36448,-3.77161 -0.31254,-3.86931 0.0519,-0.0977 2.00912,0.0733 4.34934,0.37991 10.33559,1.3542 16.9193,1.71251 31.14442,1.69504 14.07194,-0.0173 18.3569,-0.26634 28.08182,-1.63207 2.069,-0.29056 3.83754,-0.45261 3.93005,-0.36006 0.0926,0.0925 0.0243,1.73571 -0.15184,3.65152 -0.44589,4.8527 -0.88227,14.24067 -1.53782,33.08326 -0.47635,13.69245 -0.5601,24.96544 -0.54829,73.82723 0.008,31.71696 0.0875,57.74076 0.17734,57.83076 0.24224,0.2422 24.48144,-0.3803 36.44874,-0.9361 13.5871,-0.6311 19.31952,-1.0114 24.88643,-1.651 2.51155,-0.2886 4.62541,-0.4657 4.69751,-0.3936 0.0721,0.072 -0.10244,1.5691 -0.38775,3.3269 -0.74326,4.5784 -0.73849,18.7599 0.008,23.8168 0.29722,2.0136 0.48131,3.7202 0.40906,3.7924 -0.0722,0.072 -3.27277,-0.099 -7.11229,-0.3797 -22.1,-1.6179 -32.47421,-1.9076 -60.74096,-1.6962 -13.376,0.1 -27.848,0.3363 -32.16,0.5252 -9.59763,0.4205 -25.0695,1.2274 -28.9288,1.5088 l -2.84877,0.2077 z m 148.1504,0.6269 c 0.15724,-0.5423 13.66563,-30.9479 19.59971,-44.1165 5.53894,-12.2917 10.50438,-24.1312 25.43216,-60.63999 13.15587,-32.17529 15.99206,-39.42553 27.16387,-69.44 3.86291,-10.37808 8.60326,-22.7039 8.83136,-22.9631 0.0402,-0.0457 1.43814,0.19779 3.10653,0.54109 11.33853,2.33299 21.48685,2.34112 32.71504,0.0262 1.60163,-0.33021 2.9944,-0.50221 3.09504,-0.38228 0.10067,0.11994 0.87443,2.45008 1.71945,5.17808 5.60727,18.10205 22.81952,64.96903 38.27613,104.22135 14.50583,36.83775 23.09549,57.37675 33.11111,79.17245 2.19974,4.787 3.94172,8.7614 3.87113,8.832 -0.0706,0.071 -1.33267,-0.093 -2.80461,-0.3634 -6.31494,-1.1604 -11.86777,-1.5094 -26.83622,-1.6867 -16.80378,-0.199 -24.83443,0.2027 -40,2.0007 l -1.76,0.2086 -1.72899,-6.3525 c -2.4921,-9.1562 -5.7473,-19.8553 -8.11517,-26.6725 l -2.05622,-5.92 -5.7298,-0.2001 c -7.42905,-0.2593 -48.8248,-0.2591 -54.84726,3e-4 l -4.63747,0.1998 -1.66848,4.5124 c -1.81181,4.9 -3.32669,9.7887 -7.65805,24.7138 l -2.8168,9.7062 -0.97088,-0.2115 c -7.01824,-1.5288 -9.224,-1.8073 -15.69165,-1.9813 -4.36771,-0.1175 -7.72883,-0.049 -9.6,0.1968 -2.73299,0.3584 -8.25897,1.4126 -9.56608,1.825 -0.47888,0.1511 -0.57037,0.066 -0.43385,-0.4049 z m 104.47712,-63.8765 c -0.0836,-0.22 -5.30314,-14.36799 -11.59892,-31.43999 -6.29577,-17.072 -11.53478,-31.13936 -11.6422,-31.2608 -0.1074,-0.12147 -5.5136,13.55853 -12.01376,30.4 -6.50016,16.84144 -12.01008,31.08879 -12.24429,31.66079 l -0.42583,1.04 h 24.03853 c 19.09856,0 24.00727,-0.082 23.88647,-0.4 z m 113.36358,63.6702 c 0,-0.4014 0.28346,-5.7654 0.62989,-11.92 2.00691,-35.653 2.37958,-51.395 2.13987,-90.39019 -0.21907,-35.64342 -0.62829,-53.65878 -1.92493,-84.74685 -0.20067,-4.81078 -0.33293,-8.77868 -0.29395,-8.81756 0.039,-0.0389 2.19898,0.18886 4.8,0.50604 17.63987,2.15117 35.98192,2.3994 54.48912,0.73741 10.21654,-0.9175 16.78346,-1.20963 27.36,-1.21718 29.34496,-0.0208 47.58643,4.15689 65.60563,15.02557 5.78439,3.48896 9.88714,6.63916 14.50947,11.14076 12.77652,12.44279 21.628,29.05069 25.32519,47.51722 1.58387,7.9112 2.05494,13.0096 2.05622,22.25459 0,8.684 -0.29984,12.52195 -1.58304,20.18067 -4.53177,27.04802 -18.57833,50.60882 -37.89097,63.55592 -8.68231,5.8206 -24.89357,12.7122 -34.79575,14.7922 -8.31184,1.7459 -10.92176,1.935 -26.66675,1.9321 -14.23702,0 -16.23574,-0.091 -30.24,-1.3321 -4.72842,-0.4191 -9.81462,-0.5411 -22.88,-0.5487 -16.40653,-0.01 -17.06781,0.014 -28.2353,1.0251 -6.2894,0.5691 -11.6534,1.0348 -11.92,1.0348 -0.29126,0 -0.4847,-0.2912 -0.4847,-0.7298 z m 92.16,-23.0851 c 6.1785,-1.1872 11.0529,-3.0513 15.26269,-5.8368 6.65085,-4.4007 12.0888,-12.2256 15.31974,-22.0441 3.47443,-10.5584 4.88675,-22.60115 5.16423,-44.03539 0.18332,-14.16195 -0.10112,-21.27315 -1.19482,-29.8688 -2.51085,-19.73344 -9.09053,-33.87795 -19.07261,-41.00102 -2.74678,-1.96003 -7.43267,-4.08864 -10.78707,-4.9001 -6.24845,-1.51152 -8.85258,-1.75907 -18.61216,-1.76921 -5.104,-0.005 -10.08886,0.1063 -11.07747,0.24803 l -1.79744,0.25773 -0.19808,2.94227 c -0.7824,11.62173 -0.92531,28.42656 -0.72973,85.80448 0.16259,47.68641 0.2903,60.51941 0.60442,60.73311 0.21907,0.1491 5.7983,0.2084 12.3983,0.1318 9.31789,-0.1082 12.60794,-0.2562 14.72,-0.662 z m 130.56,23.1931 c 0,-0.3926 0.21261,-2.4653 0.47248,-4.606 1.09898,-9.0536 1.19114,-13.8272 1.35104,-69.97084 0.1961,-68.86669 -0.0742,-85.2009 -1.83283,-110.7714 -0.80893,-11.7615 -0.83027,-10.84822 0.24931,-10.66288 1.30246,0.22356 23.56934,1.3874 33.52004,1.75197 10.7393,0.39351 38.8605,0.39709 60.6399,0.008 16.4812,-0.29462 25.5221,-0.66937 34.24,-1.41926 2.552,-0.21952 4.6899,-0.36167 4.7508,-0.31587 0.061,0.0458 -0.1285,1.85737 -0.4209,4.02579 -1.0639,7.88918 -0.9595,15.11795 0.3572,24.724 l 0.2013,1.46905 -2.6842,-0.18176 c -1.4763,-0.1 -7.0762,-0.48224 -12.4442,-0.84947 -7.9514,-0.54397 -13.9257,-0.69456 -32.24,-0.81261 l -22.48,-0.14492 v 26.78838 26.78838 l 8.56,-0.21372 c 21.198,-0.52928 38.1284,-1.25239 52.56,-2.24487 3.256,-0.2239 5.9789,-0.35712 6.0508,-0.29603 0.072,0.0611 -0.1398,2.23619 -0.4706,4.83357 -0.7729,6.06912 -0.7725,14.04016 0,20.01955 0.3143,2.42934 0.5005,4.48794 0.4138,4.57466 -0.087,0.0867 -2.2991,0.005 -4.9163,-0.18096 -16.4135,-1.16791 -43.2468,-2.2144 -57.4787,-2.24167 l -4.719,-0.009 v 31.41231 31.4124 l 18,-0.2148 c 18.8498,-0.2249 26.9807,-0.4881 42.2494,-1.3673 5.0653,-0.2917 9.2873,-0.4526 9.3823,-0.3575 0.095,0.095 -0.085,2.1667 -0.4012,4.6038 -0.7758,5.9883 -0.7775,15.8326 0,21.0282 0.3111,2.0884 0.5,3.8628 0.4197,3.943 -0.08,0.08 -3.2915,-0.079 -7.1362,-0.3544 -21.2352,-1.52 -36.2414,-1.897 -67.1503,-1.6871 -14.2559,0.097 -28.9439,0.3318 -32.6399,0.5221 -7.9402,0.409 -21.18222,1.2364 -24.24004,1.5147 -2.07981,0.1892 -2.16,0.17 -2.16,-0.5172 z m 163.19994,0.2926 c 0,-0.2264 0.2848,-3.881 0.6328,-8.1212 0.6886,-8.3889 1.366,-19.3395 2.0011,-32.3496 0.2745,-5.6229 0.396,-18.4861 0.3749,-39.67999 -0.037,-37.5239 -0.5426,-64.25005 -1.8934,-100.16 -0.6246,-16.60413 -0.6139,-16.00707 -0.2845,-15.94925 1.2689,0.22276 13.3488,1.45024 16.9291,1.72023 2.464,0.18582 9.304,0.42243 15.2,0.52579 11.4269,0.20029 20.1038,-0.11805 32.16,-1.17994 20.0926,-1.76972 38.1351,-1.45014 53.9213,0.95511 25.7289,3.92013 42.796,16.82118 47.4813,35.89117 1.2698,5.16828 1.5944,8.26233 1.5735,14.99689 -0.028,8.86237 -1.2053,14.95888 -4.1296,21.37568 -3.083,6.76522 -9.1323,13.19431 -16.9332,17.99623 -5.0721,3.1222 -13.1519,6.396 -19.3533,7.84169 -1.32,0.30771 -2.5163,0.66205 -2.6585,0.78743 -0.243,0.21427 12.9091,22.35321 23.1919,39.03896 10.6282,17.2461 25.4734,40.2449 33.5448,51.9688 l 3.2832,4.7689 -1.8807,-0.2217 c -11.9422,-1.4073 -24.1567,-2.1153 -36.4407,-2.1123 -11.9969,0 -22.6034,0.667 -33.793,2.1156 l -1.473,0.1907 -5.8511,-11.315 c -17.577,-33.9911 -24.6571,-46.9658 -35.8939,-65.77755 -4.0592,-6.79568 -4.9076,-8.05177 -5.2203,-7.72947 -0.06,0.0616 0.019,10.69603 0.1752,23.63202 0.2802,23.2032 0.5632,34.5081 1.3,51.9235 0.2068,4.8859 0.306,8.9533 0.2205,9.0387 -0.085,0.085 -3.2398,-0.1969 -7.0098,-0.6275 -11.4511,-1.3076 -16.3569,-1.5446 -28.3601,-1.3697 -10.3128,0.1503 -20.0311,0.8266 -29.2945,2.0386 -1.1287,0.1477 -1.52,0.093 -1.52,-0.2128 z m 81.9763,-106.38128 c 6.1841,-0.9322 10.4013,-2.90941 14.0861,-6.60426 2.1402,-2.14592 2.7146,-2.98586 4.3887,-6.41718 3.0924,-6.33834 4.1839,-11.8617 4.187,-21.18701 0,-11.16621 -1.7449,-17.50781 -6.5448,-23.73555 -2.7014,-3.50506 -6.9922,-6.46362 -11.0904,-7.64704 -4.2447,-1.22573 -14.8432,-1.86672 -20.716,-1.25287 l -1.9669,0.20557 v 33.37315 33.37319 l 0.88,0.13328 c 2.3689,0.35888 13.8946,0.19308 16.7763,-0.24128 z M 247.18596,568.43662 c -0.176,-0.0609 -1.328,-0.213 -2.56,-0.33799 -1.232,-0.12499 -2.09403,-0.28045 -1.91562,-0.34547 0.42722,-0.15571 281.59165,-31.1553 282.57671,-31.1553 0.47011,0 0.70432,0.1522 0.61561,0.4 -0.50588,1.41287 -2.07171,24.4632 -2.07596,30.56 v 1.04 l -138.16,-0.0253 c -75.988,-0.0138 -138.304,-0.0751 -138.48,-0.136 z m 319.84163,-2.31876 c 0.003,-3.82086 0.59607,-14.0894 1.1329,-19.6 6.01856,-61.78102 38.08579,-118.6983 87.98547,-156.16854 47.4041,-35.59632 106.28589,-50.73565 165.44,-42.53696 39.09907,5.41907 76.57286,21.57523 107.75206,46.45536 21.34432,17.03216 38.67338,36.94275 53.0977,61.00765 3.72758,6.21897 10.49168,19.58979 13.36104,26.41133 10.87204,25.84668 16.47074,51.67558 17.50364,80.75116 l 0.2188,6.16 H 790.27255 567.02596 l 0.003,-2.48 z m 489.59531,1.92324 c -0.033,-6.16762 -1.1049,-23.02663 -1.8614,-29.28324 -0.2524,-2.08761 -0.2377,-2.16 0.4384,-2.16 0.3848,0 64.0302,6.984 141.4343,15.52 77.404,8.536 140.8915,15.53655 141.0832,15.5568 0.1917,0.0202 -0.2275,0.19092 -0.9315,0.3793 -0.8973,0.2401 -42.9725,0.3736 -140.72,0.44643 -132.9295,0.0991 -139.4401,0.0776 -139.443,-0.45929 z m -6.5279,-57.44324 c -4.1099,-18.63913 -10.9721,-38.45955 -19.5556,-56.48342 -1.1953,-2.50989 -2.1147,-4.6215 -2.0433,-4.69245 0.071,-0.071 1.6419,-0.004 3.4899,0.14947 4.6388,0.38452 14.4526,0.3712 18.8799,-0.0256 19.2932,-1.72918 34.8138,-8.0774 50.72,-20.7454 5.074,-4.04103 17.7997,-16.76941 26.9148,-26.92029 16.4282,-18.29523 23.802,-25.23046 34.2052,-32.17056 12.2461,-8.16954 24.637,-12.56227 39.3034,-13.93354 5.2536,-0.4912 19.1605,-0.21081 24.2166,0.48823 19.8473,2.74409 39.5666,8.6192 63.36,18.87731 6.3775,2.74957 15.4109,6.95206 15.2625,7.10042 -0.063,0.0631 -1.903,-0.54314 -4.0886,-1.34727 -10.0023,-3.68013 -23.9895,-7.54819 -33.4139,-9.24038 -20.9141,-3.7553 -38.4101,-2.99562 -54.56,2.36899 -20.9777,6.96826 -37.5604,20.33821 -56.7742,45.77453 -4.9457,6.54748 -7.8731,10.6727 -17.1449,24.16 -15.531,22.59248 -22.8586,32.0888 -32.2513,41.7966 -15.5611,16.08327 -32.0448,25.65876 -50.9377,29.59008 -2.0306,0.42253 -3.8435,0.76938 -4.0288,0.77079 -0.1852,0 -0.8846,-2.48147 -1.554,-5.51747 z M 532.94596,489.32638 c -2.62918,-3.33802 -11.21245,-12.12487 -14.72,-15.06912 -10.8415,-9.10039 -21.80874,-14.99703 -34.25955,-18.41997 -8.08199,-2.22186 -14.63056,-3.19203 -25.10045,-3.71866 -7.45872,-0.37517 -10.68515,-0.30233 -30.56,0.69011 -15.57408,0.77767 -31.54842,0.70074 -38.24,-0.18416 -20.08506,-2.65606 -34.95149,-9.51532 -49.57098,-22.87171 -17.44022,-15.93337 -34.24804,-44.70592 -47.87501,-81.955 -1.19115,-3.256 -2.23376,-6.136 -2.3169,-6.4 -0.0831,-0.264 1.94022,3.696 4.49637,8.8 10.16663,20.30028 18.71232,32.76406 30.61238,44.64774 13.66742,13.64864 28.74515,21.96192 46.63545,25.71296 7.90899,1.65827 11.54883,1.95961 23.61869,1.95536 16.54138,-0.006 23.23856,-0.82871 56,-6.88106 30.8225,-5.69417 41.42531,-6.91782 57.28,-6.61069 5.37088,0.10407 10.43411,0.3752 12.64,0.67693 12.36771,1.69155 23.7169,5.27795 33.10877,10.46253 4.16768,2.30067 9.75251,5.93507 9.96297,6.48352 0.0822,0.21421 -0.98371,2.25318 -2.36867,4.53107 -10.22294,16.81415 -19.16448,36.35261 -25.36301,55.42163 -0.92966,2.86 -1.7735,5.19239 -1.87516,5.18308 -0.1017,-0.009 -1.0489,-1.11386 -2.1049,-2.45456 z M 492.52487,292.10514 c -48.98361,-61.10047 -89.01561,-111.12832 -88.96,-111.17301 0.13952,-0.11213 222.1576,177.74881 222.27795,178.06913 0.0533,0.14182 -1.38672,1.45715 -3.2,2.92297 -12.20947,9.86999 -25.05635,22.43354 -35.10339,34.32925 -2.2184,2.62663 -4.46547,5.26339 -4.99347,5.85952 l -0.96,1.08391 z m 504.14639,108.62617 c -8.8038,-11.24624 -24.23384,-26.72468 -37.73845,-37.85677 -2.42723,-2.0008 -4.37123,-3.75024 -4.32,-3.88765 0.11686,-0.31341 222.13649,-178.16596 222.27339,-178.05583 0.1384,0.11133 -177.81404,222.05125 -178.10554,222.13093 -0.1291,0.0353 -1.0783,-1.01353 -2.1094,-2.33068 z m -64.05292,-56.91552 c -9.57705,-6.15744 -25.05913,-14.39514 -35.83238,-19.06567 -5.09232,-2.20768 -13.06448,-5.32589 -18.4,-7.19696 -2.376,-0.83321 -4.43376,-1.61795 -4.57277,-1.7439 -0.13904,-0.12592 1.08439,-1.368 2.71869,-2.76016 6.40042,-5.4521 13.76682,-13.3803 18.40746,-19.81123 5.62611,-7.7966 10.74694,-18.55671 13.17638,-27.68683 3.8665,-14.53066 4.62042,-28.11719 3.01837,-54.39317 -0.76807,-12.59744 -0.77059,-31.88955 -0.005,-38.08 2.28624,-18.48585 7.89437,-32.24995 18.64473,-45.76 3.22167,-4.0487 11.86413,-12.51183 16.77216,-16.42413 13.5426,-10.7951 31.33239,-20.823538 53.27998,-30.034878 5.67804,-2.38304 21.90204,-8.58099 22.46194,-8.58099 0.1384,0 -3.7789,2.00439 -8.7052,4.45419 -9.4354,4.69226 -15.21144,7.94441 -22.07672,12.43022 -15.01846,9.81317 -26.95097,21.151418 -35.10384,33.355588 -3.09961,4.63987 -7.52022,13.2825 -9.34739,18.27478 -4.40809,12.04413 -6.24102,24.58469 -5.84128,39.96522 0.35523,13.66838 1.62688,23.20926 6.93069,52 2.81533,15.28235 3.81325,21.13331 4.77568,28 4.39222,31.33739 2.05328,53.164 -7.80166,72.80384 -2.82512,5.63017 -7.36474,12.96739 -8.00916,12.94486 -0.17766,-0.006 -2.19846,-1.21706 -4.49065,-2.69078 z M 664.11575,332.47566 c 0.9169,-8.12333 0.78912,-20.03645 -0.29901,-27.87779 -2.11862,-15.26753 -7.8103,-29.07341 -17.17072,-41.64976 -6.29216,-8.45395 -13.51555,-15.91814 -28.53046,-29.48159 -14.40502,-13.0125 -20.23798,-18.70276 -25.85184,-25.21939 -11.16877,-12.96483 -18.13603,-27.24501 -20.72234,-42.47273 -1.90902,-11.23991 -1.68812,-24.66504 0.63008,-38.29653 3.08672,-18.15049 10.29069,-39.923958 21.01719,-63.522958 2.34336,-5.15548 4.58813,-9.68189 4.04534,-8.15704 -5.49936,15.44907 -9.24339,28.79044 -10.96288,39.06465 -1.66131,9.926508 -1.80582,11.766118 -1.7952,22.855348 0.009,9.20021 0.0935,10.93134 0.73395,15.00582 4.38,27.86462 18.79216,48.86708 49.3361,71.89613 5.42368,4.08927 11.96832,8.71919 24.16,17.09171 24.6807,16.94924 34.32192,24.52542 44.64867,35.08542 8.61283,8.80736 14.93181,17.49634 19.5088,26.82574 3.62445,7.38784 5.5392,12.84261 7.22045,20.56974 1.15578,5.31212 1.25834,4.99411 -1.82419,5.65651 -1.43347,0.30803 -5.71747,1.42624 -9.52,2.48493 -17.18355,4.78409 -33.40567,11.087 -49.43027,19.2055 l -5.39658,2.73405 z m 94.02967,-29.37998 c 0.0951,-0.8458 7.13555,-64.64734 15.64556,-141.7812 8.50999,-77.133858 15.52989,-140.071828 15.59981,-139.862148 0.14544,0.43634 31.3304,282.625818 31.24592,282.741188 -0.0304,0.0416 -2.20534,-0.13379 -4.83309,-0.38978 -16.95248,-1.65151 -34.16246,-1.64825 -51.33766,0.01 -2.728,0.26334 -5.30499,0.55559 -5.72669,0.64943 -0.7432,0.16542 -0.76137,0.12358 -0.59385,-1.36717 z"
       id="path463" />
  </g>
</svg>
