<?xml version="1.0" encoding="UTF-8" standalone="no"?>
<!-- Created with Inkscape (http://www.inkscape.org/) -->

<svg
   version="1.1"
   id="svg336"
   width="1587.52"
   height="842.23999"
   viewBox="0 0 1587.52 842.23999"
   sodipodi:docname="veladero.svg"
   inkscape:version="1.2.2 (732a01da63, 2022-12-09)"
   xmlns:inkscape="http://www.inkscape.org/namespaces/inkscape"
   xmlns:sodipodi="http://sodipodi.sourceforge.net/DTD/sodipodi-0.dtd"
   xmlns="http://www.w3.org/2000/svg"
   xmlns:svg="http://www.w3.org/2000/svg">
  <defs
     id="defs340" />
  <sodipodi:namedview
     id="namedview338"
     pagecolor="#505050"
     bordercolor="#eeeeee"
     borderopacity="1"
     inkscape:showpageshadow="0"
     inkscape:pageopacity="0"
     inkscape:pagecheckerboard="0"
     inkscape:deskcolor="#505050"
     showgrid="false"
     inkscape:zoom="0.44503376"
     inkscape:cx="587.59587"
     inkscape:cy="468.50378"
     inkscape:window-width="1920"
     inkscape:window-height="991"
     inkscape:window-x="-9"
     inkscape:window-y="-9"
     inkscape:window-maximized="1"
     inkscape:current-layer="g342" />
  <g
     inkscape:groupmode="layer"
     inkscape:label="Image"
     id="g342">
    <path
       style="fill:#333333;stroke-width:0.316278"
       d="m 1431.5978,809.71852 c -0.6088,-0.0583 -2.7437,-0.26173 -4.7441,-0.45129 -2.0005,-0.18957 -5.7721,-0.69343 -8.3814,-1.11981 -32.2104,-5.26257 -57.7254,-21.31713 -72.0936,-45.36292 -6.8282,-11.42723 -10.7199,-22.73386 -12.731,-36.98798 -0.8162,-5.78457 -0.8117,-23.67754 0.015,-29.73011 1.6394,-12.11078 4.2486,-20.99205 9.0595,-30.83708 14.6935,-30.06881 43.1253,-48.12949 83.1901,-52.845 5.7659,-0.67865 22.236,-0.95567 28.3513,-0.47689 24.252,1.8988 44.7476,8.56167 61.0658,19.85181 8.6563,5.98893 16.8939,14.14871 22.6141,22.40037 11.9702,17.2674 17.4708,38.67115 16.1076,62.67624 -0.9182,16.16603 -3.8945,28.3459 -9.8411,40.27214 -4.7121,9.44989 -9.556,16.2199 -16.7567,23.41987 -4.6662,4.66559 -7.8369,7.25807 -13.4603,11.00587 -15.1529,10.09874 -35.456,16.26547 -59.4575,18.05915 -4.002,0.29909 -20.2071,0.38794 -22.9301,0.12569 z m 21.1345,-22.09783 c 6.91,-1.31088 12.7447,-4.50646 18.097,-9.91175 5.3136,-5.36605 8.811,-11.47721 11.8446,-20.69632 3.5004,-10.6381 5.124,-20.60363 5.8844,-36.11841 0.7267,-14.82539 -0.3844,-33.02735 -2.7247,-44.63706 -2.725,-13.51853 -7.9704,-24.32499 -15.4291,-31.78705 -7.654,-7.65734 -16.6274,-10.80803 -29.3183,-10.29415 -9.6226,0.38965 -16.0209,2.7192 -22.4082,8.15842 -4.5724,3.8937 -8.8598,9.59785 -11.7407,15.62057 -6.1498,12.85648 -8.5539,27.30908 -8.5441,51.362 0.015,22.54559 1.5722,35.16377 5.9942,48.39198 6.0927,18.22551 18.2886,28.74946 35.214,30.38628 3.7131,0.35908 9.9186,0.13483 13.1309,-0.47451 z M 109.24079,807.89242 c 0,-0.749 -6.93,-21.47082 -10.849031,-32.44031 C 87.537621,745.07097 70.324853,699.20215 58.691118,669.65723 50.859568,649.76829 40.464695,624.66804 37.420611,618.29578 c -1.029895,-2.15588 -1.872532,-4.0074 -1.872532,-4.11446 0,-0.10711 3.095573,0.11416 6.879046,0.49169 13.120662,1.30904 17.65816,1.53353 30.757999,1.52174 12.984727,-0.012 16.29749,-0.19038 27.134806,-1.4632 3.42352,-0.40211 5.88853,-0.56263 6.03701,-0.39312 0.13797,0.15755 0.79185,2.1367 1.45295,4.39808 9.50244,32.50411 21.61441,69.64985 30.83511,94.56704 4.12561,11.14869 8.92886,22.99319 9.21019,22.71184 0.14277,-0.14277 1.69277,-4.15055 3.4446,-8.90632 6.50905,-17.67041 12.56802,-35.57192 22.01439,-65.04252 2.73212,-8.52367 5.81262,-18.13062 6.84552,-21.34874 1.9838,-6.18082 6.1003,-20.3879 7.04209,-24.30413 0.64056,-2.66358 -0.007,-2.49711 5.37817,-1.37976 4.18387,0.86787 9.13903,1.33106 14.20836,1.3281 4.90433,-0.003 7.94959,-0.32295 14.01445,-1.47311 2.47609,-0.46959 4.58429,-0.77148 4.68488,-0.6709 0.19255,0.19255 -1.74921,4.71665 -13.07052,30.45328 -11.09537,25.22298 -15.27985,35.24083 -22.81769,54.62652 -2.5894,6.65946 -8.64806,22.14199 -13.46367,34.40565 -12.9681,33.02521 -19.31018,49.688 -25.46042,66.89273 -1.43021,4.0009 -2.69255,7.37469 -2.80518,7.49736 -0.11265,0.12269 -1.91197,-0.11865 -3.99853,-0.5363 -5.43392,-1.08749 -9.15133,-1.42621 -15.65419,-1.42621 -7.47314,0 -12.04108,0.52009 -18.1069,2.06154 -0.68637,0.17444 -0.86976,0.11116 -0.86976,-0.30016 z m 136.11014,-0.52611 c 0.48172,-2.5998 1.16731,-10.1365 1.479,-16.25845 0.51889,-10.19205 0.75938,-93.72418 0.34374,-119.39483 -0.3775,-23.31434 -0.60346,-29.63272 -1.62874,-45.54399 -0.35308,-5.47952 -0.67284,-10.46089 -0.71057,-11.06973 -0.067,-1.07985 -0.0415,-1.10512 1.03839,-1.03241 2.00676,0.13513 18.0658,1.0336 24.51153,1.37138 10.20423,0.53475 44.9169,0.70735 66.10204,0.32866 19.10583,-0.34151 26.38569,-0.62625 36.00218,-1.40815 2.57988,-0.20976 4.73129,-0.30685 4.7809,-0.21577 0.0496,0.0911 -0.16648,2.08699 -0.48029,4.43536 -0.91781,6.86835 -0.69918,17.37727 0.50504,24.2773 l 0.17992,1.03089 -2.62419,-0.17695 c -1.4433,-0.0974 -7.03625,-0.47516 -12.42879,-0.83963 -7.97564,-0.53904 -13.91976,-0.68874 -31.86498,-0.80234 l -22.06037,-0.13962 v 26.43667 26.43665 h 1.87133 c 11.72056,0 55.90275,-1.86022 63.04462,-2.65442 0.65227,-0.0725 1.25207,-0.025 1.33288,0.10576 0.0807,0.13078 -0.13273,2.49252 -0.47435,5.24847 -0.91425,7.37366 -0.70986,16.16229 0.53207,22.88073 l 0.19761,1.06908 -2.33595,-0.20595 c -11.21162,-0.98854 -45.51696,-2.36681 -59.66126,-2.39701 l -4.50695,-0.0105 v 31.04688 31.04679 l 17.63248,-0.2122 c 18.53621,-0.22306 26.53982,-0.48064 41.76109,-1.34388 5.09492,-0.28899 9.31662,-0.47174 9.38149,-0.40602 0.065,0.0652 -0.10936,1.68487 -0.38731,3.59836 -0.70774,4.87303 -0.71659,18.44096 -0.015,22.61384 0.27793,1.65256 0.46112,3.05288 0.40704,3.11179 -0.0541,0.0593 -3.27617,-0.12 -7.16021,-0.39753 -21.15085,-1.51121 -35.69671,-1.8782 -66.33524,-1.6738 -14.01899,0.0939 -28.54909,0.32814 -32.28907,0.52127 -7.18052,0.37094 -19.65015,1.15302 -23.84432,1.4956 l -2.49558,0.2039 0.19958,-1.07713 z m 161.59504,-0.15835 c 0.10142,-0.6793 0.53885,-3.44554 0.97218,-6.14725 2.02006,-12.59438 2.45124,-20.58552 2.63933,-48.91422 0.16978,-25.57022 -0.23867,-58.51321 -1.01102,-81.54044 -0.25086,-7.47996 -0.60225,-18.7948 -0.78082,-25.14408 -0.37211,-13.23029 -0.83658,-22.26157 -1.41456,-27.50459 -0.22119,-2.0068 -0.36024,-3.72773 -0.3089,-3.82429 0.0512,-0.0966 1.98576,0.0725 4.29875,0.37549 10.21536,1.33845 16.72249,1.69258 30.78215,1.67532 13.90824,-0.0171 18.14335,-0.26324 27.75516,-1.61308 2.04494,-0.28718 3.79291,-0.44735 3.88433,-0.35588 0.0915,0.0914 0.024,1.71552 -0.15007,3.60905 -0.44071,4.79625 -0.872,14.07501 -1.51993,32.69843 -0.47082,13.53318 -0.55359,24.67504 -0.54192,72.96846 0.007,31.34802 0.0864,57.06911 0.17528,57.15806 0.23942,0.23938 24.19668,-0.37588 36.02477,-0.92521 13.42904,-0.62375 19.09478,-0.99963 24.59694,-1.63179 2.48233,-0.28525 4.57161,-0.46028 4.64287,-0.38902 0.0713,0.0712 -0.10127,1.55084 -0.38324,3.2882 -0.73461,4.52513 -0.7299,18.54167 0.007,23.53975 0.29376,1.99018 0.47572,3.67694 0.4043,3.74829 -0.0713,0.0712 -3.2347,-0.0978 -7.02955,-0.37528 -21.84294,-1.59908 -32.09647,-1.88542 -60.03442,-1.67647 -13.22041,0.0989 -27.52407,0.33238 -31.7859,0.51908 -9.486,0.41562 -24.77789,1.21313 -28.5923,1.49126 l -2.81564,0.20528 z m 146.42709,0.61962 c 0.15541,-0.536 13.50667,-30.58791 19.37173,-43.60333 5.47451,-12.14873 10.38219,-23.85051 25.13633,-59.93462 13.00284,-31.80102 15.80603,-38.96693 26.8479,-68.63226 3.81797,-10.25737 8.50318,-22.4398 8.72862,-22.69599 0.0397,-0.0452 1.42142,0.19549 3.07039,0.5348 11.20665,2.30585 21.23692,2.31388 32.3345,0.0259 1.583,-0.32637 2.95958,-0.49637 3.05903,-0.37783 0.0995,0.1185 0.86427,2.42157 1.69946,5.11785 5.54205,17.89147 22.55407,64.21329 37.8309,103.00902 14.3371,36.40926 22.82684,56.70934 32.72596,78.25151 2.17415,4.73132 3.89585,8.65948 3.82609,8.72926 -0.0698,0.0703 -1.31717,-0.092 -2.77199,-0.35916 -6.24148,-1.14691 -11.72972,-1.49186 -26.52406,-1.66709 -16.60831,-0.19668 -24.54555,0.20034 -39.53471,1.97743 l -1.73952,0.20618 -1.70888,-6.27862 c -2.46312,-9.0497 -5.68045,-19.62434 -8.02077,-26.36224 l -2.0323,-5.85114 -5.66315,-0.19777 c -7.34264,-0.25628 -48.25687,-0.25609 -54.20927,2.9e-4 l -4.58353,0.19748 -1.64907,4.45991 c -1.79073,4.843 -3.288,9.67484 -7.56896,24.42634 l -2.78405,9.59328 -0.95958,-0.20904 c -6.9366,-1.51102 -9.1167,-1.78627 -15.50913,-1.95825 -4.31691,-0.1161 -7.63893,-0.0484 -9.48833,0.19451 -2.7012,0.35423 -8.16289,1.39617 -9.4548,1.80377 -0.47332,0.14936 -0.56374,0.0652 -0.42881,-0.40018 z M 656.63488,744.6941 c -0.0825,-0.21745 -5.24144,-14.20087 -11.46399,-31.07428 -6.22254,-16.87342 -11.4006,-30.77714 -11.50678,-30.89716 -0.10622,-0.12 -5.44947,13.40081 -11.87401,30.04638 -6.42455,16.64554 -11.87037,30.72715 -12.10186,31.2925 l -0.42088,1.0279 h 23.75891 c 18.87641,0 23.72801,-0.0811 23.60861,-0.39534 z m 112.04492,62.92958 c 0,-0.39674 0.28017,-5.69834 0.62257,-11.78134 1.98357,-35.23829 2.3519,-50.79717 2.11498,-89.33877 -0.21653,-35.2288 -0.62098,-53.03461 -1.90254,-83.76106 -0.19834,-4.75482 -0.32906,-8.67657 -0.29053,-8.71499 0.0385,-0.0385 2.1734,0.18666 4.74417,0.50016 17.43468,2.12614 35.56337,2.37148 53.85529,0.72883 10.0977,-0.90683 16.58823,-1.19557 27.04174,-1.20303 29.00362,-0.0205 47.0329,4.10854 64.8425,14.8508 5.7171,3.44837 9.77212,6.56193 14.34069,11.01117 12.6279,12.29805 21.37642,28.71277 25.0306,46.96449 1.56545,7.81916 2.03104,12.85826 2.0323,21.99571 0,8.58299 -0.29635,12.3763 -1.56462,19.94593 -4.47906,26.7334 -18.36222,50.02013 -37.45022,62.81662 -8.58132,5.7529 -24.604,12.56434 -34.391,14.62015 -8.21515,1.72558 -10.79471,1.91248 -26.35656,1.90962 -14.07141,0 -16.04688,-0.0899 -29.88823,-1.31661 -4.67342,-0.41422 -9.70046,-0.5348 -22.61386,-0.54232 -16.2157,-0.0105 -16.86928,0.0135 -27.90687,1.01318 -6.21624,0.56248 -11.51784,1.02276 -11.78134,1.02276 -0.28787,0 -0.47907,-0.28781 -0.47907,-0.7213 z m 91.08799,-22.81657 c 6.10662,-1.17339 10.92432,-3.01581 15.08514,-5.76891 6.57349,-4.34951 11.94818,-12.08338 15.14155,-21.78768 3.434,-10.43559 4.82991,-22.33825 5.10416,-43.52316 0.18118,-13.99722 -0.0999,-21.0257 -1.18093,-29.52136 -2.48165,-19.5039 -8.98478,-33.48388 -18.85075,-40.5241 -2.71483,-1.93723 -7.34622,-4.04108 -10.6616,-4.84309 -6.17576,-1.49394 -8.7496,-1.73862 -18.39565,-1.74864 -5.04464,-0.004 -9.97152,0.10502 -10.94862,0.24514 l -1.77653,0.25474 -0.19577,2.90804 c -0.77331,11.48655 -0.91456,28.09591 -0.72125,84.80639 0.1607,47.13173 0.28693,59.81544 0.59739,60.02666 0.21653,0.14741 5.73086,0.20597 12.25408,0.13033 9.2095,-0.10696 12.46129,-0.25322 14.54878,-0.6543 z m 129.0413,22.9233 c 0,-0.38803 0.21014,-2.43661 0.46698,-4.55241 1.0862,-8.94829 1.17729,-13.66637 1.33533,-69.15694 0.19382,-68.06562 -0.0733,-84.20982 -1.81152,-109.48288 -0.7995,-11.62469 -0.8206,-10.72203 0.24642,-10.53884 1.28731,0.22095 23.2952,1.37126 33.1301,1.73158 10.6144,0.38894 38.4085,0.39248 59.9346,0.007 16.2895,-0.2912 25.2252,-0.66158 33.8416,-1.40275 2.5225,-0.21697 4.6354,-0.35746 4.6956,-0.3122 0.06,0.0452 -0.1273,1.83577 -0.416,3.97897 -1.0515,7.79741 -0.9483,14.94209 0.3531,24.4364 l 0.1989,1.45196 -2.6529,-0.17965 c -1.4591,-0.0989 -6.9939,-0.47662 -12.2995,-0.83958 -7.8589,-0.53764 -13.7637,-0.68649 -31.865,-0.80316 l -22.2185,-0.14321 v 26.47677 26.47676 l 8.4604,-0.21123 c 20.9515,-0.52312 37.6849,-1.23782 51.9487,-2.21875 3.218,-0.22129 5.9093,-0.35297 5.9803,-0.29258 0.072,0.0604 -0.1378,2.21016 -0.465,4.77733 -0.764,5.99853 -0.7635,13.87685 0,19.78669 0.3106,2.40108 0.4947,4.43573 0.409,4.52144 -0.085,0.0857 -2.2724,0.004 -4.8591,-0.17886 -16.2226,-1.15432 -42.7438,-2.18864 -56.8102,-2.21559 l -4.6641,-0.009 v 31.04692 31.04701 l 17.7906,-0.2123 c 18.6306,-0.22228 26.6669,-0.48242 41.758,-1.35139 5.0064,-0.28832 9.1793,-0.44734 9.2731,-0.35335 0.094,0.0939 -0.084,2.14149 -0.3965,4.55024 -0.7668,5.91865 -0.7684,15.64844 0,20.78361 0.3075,2.0641 0.4942,3.81787 0.4148,3.89713 -0.079,0.0791 -3.2532,-0.078 -7.0531,-0.35028 -20.9882,-1.50231 -35.8199,-1.87493 -66.3692,-1.66747 -14.0901,0.0959 -28.6073,0.32794 -32.2603,0.51602 -7.8478,0.40424 -20.93583,1.22203 -23.95808,1.49709 -2.05562,0.187 -2.13487,0.16802 -2.13487,-0.51119 z m 161.30161,0.28921 c 0,-0.22377 0.2814,-3.83586 0.6254,-8.02674 0.6806,-8.29132 1.3502,-19.11454 1.9779,-31.97331 0.2713,-5.55749 0.3913,-18.27106 0.3705,-39.21842 -0.036,-37.08742 -0.5363,-63.50269 -1.8714,-98.99492 -0.6174,-16.41099 -0.6067,-15.82087 -0.2812,-15.76373 1.2542,0.22017 13.1935,1.43337 16.7323,1.70022 2.4352,0.18366 9.1957,0.41751 15.0231,0.51968 11.294,0.19796 19.87,-0.1167 31.786,-1.16622 19.8589,-1.74913 37.6915,-1.43326 53.2941,0.944 25.4294,3.87454 42.298,16.62552 46.9289,35.47368 1.2551,5.10817 1.5758,8.16622 1.5551,14.82244 -0.028,8.75929 -1.1912,14.78489 -4.0815,21.12704 -3.0472,6.68653 -9.026,13.04083 -16.7363,17.7869 -5.013,3.08588 -12.9988,6.3216 -19.1281,7.75046 -1.3047,0.30414 -2.487,0.65436 -2.6275,0.77828 -0.2403,0.21178 12.7589,22.09319 22.922,38.58485 10.5046,17.04549 25.1771,39.77677 33.1546,51.36429 l 3.2451,4.71343 -1.8589,-0.21912 c -11.8032,-1.39093 -23.8757,-2.0907 -36.0168,-2.08773 -11.8573,0 -22.3405,0.65924 -33.3999,2.09099 l -1.4558,0.18847 -5.7832,-11.18336 c -17.3724,-33.59571 -24.3702,-46.4195 -35.4763,-65.01243 -4.012,-6.71662 -4.8504,-7.95811 -5.1595,-7.63956 -0.06,0.0608 0.02,10.57162 0.1732,23.35713 0.2768,22.9333 0.5565,34.1067 1.2847,51.31952 0.2045,4.82906 0.3025,8.84916 0.218,8.93356 -0.084,0.084 -3.2021,-0.19462 -6.9283,-0.6202 -11.3178,-1.29239 -16.1666,-1.52663 -28.0301,-1.35377 -10.1929,0.14861 -19.7981,0.81699 -28.9537,2.0149 -1.1156,0.14591 -1.5024,0.0918 -1.5024,-0.21033 z m 81.0228,-105.14384 c 6.1121,-0.92136 10.2802,-2.87557 13.9222,-6.52743 2.1152,-2.12097 2.683,-2.95113 4.3376,-6.34254 3.0564,-6.26462 4.1353,-11.72373 4.1383,-20.94056 0,-11.03632 -1.7246,-17.30415 -6.4687,-23.45946 -2.67,-3.46428 -6.9109,-6.38843 -10.9614,-7.55808 -4.1953,-1.21148 -14.6704,-1.84501 -20.475,-1.23831 l -1.9439,0.20318 v 32.98495 32.98499 l 0.8698,0.13168 c 2.3413,0.3547 13.7328,0.19082 16.5811,-0.23848 z M 258.04945,586.79123 c -0.17396,-0.0602 -1.31255,-0.21052 -2.53023,-0.33405 -1.21766,-0.12359 -2.06966,-0.27719 -1.89334,-0.34146 0.42226,-0.15389 278.31614,-30.79289 279.28974,-30.79289 0.46464,0 0.69612,0.15042 0.60845,0.39534 -0.49999,1.39645 -2.04761,24.17865 -2.05182,30.20453 v 1.0279 l -136.55289,-0.025 c -75.10409,-0.0135 -136.69523,-0.0743 -136.86918,-0.13438 z m 316.12118,-2.29178 c 0.003,-3.77642 0.58913,-13.92552 1.11972,-19.37201 5.94854,-61.06237 37.64276,-117.31759 86.96201,-154.35197 46.85269,-35.18226 105.04956,-50.14548 163.51557,-42.04216 38.64426,5.35603 75.68215,21.32426 106.49868,45.91499 21.09603,16.83404 38.22352,36.51303 52.48006,60.29799 3.68421,6.14664 10.36963,19.36192 13.20561,26.10412 10.74562,25.54602 16.27912,51.07447 17.30002,79.81184 l 0.2163,6.08835 H 794.81876 574.16901 l 0.003,-2.45115 z m 483.90027,1.90086 c -0.033,-6.09587 -1.092,-22.75877 -1.8397,-28.9426 -0.2495,-2.06333 -0.235,-2.13488 0.4333,-2.13488 0.3803,0 63.2853,6.90276 139.789,15.33946 76.5038,8.43671 139.2527,15.35583 139.4422,15.37585 0.1895,0.0199 -0.2249,0.18869 -0.9208,0.37489 -0.8868,0.23731 -42.4726,0.36924 -139.083,0.44123 -131.3832,0.098 -137.8181,0.0767 -137.821,-0.45395 z m -6.452,-56.77505 c -4.0621,-18.42231 -10.8444,-38.01217 -19.3281,-55.82639 -1.1814,-2.4807 -2.0901,-4.56774 -2.0195,-4.63787 0.07,-0.0701 1.6228,-0.004 3.4493,0.14771 4.5848,0.38005 14.2845,0.3669 18.6603,-0.0253 19.0688,-1.70907 34.4088,-7.98344 50.13,-20.50408 5.0149,-3.99403 17.5926,-16.57435 26.6017,-26.60716 16.2372,-18.08241 23.5252,-24.93696 33.8073,-31.79634 12.1037,-8.07451 24.3505,-12.41615 38.8463,-13.77147 5.1924,-0.48548 18.9375,-0.20835 23.9348,0.48256 19.6165,2.71217 39.1065,8.51894 62.6231,18.65772 6.3033,2.71759 15.2316,6.8712 15.085,7.01783 -0.063,0.0623 -1.8809,-0.53682 -4.0411,-1.3316 -9.8859,-3.63732 -23.7104,-7.46038 -33.0253,-9.13289 -20.6707,-3.71161 -37.9633,-2.96078 -53.9252,2.34143 -20.7338,6.88721 -37.1236,20.10163 -56.1138,45.24207 -4.8882,6.47133 -7.7816,10.54856 -16.9456,23.87897 -15.3503,22.32969 -22.5926,31.71553 -31.8762,41.31042 -15.38,15.89619 -31.672,25.36029 -50.3451,29.24587 -2.007,0.41762 -3.7988,0.76044 -3.9819,0.76183 -0.1831,0 -0.8743,-2.4526 -1.536,-5.45328 z M 540.48544,508.60122 c -2.5986,-3.29919 -11.08203,-11.98384 -14.54878,-14.89384 -10.71538,-8.99452 -21.55505,-14.82258 -33.86103,-18.20571 -7.98798,-2.19601 -14.46037,-3.15489 -24.80848,-3.6754 -7.37195,-0.3708 -10.56086,-0.29881 -30.20452,0.68209 -15.39292,0.76863 -31.18144,0.69259 -37.79519,-0.18202 -19.85143,-2.62516 -34.54492,-9.40463 -48.99436,-22.60566 -17.23735,-15.74803 -33.84966,-44.18589 -47.31811,-81.00169 -1.17731,-3.21813 -2.20779,-6.06462 -2.28996,-6.32555 -0.0821,-0.26094 1.91765,3.653 4.44406,8.69763 10.04837,20.06415 18.49466,32.38294 30.2563,44.12839 13.50844,13.48987 28.41079,21.70646 46.09298,25.41386 7.81699,1.63898 11.41449,1.93683 23.34396,1.93262 16.34896,-0.006 22.96824,-0.81907 55.34859,-6.80101 30.46398,-5.62795 40.94345,-6.83736 56.61371,-6.5338 5.3084,0.10292 10.31275,0.37083 12.49297,0.66905 12.22385,1.67188 23.44102,5.21656 32.72365,10.34084 4.11919,2.2739 9.63906,5.86602 9.84707,6.4081 0.0812,0.21172 -0.97226,2.22697 -2.34111,4.47837 -10.10403,16.61855 -18.94156,35.92975 -25.06799,54.77694 -0.91884,2.82673 -1.75287,5.132 -1.85334,5.1228 -0.10052,-0.009 -1.0367,-1.10091 -2.08042,-2.42601 z M 500.53453,313.67408 c -48.41382,-60.38973 -87.98016,-109.83565 -87.9252,-109.87981 0.13798,-0.11086 219.57342,175.6812 219.69238,175.99779 0.0527,0.14021 -1.3706,1.4402 -3.16277,2.88897 -12.06746,9.75518 -24.7649,22.17259 -34.69507,33.92993 -2.1926,2.59607 -4.41353,5.20216 -4.93539,5.79135 l -0.94883,1.0713 z M 998.81661,421.0367 c -8.70139,-11.11542 -23.95195,-26.41381 -37.29947,-37.41641 -2.399,-1.97753 -4.32038,-3.70662 -4.26975,-3.84244 0.11551,-0.30975 219.55261,-176.0935 219.68791,-175.98465 0.1363,0.11011 -175.7457,219.46832 -176.0338,219.54707 -0.1277,0.0349 -1.06578,-1.00175 -2.08489,-2.30357 z m -63.30784,-56.25346 c -9.46565,-6.08582 -24.76764,-14.2277 -35.41558,-18.8439 -5.03308,-2.18201 -12.91251,-5.26395 -18.18597,-7.11324 -2.34836,-0.82352 -4.38219,-1.59914 -4.51958,-1.72363 -0.13737,-0.12449 1.07179,-1.35208 2.68707,-2.72805 6.32597,-5.38867 13.60668,-13.22465 18.19334,-19.58078 5.56067,-7.70591 10.62194,-18.34085 13.02311,-27.36478 3.82153,-14.36163 4.56668,-27.79012 2.98326,-53.76046 -0.75913,-12.4509 -0.76162,-31.5186 -0.004,-37.63704 2.25965,-18.27081 7.80255,-31.87482 18.42785,-45.22771 3.1842,-4.00161 11.72613,-12.3663 16.57707,-16.23309 13.38507,-10.66953 30.96792,-20.58131 52.66016,-29.6855 5.612,-2.35532 21.6473,-8.481179 22.2007,-8.481179 0.1368,0 -3.7349,1.981075 -8.6039,4.402379 -9.3257,4.63768 -15.0345,7.852 -21.81994,12.28563 -14.84376,9.69902 -26.63748,20.90538 -34.69551,32.96759 -3.06355,4.5859 -7.43274,13.128 -9.23866,18.0622 -4.35681,11.90403 -6.16843,24.29872 -5.77333,39.50035 0.35109,13.50939 1.60796,22.93929 6.85006,51.39513 2.78259,15.10457 3.7689,20.88748 4.72014,27.6743 4.34112,30.97287 2.0294,52.54558 -7.71091,71.95697 -2.79226,5.56468 -7.27908,12.81655 -7.916,12.79428 -0.1756,-0.006 -2.17289,-1.2029 -4.43841,-2.65947 z M 670.12943,353.57501 c 0.90625,-8.02884 0.77995,-19.80338 -0.29552,-27.55351 -2.09398,-15.08994 -7.71945,-28.73523 -16.97099,-41.16528 -6.21897,-8.35562 -13.35834,-15.73298 -28.19859,-29.13865 -14.23746,-12.86114 -20.00257,-18.48522 -25.55112,-24.92604 -11.03886,-12.81402 -17.92507,-26.9281 -20.48129,-41.97868 -1.88682,-11.10917 -1.6685,-24.37815 0.62275,-37.85106 3.05081,-17.93937 10.17098,-39.45956 20.77271,-62.784055 2.3161,-5.095511 4.53476,-9.569269 3.99828,-8.062156 -5.4354,15.269364 -9.13588,28.455551 -10.83536,38.610241 -1.64198,9.81104 -1.78481,11.62926 -1.77432,22.58949 0.009,9.0932 0.0924,10.80419 0.72541,14.83127 4.32906,27.54051 18.57357,48.29866 48.76221,71.05983 5.3606,4.04171 11.82912,8.61777 23.87897,16.8929 24.39362,16.75208 33.9227,24.24013 44.12932,34.6773 8.51264,8.70491 14.75812,17.29282 19.28186,26.5137 3.5823,7.30189 5.47477,12.69322 7.13646,20.33047 1.14234,5.25033 1.24372,4.93601 -1.80296,5.5907 -1.4168,0.30446 -5.65097,1.40966 -9.40926,2.45603 -16.98367,4.72845 -33.01709,10.95803 -48.85529,18.9821 l -5.33381,2.70225 z m 92.93591,-29.03822 c 0.0939,-0.83597 7.05255,-63.89536 15.46357,-140.13199 8.41101,-76.23662 15.34924,-138.442489 15.41835,-138.235248 0.14381,0.431265 30.96596,279.338268 30.88246,279.452308 -0.0301,0.041 -2.17968,-0.13228 -4.77686,-0.38525 -16.75529,-1.6323 -33.76508,-1.62908 -50.7405,0.0105 -2.69627,0.26029 -5.24328,0.54913 -5.66008,0.64188 -0.73455,0.1635 -0.75251,0.12209 -0.58694,-1.35126 z"
       id="path463" />
  </g>
</svg>
