<?xml version="1.0" encoding="UTF-8" standalone="no"?>
<!-- Created with Inkscape (http://www.inkscape.org/) -->

<svg
   version="1.1"
   id="svg336"
   width="1587.52"
   height="842.23999"
   viewBox="0 0 1587.52 842.23999"
   sodipodi:docname="vicuna.svg"
   inkscape:version="1.2.2 (732a01da63, 2022-12-09)"
   xml:space="preserve"
   xmlns:inkscape="http://www.inkscape.org/namespaces/inkscape"
   xmlns:sodipodi="http://sodipodi.sourceforge.net/DTD/sodipodi-0.dtd"
   xmlns="http://www.w3.org/2000/svg"
   xmlns:svg="http://www.w3.org/2000/svg"><defs
     id="defs340" /><sodipodi:namedview
     id="namedview338"
     pagecolor="#505050"
     bordercolor="#eeeeee"
     borderopacity="1"
     inkscape:showpageshadow="0"
     inkscape:pageopacity="0"
     inkscape:pagecheckerboard="0"
     inkscape:deskcolor="#505050"
     showgrid="false"
     inkscape:zoom="0.44503376"
     inkscape:cx="542.65546"
     inkscape:cy="499.96207"
     inkscape:window-width="1920"
     inkscape:window-height="991"
     inkscape:window-x="-9"
     inkscape:window-y="-9"
     inkscape:window-maximized="1"
     inkscape:current-layer="g342" /><g
     inkscape:groupmode="layer"
     inkscape:label="Image"
     id="g342"><path
       style="fill:#000000"
       id="path487"
       d="" /><path
       style="fill:#333333;stroke-width:5.49404"
       d="m 647.87332,531.68226 c -24.55413,-8.93958 -39.93503,-25.876 -45.36534,-49.95325 -12.4985,-55.41664 30.75471,-103.12898 84.38029,-93.0795 12.45878,2.3348 31.92351,3.52267 43.25497,2.63972 l 20.60265,-1.60541 v 27.94264 27.94264 h -18.37762 c -11.40025,0 -22.15308,-4.17179 -28.32173,-10.98809 -30.56994,-33.77939 -75.14629,14.78106 -46.73001,50.90658 14.17705,18.0232 26.5226,18.94741 46.21209,3.45965 12.88539,-10.13562 16.70518,-10.73129 30.95815,-4.8275 8.94254,3.70414 16.25912,7.83351 16.25912,9.17642 0,10.56982 -15.67159,26.3536 -34.78102,35.02995 -26.00807,11.80862 -42.62562,12.62767 -68.09155,3.35615 z M 359.52813,450.08998 c -25.99549,-72.39235 -31.95878,-84.36952 -43.34452,-87.05731 -10.25836,-2.42167 -13.20207,-6.73647 -13.20207,-19.35106 0,-16.04826 0.38733,-16.25297 33.80082,-17.85613 l 33.80077,-1.62173 20.45047,62.05618 c 11.24773,34.13091 22.10885,63.89894 24.13582,66.15122 2.02697,2.25229 13.76428,-24.94322 26.08296,-60.43445 l 22.3975,-64.52949 h 26.79966 c 26.02379,0 26.7996,0.46974 26.7996,16.2344 0,12.56004 -2.95233,16.93137 -13.04395,19.3137 -11.22372,2.64955 -17.05735,14.56772 -41.80399,85.40536 l -28.76004,82.32606 -21.98529,1.65201 -21.98534,1.652 z m 171.45612,11.96124 v -71.42254 h 24.72318 24.72319 v 71.42254 71.42253 h -24.72319 -24.72318 z m 252.72589,60.43445 c -9.65622,-9.65622 -10.98809,-18.31345 -10.98809,-71.42253 v -60.43446 h 21.76998 21.77003 l 1.57964,50.81988 1.5797,50.81989 h 16.48213 16.48212 l 1.5797,-50.81989 1.57965,-50.81988 h 24.51705 24.517 v 54.94042 c 0,51.27769 0.7325,54.94041 10.9881,54.94041 8.5463,0 10.9881,3.66271 10.9881,16.48212 v 16.48212 h -35.7113 c -20.95401,0 -35.71128,-2.35024 -35.71128,-5.68732 0,-3.92044 -3.30153,-3.92044 -10.6269,0 -17.714,9.48024 -48.71786,6.77701 -60.79563,-5.30076 z m 170.31531,-43.95233 c 0,-51.2777 -0.7326,-54.94041 -10.9881,-54.94041 -8.5463,0 -10.9881,-3.66271 -10.9881,-16.48212 v -16.48213 h 32.9642 c 18.1304,0 32.9643,2.16592 32.9643,4.81317 0,2.64725 10.81585,0.92388 24.03505,-3.82979 22.2855,-8.01377 25.1029,-7.94328 38.7035,0.96822 20.5832,13.48666 25.1661,29.70452 25.1661,89.05774 v 51.83573 h -24.7231 -24.7232 v -51.86913 c 0,-28.52803 -2.2649,-53.2689 -5.033,-54.97975 -2.7682,-1.71079 -11.4213,-0.68175 -19.2291,2.28684 -13.81825,5.25362 -14.19625,6.71768 -14.19625,54.9797 v 49.58234 h -21.9762 -21.9761 z m 164.96105,44.0921 c -26.9525,-26.9525 -15.597,-66.49015 22.363,-77.8632 16.6832,-4.99842 26.5394,-5.17495 38.4262,-0.68818 13.6716,5.16044 15.9754,4.71097 15.9035,-3.10271 -0.2149,-23.30407 -8.3654,-26.01615 -58.9769,-19.62356 -32.0461,4.04763 -36.5489,-1.13644 -16.8931,-19.44863 23.5615,-21.95084 83.1186,-21.9393 106.4938,0.022 11.0747,10.40412 13.2108,18.32455 14.5685,54.0173 1.4695,38.62767 2.5363,41.95969 13.9527,43.5811 9.6078,1.36455 12.3616,5.34224 12.3616,17.85563 v 16.10001 h -35.7113 c -20.954,0 -35.7112,-2.35024 -35.7112,-5.68732 0,-3.92044 -3.3016,-3.92044 -10.6269,0 -18.0931,9.68308 -54.1164,6.87255 -66.1499,-5.16099 z m 66.1499,-22.30921 c 14.8854,-7.96642 13.2292,-21.06548 -3.4659,-27.41291 -17.7976,-6.76662 -16.5222,-6.92249 -26.7092,3.26456 -6.5087,6.50868 -7.231,11.22285 -2.9461,19.22915 6.3291,11.82625 17.1987,13.44062 33.1212,4.9192 z M 539.61775,365.51306 c -16.59431,-16.59426 -7.04655,-40.81287 16.08968,-40.81287 24.13384,0 34.68124,32.74229 14.09628,43.75905 -14.43768,7.72676 -20.06193,7.17785 -30.18596,-2.94618 z m 425.3957,-9.74412 c 0,-15.24739 15.7854,-31.14825 30.6499,-30.87404 5.80555,0.10713 16.73625,3.72793 24.29065,8.04635 18.0201,10.30122 32.9642,10.30122 32.9642,0 0,-4.57835 4.8836,-8.24106 10.9881,-8.24106 12.2227,0 13.74,8.52862 5.4135,30.42897 -5.9123,15.5505 -11.1884,15.95717 -64.4745,4.96985 -11.65875,-2.40397 -17.85565,-1.55855 -17.85565,2.4359 0,3.36471 -4.9446,6.11761 -10.9881,6.11761 -7.8643,0 -10.9881,-3.66271 -10.9881,-12.88358 z"
       id="path1307" /></g></svg>
