<?xml version="1.0" encoding="UTF-8" standalone="no"?>
<!-- Created with Inkscape (http://www.inkscape.org/) -->

<svg
   version="1.1"
   id="svg336"
   width="1587.52"
   height="842.23999"
   viewBox="0 0 1587.52 842.23999"
   sodipodi:docname="weir.svg"
   inkscape:version="1.2.2 (732a01da63, 2022-12-09)"
   xml:space="preserve"
   xmlns:inkscape="http://www.inkscape.org/namespaces/inkscape"
   xmlns:sodipodi="http://sodipodi.sourceforge.net/DTD/sodipodi-0.dtd"
   xmlns="http://www.w3.org/2000/svg"
   xmlns:svg="http://www.w3.org/2000/svg"><defs
     id="defs340" /><sodipodi:namedview
     id="namedview338"
     pagecolor="#505050"
     bordercolor="#eeeeee"
     borderopacity="1"
     inkscape:showpageshadow="0"
     inkscape:pageopacity="0"
     inkscape:pagecheckerboard="0"
     inkscape:deskcolor="#505050"
     showgrid="false"
     inkscape:zoom="0.62937278"
     inkscape:cx="734.8586"
     inkscape:cy="491.75943"
     inkscape:window-width="1920"
     inkscape:window-height="991"
     inkscape:window-x="-9"
     inkscape:window-y="-9"
     inkscape:window-maximized="1"
     inkscape:current-layer="g342" /><g
     inkscape:groupmode="layer"
     inkscape:label="Image"
     id="g342"><path
       style="fill:#000000"
       id="path487"
       d="" /><path
       style="fill:#333333;stroke-width:2.4725"
       d="m 300.06856,564.5434 -6.51469,-5.12446 V 406.30338 253.18782 h 51.92251 51.9225 v 113.73501 113.73501 h 13.59875 13.59875 V 366.92283 253.18782 h 53.15876 53.15875 v 113.73501 113.73501 h 13.59876 13.59875 V 366.92283 253.18782 h 53.15875 53.15876 v 56.86751 56.8675 h 13.59875 13.59875 v -56.8675 -56.86751 h 107.55376 107.55376 v 44.505 44.50501 h -55.63125 -55.63126 v 12.3625 12.3625 h 67.99376 67.99376 v -56.8675 -56.86751 h 53.15871 53.15875 v 56.86751 56.8675 h 13.5987 13.5988 v -56.8675 -56.86751 h 105.738 c 97.6842,0 106.3796,0.34412 114.1621,4.51793 16.0509,8.60818 17.4599,14.68192 17.4599,75.26105 0,57.94497 -1.4775,66.60263 -12.7092,74.46963 l -5.8142,4.07238 6.7111,5.52263 c 3.691,3.03746 7.8588,8.65479 9.2617,12.48298 1.4959,4.08225 2.5506,32.22558 2.5506,68.06173 0,51.29988 0.6175,61.98291 3.849,66.59655 l 3.8489,5.49515 h -49.7026 c -66.527,0 -61.8403,4.54488 -61.8403,-59.96938 0,-33.90572 -0.8638,-48.69545 -2.967,-50.79863 -1.6318,-1.63185 -7.7513,-2.967 -13.5987,-2.967 h -10.6318 v 56.86751 56.8675 h -53.1587 -53.1588 v -56.8675 -56.86751 h -13.5988 -13.5987 v 56.86751 56.8675 h -53.15875 -53.15871 v -56.8675 -56.86751 h -67.99376 -67.99376 v 12.3625 12.3625 h 55.63126 55.63125 v 44.50501 44.505 H 799.18017 691.62641 v -56.8675 -56.86751 h -13.59875 -13.59875 v 48.3763 c 0,48.87349 -1.04021,55.5593 -9.67574,62.18946 -2.89161,2.22011 -24.85072,3.03265 -83.52328,3.09063 l -79.60024,0.0786 -6.65963,-5.72836 -6.65963,-5.72836 -5.72836,5.72836 -5.72837,5.72836 h -80.13521 c -77.32678,0 -80.36351,-0.1795 -86.64989,-5.12445 z M 1198.4889,348.37908 v -18.54375 h -13.5987 -13.5988 v 18.54375 18.54375 h 13.5988 13.5987 z"
       id="path1381" /></g></svg>
