<?xml version="1.0" encoding="UTF-8" standalone="no"?>
<!-- Created with Inkscape (http://www.inkscape.org/) -->

<svg
   version="1.1"
   id="svg336"
   width="1587.52"
   height="842.23999"
   viewBox="0 0 1587.52 842.23999"
   sodipodi:docname="zlato.svg"
   inkscape:version="1.2.2 (732a01da63, 2022-12-09)"
   xml:space="preserve"
   xmlns:inkscape="http://www.inkscape.org/namespaces/inkscape"
   xmlns:sodipodi="http://sodipodi.sourceforge.net/DTD/sodipodi-0.dtd"
   xmlns="http://www.w3.org/2000/svg"
   xmlns:svg="http://www.w3.org/2000/svg"><defs
     id="defs340" /><sodipodi:namedview
     id="namedview338"
     pagecolor="#505050"
     bordercolor="#eeeeee"
     borderopacity="1"
     inkscape:showpageshadow="0"
     inkscape:pageopacity="0"
     inkscape:pagecheckerboard="0"
     inkscape:deskcolor="#505050"
     showgrid="false"
     inkscape:zoom="0.44503376"
     inkscape:cx="585.34885"
     inkscape:cy="468.50378"
     inkscape:window-width="1920"
     inkscape:window-height="991"
     inkscape:window-x="-9"
     inkscape:window-y="-9"
     inkscape:window-maximized="1"
     inkscape:current-layer="g342" /><g
     inkscape:groupmode="layer"
     inkscape:label="Image"
     id="g342"><path
       style="fill:#000000"
       id="path487"
       d="" /><path
       style="fill:#333333;stroke-width:1.96492"
       d="M 153.89973,595.8736 C 109.15927,586.3344 67.071623,554.54106 48.179744,516.01185 33.034822,485.12442 33.463802,489.26432 32.591458,365.57539 L 31.811937,255.04888 H 179.31213 326.81231 l -0.0137,107.57914 c -0.0138,101.17524 -0.25031,108.56593 -3.98766,124.15628 -17.47519,72.89794 -97.19029,124.381 -168.91117,109.0893 z m 49.60571,-98.08736 c 37.80333,-8.01106 66.68042,-35.94584 74.40843,-71.98037 10.41802,-48.57753 -37.59964,-81.63808 -105.4569,-72.60796 -40.52006,5.39222 -70.62846,23.88008 -84.25816,51.73816 -9.638619,19.70066 -8.354429,43.36559 2.906287,53.55639 5.354651,4.8459 7.283491,1.96419 3.252643,-4.85949 -7.024004,-11.89069 -2.152506,-29.86069 14.03524,-51.77323 21.72844,-29.41271 52.25249,-44.57859 89.71735,-44.57612 20.95978,0.001 23.27488,1.80751 10.92961,8.52664 -31.3323,17.05318 -39.69414,29.4857 -57.00245,84.75224 -8.36689,26.71601 -14.15146,39.19969 -19.79796,42.72601 -8.89111,5.55257 -3.70688,6.6777 32.46724,7.0463 15.66052,0.15955 30.67241,-0.8265 38.79867,-2.54857 z m -49.58274,-7.82111 c 4.87581,-2.54127 11.41047,-7.1422 14.52148,-10.2243 8.0358,-7.96117 19.34621,-32.34941 29.87991,-64.42902 10.60969,-32.31098 20.96086,-54.15748 25.66061,-54.15748 5.54422,0 16.63478,9.98904 20.47186,18.43859 13.94049,30.69788 -13.59427,93.17106 -48.30148,109.59056 -10.5765,5.0036 -13.83524,5.5727 -31.44831,5.49208 l -19.64916,-0.09 8.86509,-4.6205 z m 158.76678,107.60175 c 1.41842,-0.5676 3.11316,-0.49781 3.7661,0.15503 0.65292,0.65293 -0.50762,1.11733 -2.57895,1.03202 -2.28903,-0.0943 -2.75462,-0.55989 -1.18715,-1.18713 z m 686.61415,-1.11389 c 0.50086,-1.35088 4.35247,-19.91933 8.55917,-41.26323 l 7.6484,-38.80709 h 9.0935 9.0933 l 9.5754,23.55549 c 5.2664,12.95552 10.0176,23.5111 10.5579,23.45687 0.5404,-0.0542 8.9919,-10.43317 18.7813,-23.06428 l 17.799,-22.96562 9.9069,-0.58372 9.9067,-0.58369 -1.2232,6.47844 c -0.6728,3.56316 -4.2597,22.17323 -7.9708,41.35572 l -6.748,34.87726 h -10.4014 c -5.7207,0 -10.4013,-0.34477 -10.4013,-0.76616 0,-0.4214 1.7769,-9.40234 3.9487,-19.95767 3.6394,-17.68733 3.7689,-24.53127 0.3654,-19.31186 -0.7517,1.15289 -6.2299,8.45411 -12.1738,16.22493 -9.5076,12.43 -11.4949,14.06114 -16.5285,13.56623 -5.1414,-0.50547 -6.429,-2.20561 -12.6984,-16.76503 -4.0595,-9.42776 -7.5281,-15.1789 -8.295,-13.75441 -0.7251,1.34646 -2.8521,11.06918 -4.7268,21.60604 l -3.4086,19.15793 h -10.7852 c -7.8038,0 -10.5335,-0.67894 -9.87467,-2.45615 z m 120.23467,-38.31586 8.143,-40.772 11.2154,-0.58928 c 6.1684,-0.32411 11.2155,-0.2315 11.2155,0.20581 0,0.43729 -3.5353,18.38672 -7.8559,39.88759 -4.3207,21.50088 -7.8575,39.75567 -7.8597,40.5662 0,0.81053 -5.1783,1.47369 -11.5026,1.47369 h -11.4989 z m 32.563,38.31586 c 0.02,-1.35088 3.55,-19.58549 7.8596,-40.52138 4.3095,-20.93586 7.8355,-38.39905 7.8355,-38.80708 0,-0.40802 4.2244,-0.74186 9.3874,-0.74186 h 9.3874 l 12.7179,21.57057 c 6.9947,11.86383 13.3078,21.59016 14.0287,21.61408 1.2863,0.0426 2.8674,-6.36484 7.6261,-30.90392 l 2.3814,-12.28073 h 10.5515 c 5.8031,0 10.5514,0.63223 10.5514,1.40496 0,2.19078 -13.8022,73.80964 -14.9902,77.78384 -0.8589,2.87284 -2.7853,3.42801 -10.227,2.94737 l -9.1689,-0.59216 -12.0504,-20.30303 c -6.6277,-11.16665 -12.913,-21.16567 -13.9674,-22.22005 -1.2462,-1.24611 -2.7299,2.42115 -4.2395,10.47845 -1.2774,6.81751 -3.2337,17.03758 -4.3474,22.71128 l -2.0248,10.31581 h -10.6678 c -7.2371,0 -10.66,-0.78986 -10.6435,-2.45615 z m 94.9227,-1.96492 c 0.5814,-2.43158 4.3613,-21.00003 8.3998,-41.26323 l 7.3427,-36.84217 h 31.8871 31.887 l -1.711,7.36844 c -0.941,4.05264 -1.7323,8.00168 -1.7581,8.77565 -0.025,0.77396 -9.552,1.65817 -21.1696,1.96491 l -21.1228,0.5577 -0.6158,6.38598 -0.6158,6.38598 h 17.8978 17.8978 l -1.3296,7.36843 c -0.7312,4.05264 -1.7077,8.03159 -2.1699,8.84212 -0.4621,0.81053 -9.1881,1.47369 -19.3911,1.47369 -16.3472,0 -18.554,0.40844 -18.5775,3.4386 -0.02,1.89123 -0.56,5.42808 -1.2116,7.85966 -1.177,4.39151 -1.0383,4.42106 20.7474,4.42106 h 21.9323 l -1.3296,7.36844 c -0.7312,4.05264 -1.7077,8.03159 -2.1699,8.84212 -0.4621,0.81053 -15.4735,1.47369 -33.3585,1.47369 h -32.5182 z m 78.9808,0 c 0.5997,-2.43158 4.4053,-20.77898 8.4572,-40.772 l 7.367,-36.35094 21.5453,-0.56637 c 25.6595,-0.67451 36.4272,2.40066 42.3359,12.09068 8.882,14.56618 2.4941,33.19727 -14.9336,43.55562 -3.1534,1.87433 -2.9851,2.83734 2.2322,12.77195 3.1034,5.90961 5.9425,11.40791 6.3089,12.21844 0.3665,0.81053 -4.4918,1.4706 -10.7958,1.46681 l -11.4619,-0.006 -5.8688,-10.8795 c -9.4016,-17.42876 -19.1686,-16.90217 -21.6538,1.16751 l -1.3375,9.72477 h -11.6425 c -11.0869,0 -11.5907,-0.21104 -10.5526,-4.42107 z m 54.7199,-38.94969 c 3.7752,-2.96964 5.1774,-5.87746 5.1774,-10.73792 0,-8.08635 -4.0204,-10.73354 -16.3013,-10.73354 h -8.7001 l -2.2363,11.13474 c -1.2298,6.12411 -2.2361,11.87149 -2.2361,12.77195 0,0.90047 4.3018,1.63721 9.5596,1.63721 6.6958,0 11.1104,-1.21994 14.7368,-4.07244 z m 35.1598,38.31224 c 8.5771,-44.86791 14.5937,-71.56872 16.1273,-71.57072 4.4352,-0.006 18.7221,6.60895 18.6079,8.61537 -0.069,1.20406 -2.9927,16.77869 -6.4983,34.6103 l -6.374,32.42111 -11.4351,0.59672 -11.435,0.59673 z m 36.8247,4.17395 c 0,-0.48651 11.3869,-18.83391 25.3042,-40.772 l 25.3042,-39.88744 11.5979,-0.57379 11.5979,-0.5738 9.9317,41.3458 9.9317,41.3458 h -11.2926 -11.2926 l -1.3279,-7.85967 -1.3279,-7.85966 h -12.5992 c -14.0706,0 -14.9123,-1.09444 -8.691,-11.29827 3.1606,-5.18358 5.1481,-6.38597 10.5561,-6.38597 h 6.6624 l -2.4822,-11.89554 c -1.3653,-6.54254 -2.9299,-12.34313 -3.477,-12.89017 -0.8272,-0.82721 -12.5846,18.22031 -31.9766,51.8033 -3.4899,6.04371 -4.2967,6.38598 -15.0532,6.38598 -6.2514,0 -11.3659,-0.39806 -11.3659,-0.88457 z M 307.18998,588.96888 c 0.0711,-7.50028 2.56064,-11.67382 6.96358,-11.67382 5.95438,0 6.7297,1.73178 3.84188,8.58134 -2.09509,4.96929 -2.54301,5.20111 -3.79677,1.96492 -1.37722,-3.55495 -1.50874,-3.55043 -4.22847,0.14501 -1.97942,2.68957 -2.79913,2.97924 -2.78022,0.98245 z m 9.79776,-7.85996 c 0,-1.01692 -1.32632,-1.84894 -2.94738,-1.84894 -3.03856,0 -3.9037,2.31852 -1.69085,4.53139 1.56983,1.56983 4.63823,-0.20473 4.63823,-2.68245 z M 1441.9022,519.401 l -5.8948,-2.69915 8.3509,-0.15955 c 6.184,-0.11809 8.3509,0.6052 8.3509,2.78779 0,3.60027 -3.0556,3.62033 -10.807,0.0709 z M 1377.06,494.60958 c -61.3231,-8.27554 -98.7374,-52.66462 -94.4537,-112.0617 2.7143,-37.63653 14.7524,-64.62425 40.3212,-90.39587 14.273,-14.38596 19.6059,-18.27458 35.4658,-25.8603 25.8135,-12.34658 41.0331,-15.79877 69.7545,-15.82203 38.3017,-0.0311 64.3637,8.72692 87.0422,29.24985 34.5057,31.2257 41.1076,88.11172 16.1785,139.39981 -13.258,27.27637 -32.9999,46.74032 -61.9575,61.08472 -26.4413,13.09795 -61.5078,18.56784 -92.351,14.40552 z m 42.2582,-54.86102 c 15.0196,-2.84842 26.3156,-9.17649 37.5113,-21.01432 11.9022,-12.58499 18.5246,-26.42515 21.4401,-44.80796 4.975,-31.3696 -4.8071,-53.73129 -28.0024,-64.01246 -15.7553,-6.98344 -39.4836,-6.58144 -55.96,0.94808 -46.3296,21.17196 -61.526,92.40203 -25.5649,119.8308 6.9314,5.28696 23.7937,10.67635 34.0846,10.89386 3.3647,0.0711 10.7858,-0.75598 16.4913,-1.838 z m -1029.23961,30.94982 3.71658,-20.14038 21.03498,-20.66976 c 11.56924,-11.36835 44.1825,-43.33671 72.47393,-71.0408 28.29141,-27.7041 50.9125,-50.89751 50.26909,-51.54092 -0.64341,-0.64341 -25.7804,-1.16983 -55.86,-1.16983 -42.50431,0 -54.6642,-0.54727 -54.57365,-2.45615 0.0641,-1.35088 2.13003,-12.62458 4.591,-25.05267 l 4.47451,-22.59653 101.6525,-0.509 c 96.21813,-0.48177 101.59864,-0.32421 100.64534,2.94738 -0.55393,1.90099 -2.49369,11.13394 -4.31061,20.51763 l -3.30346,17.06126 -71.47669,70.05465 c -39.31219,38.53008 -71.4767,70.8631 -71.4767,71.8512 0,1.04592 24.90636,1.7965 59.61306,1.7965 h 59.61307 l -5.01311,25.5439 -5.01311,25.54391 H 491.74866 386.36201 Z m 226.75971,16.72149 c 0.45417,-1.90207 10.98221,-54.66688 23.39564,-117.25515 12.41344,-62.58824 22.88862,-114.11554 23.27818,-114.50511 0.38955,-0.38956 15.24262,-0.46527 33.0068,-0.16819 l 32.29852,0.53999 -17.93658,90.38613 c -9.86514,49.71237 -17.59026,91.04928 -17.16698,91.85981 0.42328,0.81053 25.47537,1.47369 55.67129,1.47369 51.01232,0 54.89517,0.24359 54.80989,3.4386 -0.0505,1.89123 -2.07837,13.16494 -4.50645,25.05268 l -4.41468,21.61407 -89.63069,0.51094 c -84.70609,0.48285 -89.58532,0.32091 -88.80494,-2.94738 z m 212.63531,-29.62843 c 11.54382,-18.17604 45.30459,-71.21649 75.02394,-117.86765 l 54.03526,-84.82033 32.83649,-0.0273 32.8367,-0.0273 2.0217,7.50824 c 1.1119,4.12954 12.2362,50.32962 24.7205,102.66684 21.9049,91.83095 27.489,114.84463 29.6453,122.17621 0.9351,3.17907 -1.4941,3.4386 -32.185,3.4386 h -33.1963 l -2.4373,-13.26318 c -1.3407,-7.29475 -3.335,-17.46319 -4.4323,-22.59653 l -1.9951,-9.33335 h -38.29703 c -30.89062,0 -38.17431,-0.50583 -37.66186,-2.61552 0.34941,-1.43854 6.38268,-12.47466 13.40725,-24.52472 l 12.77203,-21.90921 19.15793,-0.0367 c 16.91655,-0.0324 19.15931,-0.439 19.1709,-3.47533 0.0216,-5.69089 -14.36766,-73.19877 -15.58571,-73.12122 -0.62092,0.0395 -10.50346,16.17643 -21.96088,35.85972 -11.45731,19.68332 -33.98436,58.11419 -50.06002,85.40196 l -29.22848,49.61412 h -34.78838 -34.78838 z m 282.62649,27.64381 c 4.112,-16.32464 35.3557,-176.58525 34.668,-177.82488 -0.4498,-0.81052 -16.7772,-1.47368 -36.2833,-1.47368 h -35.4656 l 1.0695,-4.42106 c 0.5881,-2.43159 3.046,-13.92634 5.4621,-25.54391 l 4.3927,-21.12284 h 105.4742 105.4743 l -5.2577,25.05267 -5.2578,25.05268 -36.2023,0.98246 -36.2022,0.98245 -11.1908,56.0001 c -6.1549,30.80006 -14.4706,72.13697 -18.4793,91.85982 l -7.2884,35.85971 h -33.1374 -33.1371 z"
       id="path1095" /></g></svg>
