<?xml version="1.0" encoding="UTF-8" standalone="no"?>
<!-- Created with Inkscape (http://www.inkscape.org/) -->

<svg
   width="210mm"
   height="297mm"
   viewBox="0 0 210 297"
   version="1.1"
   id="svg5"
   xml:space="preserve"
   inkscape:version="1.2.2 (732a01da63, 2022-12-09)"
   sodipodi:docname="favicon.svg"
   xmlns:inkscape="http://www.inkscape.org/namespaces/inkscape"
   xmlns:sodipodi="http://sodipodi.sourceforge.net/DTD/sodipodi-0.dtd"
   xmlns="http://www.w3.org/2000/svg"
   xmlns:svg="http://www.w3.org/2000/svg"><sodipodi:namedview
     id="namedview7"
     pagecolor="#505050"
     bordercolor="#eeeeee"
     borderopacity="1"
     inkscape:showpageshadow="0"
     inkscape:pageopacity="0"
     inkscape:pagecheckerboard="0"
     inkscape:deskcolor="#505050"
     inkscape:document-units="mm"
     showgrid="false"
     inkscape:zoom="0.71624579"
     inkscape:cx="397.21001"
     inkscape:cy="561.95793"
     inkscape:window-width="1920"
     inkscape:window-height="991"
     inkscape:window-x="-9"
     inkscape:window-y="-9"
     inkscape:window-maximized="1"
     inkscape:current-layer="layer1" /><defs
     id="defs2" /><g
     inkscape:label="Capa 1"
     inkscape:groupmode="layer"
     id="layer1"><path
       style="fill:#ff6600;stroke-width:0.264583"
       d="m 74.123288,236.95228 c -0.582083,-0.11314 -1.534583,-0.2857 -2.116666,-0.38347 -1.17743,-0.19776 -3.361733,-0.9837 -5.423959,-1.9516 -2.633046,-1.23582 -6.97986,-5.21855 -8.149695,-7.46709 -0.334988,-0.64388 -0.817224,-1.52788 -1.071635,-1.96444 -0.679841,-1.16659 -1.626587,-3.78919 -1.626587,-4.50585 0,-0.34226 -0.119063,-0.69588 -0.264584,-0.78582 -0.297025,-0.18357 -0.386942,-60.98646 -0.09019,-60.98646 0.09592,0 0.780527,0.45681 1.521354,1.01513 0.740828,0.55832 1.605566,1.15286 1.921641,1.32119 0.316074,0.16833 0.732793,0.45573 0.926041,0.63867 0.193249,0.18294 1.24433,0.92213 2.335736,1.64265 1.091406,0.72052 2.024063,1.40506 2.072569,1.5212 0.04851,0.11614 0.209968,0.21116 0.358801,0.21116 0.148833,0 0.721592,0.35719 1.272797,0.79375 0.551205,0.43657 1.079438,0.79375 1.173851,0.79375 0.09441,0 0.791655,0.45514 1.549426,1.01141 1.2734,0.93479 2.504118,1.78748 8.653807,5.99577 1.236927,0.84644 2.348508,1.6266 2.470177,1.73369 0.121671,0.10708 0.206197,7.56422 0.187838,16.5714 -0.03269,16.04062 -0.02209,16.40221 0.516083,17.61886 0.305649,0.69098 0.976228,1.5677 1.511239,1.97583 l 0.961779,0.73367 25.243439,0.0667 25.24343,0.0667 1.5002,1.06067 c 0.82511,0.58337 1.67879,1.18052 1.89707,1.32701 0.21828,0.14649 1.28984,0.8956 2.38125,1.66469 1.09141,0.76909 2.60998,1.80721 3.3746,2.30694 0.76462,0.49972 1.35994,0.98892 1.32291,1.08709 -0.0857,0.22741 -6.05162,6.39427 -12.05615,12.46232 l -4.6472,4.69635 -25.94552,-0.0331 c -14.270036,-0.0182 -26.42177,-0.12569 -27.003854,-0.23883 z M 180.4858,227.12109 c -1.45521,-1.00229 -4.01506,-2.74075 -5.68855,-3.86325 -1.67349,-1.1225 -3.10224,-2.10145 -3.175,-2.17543 -0.17028,-0.17315 -7.01131,-4.80762 -7.61256,-5.15715 -0.25033,-0.14552 -0.88946,-0.592 -1.4203,-0.99218 -0.53084,-0.40019 -1.0423,-0.72761 -1.13659,-0.72761 -0.0943,0 -0.40502,-0.21763 -0.69053,-0.48362 -0.28552,-0.26599 -1.4414,-1.06044 -2.56863,-1.76542 -1.12723,-0.70499 -2.08821,-1.30989 -2.13551,-1.34422 -0.24393,-0.17704 -0.27191,-3.73773 -0.29063,-36.98526 l -0.0203,-35.94832 -1.0272,-1.0272 -1.02721,-1.02721 h -9.84603 c -11.00596,0 -10.82323,-0.0287 -11.88712,1.86428 -0.55251,0.98306 -0.55411,1.06485 -0.55411,28.40039 0,15.07798 -0.0893,27.41185 -0.19843,27.40861 -0.10914,-0.003 -0.4961,-0.23871 -0.8599,-0.52328 -0.3638,-0.28457 -0.76339,-0.52004 -0.88797,-0.52328 -0.12458,-0.003 -0.67749,-0.36307 -1.2287,-0.79963 -0.5512,-0.43657 -1.08285,-0.79375 -1.18145,-0.79375 -0.0986,0 -0.34522,-0.14883 -0.54805,-0.33073 -0.78381,-0.70291 -1.1641,-0.99219 -1.30433,-0.99219 -0.0802,0 -0.60691,-0.32742 -1.17055,-0.72761 -0.56364,-0.40018 -1.24722,-0.87264 -1.51906,-1.04991 -0.27185,-0.17727 -1.39113,-0.95118 -2.48729,-1.71979 -1.09616,-0.76862 -3.05765,-2.11186 -4.35887,-2.98498 -1.30122,-0.87313 -2.48795,-1.68513 -2.63719,-1.80446 -0.14923,-0.11933 -1.81914,-1.26362 -3.71092,-2.54287 l -3.43958,-2.32591 -0.0679,-18.96652 c -0.0745,-20.80253 0.0238,-19.54323 -1.63762,-20.98354 -0.67104,-0.58173 -0.74425,-0.58586 -10.542172,-0.59531 -9.77417,-0.009 -9.873849,-0.004 -10.658106,0.57578 -1.568063,1.15932 -1.568161,1.1601 -1.568161,12.55223 0,5.72571 -0.05885,10.41039 -0.130779,10.41039 -0.140411,0 -5.479568,-3.60823 -7.014016,-4.7401 -0.509898,-0.37612 -1.128428,-0.80292 -1.374513,-0.94844 -0.246083,-0.14552 -1.97202,-1.32732 -3.835413,-2.62621 -3.586718,-2.50015 -8.454316,-5.83852 -9.480287,-6.50192 -0.337581,-0.21828 -1.456399,-0.98344 -2.486264,-1.70035 l -1.87248,-1.30347 v -6.34955 c 0,-6.12664 0.02392,-6.41992 0.681225,-8.35382 1.47849,-4.34994 4.131903,-8.29485 7.140458,-10.61594 1.837338,-1.41749 2.037208,-1.53397 5.407484,-3.15119 0.791716,-0.3799 3.359734,-1.02776 5.711366,-1.44087 2.134663,-0.37498 7.190081,-0.42245 45.111458,-0.42354 38.13394,-0.001 42.94823,0.0443 44.95635,0.42428 5.76785,1.09128 9.11484,2.66078 12.19222,5.71728 2.6522,2.63421 4.31094,5.07516 5.26668,7.7503 0.10398,0.29104 0.34133,0.94588 0.52744,1.4552 0.18611,0.50933 0.4588,1.64042 0.60597,2.51355 0.25926,1.5381 0.55255,68.59755 0.3953,90.382 l -0.0699,9.68408 z"
       id="path248" /></g></svg>
